G75*
%MOIN*%
%OFA0B0*%
%FSLAX24Y24*%
%IPPOS*%
%LPD*%
%AMOC8*
5,1,8,0,0,1.08239X$1,22.5*
%
%ADD10C,0.0000*%
%ADD11C,0.0080*%
%ADD12C,0.0100*%
%ADD13C,0.0060*%
%ADD14C,0.0040*%
D10*
X000100Y000100D02*
X000100Y021060D01*
X023100Y021060D01*
X023100Y000100D01*
X000100Y000100D01*
X010671Y017547D02*
X010673Y017607D01*
X010679Y017668D01*
X010689Y017727D01*
X010703Y017786D01*
X010720Y017844D01*
X010741Y017901D01*
X010766Y017956D01*
X010795Y018009D01*
X010827Y018061D01*
X010862Y018110D01*
X010901Y018157D01*
X010942Y018201D01*
X010986Y018242D01*
X011033Y018281D01*
X011082Y018316D01*
X011133Y018348D01*
X011187Y018377D01*
X011242Y018402D01*
X011299Y018423D01*
X011357Y018440D01*
X011416Y018454D01*
X011475Y018464D01*
X011536Y018470D01*
X011596Y018472D01*
X011656Y018470D01*
X011717Y018464D01*
X011776Y018454D01*
X011835Y018440D01*
X011893Y018423D01*
X011950Y018402D01*
X012005Y018377D01*
X012058Y018348D01*
X012110Y018316D01*
X012159Y018281D01*
X012206Y018242D01*
X012250Y018201D01*
X012291Y018157D01*
X012330Y018110D01*
X012365Y018061D01*
X012397Y018010D01*
X012426Y017956D01*
X012451Y017901D01*
X012472Y017844D01*
X012489Y017786D01*
X012503Y017727D01*
X012513Y017668D01*
X012519Y017607D01*
X012521Y017547D01*
X012519Y017487D01*
X012513Y017426D01*
X012503Y017367D01*
X012489Y017308D01*
X012472Y017250D01*
X012451Y017193D01*
X012426Y017138D01*
X012397Y017085D01*
X012365Y017033D01*
X012330Y016984D01*
X012291Y016937D01*
X012250Y016893D01*
X012206Y016852D01*
X012159Y016813D01*
X012110Y016778D01*
X012059Y016746D01*
X012005Y016717D01*
X011950Y016692D01*
X011893Y016671D01*
X011835Y016654D01*
X011776Y016640D01*
X011717Y016630D01*
X011656Y016624D01*
X011596Y016622D01*
X011536Y016624D01*
X011475Y016630D01*
X011416Y016640D01*
X011357Y016654D01*
X011299Y016671D01*
X011242Y016692D01*
X011187Y016717D01*
X011134Y016746D01*
X011082Y016778D01*
X011033Y016813D01*
X010986Y016852D01*
X010942Y016893D01*
X010901Y016937D01*
X010862Y016984D01*
X010827Y017033D01*
X010795Y017084D01*
X010766Y017138D01*
X010741Y017193D01*
X010720Y017250D01*
X010703Y017308D01*
X010689Y017367D01*
X010679Y017426D01*
X010673Y017487D01*
X010671Y017547D01*
D11*
X008060Y016645D02*
X007920Y016505D01*
X007990Y016324D02*
X008060Y016254D01*
X008060Y016114D01*
X007990Y016044D01*
X007920Y016044D01*
X007850Y016114D01*
X007850Y016254D01*
X007780Y016324D01*
X007710Y016324D01*
X007640Y016254D01*
X007640Y016114D01*
X007710Y016044D01*
X007640Y016505D02*
X007640Y016785D01*
X007640Y016645D02*
X008060Y016645D01*
X006553Y014285D02*
X006483Y014285D01*
X006203Y014005D01*
X006203Y014285D01*
X006553Y014285D02*
X006623Y014215D01*
X006623Y014075D01*
X006553Y014005D01*
X006553Y013824D02*
X006623Y013754D01*
X006623Y013614D01*
X006553Y013544D01*
X006483Y013544D01*
X006413Y013614D01*
X006413Y013754D01*
X006343Y013824D01*
X006273Y013824D01*
X006203Y013754D01*
X006203Y013614D01*
X006273Y013544D01*
X006335Y011410D02*
X006265Y011340D01*
X006265Y011200D01*
X006335Y011130D01*
X006335Y010949D02*
X006265Y010879D01*
X006265Y010739D01*
X006335Y010669D01*
X006475Y010739D02*
X006475Y010879D01*
X006405Y010949D01*
X006335Y010949D01*
X006475Y010739D02*
X006545Y010669D01*
X006615Y010669D01*
X006685Y010739D01*
X006685Y010879D01*
X006615Y010949D01*
X006615Y011130D02*
X006685Y011200D01*
X006685Y011340D01*
X006615Y011410D01*
X006545Y011410D01*
X006475Y011340D01*
X006405Y011410D01*
X006335Y011410D01*
X006475Y011340D02*
X006475Y011270D01*
X010743Y011660D02*
X010903Y011500D01*
X010823Y011660D02*
X010743Y011660D01*
X010743Y011740D01*
X010823Y011740D01*
X010823Y011660D01*
X011099Y011660D02*
X011339Y011660D01*
X011419Y011740D01*
X011419Y011980D01*
X011609Y011980D02*
X011849Y011820D01*
X011609Y011660D01*
X011849Y011660D02*
X011849Y012140D01*
X012044Y011980D02*
X012284Y011980D01*
X012364Y011900D01*
X012364Y011740D01*
X012284Y011660D01*
X012044Y011660D01*
X012112Y011300D02*
X011952Y011300D01*
X011872Y011220D01*
X012193Y010900D01*
X012112Y010820D01*
X011952Y010820D01*
X011872Y010900D01*
X011872Y011220D01*
X011677Y011220D02*
X011597Y011300D01*
X011437Y011300D01*
X011357Y011220D01*
X011677Y010900D01*
X011597Y010820D01*
X011437Y010820D01*
X011357Y010900D01*
X011357Y011220D01*
X011161Y011220D02*
X011081Y011300D01*
X010921Y011300D01*
X010841Y011220D01*
X011161Y010900D01*
X011081Y010820D01*
X010921Y010820D01*
X010841Y010900D01*
X010841Y011220D01*
X011179Y011500D02*
X011099Y011580D01*
X011099Y011980D01*
X011179Y011500D02*
X011259Y011500D01*
X011161Y011220D02*
X011161Y010900D01*
X011677Y010900D02*
X011677Y011220D01*
X012112Y011300D02*
X012193Y011220D01*
X012193Y010900D01*
X012388Y010820D02*
X012708Y010820D01*
X012708Y011300D01*
X012388Y011300D01*
X012548Y011060D02*
X012708Y011060D01*
X012904Y010980D02*
X012984Y011060D01*
X013144Y011060D01*
X013224Y011140D01*
X013224Y011220D01*
X013144Y011300D01*
X012984Y011300D01*
X012904Y011220D01*
X013064Y011380D02*
X013064Y010740D01*
X013144Y010820D02*
X012984Y010820D01*
X012904Y010900D01*
X012904Y010980D01*
X013144Y010820D02*
X013224Y010900D01*
X013739Y010460D02*
X013739Y009980D01*
X013739Y010220D02*
X013659Y010300D01*
X013499Y010300D01*
X013419Y010220D01*
X013419Y009980D01*
X013224Y010060D02*
X013224Y010300D01*
X013224Y010060D02*
X013144Y009980D01*
X012904Y009980D01*
X012904Y010300D01*
X012708Y010220D02*
X012708Y010060D01*
X012628Y009980D01*
X012388Y009980D01*
X012193Y009980D02*
X012193Y010460D01*
X012388Y010300D02*
X012628Y010300D01*
X012708Y010220D01*
X012193Y010140D02*
X011952Y010300D01*
X011763Y010300D02*
X011763Y010060D01*
X011683Y009980D01*
X011443Y009980D01*
X011443Y009900D02*
X011523Y009820D01*
X011603Y009820D01*
X011443Y009900D02*
X011443Y010300D01*
X011167Y010060D02*
X011167Y009980D01*
X011087Y009980D01*
X011087Y010060D01*
X011167Y010060D01*
X011087Y009980D02*
X011247Y009820D01*
X011081Y009620D02*
X010921Y009620D01*
X010841Y009540D01*
X011161Y009220D01*
X011081Y009140D01*
X010921Y009140D01*
X010841Y009220D01*
X010841Y009540D01*
X011081Y009620D02*
X011161Y009540D01*
X011161Y009220D01*
X011357Y009220D02*
X011437Y009140D01*
X011597Y009140D01*
X011677Y009220D01*
X011357Y009540D01*
X011357Y009220D01*
X011677Y009220D02*
X011677Y009540D01*
X011597Y009620D01*
X011437Y009620D01*
X011357Y009540D01*
X011872Y009540D02*
X011872Y009220D01*
X011952Y009140D01*
X012112Y009140D01*
X012193Y009220D01*
X011872Y009540D01*
X011952Y009620D01*
X012112Y009620D01*
X012193Y009540D01*
X012193Y009220D01*
X012388Y009220D02*
X012468Y009140D01*
X012628Y009140D01*
X012708Y009220D01*
X012388Y009540D01*
X012388Y009220D01*
X012708Y009220D02*
X012708Y009540D01*
X012628Y009620D01*
X012468Y009620D01*
X012388Y009540D01*
X012904Y009540D02*
X012984Y009620D01*
X013144Y009620D01*
X013224Y009540D01*
X013224Y009460D01*
X013144Y009380D01*
X012984Y009380D01*
X012904Y009300D01*
X012904Y009220D01*
X012984Y009140D01*
X013144Y009140D01*
X013224Y009220D01*
X013064Y009060D02*
X013064Y009700D01*
X013923Y009460D02*
X014083Y009460D01*
X014003Y009540D02*
X014003Y009220D01*
X013923Y009140D01*
X014279Y009140D02*
X014279Y009380D01*
X014359Y009460D01*
X014519Y009460D01*
X014519Y009300D02*
X014279Y009300D01*
X014279Y009140D02*
X014519Y009140D01*
X014599Y009220D01*
X014519Y009300D01*
X015310Y009220D02*
X015390Y009300D01*
X015550Y009300D01*
X015630Y009380D01*
X015550Y009460D01*
X015310Y009460D01*
X015310Y009220D02*
X015390Y009140D01*
X015630Y009140D01*
X015814Y009140D02*
X015894Y009220D01*
X015894Y009540D01*
X015974Y009460D02*
X015814Y009460D01*
X016163Y009460D02*
X016243Y009460D01*
X016404Y009300D01*
X016404Y009140D02*
X016404Y009460D01*
X016599Y009380D02*
X016599Y009140D01*
X016839Y009140D01*
X016919Y009220D01*
X016839Y009300D01*
X016599Y009300D01*
X016599Y009380D02*
X016679Y009460D01*
X016839Y009460D01*
X017103Y009460D02*
X017263Y009460D01*
X017183Y009540D02*
X017183Y009220D01*
X017103Y009140D01*
X017458Y009220D02*
X017538Y009300D01*
X017699Y009300D01*
X017779Y009380D01*
X017699Y009460D01*
X017458Y009460D01*
X017458Y009220D02*
X017538Y009140D01*
X017779Y009140D01*
X017790Y009980D02*
X017951Y009980D01*
X017870Y009980D02*
X017870Y010300D01*
X017951Y010300D01*
X017870Y010460D02*
X017870Y010540D01*
X017779Y010820D02*
X017538Y010820D01*
X017458Y010900D01*
X017538Y010980D01*
X017699Y010980D01*
X017779Y011060D01*
X017699Y011140D01*
X017458Y011140D01*
X017263Y011140D02*
X017103Y011140D01*
X017183Y011220D02*
X017183Y010900D01*
X017103Y010820D01*
X016919Y010900D02*
X016839Y010980D01*
X016599Y010980D01*
X016599Y011060D02*
X016599Y010820D01*
X016839Y010820D01*
X016919Y010900D01*
X016839Y011140D02*
X016679Y011140D01*
X016599Y011060D01*
X016404Y010980D02*
X016243Y011140D01*
X016163Y011140D01*
X015974Y011140D02*
X015814Y011140D01*
X015894Y011220D02*
X015894Y010900D01*
X015814Y010820D01*
X015630Y010820D02*
X015390Y010820D01*
X015310Y010900D01*
X015390Y010980D01*
X015550Y010980D01*
X015630Y011060D01*
X015550Y011140D01*
X015310Y011140D01*
X015292Y011660D02*
X015052Y011660D01*
X015052Y011900D01*
X015132Y011980D01*
X015292Y011980D01*
X015292Y011820D02*
X015052Y011820D01*
X014857Y011820D02*
X014697Y011980D01*
X014616Y011980D01*
X014427Y011900D02*
X014427Y011740D01*
X014347Y011660D01*
X014107Y011660D01*
X014107Y012140D01*
X014107Y011980D02*
X014347Y011980D01*
X014427Y011900D01*
X014857Y011980D02*
X014857Y011660D01*
X015292Y011660D02*
X015372Y011740D01*
X015292Y011820D01*
X015568Y011660D02*
X015568Y012140D01*
X015568Y011980D02*
X015808Y011980D01*
X015888Y011900D01*
X015888Y011740D01*
X015808Y011660D01*
X015568Y011660D01*
X016083Y011660D02*
X016083Y011900D01*
X016163Y011980D01*
X016404Y011980D01*
X016404Y011660D01*
X016599Y011660D02*
X016599Y011900D01*
X016679Y011980D01*
X016839Y011980D01*
X016839Y011820D02*
X016599Y011820D01*
X016599Y011660D02*
X016839Y011660D01*
X016919Y011740D01*
X016839Y011820D01*
X017103Y011660D02*
X017183Y011740D01*
X017183Y012060D01*
X017263Y011980D02*
X017103Y011980D01*
X017458Y011980D02*
X017699Y011980D01*
X017779Y011900D01*
X017699Y011820D01*
X017538Y011820D01*
X017458Y011740D01*
X017538Y011660D01*
X017779Y011660D01*
X018490Y011900D02*
X018810Y011900D01*
X019521Y011740D02*
X019521Y012060D01*
X019601Y012140D01*
X019841Y012140D01*
X019841Y011660D01*
X019601Y011660D01*
X019521Y011740D01*
X020037Y012140D02*
X020357Y012140D01*
X020197Y012140D02*
X020197Y011660D01*
X020552Y011740D02*
X020632Y011660D01*
X020792Y011660D01*
X020873Y011740D01*
X020792Y011900D02*
X020632Y011900D01*
X020552Y011820D01*
X020552Y011740D01*
X020792Y011900D02*
X020873Y011980D01*
X020873Y012060D01*
X020792Y012140D01*
X020632Y012140D01*
X020552Y012060D01*
X020529Y010460D02*
X020208Y009980D01*
X020208Y010460D01*
X020013Y010460D02*
X020013Y010140D01*
X019853Y009980D01*
X019693Y010140D01*
X019693Y010460D01*
X018982Y010220D02*
X018662Y010220D01*
X017607Y010300D02*
X017607Y009980D01*
X017607Y010300D02*
X017367Y010300D01*
X017287Y010220D01*
X017287Y009980D01*
X016931Y009980D02*
X017091Y010300D01*
X016771Y010300D02*
X016931Y009980D01*
X016576Y010060D02*
X016576Y010220D01*
X016495Y010300D01*
X016335Y010300D01*
X016255Y010220D01*
X016255Y010140D01*
X016576Y010140D01*
X016576Y010060D02*
X016495Y009980D01*
X016335Y009980D01*
X016060Y009980D02*
X016060Y010300D01*
X016060Y010140D02*
X015900Y010300D01*
X015820Y010300D01*
X015630Y010300D02*
X015470Y010300D01*
X015550Y010380D02*
X015550Y010060D01*
X015470Y009980D01*
X015286Y010060D02*
X015286Y010220D01*
X015206Y010300D01*
X015046Y010300D01*
X014966Y010220D01*
X014966Y010140D01*
X015286Y010140D01*
X015286Y010060D02*
X015206Y009980D01*
X015046Y009980D01*
X014771Y010060D02*
X014771Y010220D01*
X014691Y010300D01*
X014450Y010300D01*
X014450Y010460D02*
X014450Y009980D01*
X014691Y009980D01*
X014771Y010060D01*
X014519Y010820D02*
X014279Y010820D01*
X014279Y011060D01*
X014359Y011140D01*
X014519Y011140D01*
X014519Y010980D02*
X014279Y010980D01*
X014519Y010980D02*
X014599Y010900D01*
X014519Y010820D01*
X014003Y010900D02*
X014003Y011220D01*
X014083Y011140D02*
X013923Y011140D01*
X014003Y010900D02*
X013923Y010820D01*
X013396Y011660D02*
X013396Y012140D01*
X013316Y011980D02*
X013156Y011980D01*
X013075Y011900D01*
X013075Y011660D01*
X012880Y011740D02*
X012880Y011980D01*
X012880Y011740D02*
X012800Y011660D01*
X012560Y011660D01*
X012560Y011980D01*
X013316Y011980D02*
X013396Y011900D01*
X012193Y010140D02*
X011952Y009980D01*
X013429Y006620D02*
X013349Y006540D01*
X013349Y006460D01*
X013429Y006380D01*
X013349Y006300D01*
X013349Y006220D01*
X013429Y006140D01*
X013589Y006140D01*
X013669Y006220D01*
X013865Y006220D02*
X013945Y006140D01*
X014105Y006140D01*
X014185Y006220D01*
X014105Y006380D02*
X013945Y006380D01*
X013865Y006300D01*
X013865Y006220D01*
X014105Y006380D02*
X014185Y006460D01*
X014185Y006540D01*
X014105Y006620D01*
X013945Y006620D01*
X013865Y006540D01*
X013669Y006540D02*
X013589Y006620D01*
X013429Y006620D01*
X013429Y006380D02*
X013509Y006380D01*
X013324Y005683D02*
X013164Y005683D01*
X013083Y005603D01*
X013083Y005523D01*
X013164Y005443D01*
X013083Y005363D01*
X013083Y005283D01*
X013164Y005203D01*
X013324Y005203D01*
X013404Y005283D01*
X013244Y005443D02*
X013164Y005443D01*
X013404Y005603D02*
X013324Y005683D01*
X013599Y005443D02*
X013919Y005443D01*
X014115Y005523D02*
X014115Y005603D01*
X014195Y005683D01*
X014355Y005683D01*
X014435Y005603D01*
X014115Y005523D02*
X014435Y005203D01*
X014115Y005203D01*
X014275Y004745D02*
X014275Y004265D01*
X014435Y004265D02*
X014115Y004265D01*
X013919Y004505D02*
X013599Y004505D01*
X013404Y004665D02*
X013324Y004745D01*
X013164Y004745D01*
X013083Y004665D01*
X013083Y004585D01*
X013404Y004265D01*
X013083Y004265D01*
X014275Y004745D02*
X014435Y004585D01*
X015021Y004585D02*
X015021Y004665D01*
X015101Y004745D01*
X015261Y004745D01*
X015341Y004665D01*
X015537Y004505D02*
X015857Y004505D01*
X016052Y004265D02*
X016373Y004265D01*
X016212Y004265D02*
X016212Y004745D01*
X016373Y004585D01*
X016958Y004585D02*
X016958Y004665D01*
X017039Y004745D01*
X017199Y004745D01*
X017279Y004665D01*
X017474Y004505D02*
X017794Y004505D01*
X017990Y004265D02*
X018310Y004265D01*
X018150Y004265D02*
X018150Y004745D01*
X018310Y004585D01*
X018310Y005203D02*
X017990Y005203D01*
X017794Y005443D02*
X017474Y005443D01*
X017279Y005603D02*
X017199Y005683D01*
X017039Y005683D01*
X016958Y005603D01*
X016958Y005523D01*
X017039Y005443D01*
X016958Y005363D01*
X016958Y005283D01*
X017039Y005203D01*
X017199Y005203D01*
X017279Y005283D01*
X017119Y005443D02*
X017039Y005443D01*
X016373Y005603D02*
X016292Y005683D01*
X016132Y005683D01*
X016052Y005603D01*
X016052Y005523D01*
X016373Y005203D01*
X016052Y005203D01*
X015857Y005443D02*
X015537Y005443D01*
X015341Y005603D02*
X015261Y005683D01*
X015101Y005683D01*
X015021Y005603D01*
X015021Y005523D01*
X015101Y005443D01*
X015021Y005363D01*
X015021Y005283D01*
X015101Y005203D01*
X015261Y005203D01*
X015341Y005283D01*
X015181Y005443D02*
X015101Y005443D01*
X015287Y006140D02*
X015607Y006140D01*
X015287Y006460D01*
X015287Y006540D01*
X015367Y006620D01*
X015527Y006620D01*
X015607Y006540D01*
X015802Y006540D02*
X015882Y006620D01*
X016042Y006620D01*
X016123Y006540D01*
X016123Y006460D01*
X016042Y006380D01*
X015882Y006380D01*
X015802Y006300D01*
X015802Y006220D01*
X015882Y006140D01*
X016042Y006140D01*
X016123Y006220D01*
X017224Y006140D02*
X017544Y006140D01*
X017384Y006140D02*
X017384Y006620D01*
X017544Y006460D01*
X017740Y006540D02*
X017820Y006620D01*
X017980Y006620D01*
X018060Y006540D01*
X018060Y006460D01*
X017980Y006380D01*
X017820Y006380D01*
X017740Y006300D01*
X017740Y006220D01*
X017820Y006140D01*
X017980Y006140D01*
X018060Y006220D01*
X018070Y005683D02*
X018230Y005683D01*
X018310Y005603D01*
X018070Y005683D02*
X017990Y005603D01*
X017990Y005523D01*
X018310Y005203D01*
X018833Y005283D02*
X018833Y005603D01*
X018914Y005683D01*
X019154Y005683D01*
X019154Y005203D01*
X018914Y005203D01*
X018833Y005283D01*
X018943Y004745D02*
X018943Y004425D01*
X019103Y004265D01*
X019263Y004425D01*
X019263Y004745D01*
X019458Y004745D02*
X019458Y004265D01*
X019779Y004745D01*
X019779Y004265D01*
X019962Y004265D02*
X020123Y004265D01*
X020042Y004265D02*
X020042Y004745D01*
X019962Y004745D02*
X020123Y004745D01*
X020105Y005203D02*
X019945Y005203D01*
X019865Y005283D01*
X019865Y005363D01*
X019945Y005443D01*
X020105Y005443D01*
X020185Y005523D01*
X020185Y005603D01*
X020105Y005683D01*
X019945Y005683D01*
X019865Y005603D01*
X019669Y005683D02*
X019349Y005683D01*
X019509Y005683D02*
X019509Y005203D01*
X020105Y005203D02*
X020185Y005283D01*
X017279Y004265D02*
X016958Y004585D01*
X016958Y004265D02*
X017279Y004265D01*
X015341Y004265D02*
X015021Y004585D01*
X015021Y004265D02*
X015341Y004265D01*
X020529Y009980D02*
X020529Y010460D01*
X020712Y010460D02*
X020873Y010460D01*
X020792Y010460D02*
X020792Y009980D01*
X020712Y009980D02*
X020873Y009980D01*
X016404Y010820D02*
X016404Y011140D01*
D12*
X016663Y006663D02*
X016663Y004225D01*
X014725Y004225D02*
X014725Y006663D01*
X012975Y005913D02*
X020225Y005913D01*
X020225Y004975D02*
X012975Y004975D01*
X011486Y004523D02*
X011486Y003963D01*
X011112Y003963D02*
X011112Y004523D01*
X011299Y004336D01*
X011486Y004523D01*
X018600Y004225D02*
X018600Y006663D01*
X022051Y004523D02*
X022051Y004430D01*
X022425Y004056D01*
X022425Y003963D01*
X022051Y003963D01*
X022051Y004523D02*
X022425Y004523D01*
X001155Y004336D02*
X001155Y003963D01*
X000781Y003963D02*
X000781Y004336D01*
X000968Y004523D01*
X001155Y004336D01*
X001155Y004243D02*
X000781Y004243D01*
D13*
X006925Y009900D02*
X007525Y009900D01*
X007542Y009902D01*
X007559Y009906D01*
X007575Y009913D01*
X007589Y009923D01*
X007602Y009936D01*
X007612Y009950D01*
X007619Y009966D01*
X007623Y009983D01*
X007625Y010000D01*
X007625Y011700D01*
X007623Y011717D01*
X007619Y011734D01*
X007612Y011750D01*
X007602Y011764D01*
X007589Y011777D01*
X007575Y011787D01*
X007559Y011794D01*
X007542Y011798D01*
X007525Y011800D01*
X006925Y011800D01*
X006908Y011798D01*
X006891Y011794D01*
X006875Y011787D01*
X006861Y011777D01*
X006848Y011764D01*
X006838Y011750D01*
X006831Y011734D01*
X006827Y011717D01*
X006825Y011700D01*
X006825Y010000D01*
X006827Y009983D01*
X006831Y009966D01*
X006838Y009950D01*
X006848Y009936D01*
X006861Y009923D01*
X006875Y009913D01*
X006891Y009906D01*
X006908Y009902D01*
X006925Y009900D01*
X006863Y012775D02*
X007463Y012775D01*
X007480Y012777D01*
X007497Y012781D01*
X007513Y012788D01*
X007527Y012798D01*
X007540Y012811D01*
X007550Y012825D01*
X007557Y012841D01*
X007561Y012858D01*
X007563Y012875D01*
X007563Y014575D01*
X007561Y014592D01*
X007557Y014609D01*
X007550Y014625D01*
X007540Y014639D01*
X007527Y014652D01*
X007513Y014662D01*
X007497Y014669D01*
X007480Y014673D01*
X007463Y014675D01*
X006863Y014675D01*
X006846Y014673D01*
X006829Y014669D01*
X006813Y014662D01*
X006799Y014652D01*
X006786Y014639D01*
X006776Y014625D01*
X006769Y014609D01*
X006765Y014592D01*
X006763Y014575D01*
X006763Y012875D01*
X006765Y012858D01*
X006769Y012841D01*
X006776Y012825D01*
X006786Y012811D01*
X006799Y012798D01*
X006813Y012788D01*
X006829Y012781D01*
X006846Y012777D01*
X006863Y012775D01*
X008300Y015275D02*
X008900Y015275D01*
X008917Y015277D01*
X008934Y015281D01*
X008950Y015288D01*
X008964Y015298D01*
X008977Y015311D01*
X008987Y015325D01*
X008994Y015341D01*
X008998Y015358D01*
X009000Y015375D01*
X009000Y017075D01*
X008998Y017092D01*
X008994Y017109D01*
X008987Y017125D01*
X008977Y017139D01*
X008964Y017152D01*
X008950Y017162D01*
X008934Y017169D01*
X008917Y017173D01*
X008900Y017175D01*
X008300Y017175D01*
X008283Y017173D01*
X008266Y017169D01*
X008250Y017162D01*
X008236Y017152D01*
X008223Y017139D01*
X008213Y017125D01*
X008206Y017109D01*
X008202Y017092D01*
X008200Y017075D01*
X008200Y015375D01*
X008202Y015358D01*
X008206Y015341D01*
X008213Y015325D01*
X008223Y015311D01*
X008236Y015298D01*
X008250Y015288D01*
X008266Y015281D01*
X008283Y015277D01*
X008300Y015275D01*
D14*
X009113Y015459D02*
X009113Y015646D01*
X009113Y015553D02*
X009393Y015553D01*
X009299Y015459D01*
X009346Y016049D02*
X009393Y016095D01*
X009393Y016189D01*
X009346Y016235D01*
X009299Y016235D01*
X009113Y016049D01*
X009113Y016235D01*
X009159Y016638D02*
X009113Y016685D01*
X009113Y016778D01*
X009159Y016825D01*
X009206Y016825D01*
X009253Y016778D01*
X009253Y016731D01*
X009253Y016778D02*
X009299Y016825D01*
X009346Y016825D01*
X009393Y016778D01*
X009393Y016685D01*
X009346Y016638D01*
X007909Y014325D02*
X007862Y014325D01*
X007815Y014278D01*
X007768Y014325D01*
X007722Y014325D01*
X007675Y014278D01*
X007675Y014185D01*
X007722Y014138D01*
X007815Y014231D02*
X007815Y014278D01*
X007909Y014325D02*
X007955Y014278D01*
X007955Y014185D01*
X007909Y014138D01*
X007909Y013735D02*
X007862Y013735D01*
X007675Y013549D01*
X007675Y013735D01*
X007909Y013735D02*
X007955Y013689D01*
X007955Y013595D01*
X007909Y013549D01*
X007675Y013146D02*
X007675Y012959D01*
X007675Y013053D02*
X007955Y013053D01*
X007862Y012959D01*
X007831Y011450D02*
X007784Y011450D01*
X007738Y011403D01*
X007738Y011310D01*
X007784Y011263D01*
X007878Y011356D02*
X007878Y011403D01*
X007831Y011450D01*
X007878Y011403D02*
X007924Y011450D01*
X007971Y011450D01*
X008018Y011403D01*
X008018Y011310D01*
X007971Y011263D01*
X007971Y010860D02*
X008018Y010814D01*
X008018Y010720D01*
X007971Y010674D01*
X007971Y010860D02*
X007924Y010860D01*
X007738Y010674D01*
X007738Y010860D01*
X007738Y010271D02*
X007738Y010084D01*
X007738Y010178D02*
X008018Y010178D01*
X007924Y010084D01*
M02*
