%
M48
M72
T01C0.0197
T02C0.0320
T03C0.0354
T04C0.1850
%
T01
X4163Y4225
X6225Y4475
X7913Y4038
X7975Y4725
X8913Y4913
X10100Y4538
X10663Y4663
X6975Y8288
X3850Y6350
X1600Y5788
X2288Y14350
X6475Y15288
X7663Y16475
X9663Y15600
X12100Y12788
X12913Y14975
X16100Y14413
X16225Y17600
X12225Y19288
X21538Y11225
X22225Y15663
X21975Y5725
X20600Y5538
T02
X20600Y7600
X19600Y7600
X18600Y7600
X17600Y7600
X16600Y7600
X15600Y7600
X14600Y7600
X13600Y7600
X12600Y7600
X11600Y7600
X10600Y7600
X9600Y7600
X8600Y7600
X7350Y5850
X5288Y7100
X5288Y8100
X5288Y9100
X5288Y10100
X5288Y11100
X5288Y12100
X5288Y13100
X2288Y13100
X2288Y12100
X2288Y11100
X2288Y10100
X2288Y9100
X2288Y8100
X2288Y7100
X3350Y5850
X8600Y13600
X9600Y13600
X10600Y13600
X11600Y13600
X12600Y13600
X13600Y13600
X14600Y13600
X15600Y13600
X16600Y13600
X17600Y13600
X18600Y13600
X19600Y13600
X20600Y13600
X21600Y13600
X21600Y16538
X20600Y16538
X19600Y16538
X18600Y16538
X17600Y16538
X16600Y16538
X15600Y16538
X14600Y16538
X14600Y19538
X15600Y19538
X16600Y19538
X17600Y19538
X18600Y19538
X19600Y19538
X20600Y19538
X21600Y19538
X10288Y19913
X10288Y18913
X10163Y16850
X6163Y16850
X21600Y7600
T03
X4475Y15413
X2475Y15413
T04
X11596Y17547
M30
