G75*
%MOIN*%
%OFA0B0*%
%FSLAX24Y24*%
%IPPOS*%
%LPD*%
%AMOC8*
5,1,8,0,0,1.08239X$1,22.5*
%
%ADD10C,0.0000*%
%ADD11OC8,0.0560*%
%ADD12C,0.0480*%
%ADD13R,0.0748X0.3150*%
%ADD14C,0.0320*%
%ADD15C,0.0100*%
%ADD16C,0.0317*%
%ADD17C,0.0240*%
%ADD18C,0.0200*%
D10*
X000100Y000100D02*
X000100Y021060D01*
X023100Y021060D01*
X023100Y000100D01*
X000100Y000100D01*
X010671Y017547D02*
X010673Y017607D01*
X010679Y017668D01*
X010689Y017727D01*
X010703Y017786D01*
X010720Y017844D01*
X010741Y017901D01*
X010766Y017956D01*
X010795Y018009D01*
X010827Y018061D01*
X010862Y018110D01*
X010901Y018157D01*
X010942Y018201D01*
X010986Y018242D01*
X011033Y018281D01*
X011082Y018316D01*
X011133Y018348D01*
X011187Y018377D01*
X011242Y018402D01*
X011299Y018423D01*
X011357Y018440D01*
X011416Y018454D01*
X011475Y018464D01*
X011536Y018470D01*
X011596Y018472D01*
X011656Y018470D01*
X011717Y018464D01*
X011776Y018454D01*
X011835Y018440D01*
X011893Y018423D01*
X011950Y018402D01*
X012005Y018377D01*
X012058Y018348D01*
X012110Y018316D01*
X012159Y018281D01*
X012206Y018242D01*
X012250Y018201D01*
X012291Y018157D01*
X012330Y018110D01*
X012365Y018061D01*
X012397Y018010D01*
X012426Y017956D01*
X012451Y017901D01*
X012472Y017844D01*
X012489Y017786D01*
X012503Y017727D01*
X012513Y017668D01*
X012519Y017607D01*
X012521Y017547D01*
X012519Y017487D01*
X012513Y017426D01*
X012503Y017367D01*
X012489Y017308D01*
X012472Y017250D01*
X012451Y017193D01*
X012426Y017138D01*
X012397Y017085D01*
X012365Y017033D01*
X012330Y016984D01*
X012291Y016937D01*
X012250Y016893D01*
X012206Y016852D01*
X012159Y016813D01*
X012110Y016778D01*
X012059Y016746D01*
X012005Y016717D01*
X011950Y016692D01*
X011893Y016671D01*
X011835Y016654D01*
X011776Y016640D01*
X011717Y016630D01*
X011656Y016624D01*
X011596Y016622D01*
X011536Y016624D01*
X011475Y016630D01*
X011416Y016640D01*
X011357Y016654D01*
X011299Y016671D01*
X011242Y016692D01*
X011187Y016717D01*
X011134Y016746D01*
X011082Y016778D01*
X011033Y016813D01*
X010986Y016852D01*
X010942Y016893D01*
X010901Y016937D01*
X010862Y016984D01*
X010827Y017033D01*
X010795Y017084D01*
X010766Y017138D01*
X010741Y017193D01*
X010720Y017250D01*
X010703Y017308D01*
X010689Y017367D01*
X010679Y017426D01*
X010673Y017487D01*
X010671Y017547D01*
D11*
X010163Y016850D03*
X010288Y018913D03*
X010288Y019913D03*
X006163Y016850D03*
X004475Y015413D03*
X002475Y015413D03*
X003350Y005850D03*
X007350Y005850D03*
D12*
X008600Y007360D02*
X008600Y007840D01*
X009600Y007840D02*
X009600Y007360D01*
X010600Y007360D02*
X010600Y007840D01*
X011600Y007840D02*
X011600Y007360D01*
X012600Y007360D02*
X012600Y007840D01*
X013600Y007840D02*
X013600Y007360D01*
X014600Y007360D02*
X014600Y007840D01*
X015600Y007840D02*
X015600Y007360D01*
X016600Y007360D02*
X016600Y007840D01*
X017600Y007840D02*
X017600Y007360D01*
X018600Y007360D02*
X018600Y007840D01*
X019600Y007840D02*
X019600Y007360D01*
X020600Y007360D02*
X020600Y007840D01*
X021600Y007840D02*
X021600Y007360D01*
X021600Y013360D02*
X021600Y013840D01*
X020600Y013840D02*
X020600Y013360D01*
X019600Y013360D02*
X019600Y013840D01*
X018600Y013840D02*
X018600Y013360D01*
X017600Y013360D02*
X017600Y013840D01*
X016600Y013840D02*
X016600Y013360D01*
X015600Y013360D02*
X015600Y013840D01*
X014600Y013840D02*
X014600Y013360D01*
X013600Y013360D02*
X013600Y013840D01*
X012600Y013840D02*
X012600Y013360D01*
X011600Y013360D02*
X011600Y013840D01*
X010600Y013840D02*
X010600Y013360D01*
X009600Y013360D02*
X009600Y013840D01*
X008600Y013840D02*
X008600Y013360D01*
X005528Y013100D02*
X005048Y013100D01*
X005048Y012100D02*
X005528Y012100D01*
X005528Y011100D02*
X005048Y011100D01*
X005048Y010100D02*
X005528Y010100D01*
X005528Y009100D02*
X005048Y009100D01*
X005048Y008100D02*
X005528Y008100D01*
X005528Y007100D02*
X005048Y007100D01*
X002528Y007100D02*
X002048Y007100D01*
X002048Y008100D02*
X002528Y008100D01*
X002528Y009100D02*
X002048Y009100D01*
X002048Y010100D02*
X002528Y010100D01*
X002528Y011100D02*
X002048Y011100D01*
X002048Y012100D02*
X002528Y012100D01*
X002528Y013100D02*
X002048Y013100D01*
X014600Y016298D02*
X014600Y016778D01*
X015600Y016778D02*
X015600Y016298D01*
X016600Y016298D02*
X016600Y016778D01*
X017600Y016778D02*
X017600Y016298D01*
X018600Y016298D02*
X018600Y016778D01*
X019600Y016778D02*
X019600Y016298D01*
X020600Y016298D02*
X020600Y016778D01*
X021600Y016778D02*
X021600Y016298D01*
X021600Y019298D02*
X021600Y019778D01*
X020600Y019778D02*
X020600Y019298D01*
X019600Y019298D02*
X019600Y019778D01*
X018600Y019778D02*
X018600Y019298D01*
X017600Y019298D02*
X017600Y019778D01*
X016600Y019778D02*
X016600Y019298D01*
X015600Y019298D02*
X015600Y019778D01*
X014600Y019778D02*
X014600Y019298D01*
D13*
X014100Y001913D03*
X013100Y001913D03*
X012100Y001913D03*
X011100Y001913D03*
X010100Y001913D03*
X009100Y001913D03*
X008100Y001913D03*
X007100Y001913D03*
X006100Y001913D03*
X005100Y001913D03*
X004100Y001913D03*
X003100Y001913D03*
X002100Y001913D03*
X001100Y001913D03*
X015100Y001913D03*
X016100Y001913D03*
X017100Y001913D03*
X018100Y001913D03*
X019100Y001913D03*
X020100Y001913D03*
X021100Y001913D03*
X022100Y001913D03*
D14*
X022100Y003850D01*
X022725Y004475D01*
X022725Y007350D01*
X022475Y007600D01*
X021600Y007600D01*
X022725Y007350D02*
X022725Y016350D01*
X022538Y016538D01*
X021600Y016538D01*
X022725Y016350D02*
X022725Y020413D01*
X022475Y020663D01*
X000725Y020663D01*
X000475Y020413D01*
X000475Y015163D01*
X000725Y015413D01*
X002475Y015413D01*
X000475Y015163D02*
X000475Y006788D01*
X000788Y007100D01*
X002288Y007100D01*
X003350Y005850D02*
X003850Y006350D01*
X003350Y005850D02*
X003100Y005600D01*
X003100Y004350D01*
X002475Y004350D01*
X002100Y003975D01*
X002100Y001913D01*
X003100Y001913D02*
X003100Y004350D01*
X001100Y003850D02*
X000475Y004475D01*
X000475Y006788D01*
X001100Y003850D02*
X001100Y001913D01*
X005288Y013100D02*
X005288Y014600D01*
X004475Y015413D01*
X005288Y013100D02*
X008100Y013100D01*
X008600Y013600D01*
X008600Y015788D01*
X009663Y016850D01*
X010163Y016850D01*
X010225Y016850D01*
X010975Y016100D01*
X012225Y016100D01*
X013225Y017100D01*
X013225Y019038D01*
X013725Y019538D01*
X014600Y019538D01*
D15*
X015050Y019505D02*
X015150Y019505D01*
X015150Y019603D02*
X015050Y019603D01*
X015050Y019702D02*
X015150Y019702D01*
X015150Y019800D02*
X015050Y019800D01*
X015050Y019867D02*
X014981Y020032D01*
X014855Y020159D01*
X014690Y020227D01*
X014510Y020227D01*
X014345Y020159D01*
X014219Y020032D01*
X014167Y019907D01*
X013651Y019907D01*
X013515Y019851D01*
X012911Y019247D01*
X012855Y019111D01*
X012855Y017253D01*
X012686Y017084D01*
X012691Y017093D01*
X012771Y017392D01*
X012771Y017702D01*
X012691Y018000D01*
X012536Y018268D01*
X012318Y018487D01*
X012050Y018642D01*
X011751Y018722D01*
X011441Y018722D01*
X011142Y018642D01*
X010874Y018487D01*
X010656Y018268D01*
X010501Y018000D01*
X010421Y017702D01*
X010421Y017392D01*
X010460Y017245D01*
X010365Y017340D01*
X009960Y017340D01*
X009840Y017220D01*
X009589Y017220D01*
X009453Y017164D01*
X009349Y017060D01*
X008286Y015997D01*
X008230Y015861D01*
X008230Y014106D01*
X008219Y014095D01*
X008150Y013930D01*
X008150Y013673D01*
X007947Y013470D01*
X005794Y013470D01*
X005782Y013481D01*
X005657Y013533D01*
X005657Y014674D01*
X005601Y014810D01*
X005497Y014914D01*
X004965Y015446D01*
X004965Y015615D01*
X004748Y015833D01*
X007416Y015833D01*
X007537Y015883D01*
X007778Y016124D01*
X007871Y016163D01*
X007975Y016266D01*
X008031Y016402D01*
X008031Y016548D01*
X007975Y016684D01*
X007871Y016787D01*
X007736Y016843D01*
X007589Y016843D01*
X007454Y016787D01*
X007350Y016684D01*
X007312Y016591D01*
X007213Y016492D01*
X006498Y016492D01*
X006652Y016647D01*
X006652Y017053D01*
X006365Y017340D01*
X005960Y017340D01*
X005673Y017053D01*
X005673Y016647D01*
X005827Y016492D01*
X003909Y016492D01*
X003788Y016442D01*
X003320Y015974D01*
X003270Y015853D01*
X003270Y013049D01*
X003151Y012930D01*
X002944Y012930D01*
X002977Y013010D01*
X002977Y013190D01*
X002909Y013355D01*
X002782Y013481D01*
X002617Y013550D01*
X001958Y013550D01*
X001793Y013481D01*
X001666Y013355D01*
X001598Y013190D01*
X001598Y013010D01*
X001631Y012930D01*
X001534Y012930D01*
X001413Y012880D01*
X001133Y012599D01*
X001083Y012478D01*
X001083Y011284D01*
X001133Y011163D01*
X001226Y011070D01*
X001446Y010850D01*
X001133Y010537D01*
X001083Y010416D01*
X001083Y009784D01*
X001133Y009663D01*
X001226Y009570D01*
X001476Y009320D01*
X001597Y009270D01*
X001631Y009270D01*
X001598Y009190D01*
X001598Y009010D01*
X001666Y008845D01*
X001793Y008719D01*
X001958Y008650D01*
X002617Y008650D01*
X002782Y008719D01*
X002909Y008845D01*
X002977Y009010D01*
X002977Y009190D01*
X002944Y009270D01*
X004631Y009270D01*
X004598Y009190D01*
X004598Y009010D01*
X004666Y008845D01*
X004793Y008719D01*
X004958Y008650D01*
X005617Y008650D01*
X005782Y008719D01*
X005834Y008770D01*
X008478Y008770D01*
X008599Y008820D01*
X008779Y009000D01*
X008770Y008978D01*
X008770Y008284D01*
X008784Y008251D01*
X008690Y008290D01*
X008510Y008290D01*
X008345Y008221D01*
X008219Y008095D01*
X008150Y007930D01*
X005944Y007930D01*
X005977Y008010D01*
X005977Y008190D01*
X005909Y008355D01*
X005782Y008481D01*
X005617Y008550D01*
X004958Y008550D01*
X004793Y008481D01*
X004666Y008355D01*
X004598Y008190D01*
X004598Y008010D01*
X004631Y007930D01*
X003737Y007930D01*
X003380Y008287D01*
X003287Y008380D01*
X003166Y008430D01*
X002834Y008430D01*
X002782Y008481D01*
X002617Y008550D01*
X001958Y008550D01*
X001793Y008481D01*
X001666Y008355D01*
X001598Y008190D01*
X001598Y008010D01*
X001666Y007845D01*
X001793Y007719D01*
X001958Y007650D01*
X002617Y007650D01*
X002782Y007719D01*
X002834Y007770D01*
X002963Y007770D01*
X003320Y007413D01*
X003413Y007320D01*
X003534Y007270D01*
X004631Y007270D01*
X004598Y007190D01*
X004598Y007010D01*
X004666Y006845D01*
X004793Y006719D01*
X004958Y006650D01*
X005617Y006650D01*
X005782Y006719D01*
X005909Y006845D01*
X005977Y007010D01*
X005977Y007190D01*
X005944Y007270D01*
X008150Y007270D01*
X008219Y007105D01*
X008345Y006979D01*
X008510Y006910D01*
X008690Y006910D01*
X008790Y006952D01*
X008790Y006819D01*
X007840Y005869D01*
X007840Y006053D01*
X007553Y006340D01*
X007147Y006340D01*
X006860Y006053D01*
X006860Y005647D01*
X007147Y005360D01*
X007331Y005360D01*
X006820Y004849D01*
X006770Y004728D01*
X006770Y003725D01*
X003470Y003725D01*
X003470Y005360D01*
X003553Y005360D01*
X003840Y005647D01*
X003840Y005817D01*
X004164Y006140D01*
X004220Y006276D01*
X004220Y006424D01*
X004164Y006560D01*
X004060Y006664D01*
X003924Y006720D01*
X003776Y006720D01*
X003640Y006664D01*
X003317Y006340D01*
X003147Y006340D01*
X002860Y006053D01*
X002860Y005883D01*
X002786Y005810D01*
X002730Y005674D01*
X002730Y004720D01*
X002401Y004720D01*
X002265Y004664D01*
X002161Y004560D01*
X001786Y004185D01*
X001730Y004049D01*
X001730Y003725D01*
X000350Y003725D01*
X000350Y020810D01*
X000600Y020810D01*
X000600Y018225D01*
X003725Y018225D01*
X003725Y020538D01*
X000663Y020538D01*
X000663Y020810D01*
X022850Y020810D01*
X022850Y003725D01*
X021430Y003725D01*
X021430Y007008D01*
X021486Y006985D01*
X021562Y006970D01*
X021570Y006970D01*
X021570Y007570D01*
X021630Y007570D01*
X021630Y007630D01*
X021570Y007630D01*
X021570Y008230D01*
X021562Y008230D01*
X021486Y008215D01*
X021415Y008186D01*
X021410Y008182D01*
X021410Y008236D01*
X021430Y008284D01*
X021430Y008728D01*
X021380Y008849D01*
X021287Y008942D01*
X020724Y009505D01*
X020603Y009555D01*
X019097Y009555D01*
X019075Y009546D01*
X021880Y012351D01*
X021930Y012472D01*
X021930Y013054D01*
X021981Y013105D01*
X022050Y013270D01*
X022050Y013930D01*
X021981Y014095D01*
X021855Y014221D01*
X021690Y014290D01*
X021510Y014290D01*
X021345Y014221D01*
X021219Y014095D01*
X021150Y013930D01*
X021150Y013270D01*
X021219Y013105D01*
X021270Y013054D01*
X021270Y012674D01*
X017913Y009317D01*
X017820Y009224D01*
X017770Y009103D01*
X017770Y008284D01*
X017784Y008251D01*
X017690Y008290D01*
X017510Y008290D01*
X017416Y008251D01*
X017430Y008284D01*
X017430Y008901D01*
X020880Y012351D01*
X020930Y012472D01*
X020930Y013054D01*
X020981Y013105D01*
X021050Y013270D01*
X021050Y013930D01*
X020981Y014095D01*
X020855Y014221D01*
X020693Y014289D01*
X020880Y014476D01*
X020930Y014597D01*
X020930Y015991D01*
X020981Y016043D01*
X021050Y016208D01*
X021050Y016867D01*
X020981Y017032D01*
X020855Y017159D01*
X020690Y017227D01*
X020510Y017227D01*
X020345Y017159D01*
X020219Y017032D01*
X020150Y016867D01*
X020150Y016208D01*
X020219Y016043D01*
X020270Y015991D01*
X020270Y014799D01*
X020213Y014742D01*
X019709Y014742D01*
X019787Y014820D01*
X019880Y014913D01*
X019930Y015034D01*
X019930Y015991D01*
X019981Y016043D01*
X020050Y016208D01*
X020050Y016867D01*
X019981Y017032D01*
X019930Y017084D01*
X019930Y017338D01*
X019987Y017395D01*
X021416Y017395D01*
X021537Y017445D01*
X021630Y017538D01*
X021787Y017695D01*
X021880Y017788D01*
X021930Y017909D01*
X021930Y018991D01*
X021981Y019043D01*
X022050Y019208D01*
X022050Y019867D01*
X021981Y020032D01*
X021855Y020159D01*
X021690Y020227D01*
X021510Y020227D01*
X021345Y020159D01*
X021219Y020032D01*
X021150Y019867D01*
X021150Y019208D01*
X021219Y019043D01*
X021270Y018991D01*
X021270Y018112D01*
X021213Y018055D01*
X020647Y018055D01*
X020787Y018195D01*
X020880Y018288D01*
X020930Y018409D01*
X020930Y018991D01*
X020981Y019043D01*
X021050Y019208D01*
X021050Y019867D01*
X020981Y020032D01*
X020855Y020159D01*
X020690Y020227D01*
X020510Y020227D01*
X020345Y020159D01*
X020219Y020032D01*
X020150Y019867D01*
X020150Y019208D01*
X020219Y019043D01*
X020270Y018991D01*
X020270Y018612D01*
X020213Y018555D01*
X019597Y018555D01*
X019476Y018505D01*
X019383Y018412D01*
X018913Y017942D01*
X018820Y017849D01*
X018770Y017728D01*
X018770Y017222D01*
X018784Y017188D01*
X018690Y017227D01*
X018510Y017227D01*
X018345Y017159D01*
X018219Y017032D01*
X018150Y016867D01*
X018150Y016208D01*
X018213Y016055D01*
X017987Y016055D01*
X018050Y016208D01*
X018050Y016867D01*
X017981Y017032D01*
X017855Y017159D01*
X017690Y017227D01*
X017510Y017227D01*
X017345Y017159D01*
X017219Y017032D01*
X017150Y016867D01*
X017150Y016208D01*
X017213Y016055D01*
X016987Y016055D01*
X017050Y016208D01*
X017050Y016867D01*
X016981Y017032D01*
X016855Y017159D01*
X016690Y017227D01*
X016510Y017227D01*
X016345Y017159D01*
X016219Y017032D01*
X016150Y016867D01*
X016150Y016208D01*
X016213Y016055D01*
X015907Y016055D01*
X015946Y016113D01*
X015975Y016184D01*
X015990Y016259D01*
X015990Y016507D01*
X015630Y016507D01*
X015630Y016568D01*
X015570Y016568D01*
X015570Y017167D01*
X015562Y017167D01*
X015486Y017153D01*
X015415Y017123D01*
X015351Y017080D01*
X015297Y017026D01*
X015254Y016962D01*
X015225Y016891D01*
X015210Y016816D01*
X015210Y016568D01*
X015570Y016568D01*
X015570Y016507D01*
X015210Y016507D01*
X015210Y016259D01*
X015225Y016184D01*
X015254Y016113D01*
X015293Y016055D01*
X014907Y016055D01*
X014946Y016113D01*
X014975Y016184D01*
X014990Y016259D01*
X014990Y016507D01*
X014630Y016507D01*
X014630Y016568D01*
X014990Y016568D01*
X014990Y016816D01*
X014975Y016891D01*
X014946Y016962D01*
X014903Y017026D01*
X014849Y017080D01*
X014785Y017123D01*
X014714Y017153D01*
X014638Y017167D01*
X014634Y017167D01*
X014799Y017333D01*
X015291Y017333D01*
X015412Y017383D01*
X015505Y017476D01*
X015880Y017851D01*
X015930Y017972D01*
X015930Y018991D01*
X015981Y019043D01*
X016050Y019208D01*
X016050Y019867D01*
X015981Y020032D01*
X015855Y020159D01*
X015690Y020227D01*
X015510Y020227D01*
X015345Y020159D01*
X015219Y020032D01*
X015150Y019867D01*
X015150Y019208D01*
X015219Y019043D01*
X015270Y018991D01*
X015270Y018174D01*
X015088Y017992D01*
X014597Y017992D01*
X014476Y017942D01*
X014383Y017849D01*
X013595Y017062D01*
X013595Y018884D01*
X013878Y019168D01*
X014167Y019168D01*
X014219Y019043D01*
X014345Y018916D01*
X014510Y018848D01*
X014690Y018848D01*
X014855Y018916D01*
X014981Y019043D01*
X015050Y019208D01*
X015050Y019867D01*
X015037Y019899D02*
X015163Y019899D01*
X015204Y019997D02*
X014996Y019997D01*
X014918Y020096D02*
X015282Y020096D01*
X015430Y020194D02*
X014770Y020194D01*
X014430Y020194D02*
X010614Y020194D01*
X010516Y020293D02*
X022850Y020293D01*
X022850Y020391D02*
X003725Y020391D01*
X003725Y020293D02*
X010059Y020293D01*
X010109Y020342D02*
X009858Y020091D01*
X009858Y019943D01*
X010257Y019943D01*
X010257Y020342D01*
X010109Y020342D01*
X010257Y020293D02*
X010318Y020293D01*
X010318Y020342D02*
X010318Y019943D01*
X010257Y019943D01*
X010257Y019882D01*
X009858Y019882D01*
X009858Y019734D01*
X010109Y019483D01*
X010257Y019482D01*
X010257Y019882D01*
X010318Y019882D01*
X010318Y019943D01*
X010717Y019943D01*
X010717Y020091D01*
X010466Y020342D01*
X010318Y020342D01*
X010318Y020194D02*
X010257Y020194D01*
X010257Y020096D02*
X010318Y020096D01*
X010318Y019997D02*
X010257Y019997D01*
X010257Y019899D02*
X003725Y019899D01*
X003725Y019997D02*
X009858Y019997D01*
X009862Y020096D02*
X003725Y020096D01*
X003725Y020194D02*
X009961Y020194D01*
X009858Y019800D02*
X003725Y019800D01*
X003725Y019702D02*
X009890Y019702D01*
X009989Y019603D02*
X003725Y019603D01*
X003725Y019505D02*
X010087Y019505D01*
X010085Y019402D02*
X009798Y019115D01*
X009798Y018710D01*
X010085Y018423D01*
X010490Y018423D01*
X010777Y018710D01*
X010777Y019115D01*
X010490Y019402D01*
X010085Y019402D01*
X009990Y019308D02*
X003725Y019308D01*
X003725Y019406D02*
X013070Y019406D01*
X012972Y019308D02*
X010585Y019308D01*
X010684Y019209D02*
X012896Y019209D01*
X012855Y019111D02*
X010777Y019111D01*
X010777Y019012D02*
X012855Y019012D01*
X012855Y018914D02*
X010777Y018914D01*
X010777Y018815D02*
X012855Y018815D01*
X012855Y018717D02*
X011771Y018717D01*
X011421Y018717D02*
X010777Y018717D01*
X010686Y018618D02*
X011101Y018618D01*
X010930Y018520D02*
X010588Y018520D01*
X010710Y018323D02*
X003725Y018323D01*
X003725Y018421D02*
X010808Y018421D01*
X010630Y018224D02*
X000350Y018224D01*
X000350Y018126D02*
X010573Y018126D01*
X010516Y018027D02*
X000350Y018027D01*
X000350Y017929D02*
X010482Y017929D01*
X010455Y017830D02*
X000350Y017830D01*
X000350Y017732D02*
X010429Y017732D01*
X010421Y017633D02*
X000350Y017633D01*
X000350Y017535D02*
X010421Y017535D01*
X010421Y017436D02*
X000350Y017436D01*
X000350Y017338D02*
X005957Y017338D01*
X005859Y017239D02*
X000350Y017239D01*
X000350Y017141D02*
X005760Y017141D01*
X005673Y017042D02*
X000350Y017042D01*
X000350Y016944D02*
X005673Y016944D01*
X005673Y016845D02*
X000350Y016845D01*
X000350Y016747D02*
X005673Y016747D01*
X005673Y016648D02*
X000350Y016648D01*
X000350Y016550D02*
X005770Y016550D01*
X006466Y017239D02*
X009859Y017239D01*
X009957Y017338D02*
X006368Y017338D01*
X006565Y017141D02*
X009430Y017141D01*
X009331Y017042D02*
X006652Y017042D01*
X006652Y016944D02*
X009233Y016944D01*
X009134Y016845D02*
X006652Y016845D01*
X006652Y016747D02*
X007413Y016747D01*
X007335Y016648D02*
X006652Y016648D01*
X006555Y016550D02*
X007270Y016550D01*
X007854Y016156D02*
X008445Y016156D01*
X008543Y016254D02*
X007963Y016254D01*
X008011Y016353D02*
X008642Y016353D01*
X008740Y016451D02*
X008031Y016451D01*
X008030Y016550D02*
X008839Y016550D01*
X008937Y016648D02*
X007990Y016648D01*
X007912Y016747D02*
X009036Y016747D01*
X008346Y016057D02*
X007711Y016057D01*
X007613Y015959D02*
X008270Y015959D01*
X008230Y015860D02*
X007482Y015860D01*
X008230Y015762D02*
X004819Y015762D01*
X004917Y015663D02*
X008230Y015663D01*
X008230Y015565D02*
X004965Y015565D01*
X004965Y015466D02*
X008230Y015466D01*
X008230Y015368D02*
X005043Y015368D01*
X005142Y015269D02*
X008230Y015269D01*
X008230Y015171D02*
X005240Y015171D01*
X005339Y015072D02*
X008230Y015072D01*
X008230Y014974D02*
X005437Y014974D01*
X005536Y014875D02*
X008230Y014875D01*
X008230Y014777D02*
X005615Y014777D01*
X005656Y014678D02*
X008230Y014678D01*
X008230Y014580D02*
X005657Y014580D01*
X005657Y014481D02*
X008230Y014481D01*
X008230Y014383D02*
X005657Y014383D01*
X005657Y014284D02*
X008230Y014284D01*
X008230Y014186D02*
X005657Y014186D01*
X005657Y014087D02*
X008215Y014087D01*
X008174Y013989D02*
X005657Y013989D01*
X005657Y013890D02*
X008150Y013890D01*
X008150Y013792D02*
X005657Y013792D01*
X005657Y013693D02*
X008150Y013693D01*
X008071Y013595D02*
X005657Y013595D01*
X005747Y013496D02*
X007973Y013496D01*
X010368Y017338D02*
X010435Y017338D01*
X009987Y018520D02*
X003725Y018520D01*
X003725Y018618D02*
X009889Y018618D01*
X009798Y018717D02*
X003725Y018717D01*
X003725Y018815D02*
X009798Y018815D01*
X009798Y018914D02*
X003725Y018914D01*
X003725Y019012D02*
X009798Y019012D01*
X009798Y019111D02*
X003725Y019111D01*
X003725Y019209D02*
X009891Y019209D01*
X010257Y019505D02*
X010318Y019505D01*
X010318Y019483D02*
X010466Y019483D01*
X010717Y019734D01*
X010717Y019882D01*
X010318Y019882D01*
X010318Y019483D01*
X010318Y019603D02*
X010257Y019603D01*
X010257Y019702D02*
X010318Y019702D01*
X010318Y019800D02*
X010257Y019800D01*
X010318Y019899D02*
X013630Y019899D01*
X013464Y019800D02*
X010717Y019800D01*
X010685Y019702D02*
X013366Y019702D01*
X013267Y019603D02*
X010586Y019603D01*
X010488Y019505D02*
X013169Y019505D01*
X013723Y019012D02*
X014249Y019012D01*
X014190Y019111D02*
X013821Y019111D01*
X013624Y018914D02*
X014351Y018914D01*
X014849Y018914D02*
X015270Y018914D01*
X015270Y018815D02*
X013595Y018815D01*
X013595Y018717D02*
X015270Y018717D01*
X015270Y018618D02*
X013595Y018618D01*
X013595Y018520D02*
X015270Y018520D01*
X015270Y018421D02*
X013595Y018421D01*
X013595Y018323D02*
X015270Y018323D01*
X015270Y018224D02*
X013595Y018224D01*
X013595Y018126D02*
X015221Y018126D01*
X015123Y018027D02*
X013595Y018027D01*
X013595Y017929D02*
X014462Y017929D01*
X014363Y017830D02*
X013595Y017830D01*
X013595Y017732D02*
X014265Y017732D01*
X014166Y017633D02*
X013595Y017633D01*
X013595Y017535D02*
X014068Y017535D01*
X013969Y017436D02*
X013595Y017436D01*
X013595Y017338D02*
X013871Y017338D01*
X013772Y017239D02*
X013595Y017239D01*
X013595Y017141D02*
X013674Y017141D01*
X014115Y016648D02*
X014210Y016648D01*
X014210Y016568D02*
X014570Y016568D01*
X014570Y016507D01*
X014210Y016507D01*
X014210Y016259D01*
X014225Y016184D01*
X014254Y016113D01*
X014297Y016049D01*
X014351Y015995D01*
X014382Y015974D01*
X013713Y015305D01*
X013079Y015305D01*
X012986Y015343D01*
X012839Y015343D01*
X012790Y015323D01*
X014210Y016743D01*
X014210Y016568D01*
X014210Y016451D02*
X013918Y016451D01*
X014016Y016550D02*
X014570Y016550D01*
X014630Y016550D02*
X015570Y016550D01*
X015630Y016550D02*
X016150Y016550D01*
X016150Y016648D02*
X015990Y016648D01*
X015990Y016568D02*
X015990Y016816D01*
X015975Y016891D01*
X015946Y016962D01*
X015903Y017026D01*
X015849Y017080D01*
X015785Y017123D01*
X015714Y017153D01*
X015638Y017167D01*
X015630Y017167D01*
X015630Y016568D01*
X015990Y016568D01*
X015990Y016451D02*
X016150Y016451D01*
X016150Y016353D02*
X015990Y016353D01*
X015989Y016254D02*
X016150Y016254D01*
X016172Y016156D02*
X015963Y016156D01*
X015908Y016057D02*
X016213Y016057D01*
X015630Y016648D02*
X015570Y016648D01*
X015570Y016747D02*
X015630Y016747D01*
X015630Y016845D02*
X015570Y016845D01*
X015570Y016944D02*
X015630Y016944D01*
X015630Y017042D02*
X015570Y017042D01*
X015570Y017141D02*
X015630Y017141D01*
X015743Y017141D02*
X016327Y017141D01*
X016228Y017042D02*
X015887Y017042D01*
X015953Y016944D02*
X016182Y016944D01*
X016150Y016845D02*
X015984Y016845D01*
X015990Y016747D02*
X016150Y016747D01*
X015457Y017141D02*
X014743Y017141D01*
X014706Y017239D02*
X018770Y017239D01*
X018770Y017338D02*
X015303Y017338D01*
X015465Y017436D02*
X018770Y017436D01*
X018770Y017535D02*
X015564Y017535D01*
X015505Y017476D02*
X015505Y017476D01*
X015662Y017633D02*
X018770Y017633D01*
X018771Y017732D02*
X015761Y017732D01*
X015859Y017830D02*
X018812Y017830D01*
X018899Y017929D02*
X015912Y017929D01*
X015930Y018027D02*
X018998Y018027D01*
X019096Y018126D02*
X015930Y018126D01*
X015930Y018224D02*
X019195Y018224D01*
X019293Y018323D02*
X015930Y018323D01*
X015930Y018421D02*
X019392Y018421D01*
X019511Y018520D02*
X015930Y018520D01*
X015930Y018618D02*
X020270Y018618D01*
X020270Y018717D02*
X015930Y018717D01*
X015930Y018815D02*
X020270Y018815D01*
X020270Y018914D02*
X019849Y018914D01*
X019855Y018916D02*
X019981Y019043D01*
X020050Y019208D01*
X020050Y019867D01*
X019981Y020032D01*
X019855Y020159D01*
X019690Y020227D01*
X019510Y020227D01*
X019345Y020159D01*
X019219Y020032D01*
X019150Y019867D01*
X019150Y019208D01*
X019219Y019043D01*
X019345Y018916D01*
X019510Y018848D01*
X019690Y018848D01*
X019855Y018916D01*
X019951Y019012D02*
X020249Y019012D01*
X020190Y019111D02*
X020010Y019111D01*
X020050Y019209D02*
X020150Y019209D01*
X020150Y019308D02*
X020050Y019308D01*
X020050Y019406D02*
X020150Y019406D01*
X020150Y019505D02*
X020050Y019505D01*
X020050Y019603D02*
X020150Y019603D01*
X020150Y019702D02*
X020050Y019702D01*
X020050Y019800D02*
X020150Y019800D01*
X020163Y019899D02*
X020037Y019899D01*
X019996Y019997D02*
X020204Y019997D01*
X020282Y020096D02*
X019918Y020096D01*
X019770Y020194D02*
X020430Y020194D01*
X020770Y020194D02*
X021430Y020194D01*
X021282Y020096D02*
X020918Y020096D01*
X020996Y019997D02*
X021204Y019997D01*
X021163Y019899D02*
X021037Y019899D01*
X021050Y019800D02*
X021150Y019800D01*
X021150Y019702D02*
X021050Y019702D01*
X021050Y019603D02*
X021150Y019603D01*
X021150Y019505D02*
X021050Y019505D01*
X021050Y019406D02*
X021150Y019406D01*
X021150Y019308D02*
X021050Y019308D01*
X021050Y019209D02*
X021150Y019209D01*
X021190Y019111D02*
X021010Y019111D01*
X020951Y019012D02*
X021249Y019012D01*
X021270Y018914D02*
X020930Y018914D01*
X020930Y018815D02*
X021270Y018815D01*
X021270Y018717D02*
X020930Y018717D01*
X020930Y018618D02*
X021270Y018618D01*
X021270Y018520D02*
X020930Y018520D01*
X020930Y018421D02*
X021270Y018421D01*
X021270Y018323D02*
X020894Y018323D01*
X020816Y018224D02*
X021270Y018224D01*
X021270Y018126D02*
X020717Y018126D01*
X021515Y017436D02*
X022850Y017436D01*
X022850Y017338D02*
X019930Y017338D01*
X019930Y017239D02*
X022850Y017239D01*
X022850Y017141D02*
X021743Y017141D01*
X021714Y017153D02*
X021638Y017167D01*
X021630Y017167D01*
X021630Y016568D01*
X021570Y016568D01*
X021570Y017167D01*
X021562Y017167D01*
X021486Y017153D01*
X021415Y017123D01*
X021351Y017080D01*
X021297Y017026D01*
X021254Y016962D01*
X021225Y016891D01*
X021210Y016816D01*
X021210Y016568D01*
X021570Y016568D01*
X021570Y016507D01*
X021630Y016507D01*
X021630Y015908D01*
X021638Y015908D01*
X021714Y015922D01*
X021785Y015952D01*
X021849Y015995D01*
X021903Y016049D01*
X021946Y016113D01*
X021975Y016184D01*
X021990Y016259D01*
X021990Y016507D01*
X021630Y016507D01*
X021630Y016568D01*
X021990Y016568D01*
X021990Y016816D01*
X021975Y016891D01*
X021946Y016962D01*
X021903Y017026D01*
X021849Y017080D01*
X021785Y017123D01*
X021714Y017153D01*
X021630Y017141D02*
X021570Y017141D01*
X021570Y017042D02*
X021630Y017042D01*
X021630Y016944D02*
X021570Y016944D01*
X021570Y016845D02*
X021630Y016845D01*
X021630Y016747D02*
X021570Y016747D01*
X021570Y016648D02*
X021630Y016648D01*
X021630Y016550D02*
X022850Y016550D01*
X022850Y016648D02*
X021990Y016648D01*
X021990Y016747D02*
X022850Y016747D01*
X022850Y016845D02*
X021984Y016845D01*
X021953Y016944D02*
X022850Y016944D01*
X022850Y017042D02*
X021887Y017042D01*
X021457Y017141D02*
X020873Y017141D01*
X020972Y017042D02*
X021313Y017042D01*
X021247Y016944D02*
X021018Y016944D01*
X021050Y016845D02*
X021216Y016845D01*
X021210Y016747D02*
X021050Y016747D01*
X021050Y016648D02*
X021210Y016648D01*
X021210Y016507D02*
X021210Y016259D01*
X021225Y016184D01*
X021254Y016113D01*
X021297Y016049D01*
X021351Y015995D01*
X021415Y015952D01*
X021486Y015922D01*
X021562Y015908D01*
X021570Y015908D01*
X021570Y016507D01*
X021210Y016507D01*
X021210Y016451D02*
X021050Y016451D01*
X021050Y016353D02*
X021210Y016353D01*
X021211Y016254D02*
X021050Y016254D01*
X021028Y016156D02*
X021237Y016156D01*
X021292Y016057D02*
X020987Y016057D01*
X020930Y015959D02*
X021405Y015959D01*
X021570Y015959D02*
X021630Y015959D01*
X021630Y016057D02*
X021570Y016057D01*
X021570Y016156D02*
X021630Y016156D01*
X021630Y016254D02*
X021570Y016254D01*
X021570Y016353D02*
X021630Y016353D01*
X021630Y016451D02*
X021570Y016451D01*
X021570Y016550D02*
X021050Y016550D01*
X020327Y017141D02*
X019930Y017141D01*
X019972Y017042D02*
X020228Y017042D01*
X020182Y016944D02*
X020018Y016944D01*
X020050Y016845D02*
X020150Y016845D01*
X020150Y016747D02*
X020050Y016747D01*
X020050Y016648D02*
X020150Y016648D01*
X020150Y016550D02*
X020050Y016550D01*
X020050Y016451D02*
X020150Y016451D01*
X020150Y016353D02*
X020050Y016353D01*
X020050Y016254D02*
X020150Y016254D01*
X020172Y016156D02*
X020028Y016156D01*
X019987Y016057D02*
X020213Y016057D01*
X020270Y015959D02*
X019930Y015959D01*
X019930Y015860D02*
X020270Y015860D01*
X020270Y015762D02*
X019930Y015762D01*
X019930Y015663D02*
X020270Y015663D01*
X020270Y015565D02*
X019930Y015565D01*
X019930Y015466D02*
X020270Y015466D01*
X020270Y015368D02*
X019930Y015368D01*
X019930Y015269D02*
X020270Y015269D01*
X020270Y015171D02*
X019930Y015171D01*
X019930Y015072D02*
X020270Y015072D01*
X020270Y014974D02*
X019905Y014974D01*
X019842Y014875D02*
X020270Y014875D01*
X020247Y014777D02*
X019743Y014777D01*
X020704Y014284D02*
X021496Y014284D01*
X021704Y014284D02*
X022850Y014284D01*
X022850Y014186D02*
X021891Y014186D01*
X021985Y014087D02*
X022850Y014087D01*
X022850Y013989D02*
X022026Y013989D01*
X022050Y013890D02*
X022850Y013890D01*
X022850Y013792D02*
X022050Y013792D01*
X022050Y013693D02*
X022850Y013693D01*
X022850Y013595D02*
X022050Y013595D01*
X022050Y013496D02*
X022850Y013496D01*
X022850Y013398D02*
X022050Y013398D01*
X022050Y013299D02*
X022850Y013299D01*
X022850Y013201D02*
X022021Y013201D01*
X021978Y013102D02*
X022850Y013102D01*
X022850Y013004D02*
X021930Y013004D01*
X021930Y012905D02*
X022850Y012905D01*
X022850Y012807D02*
X021930Y012807D01*
X021930Y012708D02*
X022850Y012708D01*
X022850Y012610D02*
X021930Y012610D01*
X021930Y012511D02*
X022850Y012511D01*
X022850Y012413D02*
X021905Y012413D01*
X021843Y012314D02*
X022850Y012314D01*
X022850Y012216D02*
X021745Y012216D01*
X021646Y012117D02*
X022850Y012117D01*
X022850Y012019D02*
X021548Y012019D01*
X021449Y011920D02*
X022850Y011920D01*
X022850Y011822D02*
X021351Y011822D01*
X021252Y011723D02*
X022850Y011723D01*
X022850Y011625D02*
X021154Y011625D01*
X021055Y011526D02*
X022850Y011526D01*
X022850Y011428D02*
X020957Y011428D01*
X020858Y011329D02*
X022850Y011329D01*
X022850Y011231D02*
X020760Y011231D01*
X020661Y011132D02*
X022850Y011132D01*
X022850Y011034D02*
X020563Y011034D01*
X020464Y010935D02*
X022850Y010935D01*
X022850Y010837D02*
X020366Y010837D01*
X020267Y010738D02*
X022850Y010738D01*
X022850Y010640D02*
X020169Y010640D01*
X020070Y010541D02*
X022850Y010541D01*
X022850Y010443D02*
X019972Y010443D01*
X019873Y010344D02*
X022850Y010344D01*
X022850Y010246D02*
X019775Y010246D01*
X019676Y010147D02*
X022850Y010147D01*
X022850Y010049D02*
X019578Y010049D01*
X019479Y009950D02*
X022850Y009950D01*
X022850Y009852D02*
X019381Y009852D01*
X019282Y009753D02*
X022850Y009753D01*
X022850Y009655D02*
X019184Y009655D01*
X019085Y009556D02*
X022850Y009556D01*
X022850Y009458D02*
X020772Y009458D01*
X020870Y009359D02*
X022850Y009359D01*
X022850Y009261D02*
X020969Y009261D01*
X021067Y009162D02*
X022850Y009162D01*
X022850Y009064D02*
X021166Y009064D01*
X021264Y008965D02*
X022850Y008965D01*
X022850Y008867D02*
X021363Y008867D01*
X021413Y008768D02*
X022850Y008768D01*
X022850Y008670D02*
X021430Y008670D01*
X021430Y008571D02*
X022850Y008571D01*
X022850Y008473D02*
X021430Y008473D01*
X021430Y008374D02*
X022850Y008374D01*
X022850Y008276D02*
X021426Y008276D01*
X021570Y008177D02*
X021630Y008177D01*
X021630Y008230D02*
X021630Y007630D01*
X021990Y007630D01*
X021990Y007878D01*
X021975Y007954D01*
X021946Y008025D01*
X021903Y008089D01*
X021849Y008143D01*
X021785Y008186D01*
X021714Y008215D01*
X021638Y008230D01*
X021630Y008230D01*
X021630Y008079D02*
X021570Y008079D01*
X021570Y007980D02*
X021630Y007980D01*
X021630Y007882D02*
X021570Y007882D01*
X021570Y007783D02*
X021630Y007783D01*
X021630Y007685D02*
X021570Y007685D01*
X021630Y007586D02*
X022850Y007586D01*
X022850Y007488D02*
X021990Y007488D01*
X021990Y007570D02*
X021630Y007570D01*
X021630Y006970D01*
X021638Y006970D01*
X021714Y006985D01*
X021785Y007014D01*
X021849Y007057D01*
X021903Y007111D01*
X021946Y007175D01*
X021975Y007246D01*
X021990Y007322D01*
X021990Y007570D01*
X021990Y007685D02*
X022850Y007685D01*
X022850Y007783D02*
X021990Y007783D01*
X021989Y007882D02*
X022850Y007882D01*
X022850Y007980D02*
X021964Y007980D01*
X021910Y008079D02*
X022850Y008079D01*
X022850Y008177D02*
X021798Y008177D01*
X021630Y007488D02*
X021570Y007488D01*
X021570Y007389D02*
X021630Y007389D01*
X021630Y007291D02*
X021570Y007291D01*
X021570Y007192D02*
X021630Y007192D01*
X021630Y007094D02*
X021570Y007094D01*
X021570Y006995D02*
X021630Y006995D01*
X021738Y006995D02*
X022850Y006995D01*
X022850Y006897D02*
X021430Y006897D01*
X021430Y006995D02*
X021462Y006995D01*
X021430Y006798D02*
X022850Y006798D01*
X022850Y006700D02*
X021430Y006700D01*
X021430Y006601D02*
X022850Y006601D01*
X022850Y006503D02*
X021430Y006503D01*
X021430Y006404D02*
X022850Y006404D01*
X022850Y006306D02*
X021430Y006306D01*
X021430Y006207D02*
X022850Y006207D01*
X022850Y006109D02*
X021430Y006109D01*
X021430Y006010D02*
X022850Y006010D01*
X022850Y005912D02*
X021430Y005912D01*
X021430Y005813D02*
X022850Y005813D01*
X022850Y005715D02*
X021430Y005715D01*
X021430Y005616D02*
X022850Y005616D01*
X022850Y005518D02*
X021430Y005518D01*
X021430Y005419D02*
X022850Y005419D01*
X022850Y005321D02*
X021430Y005321D01*
X021430Y005222D02*
X022850Y005222D01*
X022850Y005124D02*
X021430Y005124D01*
X021430Y005025D02*
X022850Y005025D01*
X022850Y004927D02*
X021430Y004927D01*
X021430Y004828D02*
X022850Y004828D01*
X022850Y004730D02*
X021430Y004730D01*
X021430Y004631D02*
X022850Y004631D01*
X022850Y004533D02*
X021430Y004533D01*
X021430Y004434D02*
X022850Y004434D01*
X022850Y004336D02*
X021430Y004336D01*
X021430Y004237D02*
X022850Y004237D01*
X022850Y004139D02*
X021430Y004139D01*
X021430Y004040D02*
X022850Y004040D01*
X022850Y003942D02*
X021430Y003942D01*
X021430Y003843D02*
X022850Y003843D01*
X022850Y003745D02*
X021430Y003745D01*
X020770Y003745D02*
X020430Y003745D01*
X020430Y003725D02*
X020770Y003725D01*
X020770Y006943D01*
X020690Y006910D01*
X020510Y006910D01*
X020345Y006979D01*
X020219Y007105D01*
X020150Y007270D01*
X020150Y007930D01*
X020219Y008095D01*
X020270Y008146D01*
X020270Y008338D01*
X020213Y008395D01*
X019487Y008395D01*
X019430Y008338D01*
X019430Y008284D01*
X019416Y008251D01*
X019510Y008290D01*
X019690Y008290D01*
X019855Y008221D01*
X019981Y008095D01*
X020050Y007930D01*
X020050Y007270D01*
X019981Y007105D01*
X019930Y007054D01*
X019930Y006924D01*
X020287Y006567D01*
X020380Y006474D01*
X020430Y006353D01*
X020430Y003725D01*
X020430Y003843D02*
X020770Y003843D01*
X020770Y003942D02*
X020430Y003942D01*
X020430Y004040D02*
X020770Y004040D01*
X020770Y004139D02*
X020430Y004139D01*
X020430Y004237D02*
X020770Y004237D01*
X020770Y004336D02*
X020430Y004336D01*
X020430Y004434D02*
X020770Y004434D01*
X020770Y004533D02*
X020430Y004533D01*
X020430Y004631D02*
X020770Y004631D01*
X020770Y004730D02*
X020430Y004730D01*
X020430Y004828D02*
X020770Y004828D01*
X020770Y004927D02*
X020430Y004927D01*
X020430Y005025D02*
X020770Y005025D01*
X020770Y005124D02*
X020430Y005124D01*
X020430Y005222D02*
X020770Y005222D01*
X020770Y005321D02*
X020430Y005321D01*
X020430Y005419D02*
X020770Y005419D01*
X020770Y005518D02*
X020430Y005518D01*
X020430Y005616D02*
X020770Y005616D01*
X020770Y005715D02*
X020430Y005715D01*
X020430Y005813D02*
X020770Y005813D01*
X020770Y005912D02*
X020430Y005912D01*
X020430Y006010D02*
X020770Y006010D01*
X020770Y006109D02*
X020430Y006109D01*
X020430Y006207D02*
X020770Y006207D01*
X020770Y006306D02*
X020430Y006306D01*
X020409Y006404D02*
X020770Y006404D01*
X020770Y006503D02*
X020352Y006503D01*
X020253Y006601D02*
X020770Y006601D01*
X020770Y006700D02*
X020155Y006700D01*
X020056Y006798D02*
X020770Y006798D01*
X020770Y006897D02*
X019958Y006897D01*
X019930Y006995D02*
X020329Y006995D01*
X020230Y007094D02*
X019970Y007094D01*
X020017Y007192D02*
X020183Y007192D01*
X020150Y007291D02*
X020050Y007291D01*
X020050Y007389D02*
X020150Y007389D01*
X020150Y007488D02*
X020050Y007488D01*
X020050Y007586D02*
X020150Y007586D01*
X020150Y007685D02*
X020050Y007685D01*
X020050Y007783D02*
X020150Y007783D01*
X020150Y007882D02*
X020050Y007882D01*
X020029Y007980D02*
X020171Y007980D01*
X020212Y008079D02*
X019988Y008079D01*
X019899Y008177D02*
X020270Y008177D01*
X020270Y008276D02*
X019724Y008276D01*
X019476Y008276D02*
X019426Y008276D01*
X019466Y008374D02*
X020234Y008374D01*
X021990Y007389D02*
X022850Y007389D01*
X022850Y007291D02*
X021984Y007291D01*
X021953Y007192D02*
X022850Y007192D01*
X022850Y007094D02*
X021885Y007094D01*
X018743Y010147D02*
X018676Y010147D01*
X018644Y010049D02*
X018578Y010049D01*
X018546Y009950D02*
X018479Y009950D01*
X018447Y009852D02*
X018381Y009852D01*
X018349Y009753D02*
X018282Y009753D01*
X018250Y009655D02*
X018184Y009655D01*
X018152Y009556D02*
X018085Y009556D01*
X018053Y009458D02*
X017987Y009458D01*
X017955Y009359D02*
X017888Y009359D01*
X017913Y009317D02*
X017913Y009317D01*
X017856Y009261D02*
X017790Y009261D01*
X017794Y009162D02*
X017691Y009162D01*
X017770Y009064D02*
X017593Y009064D01*
X017494Y008965D02*
X017770Y008965D01*
X017770Y008867D02*
X017430Y008867D01*
X017430Y008768D02*
X017770Y008768D01*
X017770Y008670D02*
X017430Y008670D01*
X017430Y008571D02*
X017770Y008571D01*
X017770Y008473D02*
X017430Y008473D01*
X017430Y008374D02*
X017770Y008374D01*
X017774Y008276D02*
X017724Y008276D01*
X017476Y008276D02*
X017426Y008276D01*
X018775Y010246D02*
X018841Y010246D01*
X018873Y010344D02*
X018940Y010344D01*
X018972Y010443D02*
X019038Y010443D01*
X019070Y010541D02*
X019137Y010541D01*
X019169Y010640D02*
X019235Y010640D01*
X019267Y010738D02*
X019334Y010738D01*
X019366Y010837D02*
X019432Y010837D01*
X019464Y010935D02*
X019531Y010935D01*
X019563Y011034D02*
X019629Y011034D01*
X019661Y011132D02*
X019728Y011132D01*
X019760Y011231D02*
X019826Y011231D01*
X019858Y011329D02*
X019925Y011329D01*
X019957Y011428D02*
X020023Y011428D01*
X020055Y011526D02*
X020122Y011526D01*
X020154Y011625D02*
X020220Y011625D01*
X020252Y011723D02*
X020319Y011723D01*
X020351Y011822D02*
X020417Y011822D01*
X020449Y011920D02*
X020516Y011920D01*
X020548Y012019D02*
X020614Y012019D01*
X020646Y012117D02*
X020713Y012117D01*
X020745Y012216D02*
X020811Y012216D01*
X020843Y012314D02*
X020910Y012314D01*
X020905Y012413D02*
X021008Y012413D01*
X020930Y012511D02*
X021107Y012511D01*
X021205Y012610D02*
X020930Y012610D01*
X020930Y012708D02*
X021270Y012708D01*
X021270Y012807D02*
X020930Y012807D01*
X020930Y012905D02*
X021270Y012905D01*
X021270Y013004D02*
X020930Y013004D01*
X020978Y013102D02*
X021222Y013102D01*
X021179Y013201D02*
X021021Y013201D01*
X021050Y013299D02*
X021150Y013299D01*
X021150Y013398D02*
X021050Y013398D01*
X021050Y013496D02*
X021150Y013496D01*
X021150Y013595D02*
X021050Y013595D01*
X021050Y013693D02*
X021150Y013693D01*
X021150Y013792D02*
X021050Y013792D01*
X021050Y013890D02*
X021150Y013890D01*
X021174Y013989D02*
X021026Y013989D01*
X020985Y014087D02*
X021215Y014087D01*
X021309Y014186D02*
X020891Y014186D01*
X020787Y014383D02*
X022850Y014383D01*
X022850Y014481D02*
X020882Y014481D01*
X020923Y014580D02*
X022850Y014580D01*
X022850Y014678D02*
X020930Y014678D01*
X020930Y014777D02*
X022850Y014777D01*
X022850Y014875D02*
X020930Y014875D01*
X020930Y014974D02*
X022850Y014974D01*
X022850Y015072D02*
X020930Y015072D01*
X020930Y015171D02*
X022850Y015171D01*
X022850Y015269D02*
X020930Y015269D01*
X020930Y015368D02*
X022850Y015368D01*
X022850Y015466D02*
X020930Y015466D01*
X020930Y015565D02*
X022850Y015565D01*
X022850Y015663D02*
X020930Y015663D01*
X020930Y015762D02*
X022850Y015762D01*
X022850Y015860D02*
X020930Y015860D01*
X021795Y015959D02*
X022850Y015959D01*
X022850Y016057D02*
X021908Y016057D01*
X021963Y016156D02*
X022850Y016156D01*
X022850Y016254D02*
X021989Y016254D01*
X021990Y016353D02*
X022850Y016353D01*
X022850Y016451D02*
X021990Y016451D01*
X021626Y017535D02*
X022850Y017535D01*
X022850Y017633D02*
X021725Y017633D01*
X021787Y017695D02*
X021787Y017695D01*
X021823Y017732D02*
X022850Y017732D01*
X022850Y017830D02*
X021897Y017830D01*
X021930Y017929D02*
X022850Y017929D01*
X022850Y018027D02*
X021930Y018027D01*
X021930Y018126D02*
X022850Y018126D01*
X022850Y018224D02*
X021930Y018224D01*
X021930Y018323D02*
X022850Y018323D01*
X022850Y018421D02*
X021930Y018421D01*
X021930Y018520D02*
X022850Y018520D01*
X022850Y018618D02*
X021930Y018618D01*
X021930Y018717D02*
X022850Y018717D01*
X022850Y018815D02*
X021930Y018815D01*
X021930Y018914D02*
X022850Y018914D01*
X022850Y019012D02*
X021951Y019012D01*
X022010Y019111D02*
X022850Y019111D01*
X022850Y019209D02*
X022050Y019209D01*
X022050Y019308D02*
X022850Y019308D01*
X022850Y019406D02*
X022050Y019406D01*
X022050Y019505D02*
X022850Y019505D01*
X022850Y019603D02*
X022050Y019603D01*
X022050Y019702D02*
X022850Y019702D01*
X022850Y019800D02*
X022050Y019800D01*
X022037Y019899D02*
X022850Y019899D01*
X022850Y019997D02*
X021996Y019997D01*
X021918Y020096D02*
X022850Y020096D01*
X022850Y020194D02*
X021770Y020194D01*
X022850Y020490D02*
X003725Y020490D01*
X003413Y020490D02*
X000913Y020490D01*
X000913Y020538D02*
X003413Y020538D01*
X003413Y018538D01*
X000913Y018538D01*
X000913Y020538D01*
X000913Y020391D02*
X003413Y020391D01*
X003413Y020293D02*
X000913Y020293D01*
X000913Y020194D02*
X003413Y020194D01*
X003413Y020096D02*
X000913Y020096D01*
X000913Y019997D02*
X003413Y019997D01*
X003413Y019899D02*
X000913Y019899D01*
X000913Y019800D02*
X003413Y019800D01*
X003413Y019702D02*
X000913Y019702D01*
X000913Y019603D02*
X003413Y019603D01*
X003413Y019505D02*
X000913Y019505D01*
X000913Y019406D02*
X003413Y019406D01*
X003413Y019308D02*
X000913Y019308D01*
X000913Y019209D02*
X003413Y019209D01*
X003413Y019111D02*
X000913Y019111D01*
X000913Y019012D02*
X003413Y019012D01*
X003413Y018914D02*
X000913Y018914D01*
X000913Y018815D02*
X003413Y018815D01*
X003413Y018717D02*
X000913Y018717D01*
X000913Y018618D02*
X003413Y018618D01*
X003809Y016451D02*
X000350Y016451D01*
X000350Y016353D02*
X003698Y016353D01*
X003600Y016254D02*
X000350Y016254D01*
X000350Y016156D02*
X003501Y016156D01*
X003403Y016057D02*
X000350Y016057D01*
X000350Y015959D02*
X003314Y015959D01*
X003273Y015860D02*
X000350Y015860D01*
X000350Y015762D02*
X002216Y015762D01*
X002297Y015842D02*
X002045Y015591D01*
X002045Y015451D01*
X002436Y015451D01*
X002436Y015374D01*
X002045Y015374D01*
X002045Y015234D01*
X002297Y014983D01*
X002436Y014983D01*
X002436Y015374D01*
X002514Y015374D01*
X002514Y015451D01*
X002905Y015451D01*
X002905Y015591D01*
X002653Y015842D01*
X002514Y015842D01*
X002514Y015451D01*
X002436Y015451D01*
X002436Y015842D01*
X002297Y015842D01*
X002436Y015762D02*
X002514Y015762D01*
X002514Y015663D02*
X002436Y015663D01*
X002436Y015565D02*
X002514Y015565D01*
X002514Y015466D02*
X002436Y015466D01*
X002436Y015368D02*
X002514Y015368D01*
X002514Y015374D02*
X002514Y014983D01*
X002653Y014983D01*
X002905Y015234D01*
X002905Y015374D01*
X002514Y015374D01*
X002514Y015269D02*
X002436Y015269D01*
X002436Y015171D02*
X002514Y015171D01*
X002514Y015072D02*
X002436Y015072D01*
X002207Y015072D02*
X000350Y015072D01*
X000350Y014974D02*
X003270Y014974D01*
X003270Y015072D02*
X002743Y015072D01*
X002841Y015171D02*
X003270Y015171D01*
X003270Y015269D02*
X002905Y015269D01*
X002905Y015368D02*
X003270Y015368D01*
X003270Y015466D02*
X002905Y015466D01*
X002905Y015565D02*
X003270Y015565D01*
X003270Y015663D02*
X002833Y015663D01*
X002734Y015762D02*
X003270Y015762D01*
X003270Y014875D02*
X000350Y014875D01*
X000350Y014777D02*
X003270Y014777D01*
X003270Y014678D02*
X000350Y014678D01*
X000350Y014580D02*
X003270Y014580D01*
X003270Y014481D02*
X000350Y014481D01*
X000350Y014383D02*
X003270Y014383D01*
X003270Y014284D02*
X000350Y014284D01*
X000350Y014186D02*
X003270Y014186D01*
X003270Y014087D02*
X000350Y014087D01*
X000350Y013989D02*
X003270Y013989D01*
X003270Y013890D02*
X000350Y013890D01*
X000350Y013792D02*
X003270Y013792D01*
X003270Y013693D02*
X000350Y013693D01*
X000350Y013595D02*
X003270Y013595D01*
X003270Y013496D02*
X002747Y013496D01*
X002866Y013398D02*
X003270Y013398D01*
X003270Y013299D02*
X002932Y013299D01*
X002973Y013201D02*
X003270Y013201D01*
X003270Y013102D02*
X002977Y013102D01*
X002975Y013004D02*
X003224Y013004D01*
X001828Y013496D02*
X000350Y013496D01*
X000350Y013398D02*
X001709Y013398D01*
X001643Y013299D02*
X000350Y013299D01*
X000350Y013201D02*
X001602Y013201D01*
X001598Y013102D02*
X000350Y013102D01*
X000350Y013004D02*
X001600Y013004D01*
X001474Y012905D02*
X000350Y012905D01*
X000350Y012807D02*
X001340Y012807D01*
X001241Y012708D02*
X000350Y012708D01*
X000350Y012610D02*
X001143Y012610D01*
X001096Y012511D02*
X000350Y012511D01*
X000350Y012413D02*
X001083Y012413D01*
X001083Y012314D02*
X000350Y012314D01*
X000350Y012216D02*
X001083Y012216D01*
X001083Y012117D02*
X000350Y012117D01*
X000350Y012019D02*
X001083Y012019D01*
X001083Y011920D02*
X000350Y011920D01*
X000350Y011822D02*
X001083Y011822D01*
X001083Y011723D02*
X000350Y011723D01*
X000350Y011625D02*
X001083Y011625D01*
X001083Y011526D02*
X000350Y011526D01*
X000350Y011428D02*
X001083Y011428D01*
X001083Y011329D02*
X000350Y011329D01*
X000350Y011231D02*
X001105Y011231D01*
X001164Y011132D02*
X000350Y011132D01*
X000350Y011034D02*
X001262Y011034D01*
X001361Y010935D02*
X000350Y010935D01*
X000350Y010837D02*
X001432Y010837D01*
X001334Y010738D02*
X000350Y010738D01*
X000350Y010640D02*
X001235Y010640D01*
X001137Y010541D02*
X000350Y010541D01*
X000350Y010443D02*
X001094Y010443D01*
X001083Y010344D02*
X000350Y010344D01*
X000350Y010246D02*
X001083Y010246D01*
X001083Y010147D02*
X000350Y010147D01*
X000350Y010049D02*
X001083Y010049D01*
X001083Y009950D02*
X000350Y009950D01*
X000350Y009852D02*
X001083Y009852D01*
X001095Y009753D02*
X000350Y009753D01*
X000350Y009655D02*
X001141Y009655D01*
X001240Y009556D02*
X000350Y009556D01*
X000350Y009458D02*
X001338Y009458D01*
X001437Y009359D02*
X000350Y009359D01*
X000350Y009261D02*
X001627Y009261D01*
X001598Y009162D02*
X000350Y009162D01*
X000350Y009064D02*
X001598Y009064D01*
X001616Y008965D02*
X000350Y008965D01*
X000350Y008867D02*
X001657Y008867D01*
X001743Y008768D02*
X000350Y008768D01*
X000350Y008670D02*
X001911Y008670D01*
X001784Y008473D02*
X000350Y008473D01*
X000350Y008571D02*
X008770Y008571D01*
X008770Y008473D02*
X005791Y008473D01*
X005890Y008374D02*
X008770Y008374D01*
X008774Y008276D02*
X008724Y008276D01*
X008476Y008276D02*
X005942Y008276D01*
X005977Y008177D02*
X008301Y008177D01*
X008212Y008079D02*
X005977Y008079D01*
X005965Y007980D02*
X008171Y007980D01*
X008770Y008670D02*
X005664Y008670D01*
X005832Y008768D02*
X008770Y008768D01*
X008770Y008867D02*
X008646Y008867D01*
X008744Y008965D02*
X008770Y008965D01*
X008183Y007192D02*
X005976Y007192D01*
X005977Y007094D02*
X008230Y007094D01*
X008329Y006995D02*
X005971Y006995D01*
X005930Y006897D02*
X008790Y006897D01*
X008769Y006798D02*
X005862Y006798D01*
X005737Y006700D02*
X008670Y006700D01*
X008572Y006601D02*
X004122Y006601D01*
X004187Y006503D02*
X008473Y006503D01*
X008375Y006404D02*
X004220Y006404D01*
X004220Y006306D02*
X007113Y006306D01*
X007014Y006207D02*
X004191Y006207D01*
X004132Y006109D02*
X006916Y006109D01*
X006860Y006010D02*
X004033Y006010D01*
X003935Y005912D02*
X006860Y005912D01*
X006860Y005813D02*
X003840Y005813D01*
X003840Y005715D02*
X006860Y005715D01*
X006891Y005616D02*
X003809Y005616D01*
X003710Y005518D02*
X006990Y005518D01*
X007088Y005419D02*
X003612Y005419D01*
X003470Y005321D02*
X007291Y005321D01*
X007193Y005222D02*
X003470Y005222D01*
X003470Y005124D02*
X007094Y005124D01*
X006996Y005025D02*
X003470Y005025D01*
X003470Y004927D02*
X006897Y004927D01*
X006811Y004828D02*
X003470Y004828D01*
X003470Y004730D02*
X006771Y004730D01*
X006770Y004631D02*
X003470Y004631D01*
X003470Y004533D02*
X006770Y004533D01*
X006770Y004434D02*
X003470Y004434D01*
X003470Y004336D02*
X006770Y004336D01*
X006770Y004237D02*
X003470Y004237D01*
X003470Y004139D02*
X006770Y004139D01*
X006770Y004040D02*
X003470Y004040D01*
X003470Y003942D02*
X006770Y003942D01*
X006770Y003843D02*
X003470Y003843D01*
X003470Y003745D02*
X006770Y003745D01*
X007430Y003745D02*
X008770Y003745D01*
X008770Y003725D02*
X007430Y003725D01*
X007430Y004526D01*
X007607Y004702D01*
X007607Y004652D01*
X007663Y004516D01*
X007766Y004413D01*
X007902Y004357D01*
X008048Y004357D01*
X008184Y004413D01*
X008287Y004516D01*
X008326Y004609D01*
X008548Y004831D01*
X008600Y004704D01*
X008704Y004600D01*
X008839Y004544D01*
X008890Y004544D01*
X008820Y004474D01*
X008770Y004353D01*
X008770Y003725D01*
X008770Y003843D02*
X007430Y003843D01*
X007430Y003942D02*
X008770Y003942D01*
X008770Y004040D02*
X007430Y004040D01*
X007430Y004139D02*
X008770Y004139D01*
X008770Y004237D02*
X007430Y004237D01*
X007430Y004336D02*
X008770Y004336D01*
X008803Y004434D02*
X008205Y004434D01*
X008294Y004533D02*
X008878Y004533D01*
X008673Y004631D02*
X008348Y004631D01*
X008446Y004730D02*
X008590Y004730D01*
X008549Y004828D02*
X008545Y004828D01*
X007745Y004434D02*
X007430Y004434D01*
X007437Y004533D02*
X007656Y004533D01*
X007615Y004631D02*
X007535Y004631D01*
X007840Y005912D02*
X007882Y005912D01*
X007840Y006010D02*
X007981Y006010D01*
X008079Y006109D02*
X007784Y006109D01*
X007686Y006207D02*
X008178Y006207D01*
X008276Y006306D02*
X007587Y006306D01*
X004911Y008670D02*
X002664Y008670D01*
X002832Y008768D02*
X004743Y008768D01*
X004657Y008867D02*
X002918Y008867D01*
X002959Y008965D02*
X004616Y008965D01*
X004598Y009064D02*
X002977Y009064D01*
X002977Y009162D02*
X004598Y009162D01*
X004627Y009261D02*
X002948Y009261D01*
X002791Y008473D02*
X004784Y008473D01*
X004685Y008374D02*
X003293Y008374D01*
X003391Y008276D02*
X004633Y008276D01*
X004598Y008177D02*
X003490Y008177D01*
X003588Y008079D02*
X004598Y008079D01*
X004610Y007980D02*
X003687Y007980D01*
X003246Y007488D02*
X002578Y007488D01*
X002566Y007490D02*
X002318Y007490D01*
X002318Y007130D01*
X002917Y007130D01*
X002917Y007138D01*
X002903Y007214D01*
X002873Y007285D01*
X002830Y007349D01*
X002776Y007403D01*
X002712Y007446D01*
X002641Y007475D01*
X002566Y007490D01*
X002700Y007685D02*
X003049Y007685D01*
X003147Y007586D02*
X000350Y007586D01*
X000350Y007488D02*
X001997Y007488D01*
X002009Y007490D02*
X001934Y007475D01*
X001863Y007446D01*
X001799Y007403D01*
X001745Y007349D01*
X001702Y007285D01*
X001672Y007214D01*
X001658Y007138D01*
X001658Y007130D01*
X002257Y007130D01*
X002257Y007070D01*
X001658Y007070D01*
X001658Y007062D01*
X001672Y006986D01*
X001702Y006915D01*
X001745Y006851D01*
X001799Y006797D01*
X001863Y006754D01*
X001934Y006725D01*
X002009Y006710D01*
X002257Y006710D01*
X002257Y007070D01*
X002318Y007070D01*
X002318Y007130D01*
X002257Y007130D01*
X002257Y007490D01*
X002009Y007490D01*
X001875Y007685D02*
X000350Y007685D01*
X000350Y007783D02*
X001728Y007783D01*
X001651Y007882D02*
X000350Y007882D01*
X000350Y007980D02*
X001610Y007980D01*
X001598Y008079D02*
X000350Y008079D01*
X000350Y008177D02*
X001598Y008177D01*
X001633Y008276D02*
X000350Y008276D01*
X000350Y008374D02*
X001685Y008374D01*
X002257Y007488D02*
X002318Y007488D01*
X002318Y007389D02*
X002257Y007389D01*
X002257Y007291D02*
X002318Y007291D01*
X002318Y007192D02*
X002257Y007192D01*
X002257Y007094D02*
X000350Y007094D01*
X000350Y007192D02*
X001668Y007192D01*
X001706Y007291D02*
X000350Y007291D01*
X000350Y007389D02*
X001785Y007389D01*
X001671Y006995D02*
X000350Y006995D01*
X000350Y006897D02*
X001714Y006897D01*
X001798Y006798D02*
X000350Y006798D01*
X000350Y006700D02*
X003727Y006700D01*
X003578Y006601D02*
X000350Y006601D01*
X000350Y006503D02*
X003479Y006503D01*
X003381Y006404D02*
X000350Y006404D01*
X000350Y006306D02*
X003113Y006306D01*
X003014Y006207D02*
X000350Y006207D01*
X000350Y006109D02*
X002916Y006109D01*
X002860Y006010D02*
X000350Y006010D01*
X000350Y005912D02*
X002860Y005912D01*
X002790Y005813D02*
X000350Y005813D01*
X000350Y005715D02*
X002747Y005715D01*
X002730Y005616D02*
X000350Y005616D01*
X000350Y005518D02*
X002730Y005518D01*
X002730Y005419D02*
X000350Y005419D01*
X000350Y005321D02*
X002730Y005321D01*
X002730Y005222D02*
X000350Y005222D01*
X000350Y005124D02*
X002730Y005124D01*
X002730Y005025D02*
X000350Y005025D01*
X000350Y004927D02*
X002730Y004927D01*
X002730Y004828D02*
X000350Y004828D01*
X000350Y004730D02*
X002730Y004730D01*
X002233Y004631D02*
X000350Y004631D01*
X000350Y004533D02*
X002134Y004533D01*
X002036Y004434D02*
X000350Y004434D01*
X000350Y004336D02*
X001937Y004336D01*
X001839Y004237D02*
X000350Y004237D01*
X000350Y004139D02*
X001767Y004139D01*
X001730Y004040D02*
X000350Y004040D01*
X000350Y003942D02*
X001730Y003942D01*
X001730Y003843D02*
X000350Y003843D01*
X000350Y003745D02*
X001730Y003745D01*
X002318Y006710D02*
X002566Y006710D01*
X002641Y006725D01*
X002712Y006754D01*
X002776Y006797D01*
X002830Y006851D01*
X002873Y006915D01*
X002903Y006986D01*
X002917Y007062D01*
X002917Y007070D01*
X002318Y007070D01*
X002318Y006710D01*
X002318Y006798D02*
X002257Y006798D01*
X002257Y006897D02*
X002318Y006897D01*
X002318Y006995D02*
X002257Y006995D01*
X002318Y007094D02*
X004598Y007094D01*
X004599Y007192D02*
X002907Y007192D01*
X002869Y007291D02*
X003485Y007291D01*
X003344Y007389D02*
X002790Y007389D01*
X002904Y006995D02*
X004604Y006995D01*
X004645Y006897D02*
X002861Y006897D01*
X002777Y006798D02*
X004713Y006798D01*
X004838Y006700D02*
X003973Y006700D01*
X002109Y015171D02*
X000350Y015171D01*
X000350Y015269D02*
X002045Y015269D01*
X002045Y015368D02*
X000350Y015368D01*
X000350Y015466D02*
X002045Y015466D01*
X002045Y015565D02*
X000350Y015565D01*
X000350Y015663D02*
X002117Y015663D01*
X000600Y018323D02*
X000350Y018323D01*
X000350Y018421D02*
X000600Y018421D01*
X000600Y018520D02*
X000350Y018520D01*
X000350Y018618D02*
X000600Y018618D01*
X000600Y018717D02*
X000350Y018717D01*
X000350Y018815D02*
X000600Y018815D01*
X000600Y018914D02*
X000350Y018914D01*
X000350Y019012D02*
X000600Y019012D01*
X000600Y019111D02*
X000350Y019111D01*
X000350Y019209D02*
X000600Y019209D01*
X000600Y019308D02*
X000350Y019308D01*
X000350Y019406D02*
X000600Y019406D01*
X000600Y019505D02*
X000350Y019505D01*
X000350Y019603D02*
X000600Y019603D01*
X000600Y019702D02*
X000350Y019702D01*
X000350Y019800D02*
X000600Y019800D01*
X000600Y019899D02*
X000350Y019899D01*
X000350Y019997D02*
X000600Y019997D01*
X000600Y020096D02*
X000350Y020096D01*
X000350Y020194D02*
X000600Y020194D01*
X000600Y020293D02*
X000350Y020293D01*
X000350Y020391D02*
X000600Y020391D01*
X000600Y020490D02*
X000350Y020490D01*
X000350Y020588D02*
X000600Y020588D01*
X000663Y020588D02*
X022850Y020588D01*
X022850Y020687D02*
X000663Y020687D01*
X000600Y020687D02*
X000350Y020687D01*
X000350Y020785D02*
X000600Y020785D01*
X000663Y020785D02*
X022850Y020785D01*
X019430Y020194D02*
X018770Y020194D01*
X018690Y020227D02*
X018510Y020227D01*
X018345Y020159D01*
X018219Y020032D01*
X018150Y019867D01*
X018150Y019208D01*
X018219Y019043D01*
X018345Y018916D01*
X018510Y018848D01*
X018690Y018848D01*
X018855Y018916D01*
X018981Y019043D01*
X019050Y019208D01*
X019050Y019867D01*
X018981Y020032D01*
X018855Y020159D01*
X018690Y020227D01*
X018430Y020194D02*
X017770Y020194D01*
X017690Y020227D02*
X017510Y020227D01*
X017345Y020159D01*
X017219Y020032D01*
X017150Y019867D01*
X017150Y019208D01*
X017219Y019043D01*
X017345Y018916D01*
X017510Y018848D01*
X017690Y018848D01*
X017855Y018916D01*
X017981Y019043D01*
X018050Y019208D01*
X018050Y019867D01*
X017981Y020032D01*
X017855Y020159D01*
X017690Y020227D01*
X017430Y020194D02*
X016770Y020194D01*
X016690Y020227D02*
X016855Y020159D01*
X016981Y020032D01*
X017050Y019867D01*
X017050Y019208D01*
X016981Y019043D01*
X016855Y018916D01*
X016690Y018848D01*
X016510Y018848D01*
X016345Y018916D01*
X016219Y019043D01*
X016150Y019208D01*
X016150Y019867D01*
X016219Y020032D01*
X016345Y020159D01*
X016510Y020227D01*
X016690Y020227D01*
X016430Y020194D02*
X015770Y020194D01*
X015918Y020096D02*
X016282Y020096D01*
X016204Y019997D02*
X015996Y019997D01*
X016037Y019899D02*
X016163Y019899D01*
X016150Y019800D02*
X016050Y019800D01*
X016050Y019702D02*
X016150Y019702D01*
X016150Y019603D02*
X016050Y019603D01*
X016050Y019505D02*
X016150Y019505D01*
X016150Y019406D02*
X016050Y019406D01*
X016050Y019308D02*
X016150Y019308D01*
X016150Y019209D02*
X016050Y019209D01*
X016010Y019111D02*
X016190Y019111D01*
X016249Y019012D02*
X015951Y019012D01*
X015930Y018914D02*
X016351Y018914D01*
X016849Y018914D02*
X017351Y018914D01*
X017249Y019012D02*
X016951Y019012D01*
X017010Y019111D02*
X017190Y019111D01*
X017150Y019209D02*
X017050Y019209D01*
X017050Y019308D02*
X017150Y019308D01*
X017150Y019406D02*
X017050Y019406D01*
X017050Y019505D02*
X017150Y019505D01*
X017150Y019603D02*
X017050Y019603D01*
X017050Y019702D02*
X017150Y019702D01*
X017150Y019800D02*
X017050Y019800D01*
X017037Y019899D02*
X017163Y019899D01*
X017204Y019997D02*
X016996Y019997D01*
X016918Y020096D02*
X017282Y020096D01*
X017918Y020096D02*
X018282Y020096D01*
X018204Y019997D02*
X017996Y019997D01*
X018037Y019899D02*
X018163Y019899D01*
X018150Y019800D02*
X018050Y019800D01*
X018050Y019702D02*
X018150Y019702D01*
X018150Y019603D02*
X018050Y019603D01*
X018050Y019505D02*
X018150Y019505D01*
X018150Y019406D02*
X018050Y019406D01*
X018050Y019308D02*
X018150Y019308D01*
X018150Y019209D02*
X018050Y019209D01*
X018010Y019111D02*
X018190Y019111D01*
X018249Y019012D02*
X017951Y019012D01*
X017849Y018914D02*
X018351Y018914D01*
X018849Y018914D02*
X019351Y018914D01*
X019249Y019012D02*
X018951Y019012D01*
X019010Y019111D02*
X019190Y019111D01*
X019150Y019209D02*
X019050Y019209D01*
X019050Y019308D02*
X019150Y019308D01*
X019150Y019406D02*
X019050Y019406D01*
X019050Y019505D02*
X019150Y019505D01*
X019150Y019603D02*
X019050Y019603D01*
X019050Y019702D02*
X019150Y019702D01*
X019150Y019800D02*
X019050Y019800D01*
X019037Y019899D02*
X019163Y019899D01*
X019204Y019997D02*
X018996Y019997D01*
X018918Y020096D02*
X019282Y020096D01*
X021630Y017538D02*
X021630Y017538D01*
X018327Y017141D02*
X017873Y017141D01*
X017972Y017042D02*
X018228Y017042D01*
X018182Y016944D02*
X018018Y016944D01*
X018050Y016845D02*
X018150Y016845D01*
X018150Y016747D02*
X018050Y016747D01*
X018050Y016648D02*
X018150Y016648D01*
X018150Y016550D02*
X018050Y016550D01*
X018050Y016451D02*
X018150Y016451D01*
X018150Y016353D02*
X018050Y016353D01*
X018050Y016254D02*
X018150Y016254D01*
X018172Y016156D02*
X018028Y016156D01*
X017987Y016057D02*
X018213Y016057D01*
X017213Y016057D02*
X016987Y016057D01*
X017028Y016156D02*
X017172Y016156D01*
X017150Y016254D02*
X017050Y016254D01*
X017050Y016353D02*
X017150Y016353D01*
X017150Y016451D02*
X017050Y016451D01*
X017050Y016550D02*
X017150Y016550D01*
X017150Y016648D02*
X017050Y016648D01*
X017050Y016747D02*
X017150Y016747D01*
X017150Y016845D02*
X017050Y016845D01*
X017018Y016944D02*
X017182Y016944D01*
X017228Y017042D02*
X016972Y017042D01*
X016873Y017141D02*
X017327Y017141D01*
X015313Y017042D02*
X014887Y017042D01*
X014953Y016944D02*
X015247Y016944D01*
X015216Y016845D02*
X014984Y016845D01*
X014990Y016747D02*
X015210Y016747D01*
X015210Y016648D02*
X014990Y016648D01*
X014990Y016451D02*
X015210Y016451D01*
X015210Y016353D02*
X014990Y016353D01*
X014989Y016254D02*
X015211Y016254D01*
X015237Y016156D02*
X014963Y016156D01*
X014908Y016057D02*
X015292Y016057D01*
X014367Y015959D02*
X013425Y015959D01*
X013524Y016057D02*
X014292Y016057D01*
X014237Y016156D02*
X013622Y016156D01*
X013721Y016254D02*
X014211Y016254D01*
X014210Y016353D02*
X013819Y016353D01*
X014268Y015860D02*
X013327Y015860D01*
X013228Y015762D02*
X014170Y015762D01*
X014071Y015663D02*
X013130Y015663D01*
X013031Y015565D02*
X013973Y015565D01*
X013874Y015466D02*
X012933Y015466D01*
X012834Y015368D02*
X013776Y015368D01*
X012742Y017141D02*
X012704Y017141D01*
X012730Y017239D02*
X012841Y017239D01*
X012855Y017338D02*
X012757Y017338D01*
X012771Y017436D02*
X012855Y017436D01*
X012855Y017535D02*
X012771Y017535D01*
X012771Y017633D02*
X012855Y017633D01*
X012855Y017732D02*
X012763Y017732D01*
X012737Y017830D02*
X012855Y017830D01*
X012855Y017929D02*
X012710Y017929D01*
X012676Y018027D02*
X012855Y018027D01*
X012855Y018126D02*
X012619Y018126D01*
X012562Y018224D02*
X012855Y018224D01*
X012855Y018323D02*
X012482Y018323D01*
X012384Y018421D02*
X012855Y018421D01*
X012855Y018520D02*
X012262Y018520D01*
X012091Y018618D02*
X012855Y018618D01*
X014204Y019997D02*
X010717Y019997D01*
X010713Y020096D02*
X014282Y020096D01*
X015050Y019406D02*
X015150Y019406D01*
X015150Y019308D02*
X015050Y019308D01*
X015050Y019209D02*
X015150Y019209D01*
X015190Y019111D02*
X015010Y019111D01*
X014951Y019012D02*
X015249Y019012D01*
D16*
X016225Y017600D03*
X012913Y014975D03*
X012100Y012788D03*
X009663Y015600D03*
X007663Y016475D03*
X006475Y015288D03*
X002288Y014350D03*
X006975Y008288D03*
X003850Y006350D03*
X001600Y005788D03*
X004163Y004225D03*
X006225Y004475D03*
X007913Y004038D03*
X007975Y004725D03*
X008913Y004913D03*
X010100Y004538D03*
X010663Y004663D03*
X020600Y005538D03*
X021975Y005725D03*
X021538Y011225D03*
X022225Y015663D03*
X016100Y014413D03*
X012225Y019288D03*
D17*
X014663Y017663D02*
X015225Y017663D01*
X015600Y018038D01*
X015600Y019538D01*
X014663Y017663D02*
X012475Y015475D01*
X011475Y015475D01*
X011100Y015100D01*
X011100Y014163D01*
X010600Y014663D02*
X010600Y013600D01*
X010600Y012913D01*
X008288Y010600D01*
X008538Y011600D02*
X009600Y012663D01*
X009600Y013600D01*
X010600Y014663D02*
X009663Y015600D01*
X007663Y016475D02*
X007350Y016163D01*
X003975Y016163D01*
X003600Y015788D01*
X003600Y012913D01*
X003288Y012600D01*
X002975Y012600D01*
X003100Y012100D02*
X002288Y012100D01*
X001663Y012600D02*
X001600Y012600D01*
X001413Y012413D01*
X001413Y011350D01*
X001663Y011100D01*
X002288Y011100D01*
X001663Y010600D02*
X001413Y010350D01*
X001413Y009850D01*
X001663Y009600D01*
X002288Y010100D02*
X003100Y010100D01*
X003600Y010600D01*
X003475Y011100D02*
X005288Y011100D01*
X005913Y009600D02*
X008100Y009600D01*
X011100Y012600D01*
X011100Y012788D01*
X012100Y012788D02*
X008413Y009100D01*
X005288Y009100D01*
X004663Y009600D02*
X002975Y009600D01*
X002975Y010600D02*
X003475Y011100D01*
X003600Y011600D02*
X003100Y012100D01*
X003100Y008100D02*
X002288Y008100D01*
X003100Y008100D02*
X003600Y007600D01*
X004663Y007600D01*
X005913Y007600D02*
X008600Y007600D01*
X009100Y008350D02*
X009100Y008913D01*
X013100Y012913D01*
X013600Y012413D02*
X010100Y008913D01*
X010100Y008350D01*
X009600Y007600D02*
X009600Y006350D01*
X007975Y004725D01*
X007100Y004663D02*
X009100Y006663D01*
X010100Y006975D02*
X010100Y006100D01*
X008913Y004913D01*
X009100Y004288D02*
X011100Y006288D01*
X011100Y006975D01*
X012100Y006975D02*
X012100Y006100D01*
X010663Y004663D01*
X010100Y004538D02*
X010600Y004038D01*
X010788Y004038D01*
X011100Y003725D01*
X013100Y005725D01*
X013100Y006975D01*
X014100Y006975D02*
X014100Y003038D01*
X015100Y003100D02*
X015100Y006975D01*
X016100Y006975D02*
X016100Y003038D01*
X017100Y003038D02*
X017100Y006975D01*
X018100Y006975D02*
X018100Y002850D01*
X019100Y002788D02*
X019100Y006975D01*
X019600Y006788D02*
X020100Y006288D01*
X020100Y001913D01*
X021100Y003100D02*
X021100Y006975D01*
X020600Y007600D02*
X020600Y008475D01*
X020350Y008725D01*
X019350Y008725D01*
X019100Y008475D01*
X019100Y008350D01*
X018600Y008663D02*
X019163Y009225D01*
X020538Y009225D01*
X021100Y008663D01*
X021100Y008350D01*
X019600Y007600D02*
X019600Y006788D01*
X018600Y007600D02*
X018600Y008663D01*
X018100Y008413D02*
X018100Y009038D01*
X021600Y012538D01*
X021600Y013600D01*
X020600Y013600D02*
X020600Y012538D01*
X017100Y009038D01*
X017100Y008350D01*
X016100Y008350D02*
X016100Y009038D01*
X019600Y012538D01*
X019600Y013600D01*
X018600Y013600D02*
X018600Y012538D01*
X015100Y009038D01*
X015100Y008350D01*
X014100Y008350D02*
X014100Y009038D01*
X017600Y012538D01*
X017600Y013600D01*
X016600Y013600D02*
X016600Y012538D01*
X013100Y009038D01*
X013100Y008350D01*
X012100Y008350D02*
X012100Y008413D01*
X012100Y008975D01*
X012100Y009038D02*
X015600Y012538D01*
X015600Y013600D01*
X015100Y014225D02*
X015100Y014538D01*
X015413Y014850D01*
X019350Y014850D01*
X019600Y015100D01*
X019600Y016538D01*
X019600Y017475D01*
X019850Y017725D01*
X021350Y017725D01*
X021600Y017975D01*
X021600Y019538D01*
X020600Y019538D02*
X020600Y018475D01*
X020350Y018225D01*
X019663Y018225D01*
X019100Y017663D01*
X019100Y017288D01*
X018600Y016538D02*
X018600Y015913D01*
X018413Y015725D01*
X014600Y015725D01*
X013850Y014975D01*
X012913Y014975D01*
X013350Y014413D02*
X014100Y014413D01*
X015038Y015288D01*
X018850Y015288D01*
X019100Y015538D01*
X019100Y015850D01*
X020600Y016538D02*
X020600Y014663D01*
X020350Y014413D01*
X016100Y014413D01*
X015100Y012850D02*
X011100Y008850D01*
X011100Y008350D01*
X007100Y004663D02*
X007100Y001913D01*
X009100Y001913D02*
X009100Y004288D01*
X011100Y003725D02*
X011100Y001913D01*
X018100Y008350D02*
X018100Y008413D01*
X013600Y012413D02*
X013600Y013600D01*
X013100Y014163D02*
X013350Y014413D01*
D18*
X013100Y014163D02*
X013100Y012913D01*
X015100Y012850D02*
X015100Y014225D01*
X019100Y015850D02*
X019100Y017288D01*
X011100Y014163D02*
X011100Y012788D01*
X008538Y011600D02*
X003600Y011600D01*
X003600Y010600D02*
X008288Y010600D01*
X005913Y009600D02*
X004663Y009600D01*
X002975Y009600D02*
X001663Y009600D01*
X001663Y010600D02*
X002975Y010600D01*
X002975Y012600D02*
X001663Y012600D01*
X004663Y007600D02*
X005913Y007600D01*
X009100Y008350D02*
X009100Y006663D01*
X010100Y006975D02*
X010100Y008350D01*
X011100Y008350D02*
X011100Y006975D01*
X012100Y006975D02*
X012100Y008350D01*
X012100Y008975D02*
X012100Y009038D01*
X013100Y008350D02*
X013100Y006975D01*
X014100Y006975D02*
X014100Y008350D01*
X015100Y008350D02*
X015100Y006975D01*
X016100Y006975D02*
X016100Y008350D01*
X017100Y008350D02*
X017100Y006975D01*
X018100Y006975D02*
X018100Y008350D01*
X019100Y008350D02*
X019100Y006975D01*
X021100Y006975D02*
X021100Y008350D01*
X021100Y003100D02*
X021100Y001913D01*
X019100Y001913D02*
X019100Y002788D01*
X018100Y002850D02*
X018100Y001913D01*
X017100Y001913D02*
X017100Y003038D01*
X016100Y003038D02*
X016100Y001913D01*
X015100Y001913D02*
X015100Y003100D01*
X014100Y003038D02*
X014100Y001913D01*
M02*
