G75*
%MOIN*%
%OFA0B0*%
%FSLAX24Y24*%
%IPPOS*%
%LPD*%
%AMOC8*
5,1,8,0,0,1.08239X$1,22.5*
%
%ADD10C,0.0000*%
%ADD11C,0.0080*%
%ADD12OC8,0.0560*%
%ADD13C,0.0480*%
%ADD14R,0.0748X0.3150*%
%ADD15R,0.0630X0.0460*%
%ADD16C,0.0320*%
%ADD17C,0.0240*%
%ADD18C,0.0100*%
%ADD19C,0.0317*%
%ADD20C,0.0200*%
D10*
X000100Y000100D02*
X000100Y021060D01*
X023100Y021060D01*
X023100Y000100D01*
X000100Y000100D01*
X010671Y017547D02*
X010673Y017607D01*
X010679Y017668D01*
X010689Y017727D01*
X010703Y017786D01*
X010720Y017844D01*
X010741Y017901D01*
X010766Y017956D01*
X010795Y018009D01*
X010827Y018061D01*
X010862Y018110D01*
X010901Y018157D01*
X010942Y018201D01*
X010986Y018242D01*
X011033Y018281D01*
X011082Y018316D01*
X011133Y018348D01*
X011187Y018377D01*
X011242Y018402D01*
X011299Y018423D01*
X011357Y018440D01*
X011416Y018454D01*
X011475Y018464D01*
X011536Y018470D01*
X011596Y018472D01*
X011656Y018470D01*
X011717Y018464D01*
X011776Y018454D01*
X011835Y018440D01*
X011893Y018423D01*
X011950Y018402D01*
X012005Y018377D01*
X012058Y018348D01*
X012110Y018316D01*
X012159Y018281D01*
X012206Y018242D01*
X012250Y018201D01*
X012291Y018157D01*
X012330Y018110D01*
X012365Y018061D01*
X012397Y018010D01*
X012426Y017956D01*
X012451Y017901D01*
X012472Y017844D01*
X012489Y017786D01*
X012503Y017727D01*
X012513Y017668D01*
X012519Y017607D01*
X012521Y017547D01*
X012519Y017487D01*
X012513Y017426D01*
X012503Y017367D01*
X012489Y017308D01*
X012472Y017250D01*
X012451Y017193D01*
X012426Y017138D01*
X012397Y017085D01*
X012365Y017033D01*
X012330Y016984D01*
X012291Y016937D01*
X012250Y016893D01*
X012206Y016852D01*
X012159Y016813D01*
X012110Y016778D01*
X012059Y016746D01*
X012005Y016717D01*
X011950Y016692D01*
X011893Y016671D01*
X011835Y016654D01*
X011776Y016640D01*
X011717Y016630D01*
X011656Y016624D01*
X011596Y016622D01*
X011536Y016624D01*
X011475Y016630D01*
X011416Y016640D01*
X011357Y016654D01*
X011299Y016671D01*
X011242Y016692D01*
X011187Y016717D01*
X011134Y016746D01*
X011082Y016778D01*
X011033Y016813D01*
X010986Y016852D01*
X010942Y016893D01*
X010901Y016937D01*
X010862Y016984D01*
X010827Y017033D01*
X010795Y017084D01*
X010766Y017138D01*
X010741Y017193D01*
X010720Y017250D01*
X010703Y017308D01*
X010689Y017367D01*
X010679Y017426D01*
X010673Y017487D01*
X010671Y017547D01*
D11*
X008810Y018640D02*
X008490Y018640D01*
X008650Y018640D02*
X008650Y019120D01*
X008810Y018960D01*
X008294Y018960D02*
X008294Y019040D01*
X008214Y019120D01*
X008054Y019120D01*
X007974Y019040D01*
X007974Y018960D01*
X008054Y018880D01*
X008214Y018880D01*
X008294Y018960D01*
X008214Y018880D02*
X008294Y018800D01*
X008294Y018720D01*
X008214Y018640D01*
X008054Y018640D01*
X007974Y018720D01*
X007974Y018800D01*
X008054Y018880D01*
X007779Y018720D02*
X007699Y018720D01*
X007699Y018640D01*
X007779Y018640D01*
X007779Y018720D01*
X007521Y018720D02*
X007521Y019040D01*
X007441Y019120D01*
X007281Y019120D01*
X007201Y019040D01*
X007521Y018720D01*
X007441Y018640D01*
X007281Y018640D01*
X007201Y018720D01*
X007201Y019040D01*
X007005Y018880D02*
X006685Y018880D01*
X006490Y018720D02*
X006410Y018720D01*
X006410Y018640D01*
X006490Y018640D01*
X006490Y018720D01*
X006232Y018640D02*
X005912Y018960D01*
X005912Y019040D01*
X005992Y019120D01*
X006152Y019120D01*
X006232Y019040D01*
X006232Y018640D02*
X005912Y018640D01*
X005716Y018720D02*
X005716Y019040D01*
X005636Y019120D01*
X005476Y019120D01*
X005396Y019040D01*
X005716Y018720D01*
X005636Y018640D01*
X005476Y018640D01*
X005396Y018720D01*
X005396Y019040D01*
X005201Y018960D02*
X005040Y019120D01*
X005040Y018640D01*
X004880Y018640D02*
X005201Y018640D01*
X004685Y018720D02*
X004685Y018800D01*
X004605Y018880D01*
X004445Y018880D01*
X004365Y018800D01*
X004365Y018720D01*
X004445Y018640D01*
X004605Y018640D01*
X004685Y018720D01*
X004605Y018880D02*
X004685Y018960D01*
X004685Y019040D01*
X004605Y019120D01*
X004445Y019120D01*
X004365Y019040D01*
X004365Y018960D01*
X004445Y018880D01*
X004169Y018720D02*
X004089Y018720D01*
X004089Y018640D01*
X004169Y018640D01*
X004169Y018720D01*
X005568Y019480D02*
X005888Y019480D01*
X005728Y019480D02*
X005728Y019960D01*
X005888Y019800D01*
X006083Y019640D02*
X006163Y019720D01*
X006404Y019720D01*
X006404Y019560D01*
X006324Y019480D01*
X006163Y019480D01*
X006083Y019560D01*
X006083Y019640D01*
X006244Y019880D02*
X006404Y019720D01*
X006244Y019880D02*
X006083Y019960D01*
X006599Y019960D02*
X006599Y019880D01*
X006919Y019560D01*
X006919Y019480D01*
X007115Y019560D02*
X007115Y019720D01*
X007195Y019800D01*
X007355Y019800D01*
X007435Y019720D01*
X007435Y019560D01*
X007355Y019480D01*
X007195Y019480D01*
X007115Y019560D01*
X006919Y019960D02*
X006599Y019960D01*
X006765Y019120D02*
X007005Y018880D01*
X006765Y018640D02*
X006765Y019120D01*
X007619Y019480D02*
X007779Y019480D01*
X007699Y019480D02*
X007699Y019960D01*
X007779Y019960D01*
X007974Y019720D02*
X008054Y019800D01*
X008214Y019800D01*
X008294Y019720D01*
X008294Y019560D01*
X008214Y019480D01*
X008054Y019480D01*
X007974Y019560D01*
X007974Y019720D01*
X008490Y019640D02*
X008490Y019560D01*
X008570Y019480D01*
X008730Y019480D01*
X008810Y019560D01*
X008730Y019720D02*
X008570Y019720D01*
X008490Y019640D01*
X008490Y019880D02*
X008570Y019960D01*
X008730Y019960D01*
X008810Y019880D01*
X008810Y019800D01*
X008730Y019720D01*
D12*
X010288Y019913D03*
X010288Y018913D03*
X010163Y016850D03*
X006163Y016850D03*
X004475Y015413D03*
X002475Y015413D03*
X003350Y005850D03*
X007350Y005850D03*
D13*
X008600Y007360D02*
X008600Y007840D01*
X009600Y007840D02*
X009600Y007360D01*
X010600Y007360D02*
X010600Y007840D01*
X011600Y007840D02*
X011600Y007360D01*
X012600Y007360D02*
X012600Y007840D01*
X013600Y007840D02*
X013600Y007360D01*
X014600Y007360D02*
X014600Y007840D01*
X015600Y007840D02*
X015600Y007360D01*
X016600Y007360D02*
X016600Y007840D01*
X017600Y007840D02*
X017600Y007360D01*
X018600Y007360D02*
X018600Y007840D01*
X019600Y007840D02*
X019600Y007360D01*
X020600Y007360D02*
X020600Y007840D01*
X021600Y007840D02*
X021600Y007360D01*
X021600Y013360D02*
X021600Y013840D01*
X020600Y013840D02*
X020600Y013360D01*
X019600Y013360D02*
X019600Y013840D01*
X018600Y013840D02*
X018600Y013360D01*
X017600Y013360D02*
X017600Y013840D01*
X016600Y013840D02*
X016600Y013360D01*
X015600Y013360D02*
X015600Y013840D01*
X014600Y013840D02*
X014600Y013360D01*
X013600Y013360D02*
X013600Y013840D01*
X012600Y013840D02*
X012600Y013360D01*
X011600Y013360D02*
X011600Y013840D01*
X010600Y013840D02*
X010600Y013360D01*
X009600Y013360D02*
X009600Y013840D01*
X008600Y013840D02*
X008600Y013360D01*
X005528Y013100D02*
X005048Y013100D01*
X005048Y012100D02*
X005528Y012100D01*
X005528Y011100D02*
X005048Y011100D01*
X005048Y010100D02*
X005528Y010100D01*
X005528Y009100D02*
X005048Y009100D01*
X005048Y008100D02*
X005528Y008100D01*
X005528Y007100D02*
X005048Y007100D01*
X002528Y007100D02*
X002048Y007100D01*
X002048Y008100D02*
X002528Y008100D01*
X002528Y009100D02*
X002048Y009100D01*
X002048Y010100D02*
X002528Y010100D01*
X002528Y011100D02*
X002048Y011100D01*
X002048Y012100D02*
X002528Y012100D01*
X002528Y013100D02*
X002048Y013100D01*
X014600Y016298D02*
X014600Y016778D01*
X015600Y016778D02*
X015600Y016298D01*
X016600Y016298D02*
X016600Y016778D01*
X017600Y016778D02*
X017600Y016298D01*
X018600Y016298D02*
X018600Y016778D01*
X019600Y016778D02*
X019600Y016298D01*
X020600Y016298D02*
X020600Y016778D01*
X021600Y016778D02*
X021600Y016298D01*
X021600Y019298D02*
X021600Y019778D01*
X020600Y019778D02*
X020600Y019298D01*
X019600Y019298D02*
X019600Y019778D01*
X018600Y019778D02*
X018600Y019298D01*
X017600Y019298D02*
X017600Y019778D01*
X016600Y019778D02*
X016600Y019298D01*
X015600Y019298D02*
X015600Y019778D01*
X014600Y019778D02*
X014600Y019298D01*
D14*
X014100Y001913D03*
X013100Y001913D03*
X012100Y001913D03*
X011100Y001913D03*
X010100Y001913D03*
X009100Y001913D03*
X008100Y001913D03*
X007100Y001913D03*
X006100Y001913D03*
X005100Y001913D03*
X004100Y001913D03*
X003100Y001913D03*
X002100Y001913D03*
X001100Y001913D03*
X015100Y001913D03*
X016100Y001913D03*
X017100Y001913D03*
X018100Y001913D03*
X019100Y001913D03*
X020100Y001913D03*
X021100Y001913D03*
X022100Y001913D03*
D15*
X007225Y010250D03*
X007225Y010850D03*
X007225Y011450D03*
X007163Y013125D03*
X007163Y013725D03*
X007163Y014325D03*
X008600Y015625D03*
X008600Y016225D03*
X008600Y016825D03*
D16*
X010100Y020663D02*
X013850Y020663D01*
X013850Y018913D01*
X014600Y018163D01*
X014600Y016538D01*
X015600Y016538D01*
X013850Y020663D02*
X022475Y020663D01*
X022725Y020413D01*
X022725Y016350D01*
X022538Y016538D01*
X021600Y016538D01*
X022725Y016350D02*
X022725Y007350D01*
X022475Y007600D01*
X021600Y007600D01*
X022725Y007350D02*
X022725Y004475D01*
X022100Y003850D01*
X022100Y001913D01*
X005288Y013100D02*
X004288Y013100D01*
X003850Y012663D01*
X003850Y006350D01*
X003350Y005850D01*
X002288Y007100D02*
X000788Y007100D01*
X000475Y006788D01*
X000475Y020413D01*
X000725Y020663D01*
X010100Y020663D01*
X000475Y006788D02*
X000475Y004475D01*
X001100Y003850D01*
X001100Y001913D01*
D17*
X003100Y001913D02*
X003100Y003975D01*
X003100Y004850D01*
X002538Y005413D01*
X002538Y006163D01*
X003225Y006850D01*
X003225Y007350D01*
X002975Y007600D01*
X001663Y007600D02*
X001413Y007850D01*
X001413Y019288D01*
X006163Y016850D02*
X007038Y016850D01*
X007788Y017600D01*
X009600Y017600D01*
X010288Y018288D01*
X010288Y018913D01*
X010288Y019913D02*
X010288Y020475D01*
X010413Y020600D01*
X010288Y020475D02*
X010100Y020663D01*
X008600Y016825D02*
X008013Y016825D01*
X007663Y016475D01*
X008600Y016225D02*
X013600Y016225D01*
X014350Y015475D01*
X016288Y015475D01*
X016600Y015788D01*
X016600Y016538D01*
X017600Y016538D02*
X017600Y015350D01*
X017163Y014913D01*
X013975Y014913D01*
X013163Y015725D01*
X010600Y015725D01*
X009725Y014850D01*
X008100Y014850D01*
X007913Y014663D01*
X007913Y013850D01*
X007788Y013725D01*
X007163Y013725D01*
X007163Y013125D02*
X007688Y012600D01*
X009413Y012600D01*
X009600Y012788D01*
X009600Y013600D01*
X010100Y014225D02*
X010850Y014975D01*
X012913Y014975D01*
X012350Y014475D02*
X011350Y014475D01*
X011100Y014225D01*
X011100Y014163D01*
X011600Y013600D02*
X011600Y012288D01*
X010100Y010788D01*
X010100Y008350D01*
X010600Y007600D02*
X010600Y007225D01*
X014100Y003725D01*
X014100Y001913D01*
X013100Y001913D02*
X013100Y003850D01*
X010100Y006850D01*
X010100Y006975D01*
X009100Y006975D02*
X012100Y003975D01*
X012100Y001913D01*
X011100Y001913D02*
X011100Y004225D01*
X010663Y004663D01*
X010100Y004725D02*
X010100Y004538D01*
X010100Y004725D02*
X008975Y005850D01*
X007350Y005850D01*
X007975Y004725D02*
X008288Y004725D01*
X009100Y003913D01*
X009100Y001913D01*
X010100Y001913D02*
X010100Y003850D01*
X008913Y004913D01*
X008600Y007600D02*
X007225Y008975D01*
X007225Y010250D01*
X007225Y010850D02*
X008413Y010850D01*
X010100Y012538D01*
X010100Y012788D01*
X011100Y012788D02*
X011100Y012600D01*
X009100Y010600D01*
X009100Y008350D01*
X011600Y007600D02*
X011600Y007225D01*
X015100Y003725D01*
X015100Y001913D01*
X016100Y001913D02*
X016100Y003725D01*
X012600Y007225D01*
X012600Y007600D01*
X013600Y007600D02*
X013600Y007225D01*
X017100Y003725D01*
X017100Y001913D01*
X018100Y001913D02*
X018100Y003725D01*
X014600Y007225D01*
X014600Y007600D01*
X015600Y007600D02*
X015600Y007225D01*
X019100Y003725D01*
X019100Y001913D01*
X020100Y001913D02*
X020100Y003725D01*
X016600Y007225D01*
X016600Y007600D01*
X017600Y007600D02*
X017600Y007225D01*
X021100Y003725D01*
X021100Y001913D01*
X020600Y007600D02*
X020600Y008663D01*
X020100Y009163D01*
X020100Y012788D01*
X019100Y012788D02*
X019100Y009163D01*
X019600Y008663D01*
X019600Y007600D01*
X018600Y007600D02*
X018600Y008663D01*
X018100Y009163D01*
X018100Y012788D01*
X018100Y014288D02*
X018100Y015850D01*
X019100Y015850D02*
X019100Y014288D01*
X020100Y014288D02*
X020100Y015850D01*
X021100Y015850D02*
X021600Y015350D01*
X021600Y013600D01*
X021100Y017288D02*
X019600Y018788D01*
X019600Y019538D01*
X018600Y019538D02*
X018600Y018788D01*
X020100Y017288D01*
X019100Y017288D02*
X017600Y018788D01*
X017600Y019538D01*
X016600Y019538D02*
X016600Y018788D01*
X018100Y017288D01*
X016100Y014413D02*
X014413Y014413D01*
X014100Y014100D01*
X014600Y013600D02*
X014600Y012788D01*
X014850Y012538D01*
X016350Y012538D01*
X016600Y012788D01*
X016600Y013600D01*
X014100Y012850D02*
X014100Y012725D01*
X013913Y012538D01*
X012350Y012538D01*
X012100Y012788D01*
X012600Y013600D02*
X012600Y014225D01*
X012350Y014475D01*
X009663Y015600D02*
X008750Y015600D01*
X008600Y015625D01*
X007163Y014325D02*
X007138Y014350D01*
X003538Y014350D01*
X002288Y013100D01*
X003288Y013225D02*
X003913Y013850D01*
X005913Y013850D01*
X006350Y013413D01*
X006350Y011850D01*
X006750Y011450D01*
X007225Y011450D01*
X005975Y010100D02*
X005288Y010100D01*
X005975Y010100D02*
X006163Y009913D01*
X006163Y006663D01*
X005100Y005600D01*
X005100Y001913D01*
X003100Y003975D02*
X004413Y005288D01*
X004413Y011725D01*
X004788Y012100D01*
X005288Y012100D01*
X003288Y013225D02*
X003288Y009350D01*
X003038Y009100D01*
X002288Y009100D01*
D18*
X001083Y009064D02*
X000350Y009064D01*
X000350Y009162D02*
X001083Y009162D01*
X001083Y009261D02*
X000350Y009261D01*
X000350Y009359D02*
X001083Y009359D01*
X001083Y009458D02*
X000350Y009458D01*
X000350Y009556D02*
X001083Y009556D01*
X001083Y009655D02*
X000350Y009655D01*
X000350Y009753D02*
X001083Y009753D01*
X001083Y009852D02*
X000350Y009852D01*
X000350Y009950D02*
X001083Y009950D01*
X001083Y010049D02*
X000350Y010049D01*
X000350Y010147D02*
X001083Y010147D01*
X001083Y010246D02*
X000350Y010246D01*
X000350Y010344D02*
X001083Y010344D01*
X001083Y010443D02*
X000350Y010443D01*
X000350Y010541D02*
X001083Y010541D01*
X001083Y010640D02*
X000350Y010640D01*
X000350Y010738D02*
X001083Y010738D01*
X001083Y010837D02*
X000350Y010837D01*
X000350Y010935D02*
X001083Y010935D01*
X001083Y011034D02*
X000350Y011034D01*
X000350Y011132D02*
X001083Y011132D01*
X001083Y011231D02*
X000350Y011231D01*
X000350Y011329D02*
X001083Y011329D01*
X001083Y011428D02*
X000350Y011428D01*
X000350Y011526D02*
X001083Y011526D01*
X001083Y011625D02*
X000350Y011625D01*
X000350Y011723D02*
X001083Y011723D01*
X001083Y011822D02*
X000350Y011822D01*
X000350Y011920D02*
X001083Y011920D01*
X001083Y012019D02*
X000350Y012019D01*
X000350Y012117D02*
X001083Y012117D01*
X001083Y012216D02*
X000350Y012216D01*
X000350Y012314D02*
X001083Y012314D01*
X001083Y012413D02*
X000350Y012413D01*
X000350Y012511D02*
X001083Y012511D01*
X001083Y012610D02*
X000350Y012610D01*
X000350Y012708D02*
X001083Y012708D01*
X001083Y012807D02*
X000350Y012807D01*
X000350Y012905D02*
X001083Y012905D01*
X001083Y013004D02*
X000350Y013004D01*
X000350Y013102D02*
X001083Y013102D01*
X001083Y013201D02*
X000350Y013201D01*
X000350Y013299D02*
X001083Y013299D01*
X001083Y013398D02*
X000350Y013398D01*
X000350Y013496D02*
X001083Y013496D01*
X001083Y013595D02*
X000350Y013595D01*
X000350Y013693D02*
X001083Y013693D01*
X001083Y013792D02*
X000350Y013792D01*
X000350Y013890D02*
X001083Y013890D01*
X001083Y013989D02*
X000350Y013989D01*
X000350Y014087D02*
X001083Y014087D01*
X001083Y014186D02*
X000350Y014186D01*
X000350Y014284D02*
X001083Y014284D01*
X001083Y014383D02*
X000350Y014383D01*
X000350Y014481D02*
X001083Y014481D01*
X001083Y014580D02*
X000350Y014580D01*
X000350Y014678D02*
X001083Y014678D01*
X001083Y014777D02*
X000350Y014777D01*
X000350Y014875D02*
X001083Y014875D01*
X001083Y014974D02*
X000350Y014974D01*
X000350Y015072D02*
X001083Y015072D01*
X001083Y015171D02*
X000350Y015171D01*
X000350Y015269D02*
X001083Y015269D01*
X001083Y015368D02*
X000350Y015368D01*
X000350Y015466D02*
X001083Y015466D01*
X001083Y015565D02*
X000350Y015565D01*
X000350Y015663D02*
X001083Y015663D01*
X001083Y015762D02*
X000350Y015762D01*
X000350Y015860D02*
X001083Y015860D01*
X001083Y015959D02*
X000350Y015959D01*
X000350Y016057D02*
X001083Y016057D01*
X001083Y016156D02*
X000350Y016156D01*
X000350Y016254D02*
X001083Y016254D01*
X001083Y016353D02*
X000350Y016353D01*
X000350Y016451D02*
X001083Y016451D01*
X001083Y016550D02*
X000350Y016550D01*
X000350Y016648D02*
X001083Y016648D01*
X001083Y016747D02*
X000350Y016747D01*
X000350Y016845D02*
X001083Y016845D01*
X001083Y016944D02*
X000350Y016944D01*
X000350Y017042D02*
X001083Y017042D01*
X001083Y017141D02*
X000350Y017141D01*
X000350Y017239D02*
X001083Y017239D01*
X001083Y017338D02*
X000350Y017338D01*
X000350Y017436D02*
X001083Y017436D01*
X001083Y017535D02*
X000350Y017535D01*
X000350Y017633D02*
X001083Y017633D01*
X001083Y017732D02*
X000350Y017732D01*
X000350Y017830D02*
X001083Y017830D01*
X001083Y017929D02*
X000350Y017929D01*
X000350Y018027D02*
X001083Y018027D01*
X001083Y018126D02*
X000350Y018126D01*
X000350Y018224D02*
X001083Y018224D01*
X001083Y018225D02*
X001083Y007784D01*
X001133Y007663D01*
X001226Y007570D01*
X001476Y007320D01*
X001597Y007270D01*
X001696Y007270D01*
X001672Y007214D01*
X001658Y007138D01*
X001658Y007130D01*
X002257Y007130D01*
X002257Y007070D01*
X001658Y007070D01*
X001658Y007062D01*
X001672Y006986D01*
X001702Y006915D01*
X001745Y006851D01*
X001799Y006797D01*
X001863Y006754D01*
X001934Y006725D01*
X002009Y006710D01*
X002257Y006710D01*
X002257Y007070D01*
X002318Y007070D01*
X002318Y006710D01*
X002566Y006710D01*
X002631Y006723D01*
X002258Y006349D01*
X002208Y006228D01*
X002208Y005347D01*
X002258Y005226D01*
X002351Y005133D01*
X002770Y004713D01*
X002770Y003725D01*
X000350Y003725D01*
X000350Y020810D01*
X000600Y020810D01*
X000600Y018225D01*
X001083Y018225D01*
X000913Y018538D02*
X000913Y020225D01*
X003413Y020225D01*
X003413Y018538D01*
X000913Y018538D01*
X000913Y018618D02*
X003413Y018618D01*
X003413Y018717D02*
X000913Y018717D01*
X000913Y018815D02*
X003413Y018815D01*
X003413Y018914D02*
X000913Y018914D01*
X000913Y019012D02*
X003413Y019012D01*
X003413Y019111D02*
X000913Y019111D01*
X000913Y019209D02*
X003413Y019209D01*
X003413Y019308D02*
X000913Y019308D01*
X000913Y019406D02*
X003413Y019406D01*
X003413Y019505D02*
X000913Y019505D01*
X000913Y019603D02*
X003413Y019603D01*
X003413Y019702D02*
X000913Y019702D01*
X000913Y019800D02*
X003413Y019800D01*
X003413Y019899D02*
X000913Y019899D01*
X000913Y019997D02*
X003413Y019997D01*
X003413Y020096D02*
X000913Y020096D01*
X000913Y020194D02*
X003413Y020194D01*
X003725Y020194D02*
X005639Y020194D01*
X005678Y020210D02*
X005586Y020172D01*
X005516Y020102D01*
X005478Y020010D01*
X005478Y019713D01*
X005426Y019692D01*
X005356Y019622D01*
X005318Y019530D01*
X005318Y019430D01*
X005355Y019341D01*
X005334Y019332D01*
X005258Y019256D01*
X005252Y019262D01*
X005182Y019332D01*
X005090Y019370D01*
X004991Y019370D01*
X004899Y019332D01*
X004828Y019262D01*
X004825Y019254D01*
X004817Y019262D01*
X004746Y019332D01*
X004655Y019370D01*
X004395Y019370D01*
X004314Y019337D01*
X004303Y019332D01*
X004233Y019262D01*
X004223Y019252D01*
X004153Y019182D01*
X004130Y019127D01*
X004115Y019090D01*
X004115Y018970D01*
X004039Y018970D01*
X003948Y018932D01*
X003877Y018862D01*
X003839Y018770D01*
X003839Y018590D01*
X003877Y018498D01*
X003948Y018428D01*
X004039Y018390D01*
X004219Y018390D01*
X004307Y018426D01*
X004340Y018413D01*
X004395Y018390D01*
X004655Y018390D01*
X004743Y018426D01*
X004831Y018390D01*
X005250Y018390D01*
X005338Y018426D01*
X005372Y018413D01*
X005426Y018390D01*
X005686Y018390D01*
X005774Y018426D01*
X005862Y018390D01*
X006282Y018390D01*
X006321Y018406D01*
X006360Y018390D01*
X006539Y018390D01*
X006627Y018426D01*
X006715Y018390D01*
X006815Y018390D01*
X006907Y018428D01*
X006977Y018498D01*
X007004Y018563D01*
X007059Y018508D01*
X007137Y018430D01*
X007139Y018428D01*
X007176Y018413D01*
X007231Y018390D01*
X007491Y018390D01*
X007570Y018423D01*
X007649Y018390D01*
X007828Y018390D01*
X007916Y018426D01*
X007950Y018413D01*
X008004Y018390D01*
X008264Y018390D01*
X008352Y018426D01*
X008440Y018390D01*
X008860Y018390D01*
X008952Y018428D01*
X009022Y018498D01*
X009060Y018590D01*
X009060Y018690D01*
X009022Y018782D01*
X009003Y018800D01*
X009022Y018819D01*
X009060Y018911D01*
X009060Y019010D01*
X009022Y019102D01*
X008862Y019262D01*
X008860Y019263D01*
X008872Y019268D01*
X009022Y019418D01*
X009060Y019510D01*
X009060Y019610D01*
X009031Y019680D01*
X009038Y019697D01*
X009060Y019751D01*
X009060Y019930D01*
X009022Y020022D01*
X008952Y020092D01*
X008872Y020172D01*
X008780Y020210D01*
X008520Y020210D01*
X008465Y020188D01*
X008428Y020172D01*
X008426Y020170D01*
X008294Y020038D01*
X008264Y020050D01*
X008012Y020050D01*
X007991Y020102D01*
X007920Y020172D01*
X007828Y020210D01*
X007649Y020210D01*
X007557Y020172D01*
X007487Y020102D01*
X007456Y020029D01*
X007444Y020034D01*
X007405Y020050D01*
X007153Y020050D01*
X007131Y020102D01*
X007061Y020172D01*
X006969Y020210D01*
X006549Y020210D01*
X006457Y020172D01*
X006387Y020102D01*
X006383Y020093D01*
X006347Y020108D01*
X006151Y020206D01*
X006052Y020213D01*
X005957Y020182D01*
X005905Y020137D01*
X005870Y020172D01*
X005778Y020210D01*
X005678Y020210D01*
X005817Y020194D02*
X005994Y020194D01*
X006175Y020194D02*
X006510Y020194D01*
X006384Y020096D02*
X006377Y020096D01*
X007009Y020194D02*
X007609Y020194D01*
X007484Y020096D02*
X007134Y020096D01*
X007868Y020194D02*
X008481Y020194D01*
X008428Y020172D02*
X008428Y020172D01*
X008351Y020096D02*
X007993Y020096D01*
X008819Y020194D02*
X009961Y020194D01*
X010059Y020293D02*
X003725Y020293D01*
X003725Y020391D02*
X022850Y020391D01*
X022850Y020293D02*
X010516Y020293D01*
X010466Y020342D02*
X010318Y020342D01*
X010318Y019943D01*
X010257Y019943D01*
X010257Y020342D01*
X010109Y020342D01*
X009858Y020091D01*
X009858Y019943D01*
X010257Y019943D01*
X010257Y019882D01*
X009858Y019882D01*
X009858Y019734D01*
X010109Y019483D01*
X010257Y019482D01*
X010257Y019882D01*
X010318Y019882D01*
X010318Y019943D01*
X010717Y019943D01*
X010717Y020091D01*
X010466Y020342D01*
X010318Y020293D02*
X010257Y020293D01*
X010257Y020194D02*
X010318Y020194D01*
X010318Y020096D02*
X010257Y020096D01*
X010257Y019997D02*
X010318Y019997D01*
X010318Y019899D02*
X014163Y019899D01*
X014150Y019867D02*
X014219Y020032D01*
X014345Y020159D01*
X014510Y020227D01*
X014690Y020227D01*
X014855Y020159D01*
X014981Y020032D01*
X015050Y019867D01*
X015050Y019208D01*
X014981Y019043D01*
X014855Y018916D01*
X014690Y018848D01*
X014510Y018848D01*
X014345Y018916D01*
X014219Y019043D01*
X014150Y019208D01*
X014150Y019867D01*
X014150Y019800D02*
X010717Y019800D01*
X010717Y019734D02*
X010717Y019882D01*
X010318Y019882D01*
X010318Y019483D01*
X010466Y019483D01*
X010717Y019734D01*
X010685Y019702D02*
X014150Y019702D01*
X014150Y019603D02*
X010586Y019603D01*
X010488Y019505D02*
X014150Y019505D01*
X014150Y019406D02*
X009010Y019406D01*
X009058Y019505D02*
X010087Y019505D01*
X010085Y019402D02*
X009798Y019115D01*
X009798Y018710D01*
X009958Y018550D01*
X009958Y018424D01*
X009463Y017930D01*
X007722Y017930D01*
X007601Y017880D01*
X007508Y017787D01*
X006901Y017180D01*
X006525Y017180D01*
X006365Y017340D01*
X005960Y017340D01*
X005673Y017053D01*
X005673Y016647D01*
X005960Y016360D01*
X006365Y016360D01*
X006525Y016520D01*
X007103Y016520D01*
X007224Y016570D01*
X007924Y017270D01*
X009666Y017270D01*
X009787Y017320D01*
X010474Y018008D01*
X010547Y018080D01*
X010501Y018000D01*
X010421Y017702D01*
X010421Y017392D01*
X010460Y017245D01*
X010365Y017340D01*
X009960Y017340D01*
X009673Y017053D01*
X009673Y016647D01*
X009765Y016555D01*
X009125Y016555D01*
X009125Y017142D01*
X009002Y017265D01*
X008198Y017265D01*
X008088Y017155D01*
X007947Y017155D01*
X007826Y017105D01*
X007733Y017012D01*
X007733Y017012D01*
X007547Y016826D01*
X007454Y016787D01*
X007350Y016684D01*
X007294Y016548D01*
X007294Y016402D01*
X007350Y016266D01*
X007454Y016163D01*
X007589Y016107D01*
X007736Y016107D01*
X007871Y016163D01*
X007975Y016266D01*
X008013Y016359D01*
X008075Y016421D01*
X008075Y015308D01*
X008198Y015185D01*
X009002Y015185D01*
X009087Y015270D01*
X009496Y015270D01*
X009589Y015232D01*
X009640Y015232D01*
X009588Y015180D01*
X008034Y015180D01*
X007913Y015130D01*
X007633Y014849D01*
X007588Y014741D01*
X007564Y014765D01*
X006761Y014765D01*
X006676Y014680D01*
X003472Y014680D01*
X003351Y014630D01*
X003258Y014537D01*
X002271Y013550D01*
X001958Y013550D01*
X001793Y013481D01*
X001742Y013431D01*
X001742Y018225D01*
X003725Y018225D01*
X003725Y020538D01*
X000663Y020538D01*
X000663Y020810D01*
X022850Y020810D01*
X022850Y003725D01*
X021430Y003725D01*
X021430Y003791D01*
X021380Y003912D01*
X021287Y004005D01*
X018042Y007250D01*
X018050Y007270D01*
X018050Y007930D01*
X017981Y008095D01*
X017855Y008221D01*
X017690Y008290D01*
X017510Y008290D01*
X017345Y008221D01*
X017219Y008095D01*
X017150Y007930D01*
X017150Y007270D01*
X017219Y007105D01*
X017345Y006979D01*
X017404Y006954D01*
X020633Y003725D01*
X020430Y003725D01*
X020430Y003791D01*
X020380Y003912D01*
X020287Y004005D01*
X017042Y007250D01*
X017050Y007270D01*
X017050Y007930D01*
X016981Y008095D01*
X016855Y008221D01*
X016690Y008290D01*
X016510Y008290D01*
X016345Y008221D01*
X016219Y008095D01*
X016150Y007930D01*
X016150Y007270D01*
X016219Y007105D01*
X016345Y006979D01*
X016404Y006954D01*
X019633Y003725D01*
X019430Y003725D01*
X019430Y003791D01*
X019380Y003912D01*
X019287Y004005D01*
X016042Y007250D01*
X016050Y007270D01*
X016050Y007930D01*
X015981Y008095D01*
X015855Y008221D01*
X015690Y008290D01*
X015510Y008290D01*
X015345Y008221D01*
X015219Y008095D01*
X015150Y007930D01*
X015150Y007270D01*
X015219Y007105D01*
X015345Y006979D01*
X015404Y006954D01*
X015413Y006945D01*
X018633Y003725D01*
X018430Y003725D01*
X018430Y003791D01*
X018380Y003912D01*
X018287Y004005D01*
X015042Y007250D01*
X015050Y007270D01*
X015050Y007930D01*
X014981Y008095D01*
X014855Y008221D01*
X014690Y008290D01*
X014510Y008290D01*
X014345Y008221D01*
X014219Y008095D01*
X014150Y007930D01*
X014150Y007270D01*
X014219Y007105D01*
X014345Y006979D01*
X014404Y006954D01*
X017633Y003725D01*
X017430Y003725D01*
X017430Y003791D01*
X017380Y003912D01*
X017287Y004005D01*
X014042Y007250D01*
X014050Y007270D01*
X014050Y007930D01*
X013981Y008095D01*
X013855Y008221D01*
X013690Y008290D01*
X013510Y008290D01*
X013345Y008221D01*
X013219Y008095D01*
X013150Y007930D01*
X013150Y007270D01*
X013219Y007105D01*
X013345Y006979D01*
X013404Y006954D01*
X016633Y003725D01*
X016430Y003725D01*
X016430Y003791D01*
X016380Y003912D01*
X016287Y004005D01*
X013042Y007250D01*
X013050Y007270D01*
X013050Y007930D01*
X012981Y008095D01*
X012855Y008221D01*
X012690Y008290D01*
X012510Y008290D01*
X012345Y008221D01*
X012219Y008095D01*
X012150Y007930D01*
X012150Y007270D01*
X012219Y007105D01*
X012345Y006979D01*
X012404Y006954D01*
X015633Y003725D01*
X015430Y003725D01*
X015430Y003791D01*
X015380Y003912D01*
X015287Y004005D01*
X012042Y007250D01*
X012050Y007270D01*
X012050Y007930D01*
X011981Y008095D01*
X011855Y008221D01*
X011690Y008290D01*
X011510Y008290D01*
X011345Y008221D01*
X011219Y008095D01*
X011150Y007930D01*
X011150Y007270D01*
X011219Y007105D01*
X011345Y006979D01*
X011404Y006954D01*
X014633Y003725D01*
X014430Y003725D01*
X014430Y003791D01*
X014380Y003912D01*
X014287Y004005D01*
X011042Y007250D01*
X011050Y007270D01*
X011050Y007930D01*
X010981Y008095D01*
X010855Y008221D01*
X010690Y008290D01*
X010510Y008290D01*
X010416Y008251D01*
X010430Y008284D01*
X010430Y010651D01*
X011880Y012101D01*
X011930Y012222D01*
X011930Y012459D01*
X011984Y012437D01*
X012163Y012258D01*
X012284Y012208D01*
X013978Y012208D01*
X014099Y012258D01*
X014192Y012351D01*
X014287Y012445D01*
X014380Y012538D01*
X014381Y012540D01*
X014570Y012351D01*
X014663Y012258D01*
X014784Y012208D01*
X016416Y012208D01*
X016537Y012258D01*
X016787Y012508D01*
X016880Y012601D01*
X016930Y012722D01*
X016930Y013054D01*
X016981Y013105D01*
X017050Y013270D01*
X017050Y013930D01*
X016981Y014095D01*
X016855Y014221D01*
X016690Y014290D01*
X016510Y014290D01*
X016435Y014259D01*
X016468Y014339D01*
X016468Y014486D01*
X016428Y014583D01*
X017228Y014583D01*
X017349Y014633D01*
X017770Y015053D01*
X017770Y014257D01*
X017690Y014290D01*
X017510Y014290D01*
X017345Y014221D01*
X017219Y014095D01*
X017150Y013930D01*
X017150Y013270D01*
X017219Y013105D01*
X017345Y012979D01*
X017510Y012910D01*
X017690Y012910D01*
X017790Y012952D01*
X017790Y012901D01*
X017770Y012853D01*
X017770Y009097D01*
X017820Y008976D01*
X017913Y008883D01*
X018270Y008526D01*
X018270Y008146D01*
X018219Y008095D01*
X018150Y007930D01*
X018150Y007270D01*
X018219Y007105D01*
X018345Y006979D01*
X018510Y006910D01*
X018690Y006910D01*
X018855Y006979D01*
X018981Y007105D01*
X019050Y007270D01*
X019050Y007930D01*
X018981Y008095D01*
X018930Y008146D01*
X018930Y008728D01*
X018880Y008849D01*
X018787Y008942D01*
X018430Y009299D01*
X018430Y012853D01*
X018410Y012901D01*
X018410Y012952D01*
X018510Y012910D01*
X018690Y012910D01*
X018790Y012952D01*
X018790Y012901D01*
X018770Y012853D01*
X018770Y009097D01*
X018820Y008976D01*
X018913Y008883D01*
X019270Y008526D01*
X019270Y008146D01*
X019219Y008095D01*
X019150Y007930D01*
X019150Y007270D01*
X019219Y007105D01*
X019345Y006979D01*
X019510Y006910D01*
X019690Y006910D01*
X019855Y006979D01*
X019981Y007105D01*
X020050Y007270D01*
X020050Y007930D01*
X019981Y008095D01*
X019930Y008146D01*
X019930Y008728D01*
X019880Y008849D01*
X019787Y008942D01*
X019787Y008942D01*
X019430Y009299D01*
X019430Y012853D01*
X019410Y012901D01*
X019410Y012952D01*
X019510Y012910D01*
X019690Y012910D01*
X019790Y012952D01*
X019790Y012901D01*
X019770Y012853D01*
X019770Y009097D01*
X019820Y008976D01*
X019913Y008883D01*
X020270Y008526D01*
X020270Y008146D01*
X020219Y008095D01*
X020150Y007930D01*
X020150Y007270D01*
X020219Y007105D01*
X020345Y006979D01*
X020510Y006910D01*
X020690Y006910D01*
X020855Y006979D01*
X020981Y007105D01*
X021050Y007270D01*
X021050Y007930D01*
X020981Y008095D01*
X020930Y008146D01*
X020930Y008728D01*
X020880Y008849D01*
X020787Y008942D01*
X020430Y009299D01*
X020430Y012853D01*
X020410Y012901D01*
X020410Y012952D01*
X020510Y012910D01*
X020690Y012910D01*
X020855Y012979D01*
X020981Y013105D01*
X021050Y013270D01*
X021050Y013930D01*
X020981Y014095D01*
X020855Y014221D01*
X020690Y014290D01*
X020510Y014290D01*
X020430Y014257D01*
X020430Y015881D01*
X020510Y015848D01*
X020690Y015848D01*
X020770Y015881D01*
X020770Y015784D01*
X020820Y015663D01*
X021270Y015213D01*
X021270Y014146D01*
X021219Y014095D01*
X021150Y013930D01*
X021150Y013270D01*
X021219Y013105D01*
X021345Y012979D01*
X021510Y012910D01*
X021690Y012910D01*
X021855Y012979D01*
X021981Y013105D01*
X022050Y013270D01*
X022050Y013930D01*
X021981Y014095D01*
X021930Y014146D01*
X021930Y015416D01*
X021880Y015537D01*
X021496Y015921D01*
X021562Y015908D01*
X021570Y015908D01*
X021570Y016507D01*
X021630Y016507D01*
X021630Y015908D01*
X021638Y015908D01*
X021714Y015922D01*
X021785Y015952D01*
X021849Y015995D01*
X021903Y016049D01*
X021946Y016113D01*
X021975Y016184D01*
X021990Y016259D01*
X021990Y016507D01*
X021630Y016507D01*
X021630Y016568D01*
X021570Y016568D01*
X021570Y017167D01*
X021562Y017167D01*
X021486Y017153D01*
X021415Y017123D01*
X021410Y017120D01*
X021410Y017174D01*
X021430Y017222D01*
X021430Y017353D01*
X021380Y017474D01*
X019930Y018924D01*
X019930Y018991D01*
X019981Y019043D01*
X020050Y019208D01*
X020050Y019867D01*
X019981Y020032D01*
X019855Y020159D01*
X019690Y020227D01*
X019510Y020227D01*
X019345Y020159D01*
X019219Y020032D01*
X019150Y019867D01*
X019150Y019208D01*
X019219Y019043D01*
X019270Y018991D01*
X019270Y018722D01*
X019320Y018601D01*
X019413Y018508D01*
X020696Y017225D01*
X020690Y017227D01*
X020510Y017227D01*
X020416Y017188D01*
X020430Y017222D01*
X020430Y017353D01*
X020380Y017474D01*
X018930Y018924D01*
X018930Y018991D01*
X018981Y019043D01*
X019050Y019208D01*
X019050Y019867D01*
X018981Y020032D01*
X018855Y020159D01*
X018690Y020227D01*
X018510Y020227D01*
X018345Y020159D01*
X018219Y020032D01*
X018150Y019867D01*
X018150Y019208D01*
X018219Y019043D01*
X018270Y018991D01*
X018270Y018722D01*
X018320Y018601D01*
X019696Y017225D01*
X019690Y017227D01*
X019510Y017227D01*
X019416Y017188D01*
X019430Y017222D01*
X019430Y017353D01*
X019380Y017474D01*
X017930Y018924D01*
X017930Y018991D01*
X017981Y019043D01*
X018050Y019208D01*
X018050Y019867D01*
X017981Y020032D01*
X017855Y020159D01*
X017690Y020227D01*
X017510Y020227D01*
X017345Y020159D01*
X017219Y020032D01*
X017150Y019867D01*
X017150Y019208D01*
X017219Y019043D01*
X017270Y018991D01*
X017270Y018722D01*
X017320Y018601D01*
X018696Y017225D01*
X018690Y017227D01*
X018510Y017227D01*
X018416Y017188D01*
X018430Y017222D01*
X018430Y017353D01*
X018380Y017474D01*
X016930Y018924D01*
X016930Y018991D01*
X016981Y019043D01*
X017050Y019208D01*
X017050Y019867D01*
X016981Y020032D01*
X016855Y020159D01*
X016690Y020227D01*
X016510Y020227D01*
X016345Y020159D01*
X016219Y020032D01*
X016150Y019867D01*
X016150Y019208D01*
X016219Y019043D01*
X016270Y018991D01*
X016270Y018722D01*
X016320Y018601D01*
X017696Y017225D01*
X017690Y017227D01*
X017510Y017227D01*
X017345Y017159D01*
X017219Y017032D01*
X017150Y016867D01*
X017150Y016208D01*
X017219Y016043D01*
X017270Y015991D01*
X017270Y015487D01*
X017026Y015242D01*
X016522Y015242D01*
X016787Y015508D01*
X016880Y015601D01*
X016930Y015722D01*
X016930Y015991D01*
X016981Y016043D01*
X017050Y016208D01*
X017050Y016867D01*
X016981Y017032D01*
X016855Y017159D01*
X016690Y017227D01*
X016510Y017227D01*
X016345Y017159D01*
X016219Y017032D01*
X016150Y016867D01*
X016150Y016208D01*
X016219Y016043D01*
X016270Y015991D01*
X016270Y015924D01*
X016151Y015805D01*
X014487Y015805D01*
X013880Y016412D01*
X013787Y016505D01*
X013666Y016555D01*
X012229Y016555D01*
X012318Y016606D01*
X012536Y016825D01*
X012691Y017093D01*
X012771Y017392D01*
X012771Y017702D01*
X012691Y018000D01*
X012536Y018268D01*
X012318Y018487D01*
X012050Y018642D01*
X011751Y018722D01*
X011441Y018722D01*
X011142Y018642D01*
X010874Y018487D01*
X010656Y018268D01*
X010589Y018153D01*
X010617Y018222D01*
X010617Y018550D01*
X010777Y018710D01*
X010777Y019115D01*
X010490Y019402D01*
X010085Y019402D01*
X009990Y019308D02*
X008911Y019308D01*
X008915Y019209D02*
X009891Y019209D01*
X009798Y019111D02*
X009013Y019111D01*
X009059Y019012D02*
X009798Y019012D01*
X009798Y018914D02*
X009060Y018914D01*
X009018Y018815D02*
X009798Y018815D01*
X009798Y018717D02*
X009049Y018717D01*
X009060Y018618D02*
X009889Y018618D01*
X009958Y018520D02*
X009031Y018520D01*
X008935Y018421D02*
X009954Y018421D01*
X009856Y018323D02*
X003725Y018323D01*
X003725Y018421D02*
X003964Y018421D01*
X003868Y018520D02*
X003725Y018520D01*
X003725Y018618D02*
X003839Y018618D01*
X003839Y018717D02*
X003725Y018717D01*
X003725Y018815D02*
X003858Y018815D01*
X003929Y018914D02*
X003725Y018914D01*
X003725Y019012D02*
X004115Y019012D01*
X004123Y019111D02*
X003725Y019111D01*
X003725Y019209D02*
X004180Y019209D01*
X004223Y019252D02*
X004223Y019252D01*
X004278Y019308D02*
X003725Y019308D01*
X003725Y019406D02*
X005328Y019406D01*
X005318Y019505D02*
X003725Y019505D01*
X003725Y019603D02*
X005348Y019603D01*
X005449Y019702D02*
X003725Y019702D01*
X003725Y019800D02*
X005478Y019800D01*
X005478Y019899D02*
X003725Y019899D01*
X003725Y019997D02*
X005478Y019997D01*
X005513Y020096D02*
X003725Y020096D01*
X003725Y020490D02*
X022850Y020490D01*
X022850Y020588D02*
X000663Y020588D01*
X000600Y020588D02*
X000350Y020588D01*
X000350Y020490D02*
X000600Y020490D01*
X000600Y020391D02*
X000350Y020391D01*
X000350Y020293D02*
X000600Y020293D01*
X000600Y020194D02*
X000350Y020194D01*
X000350Y020096D02*
X000600Y020096D01*
X000600Y019997D02*
X000350Y019997D01*
X000350Y019899D02*
X000600Y019899D01*
X000600Y019800D02*
X000350Y019800D01*
X000350Y019702D02*
X000600Y019702D01*
X000600Y019603D02*
X000350Y019603D01*
X000350Y019505D02*
X000600Y019505D01*
X000600Y019406D02*
X000350Y019406D01*
X000350Y019308D02*
X000600Y019308D01*
X000600Y019209D02*
X000350Y019209D01*
X000350Y019111D02*
X000600Y019111D01*
X000600Y019012D02*
X000350Y019012D01*
X000350Y018914D02*
X000600Y018914D01*
X000600Y018815D02*
X000350Y018815D01*
X000350Y018717D02*
X000600Y018717D01*
X000600Y018618D02*
X000350Y018618D01*
X000350Y018520D02*
X000600Y018520D01*
X000600Y018421D02*
X000350Y018421D01*
X000350Y018323D02*
X000600Y018323D01*
X001742Y018224D02*
X009757Y018224D01*
X009659Y018126D02*
X001742Y018126D01*
X001742Y018027D02*
X009560Y018027D01*
X010100Y017633D02*
X010421Y017633D01*
X010421Y017535D02*
X010001Y017535D01*
X009903Y017436D02*
X010421Y017436D01*
X010435Y017338D02*
X010368Y017338D01*
X010429Y017732D02*
X010198Y017732D01*
X010297Y017830D02*
X010455Y017830D01*
X010482Y017929D02*
X010395Y017929D01*
X010494Y018027D02*
X010516Y018027D01*
X010617Y018224D02*
X010630Y018224D01*
X010617Y018323D02*
X010710Y018323D01*
X010617Y018421D02*
X010808Y018421D01*
X010930Y018520D02*
X010617Y018520D01*
X010686Y018618D02*
X011101Y018618D01*
X011421Y018717D02*
X010777Y018717D01*
X010777Y018815D02*
X016270Y018815D01*
X016272Y018717D02*
X011771Y018717D01*
X012091Y018618D02*
X016313Y018618D01*
X016401Y018520D02*
X012262Y018520D01*
X012384Y018421D02*
X016500Y018421D01*
X016598Y018323D02*
X012482Y018323D01*
X012562Y018224D02*
X016697Y018224D01*
X016795Y018126D02*
X012619Y018126D01*
X012676Y018027D02*
X016894Y018027D01*
X016992Y017929D02*
X012710Y017929D01*
X012737Y017830D02*
X017091Y017830D01*
X017189Y017732D02*
X012763Y017732D01*
X012771Y017633D02*
X017288Y017633D01*
X017386Y017535D02*
X012771Y017535D01*
X012771Y017436D02*
X017485Y017436D01*
X017583Y017338D02*
X012757Y017338D01*
X012730Y017239D02*
X017682Y017239D01*
X017327Y017141D02*
X016873Y017141D01*
X016972Y017042D02*
X017228Y017042D01*
X017182Y016944D02*
X017018Y016944D01*
X017050Y016845D02*
X017150Y016845D01*
X017150Y016747D02*
X017050Y016747D01*
X017050Y016648D02*
X017150Y016648D01*
X017150Y016550D02*
X017050Y016550D01*
X017050Y016451D02*
X017150Y016451D01*
X017150Y016353D02*
X017050Y016353D01*
X017050Y016254D02*
X017150Y016254D01*
X017172Y016156D02*
X017028Y016156D01*
X016987Y016057D02*
X017213Y016057D01*
X017270Y015959D02*
X016930Y015959D01*
X016930Y015860D02*
X017270Y015860D01*
X017270Y015762D02*
X016930Y015762D01*
X016906Y015663D02*
X017270Y015663D01*
X017270Y015565D02*
X016844Y015565D01*
X016745Y015466D02*
X017249Y015466D01*
X017151Y015368D02*
X016647Y015368D01*
X016548Y015269D02*
X017052Y015269D01*
X017592Y014875D02*
X017770Y014875D01*
X017770Y014777D02*
X017493Y014777D01*
X017395Y014678D02*
X017770Y014678D01*
X017770Y014580D02*
X016430Y014580D01*
X016468Y014481D02*
X017770Y014481D01*
X017770Y014383D02*
X016468Y014383D01*
X016446Y014284D02*
X016496Y014284D01*
X016704Y014284D02*
X017496Y014284D01*
X017704Y014284D02*
X017770Y014284D01*
X017309Y014186D02*
X016891Y014186D01*
X016985Y014087D02*
X017215Y014087D01*
X017174Y013989D02*
X017026Y013989D01*
X017050Y013890D02*
X017150Y013890D01*
X017150Y013792D02*
X017050Y013792D01*
X017050Y013693D02*
X017150Y013693D01*
X017150Y013595D02*
X017050Y013595D01*
X017050Y013496D02*
X017150Y013496D01*
X017150Y013398D02*
X017050Y013398D01*
X017050Y013299D02*
X017150Y013299D01*
X017179Y013201D02*
X017021Y013201D01*
X016978Y013102D02*
X017222Y013102D01*
X017320Y013004D02*
X016930Y013004D01*
X016930Y012905D02*
X017790Y012905D01*
X017770Y012807D02*
X016930Y012807D01*
X016924Y012708D02*
X017770Y012708D01*
X017770Y012610D02*
X016883Y012610D01*
X016790Y012511D02*
X017770Y012511D01*
X017770Y012413D02*
X016692Y012413D01*
X016593Y012314D02*
X017770Y012314D01*
X017770Y012216D02*
X016435Y012216D01*
X017770Y012117D02*
X011887Y012117D01*
X011927Y012216D02*
X012265Y012216D01*
X012107Y012314D02*
X011930Y012314D01*
X011930Y012413D02*
X012008Y012413D01*
X011798Y012019D02*
X017770Y012019D01*
X017770Y011920D02*
X011699Y011920D01*
X011601Y011822D02*
X017770Y011822D01*
X017770Y011723D02*
X011502Y011723D01*
X011404Y011625D02*
X017770Y011625D01*
X017770Y011526D02*
X011305Y011526D01*
X011207Y011428D02*
X017770Y011428D01*
X017770Y011329D02*
X011108Y011329D01*
X011010Y011231D02*
X017770Y011231D01*
X017770Y011132D02*
X010911Y011132D01*
X010813Y011034D02*
X017770Y011034D01*
X017770Y010935D02*
X010714Y010935D01*
X010616Y010837D02*
X017770Y010837D01*
X017770Y010738D02*
X010517Y010738D01*
X010430Y010640D02*
X017770Y010640D01*
X017770Y010541D02*
X010430Y010541D01*
X010430Y010443D02*
X017770Y010443D01*
X017770Y010344D02*
X010430Y010344D01*
X010430Y010246D02*
X017770Y010246D01*
X017770Y010147D02*
X010430Y010147D01*
X010430Y010049D02*
X017770Y010049D01*
X017770Y009950D02*
X010430Y009950D01*
X010430Y009852D02*
X017770Y009852D01*
X017770Y009753D02*
X010430Y009753D01*
X010430Y009655D02*
X017770Y009655D01*
X017770Y009556D02*
X010430Y009556D01*
X010430Y009458D02*
X017770Y009458D01*
X017770Y009359D02*
X010430Y009359D01*
X010430Y009261D02*
X017770Y009261D01*
X017770Y009162D02*
X010430Y009162D01*
X010430Y009064D02*
X017784Y009064D01*
X017831Y008965D02*
X010430Y008965D01*
X010430Y008867D02*
X017929Y008867D01*
X018028Y008768D02*
X010430Y008768D01*
X010430Y008670D02*
X018126Y008670D01*
X018225Y008571D02*
X010430Y008571D01*
X010430Y008473D02*
X018270Y008473D01*
X018270Y008374D02*
X010430Y008374D01*
X010426Y008276D02*
X010476Y008276D01*
X010724Y008276D02*
X011476Y008276D01*
X011301Y008177D02*
X010899Y008177D01*
X010988Y008079D02*
X011212Y008079D01*
X011171Y007980D02*
X011029Y007980D01*
X011050Y007882D02*
X011150Y007882D01*
X011150Y007783D02*
X011050Y007783D01*
X011050Y007685D02*
X011150Y007685D01*
X011150Y007586D02*
X011050Y007586D01*
X011050Y007488D02*
X011150Y007488D01*
X011150Y007389D02*
X011050Y007389D01*
X011050Y007291D02*
X011150Y007291D01*
X011183Y007192D02*
X011100Y007192D01*
X011198Y007094D02*
X011230Y007094D01*
X011297Y006995D02*
X011329Y006995D01*
X011395Y006897D02*
X011462Y006897D01*
X011494Y006798D02*
X011560Y006798D01*
X011592Y006700D02*
X011659Y006700D01*
X011691Y006601D02*
X011757Y006601D01*
X011789Y006503D02*
X011856Y006503D01*
X011888Y006404D02*
X011954Y006404D01*
X011986Y006306D02*
X012053Y006306D01*
X012085Y006207D02*
X012151Y006207D01*
X012183Y006109D02*
X012250Y006109D01*
X012282Y006010D02*
X012348Y006010D01*
X012380Y005912D02*
X012447Y005912D01*
X012479Y005813D02*
X012545Y005813D01*
X012577Y005715D02*
X012644Y005715D01*
X012676Y005616D02*
X012742Y005616D01*
X012774Y005518D02*
X012841Y005518D01*
X012873Y005419D02*
X012939Y005419D01*
X012971Y005321D02*
X013038Y005321D01*
X013070Y005222D02*
X013136Y005222D01*
X013168Y005124D02*
X013235Y005124D01*
X013267Y005025D02*
X013333Y005025D01*
X013365Y004927D02*
X013432Y004927D01*
X013464Y004828D02*
X013530Y004828D01*
X013562Y004730D02*
X013629Y004730D01*
X013661Y004631D02*
X013727Y004631D01*
X013759Y004533D02*
X013826Y004533D01*
X013858Y004434D02*
X013924Y004434D01*
X013956Y004336D02*
X014023Y004336D01*
X014055Y004237D02*
X014121Y004237D01*
X014153Y004139D02*
X014220Y004139D01*
X014252Y004040D02*
X014318Y004040D01*
X014350Y003942D02*
X014417Y003942D01*
X014408Y003843D02*
X014515Y003843D01*
X014430Y003745D02*
X014614Y003745D01*
X015055Y004237D02*
X015121Y004237D01*
X015153Y004139D02*
X015220Y004139D01*
X015252Y004040D02*
X015318Y004040D01*
X015350Y003942D02*
X015417Y003942D01*
X015408Y003843D02*
X015515Y003843D01*
X015430Y003745D02*
X015614Y003745D01*
X016153Y004139D02*
X016220Y004139D01*
X016252Y004040D02*
X016318Y004040D01*
X016350Y003942D02*
X016417Y003942D01*
X016408Y003843D02*
X016515Y003843D01*
X016430Y003745D02*
X016614Y003745D01*
X017153Y004139D02*
X017220Y004139D01*
X017252Y004040D02*
X017318Y004040D01*
X017350Y003942D02*
X017417Y003942D01*
X017408Y003843D02*
X017515Y003843D01*
X017430Y003745D02*
X017614Y003745D01*
X018055Y004237D02*
X018121Y004237D01*
X018153Y004139D02*
X018220Y004139D01*
X018252Y004040D02*
X018318Y004040D01*
X018350Y003942D02*
X018417Y003942D01*
X018408Y003843D02*
X018515Y003843D01*
X018430Y003745D02*
X018614Y003745D01*
X019153Y004139D02*
X019220Y004139D01*
X019252Y004040D02*
X019318Y004040D01*
X019287Y004005D02*
X019287Y004005D01*
X019350Y003942D02*
X019417Y003942D01*
X019408Y003843D02*
X019515Y003843D01*
X019430Y003745D02*
X019614Y003745D01*
X020153Y004139D02*
X020220Y004139D01*
X020252Y004040D02*
X020318Y004040D01*
X020350Y003942D02*
X020417Y003942D01*
X020408Y003843D02*
X020515Y003843D01*
X020430Y003745D02*
X020614Y003745D01*
X021055Y004237D02*
X022850Y004237D01*
X022850Y004139D02*
X021153Y004139D01*
X021252Y004040D02*
X022850Y004040D01*
X022850Y003942D02*
X021350Y003942D01*
X021408Y003843D02*
X022850Y003843D01*
X022850Y003745D02*
X021430Y003745D01*
X020956Y004336D02*
X022850Y004336D01*
X022850Y004434D02*
X020858Y004434D01*
X020759Y004533D02*
X022850Y004533D01*
X022850Y004631D02*
X020661Y004631D01*
X020562Y004730D02*
X022850Y004730D01*
X022850Y004828D02*
X020464Y004828D01*
X020365Y004927D02*
X022850Y004927D01*
X022850Y005025D02*
X020267Y005025D01*
X020168Y005124D02*
X022850Y005124D01*
X022850Y005222D02*
X020070Y005222D01*
X019971Y005321D02*
X022850Y005321D01*
X022850Y005419D02*
X019873Y005419D01*
X019774Y005518D02*
X022850Y005518D01*
X022850Y005616D02*
X019676Y005616D01*
X019577Y005715D02*
X022850Y005715D01*
X022850Y005813D02*
X019479Y005813D01*
X019380Y005912D02*
X022850Y005912D01*
X022850Y006010D02*
X019282Y006010D01*
X019183Y006109D02*
X022850Y006109D01*
X022850Y006207D02*
X019085Y006207D01*
X018986Y006306D02*
X022850Y006306D01*
X022850Y006404D02*
X018888Y006404D01*
X018789Y006503D02*
X022850Y006503D01*
X022850Y006601D02*
X018691Y006601D01*
X018592Y006700D02*
X022850Y006700D01*
X022850Y006798D02*
X018494Y006798D01*
X018395Y006897D02*
X022850Y006897D01*
X022850Y006995D02*
X021738Y006995D01*
X021714Y006985D02*
X021785Y007014D01*
X021849Y007057D01*
X021903Y007111D01*
X021946Y007175D01*
X021975Y007246D01*
X021990Y007322D01*
X021990Y007570D01*
X021630Y007570D01*
X021630Y007630D01*
X021990Y007630D01*
X021990Y007878D01*
X021975Y007954D01*
X021946Y008025D01*
X021903Y008089D01*
X021849Y008143D01*
X021785Y008186D01*
X021714Y008215D01*
X021638Y008230D01*
X021630Y008230D01*
X021630Y007630D01*
X021570Y007630D01*
X021570Y008230D01*
X021562Y008230D01*
X021486Y008215D01*
X021415Y008186D01*
X021351Y008143D01*
X021297Y008089D01*
X021254Y008025D01*
X021225Y007954D01*
X021210Y007878D01*
X021210Y007630D01*
X021570Y007630D01*
X021570Y007570D01*
X021630Y007570D01*
X021630Y006970D01*
X021638Y006970D01*
X021714Y006985D01*
X021630Y006995D02*
X021570Y006995D01*
X021570Y006970D02*
X021570Y007570D01*
X021210Y007570D01*
X021210Y007322D01*
X021225Y007246D01*
X021254Y007175D01*
X021297Y007111D01*
X021351Y007057D01*
X021415Y007014D01*
X021486Y006985D01*
X021562Y006970D01*
X021570Y006970D01*
X021462Y006995D02*
X020871Y006995D01*
X020970Y007094D02*
X021315Y007094D01*
X021247Y007192D02*
X021017Y007192D01*
X021050Y007291D02*
X021216Y007291D01*
X021210Y007389D02*
X021050Y007389D01*
X021050Y007488D02*
X021210Y007488D01*
X021050Y007586D02*
X021570Y007586D01*
X021630Y007586D02*
X022850Y007586D01*
X022850Y007488D02*
X021990Y007488D01*
X021990Y007389D02*
X022850Y007389D01*
X022850Y007291D02*
X021984Y007291D01*
X021953Y007192D02*
X022850Y007192D01*
X022850Y007094D02*
X021885Y007094D01*
X021630Y007094D02*
X021570Y007094D01*
X021570Y007192D02*
X021630Y007192D01*
X021630Y007291D02*
X021570Y007291D01*
X021570Y007389D02*
X021630Y007389D01*
X021630Y007488D02*
X021570Y007488D01*
X021570Y007685D02*
X021630Y007685D01*
X021630Y007783D02*
X021570Y007783D01*
X021570Y007882D02*
X021630Y007882D01*
X021630Y007980D02*
X021570Y007980D01*
X021570Y008079D02*
X021630Y008079D01*
X021630Y008177D02*
X021570Y008177D01*
X021402Y008177D02*
X020930Y008177D01*
X020930Y008276D02*
X022850Y008276D01*
X022850Y008374D02*
X020930Y008374D01*
X020930Y008473D02*
X022850Y008473D01*
X022850Y008571D02*
X020930Y008571D01*
X020930Y008670D02*
X022850Y008670D01*
X022850Y008768D02*
X020913Y008768D01*
X020863Y008867D02*
X022850Y008867D01*
X022850Y008965D02*
X020764Y008965D01*
X020666Y009064D02*
X022850Y009064D01*
X022850Y009162D02*
X020567Y009162D01*
X020469Y009261D02*
X022850Y009261D01*
X022850Y009359D02*
X020430Y009359D01*
X020430Y009458D02*
X022850Y009458D01*
X022850Y009556D02*
X020430Y009556D01*
X020430Y009655D02*
X022850Y009655D01*
X022850Y009753D02*
X020430Y009753D01*
X020430Y009852D02*
X022850Y009852D01*
X022850Y009950D02*
X020430Y009950D01*
X020430Y010049D02*
X022850Y010049D01*
X022850Y010147D02*
X020430Y010147D01*
X020430Y010246D02*
X022850Y010246D01*
X022850Y010344D02*
X020430Y010344D01*
X020430Y010443D02*
X022850Y010443D01*
X022850Y010541D02*
X020430Y010541D01*
X020430Y010640D02*
X022850Y010640D01*
X022850Y010738D02*
X020430Y010738D01*
X020430Y010837D02*
X022850Y010837D01*
X022850Y010935D02*
X020430Y010935D01*
X020430Y011034D02*
X022850Y011034D01*
X022850Y011132D02*
X020430Y011132D01*
X020430Y011231D02*
X022850Y011231D01*
X022850Y011329D02*
X020430Y011329D01*
X020430Y011428D02*
X022850Y011428D01*
X022850Y011526D02*
X020430Y011526D01*
X020430Y011625D02*
X022850Y011625D01*
X022850Y011723D02*
X020430Y011723D01*
X020430Y011822D02*
X022850Y011822D01*
X022850Y011920D02*
X020430Y011920D01*
X020430Y012019D02*
X022850Y012019D01*
X022850Y012117D02*
X020430Y012117D01*
X020430Y012216D02*
X022850Y012216D01*
X022850Y012314D02*
X020430Y012314D01*
X020430Y012413D02*
X022850Y012413D01*
X022850Y012511D02*
X020430Y012511D01*
X020430Y012610D02*
X022850Y012610D01*
X022850Y012708D02*
X020430Y012708D01*
X020430Y012807D02*
X022850Y012807D01*
X022850Y012905D02*
X020410Y012905D01*
X020880Y013004D02*
X021320Y013004D01*
X021222Y013102D02*
X020978Y013102D01*
X021021Y013201D02*
X021179Y013201D01*
X021150Y013299D02*
X021050Y013299D01*
X021050Y013398D02*
X021150Y013398D01*
X021150Y013496D02*
X021050Y013496D01*
X021050Y013595D02*
X021150Y013595D01*
X021150Y013693D02*
X021050Y013693D01*
X021050Y013792D02*
X021150Y013792D01*
X021150Y013890D02*
X021050Y013890D01*
X021026Y013989D02*
X021174Y013989D01*
X021215Y014087D02*
X020985Y014087D01*
X020891Y014186D02*
X021270Y014186D01*
X021270Y014284D02*
X020704Y014284D01*
X020496Y014284D02*
X020430Y014284D01*
X020430Y014383D02*
X021270Y014383D01*
X021270Y014481D02*
X020430Y014481D01*
X020430Y014580D02*
X021270Y014580D01*
X021270Y014678D02*
X020430Y014678D01*
X020430Y014777D02*
X021270Y014777D01*
X021270Y014875D02*
X020430Y014875D01*
X020430Y014974D02*
X021270Y014974D01*
X021270Y015072D02*
X020430Y015072D01*
X020430Y015171D02*
X021270Y015171D01*
X021214Y015269D02*
X020430Y015269D01*
X020430Y015368D02*
X021116Y015368D01*
X021017Y015466D02*
X020430Y015466D01*
X020430Y015565D02*
X020919Y015565D01*
X020820Y015663D02*
X020430Y015663D01*
X020430Y015762D02*
X020779Y015762D01*
X020770Y015860D02*
X020720Y015860D01*
X020480Y015860D02*
X020430Y015860D01*
X021557Y015860D02*
X022850Y015860D01*
X022850Y015762D02*
X021655Y015762D01*
X021754Y015663D02*
X022850Y015663D01*
X022850Y015565D02*
X021852Y015565D01*
X021909Y015466D02*
X022850Y015466D01*
X022850Y015368D02*
X021930Y015368D01*
X021930Y015269D02*
X022850Y015269D01*
X022850Y015171D02*
X021930Y015171D01*
X021930Y015072D02*
X022850Y015072D01*
X022850Y014974D02*
X021930Y014974D01*
X021930Y014875D02*
X022850Y014875D01*
X022850Y014777D02*
X021930Y014777D01*
X021930Y014678D02*
X022850Y014678D01*
X022850Y014580D02*
X021930Y014580D01*
X021930Y014481D02*
X022850Y014481D01*
X022850Y014383D02*
X021930Y014383D01*
X021930Y014284D02*
X022850Y014284D01*
X022850Y014186D02*
X021930Y014186D01*
X021985Y014087D02*
X022850Y014087D01*
X022850Y013989D02*
X022026Y013989D01*
X022050Y013890D02*
X022850Y013890D01*
X022850Y013792D02*
X022050Y013792D01*
X022050Y013693D02*
X022850Y013693D01*
X022850Y013595D02*
X022050Y013595D01*
X022050Y013496D02*
X022850Y013496D01*
X022850Y013398D02*
X022050Y013398D01*
X022050Y013299D02*
X022850Y013299D01*
X022850Y013201D02*
X022021Y013201D01*
X021978Y013102D02*
X022850Y013102D01*
X022850Y013004D02*
X021880Y013004D01*
X019790Y012905D02*
X019410Y012905D01*
X019430Y012807D02*
X019770Y012807D01*
X019770Y012708D02*
X019430Y012708D01*
X019430Y012610D02*
X019770Y012610D01*
X019770Y012511D02*
X019430Y012511D01*
X019430Y012413D02*
X019770Y012413D01*
X019770Y012314D02*
X019430Y012314D01*
X019430Y012216D02*
X019770Y012216D01*
X019770Y012117D02*
X019430Y012117D01*
X019430Y012019D02*
X019770Y012019D01*
X019770Y011920D02*
X019430Y011920D01*
X019430Y011822D02*
X019770Y011822D01*
X019770Y011723D02*
X019430Y011723D01*
X019430Y011625D02*
X019770Y011625D01*
X019770Y011526D02*
X019430Y011526D01*
X019430Y011428D02*
X019770Y011428D01*
X019770Y011329D02*
X019430Y011329D01*
X019430Y011231D02*
X019770Y011231D01*
X019770Y011132D02*
X019430Y011132D01*
X019430Y011034D02*
X019770Y011034D01*
X019770Y010935D02*
X019430Y010935D01*
X019430Y010837D02*
X019770Y010837D01*
X019770Y010738D02*
X019430Y010738D01*
X019430Y010640D02*
X019770Y010640D01*
X019770Y010541D02*
X019430Y010541D01*
X019430Y010443D02*
X019770Y010443D01*
X019770Y010344D02*
X019430Y010344D01*
X019430Y010246D02*
X019770Y010246D01*
X019770Y010147D02*
X019430Y010147D01*
X019430Y010049D02*
X019770Y010049D01*
X019770Y009950D02*
X019430Y009950D01*
X019430Y009852D02*
X019770Y009852D01*
X019770Y009753D02*
X019430Y009753D01*
X019430Y009655D02*
X019770Y009655D01*
X019770Y009556D02*
X019430Y009556D01*
X019430Y009458D02*
X019770Y009458D01*
X019770Y009359D02*
X019430Y009359D01*
X019469Y009261D02*
X019770Y009261D01*
X019770Y009162D02*
X019567Y009162D01*
X019666Y009064D02*
X019784Y009064D01*
X019764Y008965D02*
X019831Y008965D01*
X019863Y008867D02*
X019929Y008867D01*
X019913Y008768D02*
X020028Y008768D01*
X019930Y008670D02*
X020126Y008670D01*
X020225Y008571D02*
X019930Y008571D01*
X019930Y008473D02*
X020270Y008473D01*
X020270Y008374D02*
X019930Y008374D01*
X019930Y008276D02*
X020270Y008276D01*
X020270Y008177D02*
X019930Y008177D01*
X019988Y008079D02*
X020212Y008079D01*
X020171Y007980D02*
X020029Y007980D01*
X020050Y007882D02*
X020150Y007882D01*
X020150Y007783D02*
X020050Y007783D01*
X020050Y007685D02*
X020150Y007685D01*
X020150Y007586D02*
X020050Y007586D01*
X020050Y007488D02*
X020150Y007488D01*
X020150Y007389D02*
X020050Y007389D01*
X020050Y007291D02*
X020150Y007291D01*
X020183Y007192D02*
X020017Y007192D01*
X019970Y007094D02*
X020230Y007094D01*
X020329Y006995D02*
X019871Y006995D01*
X019329Y006995D02*
X018871Y006995D01*
X018970Y007094D02*
X019230Y007094D01*
X019183Y007192D02*
X019017Y007192D01*
X019050Y007291D02*
X019150Y007291D01*
X019150Y007389D02*
X019050Y007389D01*
X019050Y007488D02*
X019150Y007488D01*
X019150Y007586D02*
X019050Y007586D01*
X019050Y007685D02*
X019150Y007685D01*
X019150Y007783D02*
X019050Y007783D01*
X019050Y007882D02*
X019150Y007882D01*
X019171Y007980D02*
X019029Y007980D01*
X018988Y008079D02*
X019212Y008079D01*
X019270Y008177D02*
X018930Y008177D01*
X018930Y008276D02*
X019270Y008276D01*
X019270Y008374D02*
X018930Y008374D01*
X018930Y008473D02*
X019270Y008473D01*
X019225Y008571D02*
X018930Y008571D01*
X018930Y008670D02*
X019126Y008670D01*
X019028Y008768D02*
X018913Y008768D01*
X018929Y008867D02*
X018863Y008867D01*
X018913Y008883D02*
X018913Y008883D01*
X018831Y008965D02*
X018764Y008965D01*
X018784Y009064D02*
X018666Y009064D01*
X018567Y009162D02*
X018770Y009162D01*
X018770Y009261D02*
X018469Y009261D01*
X018430Y009359D02*
X018770Y009359D01*
X018770Y009458D02*
X018430Y009458D01*
X018430Y009556D02*
X018770Y009556D01*
X018770Y009655D02*
X018430Y009655D01*
X018430Y009753D02*
X018770Y009753D01*
X018770Y009852D02*
X018430Y009852D01*
X018430Y009950D02*
X018770Y009950D01*
X018770Y010049D02*
X018430Y010049D01*
X018430Y010147D02*
X018770Y010147D01*
X018770Y010246D02*
X018430Y010246D01*
X018430Y010344D02*
X018770Y010344D01*
X018770Y010443D02*
X018430Y010443D01*
X018430Y010541D02*
X018770Y010541D01*
X018770Y010640D02*
X018430Y010640D01*
X018430Y010738D02*
X018770Y010738D01*
X018770Y010837D02*
X018430Y010837D01*
X018430Y010935D02*
X018770Y010935D01*
X018770Y011034D02*
X018430Y011034D01*
X018430Y011132D02*
X018770Y011132D01*
X018770Y011231D02*
X018430Y011231D01*
X018430Y011329D02*
X018770Y011329D01*
X018770Y011428D02*
X018430Y011428D01*
X018430Y011526D02*
X018770Y011526D01*
X018770Y011625D02*
X018430Y011625D01*
X018430Y011723D02*
X018770Y011723D01*
X018770Y011822D02*
X018430Y011822D01*
X018430Y011920D02*
X018770Y011920D01*
X018770Y012019D02*
X018430Y012019D01*
X018430Y012117D02*
X018770Y012117D01*
X018770Y012216D02*
X018430Y012216D01*
X018430Y012314D02*
X018770Y012314D01*
X018770Y012413D02*
X018430Y012413D01*
X018430Y012511D02*
X018770Y012511D01*
X018770Y012610D02*
X018430Y012610D01*
X018430Y012708D02*
X018770Y012708D01*
X018770Y012807D02*
X018430Y012807D01*
X018410Y012905D02*
X018790Y012905D01*
X017770Y014974D02*
X017690Y014974D01*
X016270Y015959D02*
X015795Y015959D01*
X015785Y015952D02*
X015849Y015995D01*
X015903Y016049D01*
X015946Y016113D01*
X015975Y016184D01*
X015990Y016259D01*
X015990Y016507D01*
X015630Y016507D01*
X015630Y015908D01*
X015638Y015908D01*
X015714Y015922D01*
X015785Y015952D01*
X015630Y015959D02*
X015570Y015959D01*
X015570Y015908D02*
X015570Y016507D01*
X015630Y016507D01*
X015630Y016568D01*
X015570Y016568D01*
X015570Y017167D01*
X015562Y017167D01*
X015486Y017153D01*
X015415Y017123D01*
X015351Y017080D01*
X015297Y017026D01*
X015254Y016962D01*
X015225Y016891D01*
X015210Y016816D01*
X015210Y016568D01*
X015570Y016568D01*
X015570Y016507D01*
X015210Y016507D01*
X015210Y016259D01*
X015225Y016184D01*
X015254Y016113D01*
X015297Y016049D01*
X015351Y015995D01*
X015415Y015952D01*
X015486Y015922D01*
X015562Y015908D01*
X015570Y015908D01*
X015570Y016057D02*
X015630Y016057D01*
X015630Y016156D02*
X015570Y016156D01*
X015570Y016254D02*
X015630Y016254D01*
X015630Y016353D02*
X015570Y016353D01*
X015570Y016451D02*
X015630Y016451D01*
X015630Y016550D02*
X016150Y016550D01*
X016150Y016648D02*
X015990Y016648D01*
X015990Y016568D02*
X015990Y016816D01*
X015975Y016891D01*
X015946Y016962D01*
X015903Y017026D01*
X015849Y017080D01*
X015785Y017123D01*
X015714Y017153D01*
X015638Y017167D01*
X015630Y017167D01*
X015630Y016568D01*
X015990Y016568D01*
X015990Y016451D02*
X016150Y016451D01*
X016150Y016353D02*
X015990Y016353D01*
X015989Y016254D02*
X016150Y016254D01*
X016172Y016156D02*
X015963Y016156D01*
X015908Y016057D02*
X016213Y016057D01*
X016206Y015860D02*
X014432Y015860D01*
X014486Y015922D02*
X014562Y015908D01*
X014570Y015908D01*
X014570Y016507D01*
X014630Y016507D01*
X014630Y015908D01*
X014638Y015908D01*
X014714Y015922D01*
X014785Y015952D01*
X014849Y015995D01*
X014903Y016049D01*
X014946Y016113D01*
X014975Y016184D01*
X014990Y016259D01*
X014990Y016507D01*
X014630Y016507D01*
X014630Y016568D01*
X014570Y016568D01*
X014570Y017167D01*
X014562Y017167D01*
X014486Y017153D01*
X014415Y017123D01*
X014351Y017080D01*
X014297Y017026D01*
X014254Y016962D01*
X014225Y016891D01*
X014210Y016816D01*
X014210Y016568D01*
X014570Y016568D01*
X014570Y016507D01*
X014210Y016507D01*
X014210Y016259D01*
X014225Y016184D01*
X014254Y016113D01*
X014297Y016049D01*
X014351Y015995D01*
X014415Y015952D01*
X014486Y015922D01*
X014405Y015959D02*
X014333Y015959D01*
X014292Y016057D02*
X014235Y016057D01*
X014237Y016156D02*
X014136Y016156D01*
X014211Y016254D02*
X014038Y016254D01*
X013939Y016353D02*
X014210Y016353D01*
X014210Y016451D02*
X013841Y016451D01*
X013679Y016550D02*
X014570Y016550D01*
X014630Y016550D02*
X015570Y016550D01*
X015570Y016648D02*
X015630Y016648D01*
X015630Y016747D02*
X015570Y016747D01*
X015570Y016845D02*
X015630Y016845D01*
X015630Y016944D02*
X015570Y016944D01*
X015570Y017042D02*
X015630Y017042D01*
X015630Y017141D02*
X015570Y017141D01*
X015457Y017141D02*
X014743Y017141D01*
X014714Y017153D02*
X014638Y017167D01*
X014630Y017167D01*
X014630Y016568D01*
X014990Y016568D01*
X014990Y016816D01*
X014975Y016891D01*
X014946Y016962D01*
X014903Y017026D01*
X014849Y017080D01*
X014785Y017123D01*
X014714Y017153D01*
X014630Y017141D02*
X014570Y017141D01*
X014570Y017042D02*
X014630Y017042D01*
X014630Y016944D02*
X014570Y016944D01*
X014570Y016845D02*
X014630Y016845D01*
X014630Y016747D02*
X014570Y016747D01*
X014570Y016648D02*
X014630Y016648D01*
X014630Y016451D02*
X014570Y016451D01*
X014570Y016353D02*
X014630Y016353D01*
X014630Y016254D02*
X014570Y016254D01*
X014570Y016156D02*
X014630Y016156D01*
X014630Y016057D02*
X014570Y016057D01*
X014570Y015959D02*
X014630Y015959D01*
X014795Y015959D02*
X015405Y015959D01*
X015292Y016057D02*
X014908Y016057D01*
X014963Y016156D02*
X015237Y016156D01*
X015211Y016254D02*
X014989Y016254D01*
X014990Y016353D02*
X015210Y016353D01*
X015210Y016451D02*
X014990Y016451D01*
X014990Y016648D02*
X015210Y016648D01*
X015210Y016747D02*
X014990Y016747D01*
X014984Y016845D02*
X015216Y016845D01*
X015247Y016944D02*
X014953Y016944D01*
X014887Y017042D02*
X015313Y017042D01*
X015743Y017141D02*
X016327Y017141D01*
X016228Y017042D02*
X015887Y017042D01*
X015953Y016944D02*
X016182Y016944D01*
X016150Y016845D02*
X015984Y016845D01*
X015990Y016747D02*
X016150Y016747D01*
X014457Y017141D02*
X012704Y017141D01*
X012662Y017042D02*
X014313Y017042D01*
X014247Y016944D02*
X012605Y016944D01*
X012548Y016845D02*
X014216Y016845D01*
X014210Y016747D02*
X012458Y016747D01*
X012359Y016648D02*
X014210Y016648D01*
X014351Y018914D02*
X010777Y018914D01*
X010777Y019012D02*
X014249Y019012D01*
X014190Y019111D02*
X010777Y019111D01*
X010684Y019209D02*
X014150Y019209D01*
X014150Y019308D02*
X010585Y019308D01*
X010318Y019505D02*
X010257Y019505D01*
X010257Y019603D02*
X010318Y019603D01*
X010318Y019702D02*
X010257Y019702D01*
X010257Y019800D02*
X010318Y019800D01*
X010257Y019899D02*
X009060Y019899D01*
X009060Y019800D02*
X009858Y019800D01*
X009890Y019702D02*
X009040Y019702D01*
X009060Y019603D02*
X009989Y019603D01*
X009858Y019997D02*
X009032Y019997D01*
X008948Y020096D02*
X009862Y020096D01*
X010614Y020194D02*
X014430Y020194D01*
X014282Y020096D02*
X010713Y020096D01*
X010717Y019997D02*
X014204Y019997D01*
X014770Y020194D02*
X015430Y020194D01*
X015510Y020227D02*
X015345Y020159D01*
X015219Y020032D01*
X015150Y019867D01*
X015150Y019208D01*
X015219Y019043D01*
X015345Y018916D01*
X015510Y018848D01*
X015690Y018848D01*
X015855Y018916D01*
X015981Y019043D01*
X016050Y019208D01*
X016050Y019867D01*
X015981Y020032D01*
X015855Y020159D01*
X015690Y020227D01*
X015510Y020227D01*
X015770Y020194D02*
X016430Y020194D01*
X016282Y020096D02*
X015918Y020096D01*
X015996Y019997D02*
X016204Y019997D01*
X016163Y019899D02*
X016037Y019899D01*
X016050Y019800D02*
X016150Y019800D01*
X016150Y019702D02*
X016050Y019702D01*
X016050Y019603D02*
X016150Y019603D01*
X016150Y019505D02*
X016050Y019505D01*
X016050Y019406D02*
X016150Y019406D01*
X016150Y019308D02*
X016050Y019308D01*
X016050Y019209D02*
X016150Y019209D01*
X016190Y019111D02*
X016010Y019111D01*
X015951Y019012D02*
X016249Y019012D01*
X016270Y018914D02*
X015849Y018914D01*
X015351Y018914D02*
X014849Y018914D01*
X014951Y019012D02*
X015249Y019012D01*
X015190Y019111D02*
X015010Y019111D01*
X015050Y019209D02*
X015150Y019209D01*
X015150Y019308D02*
X015050Y019308D01*
X015050Y019406D02*
X015150Y019406D01*
X015150Y019505D02*
X015050Y019505D01*
X015050Y019603D02*
X015150Y019603D01*
X015150Y019702D02*
X015050Y019702D01*
X015050Y019800D02*
X015150Y019800D01*
X015163Y019899D02*
X015037Y019899D01*
X014996Y019997D02*
X015204Y019997D01*
X015282Y020096D02*
X014918Y020096D01*
X016770Y020194D02*
X017430Y020194D01*
X017282Y020096D02*
X016918Y020096D01*
X016996Y019997D02*
X017204Y019997D01*
X017163Y019899D02*
X017037Y019899D01*
X017050Y019800D02*
X017150Y019800D01*
X017150Y019702D02*
X017050Y019702D01*
X017050Y019603D02*
X017150Y019603D01*
X017150Y019505D02*
X017050Y019505D01*
X017050Y019406D02*
X017150Y019406D01*
X017150Y019308D02*
X017050Y019308D01*
X017050Y019209D02*
X017150Y019209D01*
X017190Y019111D02*
X017010Y019111D01*
X016951Y019012D02*
X017249Y019012D01*
X017270Y018914D02*
X016941Y018914D01*
X017039Y018815D02*
X017270Y018815D01*
X017272Y018717D02*
X017138Y018717D01*
X017236Y018618D02*
X017313Y018618D01*
X017335Y018520D02*
X017401Y018520D01*
X017433Y018421D02*
X017500Y018421D01*
X017532Y018323D02*
X017598Y018323D01*
X017630Y018224D02*
X017697Y018224D01*
X017729Y018126D02*
X017795Y018126D01*
X017827Y018027D02*
X017894Y018027D01*
X017926Y017929D02*
X017992Y017929D01*
X018024Y017830D02*
X018091Y017830D01*
X018123Y017732D02*
X018189Y017732D01*
X018221Y017633D02*
X018288Y017633D01*
X018320Y017535D02*
X018386Y017535D01*
X018396Y017436D02*
X018485Y017436D01*
X018430Y017338D02*
X018583Y017338D01*
X018682Y017239D02*
X018430Y017239D01*
X019024Y017830D02*
X019091Y017830D01*
X019123Y017732D02*
X019189Y017732D01*
X019221Y017633D02*
X019288Y017633D01*
X019320Y017535D02*
X019386Y017535D01*
X019396Y017436D02*
X019485Y017436D01*
X019430Y017338D02*
X019583Y017338D01*
X019682Y017239D02*
X019430Y017239D01*
X018992Y017929D02*
X018926Y017929D01*
X018894Y018027D02*
X018827Y018027D01*
X018795Y018126D02*
X018729Y018126D01*
X018697Y018224D02*
X018630Y018224D01*
X018598Y018323D02*
X018532Y018323D01*
X018500Y018421D02*
X018433Y018421D01*
X018401Y018520D02*
X018335Y018520D01*
X018313Y018618D02*
X018236Y018618D01*
X018272Y018717D02*
X018138Y018717D01*
X018039Y018815D02*
X018270Y018815D01*
X018270Y018914D02*
X017941Y018914D01*
X017951Y019012D02*
X018249Y019012D01*
X018190Y019111D02*
X018010Y019111D01*
X018050Y019209D02*
X018150Y019209D01*
X018150Y019308D02*
X018050Y019308D01*
X018050Y019406D02*
X018150Y019406D01*
X018150Y019505D02*
X018050Y019505D01*
X018050Y019603D02*
X018150Y019603D01*
X018150Y019702D02*
X018050Y019702D01*
X018050Y019800D02*
X018150Y019800D01*
X018163Y019899D02*
X018037Y019899D01*
X017996Y019997D02*
X018204Y019997D01*
X018282Y020096D02*
X017918Y020096D01*
X017770Y020194D02*
X018430Y020194D01*
X018770Y020194D02*
X019430Y020194D01*
X019282Y020096D02*
X018918Y020096D01*
X018996Y019997D02*
X019204Y019997D01*
X019163Y019899D02*
X019037Y019899D01*
X019050Y019800D02*
X019150Y019800D01*
X019150Y019702D02*
X019050Y019702D01*
X019050Y019603D02*
X019150Y019603D01*
X019150Y019505D02*
X019050Y019505D01*
X019050Y019406D02*
X019150Y019406D01*
X019150Y019308D02*
X019050Y019308D01*
X019050Y019209D02*
X019150Y019209D01*
X019190Y019111D02*
X019010Y019111D01*
X018951Y019012D02*
X019249Y019012D01*
X019270Y018914D02*
X018941Y018914D01*
X019039Y018815D02*
X019270Y018815D01*
X019272Y018717D02*
X019138Y018717D01*
X019236Y018618D02*
X019313Y018618D01*
X019335Y018520D02*
X019401Y018520D01*
X019433Y018421D02*
X019500Y018421D01*
X019532Y018323D02*
X019598Y018323D01*
X019630Y018224D02*
X019697Y018224D01*
X019729Y018126D02*
X019795Y018126D01*
X019827Y018027D02*
X019894Y018027D01*
X019926Y017929D02*
X019992Y017929D01*
X020024Y017830D02*
X020091Y017830D01*
X020123Y017732D02*
X020189Y017732D01*
X020221Y017633D02*
X020288Y017633D01*
X020320Y017535D02*
X020386Y017535D01*
X020396Y017436D02*
X020485Y017436D01*
X020430Y017338D02*
X020583Y017338D01*
X020682Y017239D02*
X020430Y017239D01*
X021024Y017830D02*
X022850Y017830D01*
X022850Y017732D02*
X021123Y017732D01*
X021221Y017633D02*
X022850Y017633D01*
X022850Y017535D02*
X021320Y017535D01*
X021396Y017436D02*
X022850Y017436D01*
X022850Y017338D02*
X021430Y017338D01*
X021430Y017239D02*
X022850Y017239D01*
X022850Y017141D02*
X021743Y017141D01*
X021714Y017153D02*
X021638Y017167D01*
X021630Y017167D01*
X021630Y016568D01*
X021990Y016568D01*
X021990Y016816D01*
X021975Y016891D01*
X021946Y016962D01*
X021903Y017026D01*
X021849Y017080D01*
X021785Y017123D01*
X021714Y017153D01*
X021630Y017141D02*
X021570Y017141D01*
X021570Y017042D02*
X021630Y017042D01*
X021630Y016944D02*
X021570Y016944D01*
X021570Y016845D02*
X021630Y016845D01*
X021630Y016747D02*
X021570Y016747D01*
X021570Y016648D02*
X021630Y016648D01*
X021630Y016550D02*
X022850Y016550D01*
X022850Y016648D02*
X021990Y016648D01*
X021990Y016747D02*
X022850Y016747D01*
X022850Y016845D02*
X021984Y016845D01*
X021953Y016944D02*
X022850Y016944D01*
X022850Y017042D02*
X021887Y017042D01*
X021457Y017141D02*
X021410Y017141D01*
X020926Y017929D02*
X022850Y017929D01*
X022850Y018027D02*
X020827Y018027D01*
X020729Y018126D02*
X022850Y018126D01*
X022850Y018224D02*
X020630Y018224D01*
X020532Y018323D02*
X022850Y018323D01*
X022850Y018421D02*
X020433Y018421D01*
X020335Y018520D02*
X022850Y018520D01*
X022850Y018618D02*
X020236Y018618D01*
X020138Y018717D02*
X022850Y018717D01*
X022850Y018815D02*
X020039Y018815D01*
X019941Y018914D02*
X020351Y018914D01*
X020345Y018916D02*
X020510Y018848D01*
X020690Y018848D01*
X020855Y018916D01*
X020981Y019043D01*
X021050Y019208D01*
X021050Y019867D01*
X020981Y020032D01*
X020855Y020159D01*
X020690Y020227D01*
X020510Y020227D01*
X020345Y020159D01*
X020219Y020032D01*
X020150Y019867D01*
X020150Y019208D01*
X020219Y019043D01*
X020345Y018916D01*
X020249Y019012D02*
X019951Y019012D01*
X020010Y019111D02*
X020190Y019111D01*
X020150Y019209D02*
X020050Y019209D01*
X020050Y019308D02*
X020150Y019308D01*
X020150Y019406D02*
X020050Y019406D01*
X020050Y019505D02*
X020150Y019505D01*
X020150Y019603D02*
X020050Y019603D01*
X020050Y019702D02*
X020150Y019702D01*
X020150Y019800D02*
X020050Y019800D01*
X020037Y019899D02*
X020163Y019899D01*
X020204Y019997D02*
X019996Y019997D01*
X019918Y020096D02*
X020282Y020096D01*
X020430Y020194D02*
X019770Y020194D01*
X020770Y020194D02*
X021430Y020194D01*
X021510Y020227D02*
X021345Y020159D01*
X021219Y020032D01*
X021150Y019867D01*
X021150Y019208D01*
X021219Y019043D01*
X021345Y018916D01*
X021510Y018848D01*
X021690Y018848D01*
X021855Y018916D01*
X021981Y019043D01*
X022050Y019208D01*
X022050Y019867D01*
X021981Y020032D01*
X021855Y020159D01*
X021690Y020227D01*
X021510Y020227D01*
X021770Y020194D02*
X022850Y020194D01*
X022850Y020096D02*
X021918Y020096D01*
X021996Y019997D02*
X022850Y019997D01*
X022850Y019899D02*
X022037Y019899D01*
X022050Y019800D02*
X022850Y019800D01*
X022850Y019702D02*
X022050Y019702D01*
X022050Y019603D02*
X022850Y019603D01*
X022850Y019505D02*
X022050Y019505D01*
X022050Y019406D02*
X022850Y019406D01*
X022850Y019308D02*
X022050Y019308D01*
X022050Y019209D02*
X022850Y019209D01*
X022850Y019111D02*
X022010Y019111D01*
X021951Y019012D02*
X022850Y019012D01*
X022850Y018914D02*
X021849Y018914D01*
X021351Y018914D02*
X020849Y018914D01*
X020951Y019012D02*
X021249Y019012D01*
X021190Y019111D02*
X021010Y019111D01*
X021050Y019209D02*
X021150Y019209D01*
X021150Y019308D02*
X021050Y019308D01*
X021050Y019406D02*
X021150Y019406D01*
X021150Y019505D02*
X021050Y019505D01*
X021050Y019603D02*
X021150Y019603D01*
X021150Y019702D02*
X021050Y019702D01*
X021050Y019800D02*
X021150Y019800D01*
X021163Y019899D02*
X021037Y019899D01*
X020996Y019997D02*
X021204Y019997D01*
X021282Y020096D02*
X020918Y020096D01*
X022850Y020687D02*
X000663Y020687D01*
X000600Y020687D02*
X000350Y020687D01*
X000350Y020785D02*
X000600Y020785D01*
X000663Y020785D02*
X022850Y020785D01*
X022850Y016451D02*
X021990Y016451D01*
X021990Y016353D02*
X022850Y016353D01*
X022850Y016254D02*
X021989Y016254D01*
X021963Y016156D02*
X022850Y016156D01*
X022850Y016057D02*
X021908Y016057D01*
X021795Y015959D02*
X022850Y015959D01*
X021630Y015959D02*
X021570Y015959D01*
X021570Y016057D02*
X021630Y016057D01*
X021630Y016156D02*
X021570Y016156D01*
X021570Y016254D02*
X021630Y016254D01*
X021630Y016353D02*
X021570Y016353D01*
X021570Y016451D02*
X021630Y016451D01*
X014765Y012216D02*
X013998Y012216D01*
X014156Y012314D02*
X014607Y012314D01*
X014508Y012413D02*
X014254Y012413D01*
X014353Y012511D02*
X014410Y012511D01*
X014476Y008276D02*
X013724Y008276D01*
X013899Y008177D02*
X014301Y008177D01*
X014212Y008079D02*
X013988Y008079D01*
X014029Y007980D02*
X014171Y007980D01*
X014150Y007882D02*
X014050Y007882D01*
X014050Y007783D02*
X014150Y007783D01*
X014150Y007685D02*
X014050Y007685D01*
X014050Y007586D02*
X014150Y007586D01*
X014150Y007488D02*
X014050Y007488D01*
X014050Y007389D02*
X014150Y007389D01*
X014150Y007291D02*
X014050Y007291D01*
X014100Y007192D02*
X014183Y007192D01*
X014198Y007094D02*
X014230Y007094D01*
X014297Y006995D02*
X014329Y006995D01*
X014395Y006897D02*
X014462Y006897D01*
X014494Y006798D02*
X014560Y006798D01*
X014592Y006700D02*
X014659Y006700D01*
X014691Y006601D02*
X014757Y006601D01*
X014789Y006503D02*
X014856Y006503D01*
X014888Y006404D02*
X014954Y006404D01*
X014986Y006306D02*
X015053Y006306D01*
X015085Y006207D02*
X015151Y006207D01*
X015183Y006109D02*
X015250Y006109D01*
X015282Y006010D02*
X015348Y006010D01*
X015380Y005912D02*
X015447Y005912D01*
X015479Y005813D02*
X015545Y005813D01*
X015577Y005715D02*
X015644Y005715D01*
X015676Y005616D02*
X015742Y005616D01*
X015774Y005518D02*
X015841Y005518D01*
X015873Y005419D02*
X015939Y005419D01*
X015971Y005321D02*
X016038Y005321D01*
X016070Y005222D02*
X016136Y005222D01*
X016168Y005124D02*
X016235Y005124D01*
X016267Y005025D02*
X016333Y005025D01*
X016365Y004927D02*
X016432Y004927D01*
X016464Y004828D02*
X016530Y004828D01*
X016562Y004730D02*
X016629Y004730D01*
X016661Y004631D02*
X016727Y004631D01*
X016759Y004533D02*
X016826Y004533D01*
X016858Y004434D02*
X016924Y004434D01*
X016956Y004336D02*
X017023Y004336D01*
X017055Y004237D02*
X017121Y004237D01*
X017562Y004730D02*
X017629Y004730D01*
X017661Y004631D02*
X017727Y004631D01*
X017759Y004533D02*
X017826Y004533D01*
X017858Y004434D02*
X017924Y004434D01*
X017956Y004336D02*
X018023Y004336D01*
X018464Y004828D02*
X018530Y004828D01*
X018562Y004730D02*
X018629Y004730D01*
X018661Y004631D02*
X018727Y004631D01*
X018759Y004533D02*
X018826Y004533D01*
X018858Y004434D02*
X018924Y004434D01*
X018956Y004336D02*
X019023Y004336D01*
X019055Y004237D02*
X019121Y004237D01*
X019562Y004730D02*
X019629Y004730D01*
X019661Y004631D02*
X019727Y004631D01*
X019759Y004533D02*
X019826Y004533D01*
X019858Y004434D02*
X019924Y004434D01*
X019956Y004336D02*
X020023Y004336D01*
X020055Y004237D02*
X020121Y004237D01*
X019530Y004828D02*
X019464Y004828D01*
X019432Y004927D02*
X019365Y004927D01*
X019333Y005025D02*
X019267Y005025D01*
X019235Y005124D02*
X019168Y005124D01*
X019136Y005222D02*
X019070Y005222D01*
X019038Y005321D02*
X018971Y005321D01*
X018939Y005419D02*
X018873Y005419D01*
X018841Y005518D02*
X018774Y005518D01*
X018742Y005616D02*
X018676Y005616D01*
X018644Y005715D02*
X018577Y005715D01*
X018545Y005813D02*
X018479Y005813D01*
X018447Y005912D02*
X018380Y005912D01*
X018348Y006010D02*
X018282Y006010D01*
X018250Y006109D02*
X018183Y006109D01*
X018151Y006207D02*
X018085Y006207D01*
X018053Y006306D02*
X017986Y006306D01*
X017954Y006404D02*
X017888Y006404D01*
X017856Y006503D02*
X017789Y006503D01*
X017757Y006601D02*
X017691Y006601D01*
X017659Y006700D02*
X017592Y006700D01*
X017560Y006798D02*
X017494Y006798D01*
X017462Y006897D02*
X017395Y006897D01*
X017329Y006995D02*
X017297Y006995D01*
X017230Y007094D02*
X017198Y007094D01*
X017183Y007192D02*
X017100Y007192D01*
X017050Y007291D02*
X017150Y007291D01*
X017150Y007389D02*
X017050Y007389D01*
X017050Y007488D02*
X017150Y007488D01*
X017150Y007586D02*
X017050Y007586D01*
X017050Y007685D02*
X017150Y007685D01*
X017150Y007783D02*
X017050Y007783D01*
X017050Y007882D02*
X017150Y007882D01*
X017171Y007980D02*
X017029Y007980D01*
X016988Y008079D02*
X017212Y008079D01*
X017301Y008177D02*
X016899Y008177D01*
X016724Y008276D02*
X017476Y008276D01*
X017724Y008276D02*
X018270Y008276D01*
X018270Y008177D02*
X017899Y008177D01*
X017988Y008079D02*
X018212Y008079D01*
X018171Y007980D02*
X018029Y007980D01*
X018050Y007882D02*
X018150Y007882D01*
X018150Y007783D02*
X018050Y007783D01*
X018050Y007685D02*
X018150Y007685D01*
X018150Y007586D02*
X018050Y007586D01*
X018050Y007488D02*
X018150Y007488D01*
X018150Y007389D02*
X018050Y007389D01*
X018050Y007291D02*
X018150Y007291D01*
X018183Y007192D02*
X018100Y007192D01*
X018198Y007094D02*
X018230Y007094D01*
X018297Y006995D02*
X018329Y006995D01*
X017348Y006010D02*
X017282Y006010D01*
X017250Y006109D02*
X017183Y006109D01*
X017151Y006207D02*
X017085Y006207D01*
X017053Y006306D02*
X016986Y006306D01*
X016954Y006404D02*
X016888Y006404D01*
X016856Y006503D02*
X016789Y006503D01*
X016757Y006601D02*
X016691Y006601D01*
X016659Y006700D02*
X016592Y006700D01*
X016560Y006798D02*
X016494Y006798D01*
X016462Y006897D02*
X016395Y006897D01*
X016329Y006995D02*
X016297Y006995D01*
X016230Y007094D02*
X016198Y007094D01*
X016183Y007192D02*
X016100Y007192D01*
X016050Y007291D02*
X016150Y007291D01*
X016150Y007389D02*
X016050Y007389D01*
X016050Y007488D02*
X016150Y007488D01*
X016150Y007586D02*
X016050Y007586D01*
X016050Y007685D02*
X016150Y007685D01*
X016150Y007783D02*
X016050Y007783D01*
X016050Y007882D02*
X016150Y007882D01*
X016171Y007980D02*
X016029Y007980D01*
X015988Y008079D02*
X016212Y008079D01*
X016301Y008177D02*
X015899Y008177D01*
X015724Y008276D02*
X016476Y008276D01*
X015476Y008276D02*
X014724Y008276D01*
X014899Y008177D02*
X015301Y008177D01*
X015212Y008079D02*
X014988Y008079D01*
X015029Y007980D02*
X015171Y007980D01*
X015150Y007882D02*
X015050Y007882D01*
X015050Y007783D02*
X015150Y007783D01*
X015150Y007685D02*
X015050Y007685D01*
X015050Y007586D02*
X015150Y007586D01*
X015150Y007488D02*
X015050Y007488D01*
X015050Y007389D02*
X015150Y007389D01*
X015150Y007291D02*
X015050Y007291D01*
X015100Y007192D02*
X015183Y007192D01*
X015198Y007094D02*
X015230Y007094D01*
X015297Y006995D02*
X015329Y006995D01*
X015413Y006945D02*
X015413Y006945D01*
X015395Y006897D02*
X015462Y006897D01*
X015494Y006798D02*
X015560Y006798D01*
X015592Y006700D02*
X015659Y006700D01*
X015691Y006601D02*
X015757Y006601D01*
X015789Y006503D02*
X015856Y006503D01*
X015888Y006404D02*
X015954Y006404D01*
X015986Y006306D02*
X016053Y006306D01*
X016085Y006207D02*
X016151Y006207D01*
X016183Y006109D02*
X016250Y006109D01*
X016282Y006010D02*
X016348Y006010D01*
X016380Y005912D02*
X016447Y005912D01*
X016479Y005813D02*
X016545Y005813D01*
X016577Y005715D02*
X016644Y005715D01*
X016676Y005616D02*
X016742Y005616D01*
X016774Y005518D02*
X016841Y005518D01*
X016873Y005419D02*
X016939Y005419D01*
X016971Y005321D02*
X017038Y005321D01*
X017070Y005222D02*
X017136Y005222D01*
X017168Y005124D02*
X017235Y005124D01*
X017267Y005025D02*
X017333Y005025D01*
X017365Y004927D02*
X017432Y004927D01*
X017464Y004828D02*
X017530Y004828D01*
X018070Y005222D02*
X018136Y005222D01*
X018168Y005124D02*
X018235Y005124D01*
X018267Y005025D02*
X018333Y005025D01*
X018365Y004927D02*
X018432Y004927D01*
X018038Y005321D02*
X017971Y005321D01*
X017939Y005419D02*
X017873Y005419D01*
X017841Y005518D02*
X017774Y005518D01*
X017742Y005616D02*
X017676Y005616D01*
X017644Y005715D02*
X017577Y005715D01*
X017545Y005813D02*
X017479Y005813D01*
X017447Y005912D02*
X017380Y005912D01*
X015826Y004533D02*
X015759Y004533D01*
X015727Y004631D02*
X015661Y004631D01*
X015629Y004730D02*
X015562Y004730D01*
X015530Y004828D02*
X015464Y004828D01*
X015432Y004927D02*
X015365Y004927D01*
X015333Y005025D02*
X015267Y005025D01*
X015235Y005124D02*
X015168Y005124D01*
X015136Y005222D02*
X015070Y005222D01*
X015038Y005321D02*
X014971Y005321D01*
X014939Y005419D02*
X014873Y005419D01*
X014841Y005518D02*
X014774Y005518D01*
X014742Y005616D02*
X014676Y005616D01*
X014644Y005715D02*
X014577Y005715D01*
X014545Y005813D02*
X014479Y005813D01*
X014447Y005912D02*
X014380Y005912D01*
X014348Y006010D02*
X014282Y006010D01*
X014250Y006109D02*
X014183Y006109D01*
X014151Y006207D02*
X014085Y006207D01*
X014053Y006306D02*
X013986Y006306D01*
X013954Y006404D02*
X013888Y006404D01*
X013856Y006503D02*
X013789Y006503D01*
X013757Y006601D02*
X013691Y006601D01*
X013659Y006700D02*
X013592Y006700D01*
X013560Y006798D02*
X013494Y006798D01*
X013462Y006897D02*
X013395Y006897D01*
X013329Y006995D02*
X013297Y006995D01*
X013230Y007094D02*
X013198Y007094D01*
X013183Y007192D02*
X013100Y007192D01*
X013050Y007291D02*
X013150Y007291D01*
X013150Y007389D02*
X013050Y007389D01*
X013050Y007488D02*
X013150Y007488D01*
X013150Y007586D02*
X013050Y007586D01*
X013050Y007685D02*
X013150Y007685D01*
X013150Y007783D02*
X013050Y007783D01*
X013050Y007882D02*
X013150Y007882D01*
X013171Y007980D02*
X013029Y007980D01*
X012988Y008079D02*
X013212Y008079D01*
X013301Y008177D02*
X012899Y008177D01*
X012724Y008276D02*
X013476Y008276D01*
X012476Y008276D02*
X011724Y008276D01*
X011899Y008177D02*
X012301Y008177D01*
X012212Y008079D02*
X011988Y008079D01*
X012029Y007980D02*
X012171Y007980D01*
X012150Y007882D02*
X012050Y007882D01*
X012050Y007783D02*
X012150Y007783D01*
X012150Y007685D02*
X012050Y007685D01*
X012050Y007586D02*
X012150Y007586D01*
X012150Y007488D02*
X012050Y007488D01*
X012050Y007389D02*
X012150Y007389D01*
X012150Y007291D02*
X012050Y007291D01*
X012100Y007192D02*
X012183Y007192D01*
X012198Y007094D02*
X012230Y007094D01*
X012297Y006995D02*
X012329Y006995D01*
X012395Y006897D02*
X012462Y006897D01*
X012494Y006798D02*
X012560Y006798D01*
X012592Y006700D02*
X012659Y006700D01*
X012691Y006601D02*
X012757Y006601D01*
X012789Y006503D02*
X012856Y006503D01*
X012888Y006404D02*
X012954Y006404D01*
X012986Y006306D02*
X013053Y006306D01*
X013085Y006207D02*
X013151Y006207D01*
X013183Y006109D02*
X013250Y006109D01*
X013282Y006010D02*
X013348Y006010D01*
X013380Y005912D02*
X013447Y005912D01*
X013479Y005813D02*
X013545Y005813D01*
X013577Y005715D02*
X013644Y005715D01*
X013676Y005616D02*
X013742Y005616D01*
X013774Y005518D02*
X013841Y005518D01*
X013873Y005419D02*
X013939Y005419D01*
X013971Y005321D02*
X014038Y005321D01*
X014070Y005222D02*
X014136Y005222D01*
X014168Y005124D02*
X014235Y005124D01*
X014267Y005025D02*
X014333Y005025D01*
X014365Y004927D02*
X014432Y004927D01*
X014464Y004828D02*
X014530Y004828D01*
X014562Y004730D02*
X014629Y004730D01*
X014661Y004631D02*
X014727Y004631D01*
X014759Y004533D02*
X014826Y004533D01*
X014858Y004434D02*
X014924Y004434D01*
X014956Y004336D02*
X015023Y004336D01*
X015858Y004434D02*
X015924Y004434D01*
X015956Y004336D02*
X016023Y004336D01*
X016055Y004237D02*
X016121Y004237D01*
X021050Y007685D02*
X021210Y007685D01*
X021210Y007783D02*
X021050Y007783D01*
X021050Y007882D02*
X021211Y007882D01*
X021236Y007980D02*
X021029Y007980D01*
X020988Y008079D02*
X021290Y008079D01*
X021798Y008177D02*
X022850Y008177D01*
X022850Y008079D02*
X021910Y008079D01*
X021964Y007980D02*
X022850Y007980D01*
X022850Y007882D02*
X021989Y007882D01*
X021990Y007783D02*
X022850Y007783D01*
X022850Y007685D02*
X021990Y007685D01*
X010581Y005027D02*
X010454Y004975D01*
X010383Y004904D01*
X010380Y004912D01*
X009255Y006037D01*
X009162Y006130D01*
X009041Y006180D01*
X007713Y006180D01*
X007553Y006340D01*
X007147Y006340D01*
X006860Y006053D01*
X006860Y005647D01*
X007147Y005360D01*
X007553Y005360D01*
X007713Y005520D01*
X008838Y005520D01*
X009736Y004622D01*
X009735Y004619D01*
X009255Y005049D01*
X009225Y005121D01*
X009121Y005225D01*
X008986Y005281D01*
X008839Y005281D01*
X008704Y005225D01*
X008600Y005121D01*
X008544Y004986D01*
X008544Y004935D01*
X008474Y005005D01*
X008353Y005055D01*
X008141Y005055D01*
X008048Y005093D01*
X007902Y005093D01*
X007766Y005037D01*
X007663Y004934D01*
X007607Y004798D01*
X007607Y004652D01*
X007663Y004516D01*
X007766Y004413D01*
X007902Y004357D01*
X008048Y004357D01*
X008141Y004395D01*
X008151Y004395D01*
X008770Y003776D01*
X008770Y003725D01*
X005430Y003725D01*
X005430Y005463D01*
X006349Y006383D01*
X006442Y006476D01*
X006492Y006597D01*
X006492Y009978D01*
X006442Y010099D01*
X006255Y010287D01*
X006162Y010380D01*
X006041Y010430D01*
X005834Y010430D01*
X005782Y010481D01*
X005617Y010550D01*
X004958Y010550D01*
X004793Y010481D01*
X004742Y010431D01*
X004742Y010769D01*
X004793Y010719D01*
X004958Y010650D01*
X005617Y010650D01*
X005782Y010719D01*
X005909Y010845D01*
X005977Y011010D01*
X005977Y011190D01*
X005909Y011355D01*
X005782Y011481D01*
X005617Y011550D01*
X004958Y011550D01*
X004793Y011481D01*
X004742Y011431D01*
X004742Y011588D01*
X004849Y011695D01*
X004958Y011650D01*
X005617Y011650D01*
X005782Y011719D01*
X005909Y011845D01*
X005977Y012010D01*
X005977Y012190D01*
X005909Y012355D01*
X005782Y012481D01*
X005617Y012550D01*
X004958Y012550D01*
X004793Y012481D01*
X004741Y012430D01*
X004722Y012430D01*
X004601Y012380D01*
X004508Y012287D01*
X004220Y011999D01*
X004220Y012509D01*
X004441Y012730D01*
X004781Y012730D01*
X004793Y012719D01*
X004958Y012650D01*
X005617Y012650D01*
X005782Y012719D01*
X005909Y012845D01*
X005977Y013010D01*
X005977Y013190D01*
X005909Y013355D01*
X005782Y013481D01*
X005689Y013520D01*
X005776Y013520D01*
X006020Y013276D01*
X006020Y011784D01*
X006070Y011663D01*
X006470Y011263D01*
X006563Y011170D01*
X006684Y011120D01*
X006700Y011120D01*
X006700Y010567D01*
X006700Y009933D01*
X006823Y009810D01*
X006895Y009810D01*
X006895Y008909D01*
X006945Y008788D01*
X007038Y008695D01*
X008150Y007583D01*
X008150Y007270D01*
X008219Y007105D01*
X008345Y006979D01*
X008510Y006910D01*
X008690Y006910D01*
X008770Y006943D01*
X008770Y006909D01*
X008820Y006788D01*
X010581Y005027D01*
X010575Y005025D02*
X010267Y005025D01*
X010365Y004927D02*
X010405Y004927D01*
X010485Y005124D02*
X010168Y005124D01*
X010070Y005222D02*
X010386Y005222D01*
X010288Y005321D02*
X009971Y005321D01*
X009873Y005419D02*
X010189Y005419D01*
X010091Y005518D02*
X009774Y005518D01*
X009676Y005616D02*
X009992Y005616D01*
X009894Y005715D02*
X009577Y005715D01*
X009479Y005813D02*
X009795Y005813D01*
X009697Y005912D02*
X009380Y005912D01*
X009282Y006010D02*
X009598Y006010D01*
X009500Y006109D02*
X009183Y006109D01*
X009303Y006306D02*
X007587Y006306D01*
X007686Y006207D02*
X009401Y006207D01*
X009204Y006404D02*
X006371Y006404D01*
X006453Y006503D02*
X009106Y006503D01*
X009007Y006601D02*
X006492Y006601D01*
X006492Y006700D02*
X008909Y006700D01*
X008816Y006798D02*
X006492Y006798D01*
X006492Y006897D02*
X008775Y006897D01*
X008329Y006995D02*
X006492Y006995D01*
X006492Y007094D02*
X008230Y007094D01*
X008183Y007192D02*
X006492Y007192D01*
X006492Y007291D02*
X008150Y007291D01*
X008150Y007389D02*
X006492Y007389D01*
X006492Y007488D02*
X008150Y007488D01*
X008147Y007586D02*
X006492Y007586D01*
X006492Y007685D02*
X008049Y007685D01*
X007950Y007783D02*
X006492Y007783D01*
X006492Y007882D02*
X007852Y007882D01*
X007753Y007980D02*
X006492Y007980D01*
X006492Y008079D02*
X007655Y008079D01*
X007556Y008177D02*
X006492Y008177D01*
X006492Y008276D02*
X007458Y008276D01*
X007359Y008374D02*
X006492Y008374D01*
X006492Y008473D02*
X007261Y008473D01*
X007162Y008571D02*
X006492Y008571D01*
X006492Y008670D02*
X007064Y008670D01*
X006965Y008768D02*
X006492Y008768D01*
X006492Y008867D02*
X006913Y008867D01*
X006895Y008965D02*
X006492Y008965D01*
X006492Y009064D02*
X006895Y009064D01*
X006895Y009162D02*
X006492Y009162D01*
X006492Y009261D02*
X006895Y009261D01*
X006895Y009359D02*
X006492Y009359D01*
X006492Y009458D02*
X006895Y009458D01*
X006895Y009556D02*
X006492Y009556D01*
X006492Y009655D02*
X006895Y009655D01*
X006895Y009753D02*
X006492Y009753D01*
X006492Y009852D02*
X006781Y009852D01*
X006700Y009950D02*
X006492Y009950D01*
X006463Y010049D02*
X006700Y010049D01*
X006700Y010147D02*
X006395Y010147D01*
X006296Y010246D02*
X006700Y010246D01*
X006700Y010344D02*
X006198Y010344D01*
X005821Y010443D02*
X006700Y010443D01*
X006700Y010541D02*
X005639Y010541D01*
X005802Y010738D02*
X006700Y010738D01*
X006700Y010640D02*
X004742Y010640D01*
X004742Y010738D02*
X004773Y010738D01*
X004742Y010541D02*
X004936Y010541D01*
X004754Y010443D02*
X004742Y010443D01*
X004742Y011526D02*
X004900Y011526D01*
X004779Y011625D02*
X006109Y011625D01*
X006045Y011723D02*
X005787Y011723D01*
X005885Y011822D02*
X006020Y011822D01*
X006020Y011920D02*
X005940Y011920D01*
X005977Y012019D02*
X006020Y012019D01*
X006020Y012117D02*
X005977Y012117D01*
X005967Y012216D02*
X006020Y012216D01*
X006020Y012314D02*
X005926Y012314D01*
X005851Y012413D02*
X006020Y012413D01*
X006020Y012511D02*
X005711Y012511D01*
X005757Y012708D02*
X006020Y012708D01*
X006020Y012610D02*
X004320Y012610D01*
X004419Y012708D02*
X004818Y012708D01*
X004864Y012511D02*
X004222Y012511D01*
X004220Y012413D02*
X004680Y012413D01*
X004535Y012314D02*
X004220Y012314D01*
X004220Y012216D02*
X004436Y012216D01*
X004338Y012117D02*
X004220Y012117D01*
X004220Y012019D02*
X004239Y012019D01*
X005675Y011526D02*
X006207Y011526D01*
X006306Y011428D02*
X005836Y011428D01*
X005920Y011329D02*
X006404Y011329D01*
X006503Y011231D02*
X005961Y011231D01*
X005977Y011132D02*
X006655Y011132D01*
X006700Y011034D02*
X005977Y011034D01*
X005946Y010935D02*
X006700Y010935D01*
X006700Y010837D02*
X005900Y010837D01*
X005870Y012807D02*
X006020Y012807D01*
X006020Y012905D02*
X005934Y012905D01*
X005975Y013004D02*
X006020Y013004D01*
X006020Y013102D02*
X005977Y013102D01*
X005973Y013201D02*
X006020Y013201D01*
X005997Y013299D02*
X005932Y013299D01*
X005898Y013398D02*
X005866Y013398D01*
X005800Y013496D02*
X005747Y013496D01*
X004678Y014923D02*
X004272Y014923D01*
X003985Y015210D01*
X003985Y015615D01*
X004272Y015902D01*
X004678Y015902D01*
X004965Y015615D01*
X004965Y015210D01*
X004678Y014923D01*
X004729Y014974D02*
X007757Y014974D01*
X007855Y015072D02*
X004828Y015072D01*
X004926Y015171D02*
X008012Y015171D01*
X008114Y015269D02*
X004965Y015269D01*
X004965Y015368D02*
X008075Y015368D01*
X008075Y015466D02*
X004965Y015466D01*
X004965Y015565D02*
X008075Y015565D01*
X008075Y015663D02*
X004917Y015663D01*
X004819Y015762D02*
X008075Y015762D01*
X008075Y015860D02*
X004720Y015860D01*
X004230Y015860D02*
X001742Y015860D01*
X001742Y015762D02*
X002216Y015762D01*
X002297Y015842D02*
X002045Y015591D01*
X002045Y015451D01*
X002436Y015451D01*
X002436Y015374D01*
X002045Y015374D01*
X002045Y015234D01*
X002297Y014983D01*
X002436Y014983D01*
X002436Y015374D01*
X002514Y015374D01*
X002514Y015451D01*
X002905Y015451D01*
X002905Y015591D01*
X002653Y015842D01*
X002514Y015842D01*
X002514Y015451D01*
X002436Y015451D01*
X002436Y015842D01*
X002297Y015842D01*
X002436Y015762D02*
X002514Y015762D01*
X002514Y015663D02*
X002436Y015663D01*
X002436Y015565D02*
X002514Y015565D01*
X002514Y015466D02*
X002436Y015466D01*
X002436Y015368D02*
X002514Y015368D01*
X002514Y015374D02*
X002514Y014983D01*
X002653Y014983D01*
X002905Y015234D01*
X002905Y015374D01*
X002514Y015374D01*
X002514Y015269D02*
X002436Y015269D01*
X002436Y015171D02*
X002514Y015171D01*
X002514Y015072D02*
X002436Y015072D01*
X002207Y015072D02*
X001742Y015072D01*
X001742Y014974D02*
X004221Y014974D01*
X004122Y015072D02*
X002743Y015072D01*
X002841Y015171D02*
X004024Y015171D01*
X003985Y015269D02*
X002905Y015269D01*
X002905Y015368D02*
X003985Y015368D01*
X003985Y015466D02*
X002905Y015466D01*
X002905Y015565D02*
X003985Y015565D01*
X004033Y015663D02*
X002833Y015663D01*
X002734Y015762D02*
X004131Y015762D01*
X003467Y014678D02*
X001742Y014678D01*
X001742Y014580D02*
X003300Y014580D01*
X003202Y014481D02*
X001742Y014481D01*
X001742Y014383D02*
X003103Y014383D01*
X003005Y014284D02*
X001742Y014284D01*
X001742Y014186D02*
X002906Y014186D01*
X002808Y014087D02*
X001742Y014087D01*
X001742Y013989D02*
X002709Y013989D01*
X002611Y013890D02*
X001742Y013890D01*
X001742Y013792D02*
X002512Y013792D01*
X002414Y013693D02*
X001742Y013693D01*
X001742Y013595D02*
X002315Y013595D01*
X001828Y013496D02*
X001742Y013496D01*
X001742Y014777D02*
X007603Y014777D01*
X007658Y014875D02*
X001742Y014875D01*
X001742Y015171D02*
X002109Y015171D01*
X002045Y015269D02*
X001742Y015269D01*
X001742Y015368D02*
X002045Y015368D01*
X002045Y015466D02*
X001742Y015466D01*
X001742Y015565D02*
X002045Y015565D01*
X002117Y015663D02*
X001742Y015663D01*
X001742Y015959D02*
X008075Y015959D01*
X008075Y016057D02*
X001742Y016057D01*
X001742Y016156D02*
X007471Y016156D01*
X007362Y016254D02*
X001742Y016254D01*
X001742Y016353D02*
X007314Y016353D01*
X007294Y016451D02*
X006457Y016451D01*
X005868Y016451D02*
X001742Y016451D01*
X001742Y016550D02*
X005770Y016550D01*
X005673Y016648D02*
X001742Y016648D01*
X001742Y016747D02*
X005673Y016747D01*
X005673Y016845D02*
X001742Y016845D01*
X001742Y016944D02*
X005673Y016944D01*
X005673Y017042D02*
X001742Y017042D01*
X001742Y017141D02*
X005760Y017141D01*
X005859Y017239D02*
X001742Y017239D01*
X001742Y017338D02*
X005957Y017338D01*
X006368Y017338D02*
X007058Y017338D01*
X007157Y017436D02*
X001742Y017436D01*
X001742Y017535D02*
X007255Y017535D01*
X007354Y017633D02*
X001742Y017633D01*
X001742Y017732D02*
X007452Y017732D01*
X007551Y017830D02*
X001742Y017830D01*
X001742Y017929D02*
X007718Y017929D01*
X007574Y018421D02*
X007566Y018421D01*
X007903Y018421D02*
X007929Y018421D01*
X008339Y018421D02*
X008365Y018421D01*
X008172Y017239D02*
X007893Y017239D01*
X007912Y017141D02*
X007795Y017141D01*
X007763Y017042D02*
X007696Y017042D01*
X007664Y016944D02*
X007598Y016944D01*
X007566Y016845D02*
X007499Y016845D01*
X007413Y016747D02*
X007401Y016747D01*
X007335Y016648D02*
X007302Y016648D01*
X007295Y016550D02*
X007174Y016550D01*
X006960Y017239D02*
X006466Y017239D01*
X006614Y018421D02*
X006640Y018421D01*
X006890Y018421D02*
X007156Y018421D01*
X007139Y018428D02*
X007139Y018428D01*
X007059Y018508D02*
X007059Y018508D01*
X007048Y018520D02*
X006986Y018520D01*
X005787Y018421D02*
X005761Y018421D01*
X005351Y018421D02*
X005325Y018421D01*
X004756Y018421D02*
X004729Y018421D01*
X004320Y018421D02*
X004294Y018421D01*
X004303Y019332D02*
X004303Y019332D01*
X004303Y019332D01*
X004771Y019308D02*
X004874Y019308D01*
X005207Y019308D02*
X005310Y019308D01*
X008011Y016353D02*
X008075Y016353D01*
X008075Y016254D02*
X007963Y016254D01*
X007854Y016156D02*
X008075Y016156D01*
X009125Y016648D02*
X009673Y016648D01*
X009673Y016747D02*
X009125Y016747D01*
X009125Y016845D02*
X009673Y016845D01*
X009673Y016944D02*
X009125Y016944D01*
X009125Y017042D02*
X009673Y017042D01*
X009760Y017141D02*
X009125Y017141D01*
X009028Y017239D02*
X009859Y017239D01*
X009804Y017338D02*
X009957Y017338D01*
X009499Y015269D02*
X009086Y015269D01*
X001083Y008965D02*
X000350Y008965D01*
X000350Y008867D02*
X001083Y008867D01*
X001083Y008768D02*
X000350Y008768D01*
X000350Y008670D02*
X001083Y008670D01*
X001083Y008571D02*
X000350Y008571D01*
X000350Y008473D02*
X001083Y008473D01*
X001083Y008374D02*
X000350Y008374D01*
X000350Y008276D02*
X001083Y008276D01*
X001083Y008177D02*
X000350Y008177D01*
X000350Y008079D02*
X001083Y008079D01*
X001083Y007980D02*
X000350Y007980D01*
X000350Y007882D02*
X001083Y007882D01*
X001083Y007783D02*
X000350Y007783D01*
X000350Y007685D02*
X001124Y007685D01*
X001210Y007586D02*
X000350Y007586D01*
X000350Y007488D02*
X001308Y007488D01*
X001407Y007389D02*
X000350Y007389D01*
X000350Y007291D02*
X001547Y007291D01*
X001668Y007192D02*
X000350Y007192D01*
X000350Y007094D02*
X002257Y007094D01*
X002257Y006995D02*
X002318Y006995D01*
X002318Y006897D02*
X002257Y006897D01*
X002257Y006798D02*
X002318Y006798D01*
X002509Y006601D02*
X000350Y006601D01*
X000350Y006503D02*
X002411Y006503D01*
X002312Y006404D02*
X000350Y006404D01*
X000350Y006306D02*
X002240Y006306D01*
X002208Y006207D02*
X000350Y006207D01*
X000350Y006109D02*
X002208Y006109D01*
X002208Y006010D02*
X000350Y006010D01*
X000350Y005912D02*
X002208Y005912D01*
X002208Y005813D02*
X000350Y005813D01*
X000350Y005715D02*
X002208Y005715D01*
X002208Y005616D02*
X000350Y005616D01*
X000350Y005518D02*
X002208Y005518D01*
X002208Y005419D02*
X000350Y005419D01*
X000350Y005321D02*
X002218Y005321D01*
X002261Y005222D02*
X000350Y005222D01*
X000350Y005124D02*
X002360Y005124D01*
X002458Y005025D02*
X000350Y005025D01*
X000350Y004927D02*
X002557Y004927D01*
X002655Y004828D02*
X000350Y004828D01*
X000350Y004730D02*
X002754Y004730D01*
X002770Y004631D02*
X000350Y004631D01*
X000350Y004533D02*
X002770Y004533D01*
X002770Y004434D02*
X000350Y004434D01*
X000350Y004336D02*
X002770Y004336D01*
X002770Y004237D02*
X000350Y004237D01*
X000350Y004139D02*
X002770Y004139D01*
X002770Y004040D02*
X000350Y004040D01*
X000350Y003942D02*
X002770Y003942D01*
X002770Y003843D02*
X000350Y003843D01*
X000350Y003745D02*
X002770Y003745D01*
X003430Y003745D02*
X004770Y003745D01*
X004770Y003725D02*
X004770Y005534D01*
X004770Y005666D01*
X004820Y005787D01*
X005730Y006697D01*
X005617Y006650D01*
X004958Y006650D01*
X004793Y006719D01*
X004742Y006769D01*
X004742Y005222D01*
X004770Y005222D01*
X004742Y005222D02*
X004692Y005101D01*
X004599Y005008D01*
X003430Y003838D01*
X003430Y003725D01*
X004770Y003725D01*
X004770Y003843D02*
X003435Y003843D01*
X003533Y003942D02*
X004770Y003942D01*
X004770Y004040D02*
X003632Y004040D01*
X003730Y004139D02*
X004770Y004139D01*
X004770Y004237D02*
X003829Y004237D01*
X003927Y004336D02*
X004770Y004336D01*
X004770Y004434D02*
X004026Y004434D01*
X004124Y004533D02*
X004770Y004533D01*
X004770Y004631D02*
X004223Y004631D01*
X004321Y004730D02*
X004770Y004730D01*
X004770Y004828D02*
X004420Y004828D01*
X004518Y004927D02*
X004770Y004927D01*
X004770Y005025D02*
X004617Y005025D01*
X004702Y005124D02*
X004770Y005124D01*
X004770Y005321D02*
X004742Y005321D01*
X004742Y005419D02*
X004770Y005419D01*
X004770Y005518D02*
X004742Y005518D01*
X004742Y005616D02*
X004770Y005616D01*
X004790Y005715D02*
X004742Y005715D01*
X004742Y005813D02*
X004846Y005813D01*
X004945Y005912D02*
X004742Y005912D01*
X004742Y006010D02*
X005043Y006010D01*
X005142Y006109D02*
X004742Y006109D01*
X004742Y006207D02*
X005240Y006207D01*
X005339Y006306D02*
X004742Y006306D01*
X004742Y006404D02*
X005437Y006404D01*
X005536Y006503D02*
X004742Y006503D01*
X004742Y006601D02*
X005634Y006601D01*
X006174Y006207D02*
X007014Y006207D01*
X006916Y006109D02*
X006075Y006109D01*
X005977Y006010D02*
X006860Y006010D01*
X006860Y005912D02*
X005878Y005912D01*
X005780Y005813D02*
X006860Y005813D01*
X006860Y005715D02*
X005681Y005715D01*
X005583Y005616D02*
X006891Y005616D01*
X006990Y005518D02*
X005484Y005518D01*
X005430Y005419D02*
X007088Y005419D01*
X007612Y005419D02*
X008939Y005419D01*
X008841Y005518D02*
X007710Y005518D01*
X007754Y005025D02*
X005430Y005025D01*
X005430Y004927D02*
X007660Y004927D01*
X007619Y004828D02*
X005430Y004828D01*
X005430Y004730D02*
X007607Y004730D01*
X007615Y004631D02*
X005430Y004631D01*
X005430Y004533D02*
X007656Y004533D01*
X007745Y004434D02*
X005430Y004434D01*
X005430Y004336D02*
X008210Y004336D01*
X008309Y004237D02*
X005430Y004237D01*
X005430Y004139D02*
X008407Y004139D01*
X008506Y004040D02*
X005430Y004040D01*
X005430Y003942D02*
X008604Y003942D01*
X008703Y003843D02*
X005430Y003843D01*
X005430Y003745D02*
X008770Y003745D01*
X009722Y004631D02*
X009727Y004631D01*
X009629Y004730D02*
X009612Y004730D01*
X009530Y004828D02*
X009502Y004828D01*
X009432Y004927D02*
X009392Y004927D01*
X009333Y005025D02*
X009282Y005025D01*
X009235Y005124D02*
X009223Y005124D01*
X009136Y005222D02*
X009124Y005222D01*
X009038Y005321D02*
X005430Y005321D01*
X005430Y005222D02*
X008701Y005222D01*
X008602Y005124D02*
X005430Y005124D01*
X006272Y006306D02*
X007113Y006306D01*
X008426Y005025D02*
X008560Y005025D01*
X004838Y006700D02*
X004742Y006700D01*
X002608Y006700D02*
X000350Y006700D01*
X000350Y006798D02*
X001798Y006798D01*
X001714Y006897D02*
X000350Y006897D01*
X000350Y006995D02*
X001671Y006995D01*
D19*
X001600Y005788D03*
X003850Y006350D03*
X006225Y004475D03*
X007913Y004038D03*
X007975Y004725D03*
X008913Y004913D03*
X010100Y004538D03*
X010663Y004663D03*
X006975Y008288D03*
X004163Y004225D03*
X012100Y012788D03*
X012913Y014975D03*
X016100Y014413D03*
X016225Y017600D03*
X012225Y019288D03*
X009663Y015600D03*
X007663Y016475D03*
X006475Y015288D03*
X002288Y014350D03*
X020600Y005538D03*
X021975Y005725D03*
X021538Y011225D03*
X022225Y015663D03*
D20*
X021100Y015850D02*
X021100Y017288D01*
X020100Y017288D02*
X020100Y015850D01*
X019100Y015850D02*
X019100Y017288D01*
X018100Y017288D02*
X018100Y015850D01*
X018100Y014288D02*
X018100Y012788D01*
X019100Y012788D02*
X019100Y014288D01*
X020100Y014288D02*
X020100Y012788D01*
X014100Y012850D02*
X014100Y014100D01*
X011100Y014163D02*
X011100Y012788D01*
X010100Y012788D02*
X010100Y014225D01*
X010100Y008350D02*
X010100Y006975D01*
X009100Y006975D02*
X009100Y008350D01*
X002975Y007600D02*
X001663Y007600D01*
M02*
