G75*
%MOIN*%
%OFA0B0*%
%FSLAX24Y24*%
%IPPOS*%
%LPD*%
%AMOC8*
5,1,8,0,0,1.08239X$1,22.5*
%
%ADD10C,0.0000*%
%ADD11C,0.0100*%
%ADD12C,0.0080*%
%ADD13C,0.0110*%
%ADD14C,0.0060*%
%ADD15C,0.0120*%
%ADD16R,0.0340X0.0240*%
%ADD17R,0.0026X0.0002*%
%ADD18R,0.0173X0.0002*%
%ADD19R,0.0244X0.0002*%
%ADD20R,0.0291X0.0002*%
%ADD21R,0.0343X0.0002*%
%ADD22R,0.0382X0.0002*%
%ADD23R,0.0417X0.0002*%
%ADD24R,0.0451X0.0002*%
%ADD25R,0.0480X0.0002*%
%ADD26R,0.0512X0.0002*%
%ADD27R,0.0535X0.0002*%
%ADD28R,0.0565X0.0002*%
%ADD29R,0.0587X0.0002*%
%ADD30R,0.0610X0.0002*%
%ADD31R,0.0638X0.0002*%
%ADD32R,0.0657X0.0002*%
%ADD33R,0.0677X0.0002*%
%ADD34R,0.0701X0.0002*%
%ADD35R,0.0719X0.0002*%
%ADD36R,0.0740X0.0002*%
%ADD37R,0.0760X0.0002*%
%ADD38R,0.0776X0.0002*%
%ADD39R,0.0793X0.0002*%
%ADD40R,0.0811X0.0002*%
%ADD41R,0.0827X0.0002*%
%ADD42R,0.0846X0.0002*%
%ADD43R,0.0862X0.0002*%
%ADD44R,0.0878X0.0002*%
%ADD45R,0.0894X0.0002*%
%ADD46R,0.0909X0.0002*%
%ADD47R,0.0925X0.0002*%
%ADD48R,0.0941X0.0002*%
%ADD49R,0.0953X0.0002*%
%ADD50R,0.0969X0.0002*%
%ADD51R,0.0984X0.0002*%
%ADD52R,0.0994X0.0002*%
%ADD53R,0.1002X0.0002*%
%ADD54R,0.1008X0.0002*%
%ADD55R,0.1016X0.0002*%
%ADD56R,0.1022X0.0002*%
%ADD57R,0.1028X0.0002*%
%ADD58R,0.1033X0.0002*%
%ADD59R,0.1041X0.0002*%
%ADD60R,0.1047X0.0002*%
%ADD61R,0.1053X0.0002*%
%ADD62R,0.1059X0.0002*%
%ADD63R,0.1065X0.0002*%
%ADD64R,0.1071X0.0002*%
%ADD65R,0.1077X0.0002*%
%ADD66R,0.1083X0.0002*%
%ADD67R,0.1089X0.0002*%
%ADD68R,0.1094X0.0002*%
%ADD69R,0.1100X0.0002*%
%ADD70R,0.1104X0.0002*%
%ADD71R,0.1110X0.0002*%
%ADD72R,0.1116X0.0002*%
%ADD73R,0.1122X0.0002*%
%ADD74R,0.1128X0.0002*%
%ADD75R,0.1132X0.0002*%
%ADD76R,0.1138X0.0002*%
%ADD77R,0.1142X0.0002*%
%ADD78R,0.1148X0.0002*%
%ADD79R,0.1154X0.0002*%
%ADD80R,0.1157X0.0002*%
%ADD81R,0.1163X0.0002*%
%ADD82R,0.1167X0.0002*%
%ADD83R,0.1173X0.0002*%
%ADD84R,0.1177X0.0002*%
%ADD85R,0.1181X0.0002*%
%ADD86R,0.1187X0.0002*%
%ADD87R,0.1191X0.0002*%
%ADD88R,0.1197X0.0002*%
%ADD89R,0.1201X0.0002*%
%ADD90R,0.1205X0.0002*%
%ADD91R,0.1211X0.0002*%
%ADD92R,0.1215X0.0002*%
%ADD93R,0.1219X0.0002*%
%ADD94R,0.1222X0.0002*%
%ADD95R,0.1228X0.0002*%
%ADD96R,0.1232X0.0002*%
%ADD97R,0.1236X0.0002*%
%ADD98R,0.1240X0.0002*%
%ADD99R,0.1246X0.0002*%
%ADD100R,0.1250X0.0002*%
%ADD101R,0.1254X0.0002*%
%ADD102R,0.1258X0.0002*%
%ADD103R,0.1262X0.0002*%
%ADD104R,0.1266X0.0002*%
%ADD105R,0.1272X0.0002*%
%ADD106R,0.1276X0.0002*%
%ADD107R,0.1280X0.0002*%
%ADD108R,0.1283X0.0002*%
%ADD109R,0.1287X0.0002*%
%ADD110R,0.1291X0.0002*%
%ADD111R,0.1295X0.0002*%
%ADD112R,0.1299X0.0002*%
%ADD113R,0.1303X0.0002*%
%ADD114R,0.1307X0.0002*%
%ADD115R,0.1311X0.0002*%
%ADD116R,0.1313X0.0002*%
%ADD117R,0.1317X0.0002*%
%ADD118R,0.1321X0.0002*%
%ADD119R,0.1325X0.0002*%
%ADD120R,0.1329X0.0002*%
%ADD121R,0.1333X0.0002*%
%ADD122R,0.1337X0.0002*%
%ADD123R,0.1341X0.0002*%
%ADD124R,0.1344X0.0002*%
%ADD125R,0.1346X0.0002*%
%ADD126R,0.1350X0.0002*%
%ADD127R,0.1354X0.0002*%
%ADD128R,0.1358X0.0002*%
%ADD129R,0.1362X0.0002*%
%ADD130R,0.1366X0.0002*%
%ADD131R,0.1368X0.0002*%
%ADD132R,0.1372X0.0002*%
%ADD133R,0.1376X0.0002*%
%ADD134R,0.1380X0.0002*%
%ADD135R,0.1382X0.0002*%
%ADD136R,0.1386X0.0002*%
%ADD137R,0.1390X0.0002*%
%ADD138R,0.1392X0.0002*%
%ADD139R,0.1396X0.0002*%
%ADD140R,0.1400X0.0002*%
%ADD141R,0.1404X0.0002*%
%ADD142R,0.1406X0.0002*%
%ADD143R,0.1409X0.0002*%
%ADD144R,0.1413X0.0002*%
%ADD145R,0.1415X0.0002*%
%ADD146R,0.1419X0.0002*%
%ADD147R,0.1423X0.0002*%
%ADD148R,0.1425X0.0002*%
%ADD149R,0.1429X0.0002*%
%ADD150R,0.1431X0.0002*%
%ADD151R,0.1435X0.0002*%
%ADD152R,0.1439X0.0002*%
%ADD153R,0.1441X0.0002*%
%ADD154R,0.1445X0.0002*%
%ADD155R,0.1447X0.0002*%
%ADD156R,0.1451X0.0002*%
%ADD157R,0.1453X0.0002*%
%ADD158R,0.1457X0.0002*%
%ADD159R,0.1461X0.0002*%
%ADD160R,0.1463X0.0002*%
%ADD161R,0.1467X0.0002*%
%ADD162R,0.1469X0.0002*%
%ADD163R,0.1472X0.0002*%
%ADD164R,0.1474X0.0002*%
%ADD165R,0.1478X0.0002*%
%ADD166R,0.1480X0.0002*%
%ADD167R,0.1484X0.0002*%
%ADD168R,0.1486X0.0002*%
%ADD169R,0.1490X0.0002*%
%ADD170R,0.1492X0.0002*%
%ADD171R,0.1496X0.0002*%
%ADD172R,0.1498X0.0002*%
%ADD173R,0.1500X0.0002*%
%ADD174R,0.1504X0.0002*%
%ADD175R,0.1506X0.0002*%
%ADD176R,0.1510X0.0002*%
%ADD177R,0.1512X0.0002*%
%ADD178R,0.1514X0.0002*%
%ADD179R,0.1518X0.0002*%
%ADD180R,0.1520X0.0002*%
%ADD181R,0.1524X0.0002*%
%ADD182R,0.1526X0.0002*%
%ADD183R,0.1530X0.0002*%
%ADD184R,0.1531X0.0002*%
%ADD185R,0.1533X0.0002*%
%ADD186R,0.1537X0.0002*%
%ADD187R,0.1539X0.0002*%
%ADD188R,0.1541X0.0002*%
%ADD189R,0.1545X0.0002*%
%ADD190R,0.1547X0.0002*%
%ADD191R,0.1549X0.0002*%
%ADD192R,0.1553X0.0002*%
%ADD193R,0.1555X0.0002*%
%ADD194R,0.1557X0.0002*%
%ADD195R,0.1561X0.0002*%
%ADD196R,0.1563X0.0002*%
%ADD197R,0.1565X0.0002*%
%ADD198R,0.1567X0.0002*%
%ADD199R,0.1571X0.0002*%
%ADD200R,0.1573X0.0002*%
%ADD201R,0.1575X0.0002*%
%ADD202R,0.1579X0.0002*%
%ADD203R,0.1581X0.0002*%
%ADD204R,0.1583X0.0002*%
%ADD205R,0.1585X0.0002*%
%ADD206R,0.1589X0.0002*%
%ADD207R,0.1591X0.0002*%
%ADD208R,0.1593X0.0002*%
%ADD209R,0.1594X0.0002*%
%ADD210R,0.1598X0.0002*%
%ADD211R,0.1600X0.0002*%
%ADD212R,0.1602X0.0002*%
%ADD213R,0.1604X0.0002*%
%ADD214R,0.1606X0.0002*%
%ADD215R,0.1610X0.0002*%
%ADD216R,0.1612X0.0002*%
%ADD217R,0.1614X0.0002*%
%ADD218R,0.1616X0.0002*%
%ADD219R,0.1618X0.0002*%
%ADD220R,0.1622X0.0002*%
%ADD221R,0.1624X0.0002*%
%ADD222R,0.1626X0.0002*%
%ADD223R,0.1628X0.0002*%
%ADD224R,0.1630X0.0002*%
%ADD225R,0.1632X0.0002*%
%ADD226R,0.1636X0.0002*%
%ADD227R,0.1638X0.0002*%
%ADD228R,0.1640X0.0002*%
%ADD229R,0.1642X0.0002*%
%ADD230R,0.1644X0.0002*%
%ADD231R,0.1646X0.0002*%
%ADD232R,0.1648X0.0002*%
%ADD233R,0.1652X0.0002*%
%ADD234R,0.1654X0.0002*%
%ADD235R,0.1656X0.0002*%
%ADD236R,0.1657X0.0002*%
%ADD237R,0.1659X0.0002*%
%ADD238R,0.1661X0.0002*%
%ADD239R,0.1663X0.0002*%
%ADD240R,0.1665X0.0002*%
%ADD241R,0.1667X0.0002*%
%ADD242R,0.1671X0.0002*%
%ADD243R,0.1673X0.0002*%
%ADD244R,0.1675X0.0002*%
%ADD245R,0.1677X0.0002*%
%ADD246R,0.1679X0.0002*%
%ADD247R,0.1681X0.0002*%
%ADD248R,0.1683X0.0002*%
%ADD249R,0.1685X0.0002*%
%ADD250R,0.1687X0.0002*%
%ADD251R,0.1689X0.0002*%
%ADD252R,0.1691X0.0002*%
%ADD253R,0.1693X0.0002*%
%ADD254R,0.1695X0.0002*%
%ADD255R,0.1697X0.0002*%
%ADD256R,0.1699X0.0002*%
%ADD257R,0.1701X0.0002*%
%ADD258R,0.1703X0.0002*%
%ADD259R,0.1705X0.0002*%
%ADD260R,0.1707X0.0002*%
%ADD261R,0.1709X0.0002*%
%ADD262R,0.1711X0.0002*%
%ADD263R,0.1713X0.0002*%
%ADD264R,0.1715X0.0002*%
%ADD265R,0.1717X0.0002*%
%ADD266R,0.1719X0.0002*%
%ADD267R,0.1720X0.0002*%
%ADD268R,0.1722X0.0002*%
%ADD269R,0.1724X0.0002*%
%ADD270R,0.1726X0.0002*%
%ADD271R,0.1728X0.0002*%
%ADD272R,0.1730X0.0002*%
%ADD273R,0.1732X0.0002*%
%ADD274R,0.1734X0.0002*%
%ADD275R,0.1736X0.0002*%
%ADD276R,0.1738X0.0002*%
%ADD277R,0.1740X0.0002*%
%ADD278R,0.1742X0.0002*%
%ADD279R,0.1744X0.0002*%
%ADD280R,0.1746X0.0002*%
%ADD281R,0.1748X0.0002*%
%ADD282R,0.1750X0.0002*%
%ADD283R,0.1752X0.0002*%
%ADD284R,0.1754X0.0002*%
%ADD285R,0.1756X0.0002*%
%ADD286R,0.1758X0.0002*%
%ADD287R,0.1760X0.0002*%
%ADD288R,0.1762X0.0002*%
%ADD289R,0.1764X0.0002*%
%ADD290R,0.1766X0.0002*%
%ADD291R,0.1768X0.0002*%
%ADD292R,0.1770X0.0002*%
%ADD293R,0.1772X0.0002*%
%ADD294R,0.1774X0.0002*%
%ADD295R,0.1776X0.0002*%
%ADD296R,0.1778X0.0002*%
%ADD297R,0.1780X0.0002*%
%ADD298R,0.1781X0.0002*%
%ADD299R,0.1783X0.0002*%
%ADD300R,0.1785X0.0002*%
%ADD301R,0.1787X0.0002*%
%ADD302R,0.1789X0.0002*%
%ADD303R,0.1791X0.0002*%
%ADD304R,0.1793X0.0002*%
%ADD305R,0.1795X0.0002*%
%ADD306R,0.1797X0.0002*%
%ADD307R,0.1799X0.0002*%
%ADD308R,0.1801X0.0002*%
%ADD309R,0.1803X0.0002*%
%ADD310R,0.1805X0.0002*%
%ADD311R,0.1807X0.0002*%
%ADD312R,0.1809X0.0002*%
%ADD313R,0.1811X0.0002*%
%ADD314R,0.1813X0.0002*%
%ADD315R,0.1815X0.0002*%
%ADD316R,0.1817X0.0002*%
%ADD317R,0.1819X0.0002*%
%ADD318R,0.1821X0.0002*%
%ADD319R,0.1823X0.0002*%
%ADD320R,0.1825X0.0002*%
%ADD321R,0.1827X0.0002*%
%ADD322R,0.1829X0.0002*%
%ADD323R,0.1831X0.0002*%
%ADD324R,0.1833X0.0002*%
%ADD325R,0.1835X0.0002*%
%ADD326R,0.1837X0.0002*%
%ADD327R,0.1839X0.0002*%
%ADD328R,0.1841X0.0002*%
%ADD329R,0.1843X0.0002*%
%ADD330R,0.1844X0.0002*%
%ADD331R,0.1846X0.0002*%
%ADD332R,0.1848X0.0002*%
%ADD333R,0.1850X0.0002*%
%ADD334R,0.1852X0.0002*%
%ADD335R,0.1854X0.0002*%
%ADD336R,0.1856X0.0002*%
%ADD337R,0.1858X0.0002*%
%ADD338R,0.1860X0.0002*%
%ADD339R,0.1862X0.0002*%
%ADD340R,0.1864X0.0002*%
%ADD341R,0.1866X0.0002*%
%ADD342R,0.1868X0.0002*%
%ADD343R,0.1870X0.0002*%
%ADD344R,0.1872X0.0002*%
%ADD345R,0.0421X0.0002*%
%ADD346R,0.1335X0.0002*%
%ADD347R,0.0384X0.0002*%
%ADD348R,0.0360X0.0002*%
%ADD349R,0.0327X0.0002*%
%ADD350R,0.1268X0.0002*%
%ADD351R,0.0311X0.0002*%
%ADD352R,0.0299X0.0002*%
%ADD353R,0.0287X0.0002*%
%ADD354R,0.0276X0.0002*%
%ADD355R,0.1226X0.0002*%
%ADD356R,0.0264X0.0002*%
%ADD357R,0.0254X0.0002*%
%ADD358R,0.1209X0.0002*%
%ADD359R,0.0236X0.0002*%
%ADD360R,0.1195X0.0002*%
%ADD361R,0.0228X0.0002*%
%ADD362R,0.0219X0.0002*%
%ADD363R,0.0211X0.0002*%
%ADD364R,0.1175X0.0002*%
%ADD365R,0.0203X0.0002*%
%ADD366R,0.0195X0.0002*%
%ADD367R,0.1161X0.0002*%
%ADD368R,0.0187X0.0002*%
%ADD369R,0.0181X0.0002*%
%ADD370R,0.1150X0.0002*%
%ADD371R,0.1146X0.0002*%
%ADD372R,0.0167X0.0002*%
%ADD373R,0.1140X0.0002*%
%ADD374R,0.0159X0.0002*%
%ADD375R,0.1134X0.0002*%
%ADD376R,0.0154X0.0002*%
%ADD377R,0.1130X0.0002*%
%ADD378R,0.0148X0.0002*%
%ADD379R,0.1126X0.0002*%
%ADD380R,0.0142X0.0002*%
%ADD381R,0.1120X0.0002*%
%ADD382R,0.0136X0.0002*%
%ADD383R,0.0130X0.0002*%
%ADD384R,0.1112X0.0002*%
%ADD385R,0.0124X0.0002*%
%ADD386R,0.1106X0.0002*%
%ADD387R,0.0118X0.0002*%
%ADD388R,0.1102X0.0002*%
%ADD389R,0.0112X0.0002*%
%ADD390R,0.1098X0.0002*%
%ADD391R,0.0108X0.0002*%
%ADD392R,0.0102X0.0002*%
%ADD393R,0.1091X0.0002*%
%ADD394R,0.0096X0.0002*%
%ADD395R,0.1087X0.0002*%
%ADD396R,0.0093X0.0002*%
%ADD397R,0.0087X0.0002*%
%ADD398R,0.1081X0.0002*%
%ADD399R,0.0083X0.0002*%
%ADD400R,0.1075X0.0002*%
%ADD401R,0.0077X0.0002*%
%ADD402R,0.0073X0.0002*%
%ADD403R,0.1067X0.0002*%
%ADD404R,0.0069X0.0002*%
%ADD405R,0.0063X0.0002*%
%ADD406R,0.1061X0.0002*%
%ADD407R,0.0059X0.0002*%
%ADD408R,0.1057X0.0002*%
%ADD409R,0.0053X0.0002*%
%ADD410R,0.1055X0.0002*%
%ADD411R,0.0049X0.0002*%
%ADD412R,0.1051X0.0002*%
%ADD413R,0.0045X0.0002*%
%ADD414R,0.0041X0.0002*%
%ADD415R,0.1045X0.0002*%
%ADD416R,0.0035X0.0002*%
%ADD417R,0.0031X0.0002*%
%ADD418R,0.1039X0.0002*%
%ADD419R,0.0028X0.0002*%
%ADD420R,0.1035X0.0002*%
%ADD421R,0.0024X0.0002*%
%ADD422R,0.0020X0.0002*%
%ADD423R,0.1031X0.0002*%
%ADD424R,0.0016X0.0002*%
%ADD425R,0.0012X0.0002*%
%ADD426R,0.1026X0.0002*%
%ADD427R,0.0008X0.0002*%
%ADD428R,0.0004X0.0002*%
%ADD429R,0.1020X0.0002*%
%ADD430R,0.1018X0.0002*%
%ADD431R,0.1014X0.0002*%
%ADD432R,0.1012X0.0002*%
%ADD433R,0.1006X0.0002*%
%ADD434R,0.1004X0.0002*%
%ADD435R,0.1000X0.0002*%
%ADD436R,0.0996X0.0002*%
%ADD437R,0.0992X0.0002*%
%ADD438R,0.0990X0.0002*%
%ADD439R,0.0986X0.0002*%
%ADD440R,0.0982X0.0002*%
%ADD441R,0.0980X0.0002*%
%ADD442R,0.0978X0.0002*%
%ADD443R,0.0976X0.0002*%
%ADD444R,0.0974X0.0002*%
%ADD445R,0.0972X0.0002*%
%ADD446R,0.0970X0.0002*%
%ADD447R,0.0967X0.0002*%
%ADD448R,0.0963X0.0002*%
%ADD449R,0.0959X0.0002*%
%ADD450R,0.0955X0.0002*%
%ADD451R,0.0951X0.0002*%
%ADD452R,0.0947X0.0002*%
%ADD453R,0.0945X0.0002*%
%ADD454R,0.0943X0.0002*%
%ADD455R,0.0939X0.0002*%
%ADD456R,0.0937X0.0002*%
%ADD457R,0.0933X0.0002*%
%ADD458R,0.0931X0.0002*%
%ADD459R,0.0929X0.0002*%
%ADD460R,0.0927X0.0002*%
%ADD461R,0.0923X0.0002*%
%ADD462R,0.0921X0.0002*%
%ADD463R,0.0917X0.0002*%
%ADD464R,0.1207X0.0002*%
%ADD465R,0.0915X0.0002*%
%ADD466R,0.1203X0.0002*%
%ADD467R,0.0913X0.0002*%
%ADD468R,0.0911X0.0002*%
%ADD469R,0.1199X0.0002*%
%ADD470R,0.0907X0.0002*%
%ADD471R,0.1193X0.0002*%
%ADD472R,0.0906X0.0002*%
%ADD473R,0.1189X0.0002*%
%ADD474R,0.0902X0.0002*%
%ADD475R,0.1185X0.0002*%
%ADD476R,0.1183X0.0002*%
%ADD477R,0.0900X0.0002*%
%ADD478R,0.1179X0.0002*%
%ADD479R,0.0898X0.0002*%
%ADD480R,0.0896X0.0002*%
%ADD481R,0.1171X0.0002*%
%ADD482R,0.1169X0.0002*%
%ADD483R,0.0892X0.0002*%
%ADD484R,0.0890X0.0002*%
%ADD485R,0.1165X0.0002*%
%ADD486R,0.0888X0.0002*%
%ADD487R,0.1159X0.0002*%
%ADD488R,0.0886X0.0002*%
%ADD489R,0.0884X0.0002*%
%ADD490R,0.1156X0.0002*%
%ADD491R,0.0882X0.0002*%
%ADD492R,0.1152X0.0002*%
%ADD493R,0.0880X0.0002*%
%ADD494R,0.1144X0.0002*%
%ADD495R,0.0876X0.0002*%
%ADD496R,0.0874X0.0002*%
%ADD497R,0.1136X0.0002*%
%ADD498R,0.0872X0.0002*%
%ADD499R,0.0870X0.0002*%
%ADD500R,0.0868X0.0002*%
%ADD501R,0.1124X0.0002*%
%ADD502R,0.0866X0.0002*%
%ADD503R,0.0864X0.0002*%
%ADD504R,0.1118X0.0002*%
%ADD505R,0.1114X0.0002*%
%ADD506R,0.0860X0.0002*%
%ADD507R,0.1108X0.0002*%
%ADD508R,0.0858X0.0002*%
%ADD509R,0.0856X0.0002*%
%ADD510R,0.0854X0.0002*%
%ADD511R,0.1096X0.0002*%
%ADD512R,0.1093X0.0002*%
%ADD513R,0.0852X0.0002*%
%ADD514R,0.0850X0.0002*%
%ADD515R,0.0848X0.0002*%
%ADD516R,0.1085X0.0002*%
%ADD517R,0.0844X0.0002*%
%ADD518R,0.1073X0.0002*%
%ADD519R,0.1069X0.0002*%
%ADD520R,0.0843X0.0002*%
%ADD521R,0.0841X0.0002*%
%ADD522R,0.1063X0.0002*%
%ADD523R,0.0839X0.0002*%
%ADD524R,0.0837X0.0002*%
%ADD525R,0.1049X0.0002*%
%ADD526R,0.0835X0.0002*%
%ADD527R,0.1043X0.0002*%
%ADD528R,0.0833X0.0002*%
%ADD529R,0.0831X0.0002*%
%ADD530R,0.1037X0.0002*%
%ADD531R,0.0829X0.0002*%
%ADD532R,0.1030X0.0002*%
%ADD533R,0.1024X0.0002*%
%ADD534R,0.0825X0.0002*%
%ADD535R,0.0823X0.0002*%
%ADD536R,0.1010X0.0002*%
%ADD537R,0.0821X0.0002*%
%ADD538R,0.0819X0.0002*%
%ADD539R,0.0817X0.0002*%
%ADD540R,0.0998X0.0002*%
%ADD541R,0.0815X0.0002*%
%ADD542R,0.0988X0.0002*%
%ADD543R,0.0813X0.0002*%
%ADD544R,0.0809X0.0002*%
%ADD545R,0.0965X0.0002*%
%ADD546R,0.0807X0.0002*%
%ADD547R,0.0957X0.0002*%
%ADD548R,0.0805X0.0002*%
%ADD549R,0.0949X0.0002*%
%ADD550R,0.0803X0.0002*%
%ADD551R,0.0801X0.0002*%
%ADD552R,0.0935X0.0002*%
%ADD553R,0.0799X0.0002*%
%ADD554R,0.0797X0.0002*%
%ADD555R,0.0919X0.0002*%
%ADD556R,0.0795X0.0002*%
%ADD557R,0.0904X0.0002*%
%ADD558R,0.0791X0.0002*%
%ADD559R,0.0789X0.0002*%
%ADD560R,0.0787X0.0002*%
%ADD561R,0.0785X0.0002*%
%ADD562R,0.0783X0.0002*%
%ADD563R,0.0781X0.0002*%
%ADD564R,0.0780X0.0002*%
%ADD565R,0.0778X0.0002*%
%ADD566R,0.0774X0.0002*%
%ADD567R,0.0770X0.0002*%
%ADD568R,0.0768X0.0002*%
%ADD569R,0.0772X0.0002*%
%ADD570R,0.0766X0.0002*%
%ADD571R,0.0764X0.0002*%
%ADD572R,0.0762X0.0002*%
%ADD573R,0.0758X0.0002*%
%ADD574R,0.0756X0.0002*%
%ADD575R,0.0754X0.0002*%
%ADD576R,0.0752X0.0002*%
%ADD577R,0.0750X0.0002*%
%ADD578R,0.0746X0.0002*%
%ADD579R,0.0744X0.0002*%
%ADD580R,0.0742X0.0002*%
%ADD581R,0.0738X0.0002*%
%ADD582R,0.0736X0.0002*%
%ADD583R,0.0734X0.0002*%
%ADD584R,0.0732X0.0002*%
%ADD585R,0.0730X0.0002*%
%ADD586R,0.0728X0.0002*%
%ADD587R,0.0726X0.0002*%
%ADD588R,0.0722X0.0002*%
%ADD589R,0.0720X0.0002*%
%ADD590R,0.0717X0.0002*%
%ADD591R,0.0715X0.0002*%
%ADD592R,0.0713X0.0002*%
%ADD593R,0.0711X0.0002*%
%ADD594R,0.0709X0.0002*%
%ADD595R,0.0707X0.0002*%
%ADD596R,0.0705X0.0002*%
%ADD597R,0.0703X0.0002*%
%ADD598R,0.0699X0.0002*%
%ADD599R,0.0697X0.0002*%
%ADD600R,0.0695X0.0002*%
%ADD601R,0.0693X0.0002*%
%ADD602R,0.0691X0.0002*%
%ADD603R,0.0689X0.0002*%
%ADD604R,0.0687X0.0002*%
%ADD605R,0.0685X0.0002*%
%ADD606R,0.0683X0.0002*%
%ADD607R,0.0681X0.0002*%
%ADD608R,0.0679X0.0002*%
%ADD609R,0.0675X0.0002*%
%ADD610R,0.0673X0.0002*%
%ADD611R,0.0671X0.0002*%
%ADD612R,0.0669X0.0002*%
%ADD613R,0.0667X0.0002*%
%ADD614R,0.0724X0.0002*%
%ADD615R,0.0748X0.0002*%
%ADD616R,0.0961X0.0002*%
%ADD617R,0.1079X0.0002*%
%ADD618R,0.0002X0.0002*%
%ADD619R,0.0006X0.0002*%
%ADD620R,0.0010X0.0002*%
%ADD621R,0.0014X0.0002*%
%ADD622R,0.0022X0.0002*%
%ADD623R,0.0039X0.0002*%
%ADD624R,0.0043X0.0002*%
%ADD625R,0.0047X0.0002*%
%ADD626R,0.0057X0.0002*%
%ADD627R,0.0061X0.0002*%
%ADD628R,0.0067X0.0002*%
%ADD629R,0.0071X0.0002*%
%ADD630R,0.0081X0.0002*%
%ADD631R,0.0091X0.0002*%
%ADD632R,0.0100X0.0002*%
%ADD633R,0.0106X0.0002*%
%ADD634R,0.0122X0.0002*%
%ADD635R,0.0128X0.0002*%
%ADD636R,0.0134X0.0002*%
%ADD637R,0.0140X0.0002*%
%ADD638R,0.0146X0.0002*%
%ADD639R,0.0165X0.0002*%
%ADD640R,0.0171X0.0002*%
%ADD641R,0.0179X0.0002*%
%ADD642R,0.0185X0.0002*%
%ADD643R,0.0193X0.0002*%
%ADD644R,0.0201X0.0002*%
%ADD645R,0.0209X0.0002*%
%ADD646R,0.0217X0.0002*%
%ADD647R,0.0224X0.0002*%
%ADD648R,0.0234X0.0002*%
%ADD649R,0.0242X0.0002*%
%ADD650R,0.1217X0.0002*%
%ADD651R,0.0252X0.0002*%
%ADD652R,0.1224X0.0002*%
%ADD653R,0.0262X0.0002*%
%ADD654R,0.1234X0.0002*%
%ADD655R,0.0272X0.0002*%
%ADD656R,0.1244X0.0002*%
%ADD657R,0.0283X0.0002*%
%ADD658R,0.0295X0.0002*%
%ADD659R,0.0307X0.0002*%
%ADD660R,0.0323X0.0002*%
%ADD661R,0.1293X0.0002*%
%ADD662R,0.0337X0.0002*%
%ADD663R,0.1309X0.0002*%
%ADD664R,0.0356X0.0002*%
%ADD665R,0.1331X0.0002*%
%ADD666R,0.0378X0.0002*%
%ADD667R,0.0409X0.0002*%
%ADD668R,0.1669X0.0002*%
%ADD669R,0.1650X0.0002*%
%ADD670R,0.1634X0.0002*%
%ADD671R,0.1620X0.0002*%
%ADD672R,0.1608X0.0002*%
%ADD673R,0.1596X0.0002*%
%ADD674R,0.1587X0.0002*%
%ADD675R,0.1577X0.0002*%
%ADD676R,0.1569X0.0002*%
%ADD677R,0.1559X0.0002*%
%ADD678R,0.1551X0.0002*%
%ADD679R,0.1543X0.0002*%
%ADD680R,0.1535X0.0002*%
%ADD681R,0.1528X0.0002*%
%ADD682R,0.1522X0.0002*%
%ADD683R,0.1516X0.0002*%
%ADD684R,0.1508X0.0002*%
%ADD685R,0.1502X0.0002*%
%ADD686R,0.1494X0.0002*%
%ADD687R,0.1488X0.0002*%
%ADD688R,0.1482X0.0002*%
%ADD689R,0.1476X0.0002*%
%ADD690R,0.1470X0.0002*%
%ADD691R,0.1465X0.0002*%
%ADD692R,0.1459X0.0002*%
%ADD693R,0.1455X0.0002*%
%ADD694R,0.1449X0.0002*%
%ADD695R,0.1443X0.0002*%
%ADD696R,0.1437X0.0002*%
%ADD697R,0.1433X0.0002*%
%ADD698R,0.1427X0.0002*%
%ADD699R,0.1421X0.0002*%
%ADD700R,0.1417X0.0002*%
%ADD701R,0.1411X0.0002*%
%ADD702R,0.1407X0.0002*%
%ADD703R,0.1402X0.0002*%
%ADD704R,0.1398X0.0002*%
%ADD705R,0.1388X0.0002*%
%ADD706R,0.1378X0.0002*%
%ADD707R,0.1374X0.0002*%
%ADD708R,0.1364X0.0002*%
%ADD709R,0.1360X0.0002*%
%ADD710R,0.1356X0.0002*%
%ADD711R,0.1343X0.0002*%
%ADD712R,0.1339X0.0002*%
%ADD713R,0.1305X0.0002*%
%ADD714R,0.1301X0.0002*%
%ADD715R,0.1297X0.0002*%
%ADD716R,0.1289X0.0002*%
%ADD717R,0.1285X0.0002*%
%ADD718R,0.1281X0.0002*%
%ADD719R,0.1278X0.0002*%
%ADD720R,0.1274X0.0002*%
%ADD721R,0.1270X0.0002*%
%ADD722R,0.1256X0.0002*%
%ADD723R,0.1252X0.0002*%
%ADD724R,0.1248X0.0002*%
%ADD725R,0.1230X0.0002*%
%ADD726R,0.1213X0.0002*%
%ADD727R,0.0652X0.0002*%
%ADD728R,0.0628X0.0002*%
%ADD729R,0.0606X0.0002*%
%ADD730R,0.0583X0.0002*%
%ADD731R,0.0559X0.0002*%
%ADD732R,0.0531X0.0002*%
%ADD733R,0.0502X0.0002*%
%ADD734R,0.0472X0.0002*%
%ADD735R,0.0441X0.0002*%
%ADD736R,0.0406X0.0002*%
%ADD737R,0.0368X0.0002*%
%ADD738R,0.0329X0.0002*%
%ADD739R,0.0280X0.0002*%
%ADD740R,0.0222X0.0002*%
D10*
X000100Y000100D02*
X000100Y021060D01*
X023100Y021060D01*
X023100Y000100D01*
X000100Y000100D01*
X010671Y017547D02*
X010673Y017607D01*
X010679Y017668D01*
X010689Y017727D01*
X010703Y017786D01*
X010720Y017844D01*
X010741Y017901D01*
X010766Y017956D01*
X010795Y018009D01*
X010827Y018061D01*
X010862Y018110D01*
X010901Y018157D01*
X010942Y018201D01*
X010986Y018242D01*
X011033Y018281D01*
X011082Y018316D01*
X011133Y018348D01*
X011187Y018377D01*
X011242Y018402D01*
X011299Y018423D01*
X011357Y018440D01*
X011416Y018454D01*
X011475Y018464D01*
X011536Y018470D01*
X011596Y018472D01*
X011656Y018470D01*
X011717Y018464D01*
X011776Y018454D01*
X011835Y018440D01*
X011893Y018423D01*
X011950Y018402D01*
X012005Y018377D01*
X012058Y018348D01*
X012110Y018316D01*
X012159Y018281D01*
X012206Y018242D01*
X012250Y018201D01*
X012291Y018157D01*
X012330Y018110D01*
X012365Y018061D01*
X012397Y018010D01*
X012426Y017956D01*
X012451Y017901D01*
X012472Y017844D01*
X012489Y017786D01*
X012503Y017727D01*
X012513Y017668D01*
X012519Y017607D01*
X012521Y017547D01*
X012519Y017487D01*
X012513Y017426D01*
X012503Y017367D01*
X012489Y017308D01*
X012472Y017250D01*
X012451Y017193D01*
X012426Y017138D01*
X012397Y017085D01*
X012365Y017033D01*
X012330Y016984D01*
X012291Y016937D01*
X012250Y016893D01*
X012206Y016852D01*
X012159Y016813D01*
X012110Y016778D01*
X012059Y016746D01*
X012005Y016717D01*
X011950Y016692D01*
X011893Y016671D01*
X011835Y016654D01*
X011776Y016640D01*
X011717Y016630D01*
X011656Y016624D01*
X011596Y016622D01*
X011536Y016624D01*
X011475Y016630D01*
X011416Y016640D01*
X011357Y016654D01*
X011299Y016671D01*
X011242Y016692D01*
X011187Y016717D01*
X011134Y016746D01*
X011082Y016778D01*
X011033Y016813D01*
X010986Y016852D01*
X010942Y016893D01*
X010901Y016937D01*
X010862Y016984D01*
X010827Y017033D01*
X010795Y017084D01*
X010766Y017138D01*
X010741Y017193D01*
X010720Y017250D01*
X010703Y017308D01*
X010689Y017367D01*
X010679Y017426D01*
X010673Y017487D01*
X010671Y017547D01*
D11*
X010747Y018781D02*
X010789Y018808D01*
X010829Y018839D01*
X010866Y018872D01*
X010901Y018908D01*
X010934Y018946D01*
X010963Y018987D01*
X010990Y019029D01*
X011014Y019073D01*
X011035Y019119D01*
X011052Y019166D01*
X011066Y019214D01*
X011077Y019263D01*
X011084Y019313D01*
X011087Y019362D01*
X011088Y019413D01*
X011150Y020055D02*
X011524Y020055D01*
X010804Y020024D02*
X010843Y019988D01*
X010881Y019949D01*
X010915Y019909D01*
X010947Y019866D01*
X010975Y019821D01*
X011001Y019774D01*
X011024Y019725D01*
X011043Y019675D01*
X011059Y019624D01*
X011071Y019572D01*
X011080Y019520D01*
X011085Y019466D01*
X011087Y019413D01*
X009775Y020028D02*
X009735Y019992D01*
X009697Y019953D01*
X009662Y019912D01*
X009630Y019869D01*
X009600Y019824D01*
X009574Y019777D01*
X009552Y019728D01*
X009532Y019677D01*
X009516Y019626D01*
X009503Y019574D01*
X009494Y019520D01*
X009489Y019467D01*
X009487Y019413D01*
X009488Y019413D02*
X009486Y019362D01*
X009488Y019312D01*
X009494Y019261D01*
X009503Y019212D01*
X009516Y019163D01*
X009532Y019115D01*
X009552Y019068D01*
X009575Y019023D01*
X009602Y018980D01*
X009631Y018938D01*
X009663Y018899D01*
X009698Y018863D01*
X009736Y018829D01*
X009776Y018797D01*
X009818Y018769D01*
X003580Y018335D02*
X003206Y018335D01*
X003393Y018335D02*
X003393Y017775D01*
X002972Y017775D02*
X002598Y017775D01*
X002598Y018335D01*
X002972Y018335D01*
X002785Y018055D02*
X002598Y018055D01*
X002364Y017962D02*
X002364Y017868D01*
X002271Y017775D01*
X002084Y017775D01*
X001990Y017868D01*
X002084Y018055D02*
X002271Y018055D01*
X002364Y017962D01*
X002364Y018242D02*
X002271Y018335D01*
X002084Y018335D01*
X001990Y018242D01*
X001990Y018149D01*
X002084Y018055D01*
X001756Y017775D02*
X001383Y017775D01*
X001383Y018335D01*
X001756Y018335D01*
X001570Y018055D02*
X001383Y018055D01*
X001149Y018055D02*
X001055Y017962D01*
X000775Y017962D01*
X000962Y017962D02*
X001149Y017775D01*
X001149Y018055D02*
X001149Y018242D01*
X001055Y018335D01*
X000775Y018335D01*
X000775Y017775D01*
X001212Y004523D02*
X001212Y003963D01*
X001025Y003963D02*
X001399Y003963D01*
X001025Y004336D02*
X001212Y004523D01*
X010749Y004336D02*
X010935Y004523D01*
X010935Y003963D01*
X010749Y003963D02*
X011122Y003963D01*
X011356Y003963D02*
X011730Y003963D01*
X011543Y003963D02*
X011543Y004523D01*
X011356Y004336D01*
X021687Y004430D02*
X021781Y004523D01*
X021968Y004523D01*
X022061Y004430D01*
X022061Y004336D01*
X021687Y003963D01*
X022061Y003963D01*
X022295Y003963D02*
X022669Y004336D01*
X022669Y004430D01*
X022575Y004523D01*
X022389Y004523D01*
X022295Y004430D01*
X022295Y003963D02*
X022669Y003963D01*
D12*
X017798Y009265D02*
X017718Y009265D01*
X017718Y009345D01*
X017798Y009345D01*
X017798Y009265D01*
X017541Y009265D02*
X017541Y009345D01*
X017461Y009345D01*
X017461Y009265D01*
X017541Y009265D01*
X017283Y009265D02*
X017283Y009345D01*
X017203Y009345D01*
X017203Y009265D01*
X017283Y009265D01*
X017007Y009265D02*
X016687Y009265D01*
X017007Y009585D01*
X017007Y009665D01*
X016927Y009745D01*
X016767Y009745D01*
X016687Y009665D01*
X016332Y009745D02*
X016332Y009265D01*
X016492Y009265D02*
X016171Y009265D01*
X015976Y009345D02*
X015896Y009265D01*
X015736Y009265D01*
X015656Y009345D01*
X015656Y009505D02*
X015816Y009585D01*
X015896Y009585D01*
X015976Y009505D01*
X015976Y009345D01*
X016171Y009585D02*
X016332Y009745D01*
X016332Y010105D02*
X016332Y010585D01*
X016171Y010425D01*
X015976Y010345D02*
X015976Y010185D01*
X015896Y010105D01*
X015736Y010105D01*
X015656Y010185D01*
X015656Y010345D02*
X015816Y010425D01*
X015896Y010425D01*
X015976Y010345D01*
X016171Y010105D02*
X016492Y010105D01*
X016687Y010105D02*
X017007Y010425D01*
X017007Y010505D01*
X016927Y010585D01*
X016767Y010585D01*
X016687Y010505D01*
X016687Y010105D02*
X017007Y010105D01*
X017203Y009945D02*
X017363Y010105D01*
X017283Y010105D01*
X017283Y010185D01*
X017363Y010185D01*
X017363Y010105D01*
X018062Y010105D02*
X018062Y010585D01*
X017798Y010945D02*
X017718Y010945D01*
X017718Y011025D01*
X017798Y011025D01*
X017798Y010945D01*
X017541Y010945D02*
X017541Y011025D01*
X017461Y011025D01*
X017461Y010945D01*
X017541Y010945D01*
X017283Y010945D02*
X017283Y011025D01*
X017203Y011025D01*
X017203Y010945D01*
X017283Y010945D01*
X017007Y010945D02*
X016687Y010945D01*
X017007Y011265D01*
X017007Y011345D01*
X016927Y011425D01*
X016767Y011425D01*
X016687Y011345D01*
X016332Y011425D02*
X016332Y010945D01*
X016492Y010945D02*
X016171Y010945D01*
X015976Y011025D02*
X015896Y010945D01*
X015736Y010945D01*
X015656Y011025D01*
X015656Y011185D02*
X015816Y011265D01*
X015896Y011265D01*
X015976Y011185D01*
X015976Y011025D01*
X016171Y011265D02*
X016332Y011425D01*
X016171Y011625D02*
X016332Y011785D01*
X016252Y011785D01*
X016252Y011865D01*
X016332Y011865D01*
X016332Y011785D01*
X015976Y011785D02*
X015656Y011785D01*
X015976Y012105D01*
X015976Y012185D01*
X015896Y012265D01*
X015736Y012265D01*
X015656Y012185D01*
X015300Y012265D02*
X015300Y011785D01*
X015140Y011785D02*
X015460Y011785D01*
X015380Y011425D02*
X015220Y011425D01*
X015140Y011345D01*
X015140Y011025D01*
X015220Y010945D01*
X015380Y010945D01*
X015460Y011025D01*
X015656Y011185D02*
X015656Y011425D01*
X015976Y011425D01*
X015460Y011345D02*
X015380Y011425D01*
X014945Y011425D02*
X014945Y011345D01*
X014625Y011025D01*
X014625Y010945D01*
X014429Y010945D02*
X014109Y010945D01*
X014429Y011265D01*
X014429Y011345D01*
X014349Y011425D01*
X014189Y011425D01*
X014109Y011345D01*
X013914Y011425D02*
X013914Y010945D01*
X013593Y010945D02*
X013593Y011425D01*
X013753Y011265D01*
X013914Y011425D01*
X013914Y011785D02*
X013593Y011785D01*
X013914Y012105D01*
X013914Y012185D01*
X013833Y012265D01*
X013673Y012265D01*
X013593Y012185D01*
X013398Y012265D02*
X013398Y011785D01*
X013078Y011785D02*
X013078Y012265D01*
X013238Y012105D01*
X013398Y012265D01*
X014109Y012265D02*
X014429Y012265D01*
X014429Y012185D01*
X014109Y011865D01*
X014109Y011785D01*
X014625Y011865D02*
X014705Y011785D01*
X014865Y011785D01*
X014945Y011865D01*
X014945Y012025D01*
X014865Y012105D01*
X014785Y012105D01*
X014625Y012025D01*
X014625Y012265D01*
X014945Y012265D01*
X015140Y012105D02*
X015300Y012265D01*
X014945Y011425D02*
X014625Y011425D01*
X014625Y010585D02*
X014945Y010585D01*
X014945Y010505D01*
X014625Y010185D01*
X014625Y010105D01*
X014429Y010105D02*
X014109Y010105D01*
X014429Y010425D01*
X014429Y010505D01*
X014349Y010585D01*
X014189Y010585D01*
X014109Y010505D01*
X013914Y010585D02*
X013914Y010105D01*
X013753Y010265D01*
X013593Y010105D01*
X013593Y010585D01*
X013398Y010945D02*
X013398Y011265D01*
X013238Y011425D01*
X013078Y011265D01*
X013078Y010945D01*
X013078Y011185D02*
X013398Y011185D01*
X012882Y010345D02*
X012562Y010345D01*
X011851Y010585D02*
X011851Y010105D01*
X011531Y010105D02*
X011531Y010585D01*
X011691Y010425D01*
X011851Y010585D01*
X011335Y010505D02*
X011335Y010185D01*
X011255Y010105D01*
X011095Y010105D01*
X011015Y010185D01*
X011015Y010505D01*
X011095Y010585D01*
X011255Y010585D01*
X011335Y010505D01*
X010820Y010505D02*
X010820Y010345D01*
X010740Y010265D01*
X010499Y010265D01*
X010499Y010105D02*
X010499Y010585D01*
X010740Y010585D01*
X010820Y010505D01*
X010660Y010265D02*
X010820Y010105D01*
X010304Y010345D02*
X010304Y010505D01*
X010224Y010585D01*
X009984Y010585D01*
X009984Y010105D01*
X009984Y010265D02*
X010224Y010265D01*
X010304Y010345D01*
X009788Y010105D02*
X009468Y010105D01*
X009468Y010585D01*
X009788Y010585D01*
X009628Y010345D02*
X009468Y010345D01*
X009273Y010105D02*
X008953Y010105D01*
X008953Y010585D01*
X009273Y010585D01*
X009113Y010345D02*
X008953Y010345D01*
X008953Y011785D02*
X009273Y011785D01*
X009468Y011785D02*
X009468Y012265D01*
X009708Y012265D01*
X009788Y012185D01*
X009788Y012025D01*
X009708Y011945D01*
X009468Y011945D01*
X009113Y012025D02*
X008953Y012025D01*
X008953Y012265D02*
X008953Y011785D01*
X008953Y012265D02*
X009273Y012265D01*
X009984Y012265D02*
X009984Y011785D01*
X009984Y011945D02*
X010224Y011945D01*
X010304Y012025D01*
X010304Y012185D01*
X010224Y012265D01*
X009984Y012265D01*
X010144Y011945D02*
X010304Y011785D01*
X010499Y011865D02*
X010579Y011785D01*
X010740Y011785D01*
X010820Y011865D01*
X010820Y012185D01*
X010740Y012265D01*
X010579Y012265D01*
X010499Y012185D01*
X010499Y011865D01*
X011015Y011785D02*
X011015Y012265D01*
X011175Y012105D01*
X011335Y012265D01*
X011335Y011785D01*
X012046Y012025D02*
X012367Y012025D01*
X013673Y009745D02*
X013593Y009665D01*
X013673Y009745D02*
X013833Y009745D01*
X013914Y009665D01*
X013914Y009585D01*
X013593Y009265D01*
X013914Y009265D01*
X014109Y009265D02*
X014109Y009345D01*
X014429Y009665D01*
X014429Y009745D01*
X014109Y009745D01*
X014625Y009665D02*
X014625Y009585D01*
X014705Y009505D01*
X014865Y009505D01*
X014945Y009425D01*
X014945Y009345D01*
X014865Y009265D01*
X014705Y009265D01*
X014625Y009345D01*
X014625Y009665D02*
X014705Y009745D01*
X014865Y009745D01*
X014945Y009665D01*
X015140Y009745D02*
X015460Y009745D01*
X015656Y009745D02*
X015656Y009505D01*
X015656Y009745D02*
X015976Y009745D01*
X015460Y010185D02*
X015380Y010105D01*
X015220Y010105D01*
X015140Y010185D01*
X015140Y010505D01*
X015220Y010585D01*
X015380Y010585D01*
X015460Y010505D01*
X015656Y010585D02*
X015656Y010345D01*
X015656Y010585D02*
X015976Y010585D01*
X015140Y009745D02*
X015140Y009265D01*
X015140Y009505D02*
X015300Y009505D01*
X017031Y011785D02*
X017031Y012265D01*
X017191Y012105D01*
X017351Y012265D01*
X017351Y011785D01*
X017546Y011785D02*
X017867Y012105D01*
X017867Y012185D01*
X017787Y012265D01*
X017627Y012265D01*
X017546Y012185D01*
X017546Y011785D02*
X017867Y011785D01*
X018062Y011785D02*
X018062Y011865D01*
X018382Y012185D01*
X018382Y012265D01*
X018062Y012265D01*
X018578Y012185D02*
X018578Y011865D01*
X018658Y011785D01*
X018818Y011785D01*
X018898Y011865D01*
X019093Y011865D02*
X019173Y011785D01*
X019334Y011785D01*
X019414Y011865D01*
X019414Y012025D01*
X019334Y012105D01*
X019254Y012105D01*
X019093Y012025D01*
X019093Y012265D01*
X019414Y012265D01*
X019609Y012105D02*
X019769Y012265D01*
X019769Y011785D01*
X019609Y011785D02*
X019929Y011785D01*
X020125Y011785D02*
X020445Y012105D01*
X020445Y012185D01*
X020365Y012265D01*
X020205Y012265D01*
X020125Y012185D01*
X020125Y011785D02*
X020445Y011785D01*
X020640Y011625D02*
X020800Y011785D01*
X020720Y011785D01*
X020720Y011865D01*
X020800Y011865D01*
X020800Y011785D01*
X020800Y010585D02*
X020800Y010105D01*
X020640Y010105D02*
X020961Y010105D01*
X021156Y010105D02*
X021476Y010425D01*
X021476Y010505D01*
X021396Y010585D01*
X021236Y010585D01*
X021156Y010505D01*
X020800Y010585D02*
X020640Y010425D01*
X020445Y010345D02*
X020445Y010185D01*
X020365Y010105D01*
X020205Y010105D01*
X020125Y010185D01*
X020125Y010345D02*
X020285Y010425D01*
X020365Y010425D01*
X020445Y010345D01*
X020445Y010585D02*
X020125Y010585D01*
X020125Y010345D01*
X019929Y010105D02*
X019609Y010105D01*
X019609Y010585D01*
X019929Y010585D01*
X019769Y010345D02*
X019609Y010345D01*
X019414Y010505D02*
X019093Y010185D01*
X019093Y010105D01*
X018898Y010105D02*
X018578Y010105D01*
X018898Y010425D01*
X018898Y010505D01*
X018818Y010585D01*
X018658Y010585D01*
X018578Y010505D01*
X018382Y010585D02*
X018382Y010105D01*
X018222Y010265D01*
X018062Y010105D01*
X019093Y010585D02*
X019414Y010585D01*
X019414Y010505D01*
X018898Y012185D02*
X018818Y012265D01*
X018658Y012265D01*
X018578Y012185D01*
X021156Y010105D02*
X021476Y010105D01*
X021672Y009945D02*
X021832Y010105D01*
X021752Y010105D01*
X021752Y010185D01*
X021832Y010185D01*
X021832Y010105D01*
X013910Y017490D02*
X013910Y017630D01*
X013910Y017560D02*
X013490Y017560D01*
X013490Y017490D02*
X013490Y017630D01*
X013560Y017797D02*
X013840Y017797D01*
X013910Y017867D01*
X013910Y018007D01*
X013840Y018077D01*
X013910Y018257D02*
X013910Y018538D01*
X013910Y018397D02*
X013490Y018397D01*
X013630Y018257D01*
X013560Y018077D02*
X013490Y018007D01*
X013490Y017867D01*
X013560Y017797D01*
X012021Y020365D02*
X011811Y020365D01*
X011811Y020785D01*
X012021Y020785D01*
X012091Y020715D01*
X012091Y020435D01*
X012021Y020365D01*
X011631Y020365D02*
X011350Y020365D01*
X011350Y020785D01*
X011631Y020785D01*
X011491Y020575D02*
X011350Y020575D01*
X011170Y020365D02*
X010890Y020365D01*
X010890Y020785D01*
X010324Y020703D02*
X010324Y020563D01*
X010254Y020493D01*
X010044Y020493D01*
X010184Y020493D02*
X010324Y020353D01*
X010044Y020353D02*
X010044Y020773D01*
X010254Y020773D01*
X010324Y020703D01*
X009864Y020773D02*
X009584Y020773D01*
X009584Y020353D01*
X009864Y020353D01*
X009724Y020563D02*
X009584Y020563D01*
X009404Y020353D02*
X009404Y020773D01*
X009123Y020773D02*
X009123Y020353D01*
X009263Y020493D01*
X009404Y020353D01*
X008943Y020423D02*
X008943Y020703D01*
X008873Y020773D01*
X008733Y020773D01*
X008663Y020703D01*
X008663Y020423D01*
X008733Y020353D01*
X008873Y020353D01*
X008943Y020423D01*
X008483Y020563D02*
X008413Y020493D01*
X008203Y020493D01*
X008203Y020353D02*
X008203Y020773D01*
X008413Y020773D01*
X008483Y020703D01*
X008483Y020563D01*
X008402Y017835D02*
X008262Y017835D01*
X008192Y017765D01*
X008012Y017765D02*
X007942Y017835D01*
X007732Y017835D01*
X007732Y017415D01*
X007732Y017555D02*
X007942Y017555D01*
X008012Y017625D01*
X008012Y017765D01*
X007872Y017555D02*
X008012Y017415D01*
X008192Y017415D02*
X008472Y017695D01*
X008472Y017765D01*
X008402Y017835D01*
X008472Y017415D02*
X008192Y017415D01*
X008202Y017060D02*
X007922Y017060D01*
X007671Y017060D02*
X007461Y016850D01*
X007742Y016850D01*
X007671Y016640D02*
X007671Y017060D01*
X007922Y016710D02*
X007922Y016640D01*
X007922Y016710D02*
X008202Y016990D01*
X008202Y017060D01*
X008382Y016990D02*
X008452Y017060D01*
X008592Y017060D01*
X008662Y016990D01*
X008382Y016710D01*
X008452Y016640D01*
X008592Y016640D01*
X008662Y016710D01*
X008662Y016990D01*
X008382Y016990D02*
X008382Y016710D01*
X004494Y016448D02*
X004214Y016448D01*
X004214Y016028D01*
X004034Y016028D02*
X004034Y016308D01*
X004214Y016238D02*
X004354Y016238D01*
X004034Y016028D02*
X003824Y016028D01*
X003753Y016098D01*
X003753Y016308D01*
X003573Y016028D02*
X003293Y016028D01*
X003433Y016028D02*
X003433Y016448D01*
X003293Y016308D01*
X003133Y016098D02*
X003133Y016028D01*
X003063Y016028D01*
X003063Y016098D01*
X003133Y016098D01*
X002883Y016098D02*
X002813Y016028D01*
X002673Y016028D01*
X002603Y016098D01*
X002883Y016378D01*
X002883Y016098D01*
X002883Y016378D02*
X002813Y016448D01*
X002673Y016448D01*
X002603Y016378D01*
X002603Y016098D01*
X003173Y014860D02*
X003103Y014790D01*
X003103Y014510D01*
X003173Y014440D01*
X003313Y014440D01*
X003383Y014510D01*
X003563Y014440D02*
X003843Y014440D01*
X003703Y014440D02*
X003703Y014860D01*
X003563Y014720D01*
X003383Y014790D02*
X003313Y014860D01*
X003173Y014860D01*
X003190Y014210D02*
X003330Y014210D01*
X003260Y014210D02*
X003260Y013790D01*
X003190Y013790D02*
X003330Y013790D01*
X003497Y013860D02*
X003497Y014140D01*
X003567Y014210D01*
X003707Y014210D01*
X003777Y014140D01*
X003957Y014140D02*
X004027Y014210D01*
X004168Y014210D01*
X004238Y014140D01*
X004238Y014070D01*
X003957Y013790D01*
X004238Y013790D01*
X003777Y013860D02*
X003707Y013790D01*
X003567Y013790D01*
X003497Y013860D01*
X004828Y006060D02*
X004828Y005640D01*
X004688Y005640D02*
X004968Y005640D01*
X005148Y005710D02*
X005428Y005990D01*
X005428Y005710D01*
X005358Y005640D01*
X005218Y005640D01*
X005148Y005710D01*
X005148Y005990D01*
X005218Y006060D01*
X005358Y006060D01*
X005428Y005990D01*
X005608Y006060D02*
X005608Y005640D01*
X005608Y005780D02*
X005818Y005920D01*
X005608Y005780D02*
X005818Y005640D01*
X005541Y005285D02*
X005541Y004865D01*
X005681Y004865D02*
X005400Y004865D01*
X005220Y004865D02*
X005080Y005005D01*
X005150Y005005D02*
X004940Y005005D01*
X004940Y004865D02*
X004940Y005285D01*
X005150Y005285D01*
X005220Y005215D01*
X005220Y005075D01*
X005150Y005005D01*
X005400Y005145D02*
X005541Y005285D01*
X004828Y006060D02*
X004688Y005920D01*
D13*
X004120Y007668D02*
X004022Y007668D01*
X003628Y008062D01*
X003529Y008062D01*
X003529Y007668D01*
X003825Y008313D02*
X003825Y008706D01*
X004120Y008608D02*
X003529Y008608D01*
X003825Y008313D01*
X003529Y008957D02*
X004120Y008957D01*
X004120Y009351D01*
X004022Y009602D02*
X004120Y009700D01*
X004120Y009897D01*
X004022Y009995D01*
X003923Y009995D01*
X003825Y009897D01*
X003825Y009700D01*
X003726Y009602D01*
X003628Y009602D01*
X003529Y009700D01*
X003529Y009897D01*
X003628Y009995D01*
X003628Y010246D02*
X003529Y010345D01*
X003529Y010542D01*
X003628Y010640D01*
X004022Y010246D01*
X004120Y010345D01*
X004120Y010542D01*
X004022Y010640D01*
X003628Y010640D01*
X003825Y010891D02*
X003825Y011285D01*
X004120Y011186D02*
X003529Y011186D01*
X003825Y010891D01*
X004022Y010246D02*
X003628Y010246D01*
X003529Y011535D02*
X004120Y011929D01*
X003529Y011929D01*
X003529Y011535D02*
X004120Y011535D01*
X007278Y011204D02*
X007376Y011302D01*
X007475Y011302D01*
X007573Y011204D01*
X007671Y011302D01*
X007770Y011302D01*
X007868Y011204D01*
X007868Y011007D01*
X007770Y010909D01*
X007770Y010658D02*
X007868Y010559D01*
X007868Y010362D01*
X007770Y010264D01*
X007376Y010264D01*
X007278Y010362D01*
X007278Y010559D01*
X007376Y010658D01*
X007376Y010909D02*
X007278Y011007D01*
X007278Y011204D01*
X007573Y011204D02*
X007573Y011105D01*
X007868Y010031D02*
X007868Y009834D01*
X007868Y009933D02*
X007278Y009933D01*
X007278Y010031D02*
X007278Y009834D01*
X013468Y006685D02*
X013468Y006291D01*
X013566Y006193D01*
X013763Y006193D01*
X013861Y006291D01*
X014112Y006291D02*
X014112Y006488D01*
X014210Y006586D01*
X014407Y006586D01*
X014506Y006488D01*
X014506Y006291D01*
X014407Y006193D01*
X014210Y006193D01*
X014112Y006291D01*
X013861Y006685D02*
X013763Y006783D01*
X013566Y006783D01*
X013468Y006685D01*
X013861Y005733D02*
X013664Y005635D01*
X013468Y005438D01*
X013763Y005438D01*
X013861Y005339D01*
X013861Y005241D01*
X013763Y005143D01*
X013566Y005143D01*
X013468Y005241D01*
X013468Y005438D01*
X014112Y005438D02*
X014506Y005438D01*
X014757Y005339D02*
X015052Y005536D01*
X014757Y005339D02*
X015052Y005143D01*
X014757Y005143D02*
X014757Y005733D01*
X014407Y005733D02*
X014112Y005438D01*
X014407Y005143D02*
X014407Y005733D01*
X014757Y006193D02*
X014757Y006586D01*
X014855Y006586D01*
X014953Y006488D01*
X015052Y006586D01*
X015150Y006488D01*
X015150Y006193D01*
X014953Y006193D02*
X014953Y006488D01*
X015401Y006586D02*
X015401Y006193D01*
X015598Y006193D02*
X015598Y006488D01*
X015696Y006586D01*
X015795Y006488D01*
X015795Y006193D01*
X016046Y006291D02*
X016046Y006488D01*
X016144Y006586D01*
X016341Y006586D01*
X016439Y006488D01*
X016439Y006291D01*
X016341Y006193D01*
X016144Y006193D01*
X016046Y006291D01*
X015598Y006488D02*
X015500Y006586D01*
X015401Y006586D01*
X016037Y005733D02*
X015938Y005635D01*
X015938Y005241D01*
X016037Y005143D01*
X016234Y005143D01*
X016332Y005241D01*
X016583Y005143D02*
X016583Y005536D01*
X016780Y005733D01*
X016976Y005536D01*
X016976Y005143D01*
X017227Y005143D02*
X017227Y005733D01*
X017523Y005733D01*
X017621Y005635D01*
X017621Y005438D01*
X017523Y005339D01*
X017227Y005339D01*
X017424Y005339D02*
X017621Y005143D01*
X018069Y005143D02*
X018069Y005733D01*
X017872Y005733D02*
X018266Y005733D01*
X017979Y006193D02*
X017979Y006586D01*
X017979Y006389D02*
X018176Y006586D01*
X018275Y006586D01*
X018516Y006488D02*
X018615Y006586D01*
X018812Y006586D01*
X018910Y006488D01*
X018910Y006389D01*
X018516Y006389D01*
X018516Y006291D02*
X018516Y006488D01*
X018516Y006291D02*
X018615Y006193D01*
X018812Y006193D01*
X019806Y006291D02*
X019904Y006193D01*
X020101Y006193D01*
X020199Y006291D01*
X020199Y006389D01*
X020101Y006488D01*
X019806Y006488D01*
X019806Y006291D01*
X019806Y006488D02*
X020002Y006685D01*
X020199Y006783D01*
X020450Y006488D02*
X020844Y006488D01*
X020745Y006193D02*
X020745Y006783D01*
X020450Y006488D01*
X018946Y004683D02*
X019143Y004486D01*
X019143Y004289D01*
X018946Y004093D01*
X018695Y004093D02*
X018302Y004093D01*
X018695Y004486D01*
X018695Y004585D01*
X018597Y004683D01*
X018400Y004683D01*
X018302Y004585D01*
X018051Y004683D02*
X018051Y004289D01*
X017854Y004093D01*
X017657Y004289D01*
X017657Y004683D01*
X016976Y005438D02*
X016583Y005438D01*
X016332Y005635D02*
X016234Y005733D01*
X016037Y005733D01*
X016690Y006291D02*
X016690Y006488D01*
X016789Y006586D01*
X017084Y006586D01*
X017084Y006783D02*
X017084Y006193D01*
X016789Y006193D01*
X016690Y006291D01*
X017335Y006291D02*
X017433Y006193D01*
X017630Y006193D01*
X017728Y006291D01*
X017728Y006488D01*
X017630Y006586D01*
X017433Y006586D01*
X017335Y006488D01*
X017335Y006291D01*
X015831Y004683D02*
X015831Y004093D01*
X015831Y004289D02*
X016126Y004486D01*
X016368Y004486D02*
X016368Y004191D01*
X016466Y004093D01*
X016762Y004093D01*
X016762Y003994D02*
X016663Y003896D01*
X016565Y003896D01*
X016762Y003994D02*
X016762Y004486D01*
X016126Y004093D02*
X015831Y004289D01*
X015580Y004093D02*
X015285Y004093D01*
X015186Y004191D01*
X015186Y004388D01*
X015285Y004486D01*
X015580Y004486D01*
X014935Y004486D02*
X014935Y004093D01*
X014640Y004093D01*
X014542Y004191D01*
X014542Y004486D01*
X014291Y004388D02*
X013897Y004388D01*
X013897Y004093D02*
X013897Y004683D01*
X013664Y004683D02*
X013468Y004486D01*
X013468Y004289D01*
X013664Y004093D01*
X014291Y004093D02*
X014291Y004683D01*
X015705Y017718D02*
X015705Y017816D01*
X016099Y018210D01*
X016099Y018308D01*
X015705Y018308D01*
X016350Y018013D02*
X016743Y018013D01*
X016645Y018308D02*
X016350Y018013D01*
X016645Y017718D02*
X016645Y018308D01*
X016994Y018308D02*
X016994Y017718D01*
X017388Y017718D01*
X017639Y017816D02*
X017737Y017718D01*
X017934Y017718D01*
X018032Y017816D01*
X018032Y017914D01*
X017934Y018013D01*
X017737Y018013D01*
X017639Y018111D01*
X017639Y018210D01*
X017737Y018308D01*
X017934Y018308D01*
X018032Y018210D01*
X018283Y018111D02*
X018480Y018308D01*
X018480Y017718D01*
X018283Y017718D02*
X018677Y017718D01*
X018928Y017718D02*
X018928Y017816D01*
X019321Y018210D01*
X019321Y018308D01*
X018928Y018308D01*
X019572Y018210D02*
X019671Y018308D01*
X019868Y018308D01*
X019966Y018210D01*
X019966Y018111D01*
X019868Y018013D01*
X019966Y017914D01*
X019966Y017816D01*
X019868Y017718D01*
X019671Y017718D01*
X019572Y017816D01*
X019769Y018013D02*
X019868Y018013D01*
X020217Y017718D02*
X020217Y018308D01*
X020611Y017718D01*
X020611Y018308D01*
D14*
X022100Y018813D02*
X022100Y017263D01*
X014100Y017263D01*
X014100Y017638D01*
X014139Y017640D01*
X014178Y017646D01*
X014216Y017655D01*
X014253Y017668D01*
X014289Y017685D01*
X014322Y017705D01*
X014354Y017729D01*
X014383Y017755D01*
X014409Y017784D01*
X014433Y017816D01*
X014453Y017849D01*
X014470Y017885D01*
X014483Y017922D01*
X014492Y017960D01*
X014498Y017999D01*
X014500Y018038D01*
X014498Y018077D01*
X014492Y018116D01*
X014483Y018154D01*
X014470Y018191D01*
X014453Y018227D01*
X014433Y018260D01*
X014409Y018292D01*
X014383Y018321D01*
X014354Y018347D01*
X014322Y018371D01*
X014289Y018391D01*
X014253Y018408D01*
X014216Y018421D01*
X014178Y018430D01*
X014139Y018436D01*
X014100Y018438D01*
X014100Y018813D01*
X022100Y018813D01*
X022050Y012825D02*
X008150Y012825D01*
X008150Y011100D01*
X008194Y011098D01*
X008237Y011092D01*
X008279Y011083D01*
X008321Y011070D01*
X008361Y011053D01*
X008400Y011033D01*
X008437Y011010D01*
X008471Y010983D01*
X008504Y010954D01*
X008533Y010921D01*
X008560Y010887D01*
X008583Y010850D01*
X008603Y010811D01*
X008620Y010771D01*
X008633Y010729D01*
X008642Y010687D01*
X008648Y010644D01*
X008650Y010600D01*
X008648Y010556D01*
X008642Y010513D01*
X008633Y010471D01*
X008620Y010429D01*
X008603Y010389D01*
X008583Y010350D01*
X008560Y010313D01*
X008533Y010279D01*
X008504Y010246D01*
X008471Y010217D01*
X008437Y010190D01*
X008400Y010167D01*
X008361Y010147D01*
X008321Y010130D01*
X008279Y010117D01*
X008237Y010108D01*
X008194Y010102D01*
X008150Y010100D01*
X008150Y008375D01*
X022050Y008375D01*
X022050Y012825D01*
X010688Y019412D02*
X010696Y019434D01*
X010700Y019457D01*
X010701Y019480D01*
X010698Y019504D01*
X010693Y019526D01*
X010684Y019548D01*
X010672Y019568D01*
X010658Y019586D01*
X010641Y019602D01*
X010621Y019615D01*
X010601Y019625D01*
X010506Y019507D02*
X010519Y019498D01*
X010530Y019487D01*
X010539Y019473D01*
X010543Y019459D01*
X010545Y019443D01*
X010543Y019427D01*
X010538Y019413D01*
X010888Y019412D02*
X010889Y019454D01*
X010886Y019496D01*
X010880Y019537D01*
X010871Y019578D01*
X010858Y019618D01*
X010843Y019657D01*
X010824Y019694D01*
X010801Y019729D01*
X010777Y019763D01*
X010749Y019795D01*
X010719Y019824D01*
X010888Y019413D02*
X010889Y019371D01*
X010886Y019329D01*
X010880Y019288D01*
X010871Y019247D01*
X010858Y019207D01*
X010843Y019168D01*
X010824Y019131D01*
X010801Y019096D01*
X010777Y019062D01*
X010749Y019030D01*
X010719Y019001D01*
X009866Y019027D02*
X009836Y019053D01*
X009808Y019082D01*
X009782Y019113D01*
X009760Y019146D01*
X009740Y019181D01*
X009723Y019217D01*
X009710Y019255D01*
X009699Y019293D01*
X009692Y019333D01*
X009689Y019373D01*
X009688Y019413D01*
X009888Y019413D02*
X009880Y019391D01*
X009876Y019368D01*
X009875Y019345D01*
X009878Y019321D01*
X009883Y019299D01*
X009892Y019277D01*
X009904Y019257D01*
X009918Y019239D01*
X009935Y019223D01*
X009955Y019210D01*
X009975Y019200D01*
X010069Y019318D02*
X010056Y019327D01*
X010045Y019338D01*
X010036Y019352D01*
X010032Y019366D01*
X010030Y019382D01*
X010032Y019398D01*
X010037Y019412D01*
X009687Y019412D02*
X009686Y019454D01*
X009689Y019495D01*
X009696Y019535D01*
X009707Y019575D01*
X009722Y019613D01*
X009740Y019650D01*
X009761Y019685D01*
X009786Y019718D01*
X009814Y019748D01*
X009845Y019776D01*
X009313Y017300D02*
X009163Y017300D01*
X009113Y017250D01*
X007213Y017250D01*
X007163Y017300D01*
X007013Y017300D01*
X006996Y017298D01*
X006979Y017294D01*
X006963Y017287D01*
X006949Y017277D01*
X006936Y017264D01*
X006926Y017250D01*
X006919Y017234D01*
X006915Y017217D01*
X006913Y017200D01*
X006913Y016500D01*
X006915Y016483D01*
X006919Y016466D01*
X006926Y016450D01*
X006936Y016436D01*
X006949Y016423D01*
X006963Y016413D01*
X006979Y016406D01*
X006996Y016402D01*
X007013Y016400D01*
X007163Y016400D01*
X007213Y016450D01*
X009113Y016450D01*
X009163Y016400D01*
X009313Y016400D01*
X009330Y016402D01*
X009347Y016406D01*
X009363Y016413D01*
X009377Y016423D01*
X009390Y016436D01*
X009400Y016450D01*
X009407Y016466D01*
X009411Y016483D01*
X009413Y016500D01*
X009413Y017200D01*
X009411Y017217D01*
X009407Y017234D01*
X009400Y017250D01*
X009390Y017264D01*
X009377Y017277D01*
X009363Y017287D01*
X009347Y017294D01*
X009330Y017298D01*
X009313Y017300D01*
X004563Y013600D02*
X004188Y013600D01*
X004563Y013600D02*
X004563Y006600D01*
X003013Y006600D01*
X003013Y013600D01*
X003388Y013600D01*
X003390Y013561D01*
X003396Y013522D01*
X003405Y013484D01*
X003418Y013447D01*
X003435Y013411D01*
X003455Y013378D01*
X003479Y013346D01*
X003505Y013317D01*
X003534Y013291D01*
X003566Y013267D01*
X003599Y013247D01*
X003635Y013230D01*
X003672Y013217D01*
X003710Y013208D01*
X003749Y013202D01*
X003788Y013200D01*
X003827Y013202D01*
X003866Y013208D01*
X003904Y013217D01*
X003941Y013230D01*
X003977Y013247D01*
X004010Y013267D01*
X004042Y013291D01*
X004071Y013317D01*
X004097Y013346D01*
X004121Y013378D01*
X004141Y013411D01*
X004158Y013447D01*
X004171Y013484D01*
X004180Y013522D01*
X004186Y013561D01*
X004188Y013600D01*
X004125Y014963D02*
X002825Y014963D01*
X002805Y014965D01*
X002785Y014969D01*
X002766Y014977D01*
X002748Y014988D01*
X002732Y015001D01*
X002719Y015017D01*
X002708Y015035D01*
X002700Y015054D01*
X002696Y015074D01*
X002694Y015094D01*
X002975Y015413D02*
X003355Y015413D01*
X003605Y015413D02*
X003975Y015413D01*
X004256Y015094D02*
X004254Y015074D01*
X004250Y015054D01*
X004242Y015035D01*
X004231Y015017D01*
X004218Y015001D01*
X004202Y014988D01*
X004184Y014977D01*
X004165Y014969D01*
X004145Y014965D01*
X004125Y014963D01*
X004256Y015731D02*
X004254Y015751D01*
X004250Y015771D01*
X004242Y015790D01*
X004231Y015808D01*
X004218Y015824D01*
X004202Y015837D01*
X004184Y015848D01*
X004165Y015856D01*
X004145Y015860D01*
X004125Y015862D01*
X004125Y015863D02*
X002825Y015863D01*
X002825Y015862D02*
X002805Y015860D01*
X002785Y015856D01*
X002766Y015848D01*
X002748Y015837D01*
X002732Y015824D01*
X002719Y015808D01*
X002708Y015790D01*
X002700Y015771D01*
X002696Y015751D01*
X002694Y015731D01*
X004200Y006300D02*
X004350Y006300D01*
X004400Y006250D01*
X006300Y006250D01*
X006350Y006300D01*
X006500Y006300D01*
X006517Y006298D01*
X006534Y006294D01*
X006550Y006287D01*
X006564Y006277D01*
X006577Y006264D01*
X006587Y006250D01*
X006594Y006234D01*
X006598Y006217D01*
X006600Y006200D01*
X006600Y005500D01*
X006598Y005483D01*
X006594Y005466D01*
X006587Y005450D01*
X006577Y005436D01*
X006564Y005423D01*
X006550Y005413D01*
X006534Y005406D01*
X006517Y005402D01*
X006500Y005400D01*
X006350Y005400D01*
X006300Y005450D01*
X004400Y005450D01*
X004350Y005400D01*
X004200Y005400D01*
X004183Y005402D01*
X004166Y005406D01*
X004150Y005413D01*
X004136Y005423D01*
X004123Y005436D01*
X004113Y005450D01*
X004106Y005466D01*
X004102Y005483D01*
X004100Y005500D01*
X004100Y006200D01*
X004102Y006217D01*
X004106Y006234D01*
X004113Y006250D01*
X004123Y006264D01*
X004136Y006277D01*
X004150Y006287D01*
X004166Y006294D01*
X004183Y006298D01*
X004200Y006300D01*
D15*
X003605Y015113D02*
X003605Y015413D01*
X003605Y015713D01*
X003355Y015713D02*
X003355Y015413D01*
X003355Y015113D01*
D16*
X006743Y016850D03*
X009583Y016850D03*
X006770Y005850D03*
X003930Y005850D03*
D17*
X005576Y017374D03*
D18*
X005573Y017376D03*
X005983Y018087D03*
D19*
X005947Y018069D03*
X005573Y017378D03*
D20*
X005573Y017380D03*
D21*
X005573Y017382D03*
X005898Y018053D03*
D22*
X005573Y017384D03*
D23*
X005573Y017386D03*
D24*
X005574Y017388D03*
D25*
X005573Y017390D03*
D26*
X005573Y017392D03*
D27*
X005573Y017394D03*
D28*
X005572Y017396D03*
D29*
X005573Y017398D03*
D30*
X005573Y017400D03*
D31*
X005573Y017402D03*
D32*
X005573Y017404D03*
D33*
X005573Y017406D03*
X006422Y018858D03*
D34*
X006434Y018880D03*
X005573Y017408D03*
D35*
X005572Y017410D03*
X006443Y018703D03*
X006443Y018896D03*
D36*
X006453Y018683D03*
X005573Y017412D03*
D37*
X005573Y017413D03*
X006463Y018665D03*
X006463Y018935D03*
D38*
X006471Y018949D03*
X006471Y018652D03*
X005573Y017415D03*
X004351Y018628D03*
X004351Y018630D03*
X004351Y018632D03*
X004349Y018634D03*
X004349Y018636D03*
X004349Y018638D03*
X004349Y018640D03*
X004349Y018965D03*
X004349Y018967D03*
X004349Y018969D03*
X004349Y018971D03*
X004351Y018973D03*
X004351Y018975D03*
X004351Y018976D03*
X004351Y018978D03*
D39*
X004374Y019063D03*
X004376Y019067D03*
X004376Y019069D03*
X004378Y019073D03*
X004378Y019075D03*
X004376Y018538D03*
X004376Y018536D03*
X004378Y018532D03*
X005574Y017417D03*
X006480Y018634D03*
X006480Y018965D03*
D40*
X006489Y018618D03*
X005573Y017419D03*
X004402Y018467D03*
X004400Y018471D03*
X004400Y019134D03*
X004400Y019136D03*
X004402Y019138D03*
D41*
X004420Y019177D03*
X004422Y019181D03*
X004424Y019185D03*
X004422Y018423D03*
X005573Y017421D03*
X006497Y018604D03*
X006497Y018996D03*
X005573Y020185D03*
D42*
X004449Y019232D03*
X004447Y019228D03*
X004447Y018376D03*
X005573Y017423D03*
X006506Y018587D03*
X006506Y019014D03*
D43*
X006514Y019028D03*
X006514Y018571D03*
X005573Y017425D03*
X004467Y018345D03*
X004467Y019262D03*
X004469Y019264D03*
D44*
X004485Y019288D03*
X004487Y019289D03*
X004487Y018315D03*
X005573Y017427D03*
X006522Y018557D03*
X006522Y019043D03*
D45*
X006530Y019057D03*
X006530Y018543D03*
X005573Y017429D03*
X004506Y018289D03*
X004505Y019315D03*
X004506Y019317D03*
D46*
X004522Y019337D03*
X004524Y019339D03*
X004524Y018266D03*
X005573Y017431D03*
X006538Y018528D03*
X006538Y019071D03*
D47*
X006546Y019087D03*
X006546Y018514D03*
X005573Y017433D03*
X004540Y019358D03*
X004542Y019360D03*
D48*
X004558Y019378D03*
X004560Y018226D03*
X005573Y017435D03*
X006554Y018500D03*
X006554Y019100D03*
D49*
X006560Y018488D03*
X005573Y017437D03*
X004569Y019390D03*
X004571Y019392D03*
D50*
X004587Y018199D03*
X005573Y017439D03*
X006568Y018475D03*
X006568Y019126D03*
D51*
X006575Y019140D03*
X005573Y017441D03*
X004603Y018183D03*
X004603Y019421D03*
D52*
X004612Y019429D03*
X004614Y019431D03*
X004612Y018175D03*
X005572Y017443D03*
X006580Y018451D03*
X006580Y019150D03*
D53*
X006584Y019156D03*
X006584Y018443D03*
X005569Y017445D03*
X004620Y018169D03*
D54*
X004627Y018163D03*
X005566Y017447D03*
X006587Y019162D03*
D55*
X006591Y019169D03*
X006591Y018431D03*
X005562Y017449D03*
X004632Y019447D03*
D56*
X004637Y019451D03*
X004639Y018154D03*
X005559Y017451D03*
X006594Y018425D03*
X006594Y019175D03*
D57*
X006597Y019179D03*
X006597Y018419D03*
X005556Y017453D03*
X004644Y018150D03*
D58*
X004649Y018146D03*
X005553Y017455D03*
X006600Y018415D03*
X006600Y019185D03*
D59*
X006604Y019193D03*
X006604Y018408D03*
X005549Y017457D03*
X004657Y018140D03*
X004655Y019465D03*
D60*
X004662Y019469D03*
X004662Y018136D03*
X005546Y017459D03*
X006607Y018402D03*
D61*
X006610Y018396D03*
X006610Y019203D03*
X004667Y019473D03*
X005543Y017461D03*
D62*
X005540Y017463D03*
X006613Y018392D03*
X006613Y019209D03*
X004670Y019475D03*
D63*
X004677Y018126D03*
X005537Y017465D03*
X006616Y018386D03*
X006616Y019215D03*
D64*
X006619Y018380D03*
X005534Y017467D03*
X004682Y018122D03*
X004682Y019482D03*
D65*
X006622Y019225D03*
X006622Y018374D03*
X005531Y017469D03*
D66*
X005528Y017471D03*
X004692Y018116D03*
X006625Y018370D03*
X006625Y019230D03*
D67*
X006628Y019236D03*
X006628Y018364D03*
X005525Y017473D03*
D68*
X005522Y017475D03*
X004701Y018110D03*
X006631Y018358D03*
X006631Y019242D03*
D69*
X006633Y019246D03*
X006633Y018352D03*
X005519Y017476D03*
X004706Y019498D03*
D70*
X004710Y019500D03*
X005517Y020128D03*
X006635Y019250D03*
X006635Y018350D03*
X005517Y017478D03*
D71*
X005514Y017480D03*
X006638Y018345D03*
X006638Y019256D03*
X004713Y019502D03*
D72*
X004718Y018100D03*
X005511Y017482D03*
X006641Y018339D03*
X006641Y019262D03*
D73*
X006644Y019266D03*
X006644Y018333D03*
X005508Y017484D03*
D74*
X005506Y017486D03*
X006647Y018329D03*
X006647Y019272D03*
X004728Y019510D03*
D75*
X006649Y019276D03*
X006649Y018325D03*
X005504Y017488D03*
D76*
X005501Y017490D03*
X006652Y018319D03*
X006652Y019282D03*
D77*
X006654Y019286D03*
X006654Y018315D03*
X005499Y017492D03*
X005499Y020114D03*
D78*
X006657Y019289D03*
X006657Y018309D03*
X005496Y017494D03*
D79*
X005493Y017496D03*
X006660Y018305D03*
X006660Y019295D03*
D80*
X006662Y019299D03*
X006662Y018301D03*
X005491Y017498D03*
X004749Y018085D03*
D81*
X005488Y017500D03*
X006665Y018295D03*
X006665Y019305D03*
D82*
X006667Y018291D03*
X005486Y017502D03*
X004757Y018081D03*
X004756Y019524D03*
D83*
X004760Y019526D03*
X006670Y019313D03*
X005483Y017504D03*
D84*
X005481Y017506D03*
X006672Y018284D03*
X006672Y019317D03*
D85*
X006674Y019321D03*
X006674Y018280D03*
X005479Y017508D03*
X004766Y018077D03*
X005479Y020099D03*
D86*
X004769Y019530D03*
X004771Y018075D03*
X005476Y017510D03*
X006677Y018274D03*
X006677Y019327D03*
D87*
X006679Y018270D03*
X005474Y017512D03*
X005474Y020095D03*
D88*
X006682Y019335D03*
X005471Y017514D03*
D89*
X005469Y017516D03*
X004780Y018071D03*
X006684Y018262D03*
X006684Y019339D03*
D90*
X006686Y019343D03*
X006686Y018258D03*
X005467Y017518D03*
X005467Y020089D03*
D91*
X005464Y017520D03*
D92*
X005462Y017522D03*
D93*
X005460Y017524D03*
X004791Y018067D03*
X005460Y020083D03*
D94*
X005458Y020081D03*
X005458Y017526D03*
D95*
X005455Y017528D03*
D96*
X005453Y017530D03*
D97*
X005451Y017532D03*
X004804Y018063D03*
D98*
X005449Y017534D03*
X005449Y020073D03*
D99*
X004809Y018061D03*
X005446Y017536D03*
D100*
X005444Y017538D03*
D101*
X005443Y017539D03*
X004815Y019545D03*
D102*
X004817Y018059D03*
X005441Y017541D03*
D103*
X005439Y017543D03*
X005439Y020063D03*
D104*
X005437Y020061D03*
X004822Y019547D03*
X005437Y017545D03*
D105*
X005434Y017547D03*
D106*
X005432Y017549D03*
D107*
X005430Y017551D03*
X004831Y018055D03*
X004829Y019549D03*
D108*
X005428Y017553D03*
D109*
X005426Y017555D03*
D110*
X005424Y017557D03*
D111*
X005422Y017559D03*
X004839Y018053D03*
D112*
X005420Y017561D03*
D113*
X005418Y017563D03*
D114*
X005416Y017565D03*
D115*
X005414Y017567D03*
D116*
X005413Y017569D03*
X004850Y018051D03*
X005413Y020038D03*
D117*
X005411Y020036D03*
X005411Y017571D03*
D118*
X005409Y017573D03*
X005409Y020034D03*
D119*
X005407Y020032D03*
X005407Y017575D03*
D120*
X005405Y017577D03*
X005405Y020030D03*
D121*
X005403Y020028D03*
X005403Y017579D03*
D122*
X005401Y017581D03*
D123*
X005399Y017583D03*
D124*
X005397Y017585D03*
D125*
X005396Y017587D03*
X005396Y020020D03*
D126*
X005394Y020018D03*
X005394Y017589D03*
D127*
X005392Y017591D03*
X005392Y020016D03*
D128*
X004875Y019557D03*
X005390Y017593D03*
D129*
X005388Y017595D03*
D130*
X005386Y017597D03*
X004879Y018047D03*
D131*
X005385Y017599D03*
X005385Y020008D03*
D132*
X005383Y020006D03*
X005383Y017600D03*
D133*
X005381Y017602D03*
D134*
X005380Y017604D03*
D135*
X005379Y017606D03*
X005379Y020000D03*
D136*
X005377Y019998D03*
X005377Y017608D03*
D137*
X005375Y017610D03*
D138*
X005374Y017612D03*
X005374Y019994D03*
D139*
X005372Y019992D03*
X005372Y017614D03*
D140*
X005370Y017616D03*
D141*
X005368Y017618D03*
D142*
X005367Y017620D03*
X005367Y019986D03*
D143*
X005365Y017622D03*
D144*
X005363Y017624D03*
D145*
X005362Y017626D03*
X005362Y019980D03*
D146*
X005360Y017628D03*
D147*
X005358Y017630D03*
D148*
X005357Y017632D03*
X005357Y019975D03*
D149*
X005355Y017634D03*
D150*
X005354Y017636D03*
X005354Y019971D03*
D151*
X005352Y017638D03*
D152*
X005350Y017640D03*
D153*
X005349Y017642D03*
X005349Y019965D03*
D154*
X005347Y017644D03*
D155*
X005346Y017646D03*
X005346Y019961D03*
D156*
X005344Y017648D03*
D157*
X005343Y017650D03*
X005343Y019957D03*
D158*
X005341Y017652D03*
D159*
X005339Y017654D03*
D160*
X005338Y017656D03*
X005338Y019951D03*
D161*
X005336Y017658D03*
D162*
X005335Y017660D03*
X005335Y019947D03*
D163*
X005333Y017662D03*
D164*
X005332Y017663D03*
X005332Y019943D03*
D165*
X005330Y017665D03*
D166*
X005329Y017667D03*
X005329Y019939D03*
D167*
X005327Y017669D03*
D168*
X005326Y017671D03*
X005326Y019935D03*
D169*
X005324Y019931D03*
X005324Y017673D03*
D170*
X005323Y017675D03*
D171*
X005321Y017677D03*
X005321Y019927D03*
D172*
X005320Y017679D03*
D173*
X005319Y017681D03*
X005319Y019925D03*
D174*
X005318Y017683D03*
D175*
X005317Y017685D03*
X005317Y019921D03*
D176*
X005315Y019917D03*
X005315Y017687D03*
D177*
X005314Y017689D03*
D178*
X005313Y017691D03*
X005313Y019915D03*
D179*
X005311Y017693D03*
D180*
X005310Y017695D03*
X005310Y019912D03*
D181*
X005308Y017697D03*
D182*
X005307Y017699D03*
X005307Y019908D03*
D183*
X005305Y019904D03*
X005305Y017701D03*
D184*
X005304Y017703D03*
D185*
X005303Y017705D03*
X005303Y019902D03*
D186*
X005301Y019898D03*
X005301Y017707D03*
D187*
X005300Y017709D03*
D188*
X005299Y017711D03*
X005299Y019896D03*
D189*
X005297Y019892D03*
X005297Y017713D03*
D190*
X005296Y017715D03*
D191*
X005295Y017717D03*
X005295Y019890D03*
D192*
X005293Y019886D03*
X005293Y017719D03*
D193*
X005292Y017721D03*
D194*
X005291Y017723D03*
X005291Y019884D03*
D195*
X005289Y019880D03*
X005289Y017725D03*
D196*
X005288Y017726D03*
D197*
X005287Y017728D03*
X005287Y019878D03*
D198*
X005286Y019876D03*
X005286Y017730D03*
D199*
X005284Y017732D03*
X005284Y019872D03*
D200*
X005283Y017734D03*
D201*
X005282Y017736D03*
X005282Y019870D03*
D202*
X005280Y019866D03*
X005280Y017738D03*
D203*
X005279Y017740D03*
D204*
X005278Y017742D03*
X005278Y019864D03*
D205*
X005277Y019862D03*
X005277Y017744D03*
D206*
X005275Y017746D03*
X005275Y019858D03*
D207*
X005274Y017748D03*
D208*
X005273Y017750D03*
X005273Y019856D03*
D209*
X005272Y019854D03*
X005272Y017752D03*
D210*
X005270Y017754D03*
X005270Y019850D03*
D211*
X005269Y019849D03*
X005269Y017756D03*
D212*
X005268Y017758D03*
D213*
X005267Y017760D03*
X005267Y019847D03*
D214*
X005266Y019845D03*
X005266Y017762D03*
D215*
X005264Y017764D03*
X005264Y019841D03*
D216*
X005263Y017766D03*
D217*
X005262Y017768D03*
X005262Y019839D03*
D218*
X005261Y019837D03*
X005261Y017770D03*
D219*
X005260Y017772D03*
X005260Y019835D03*
D220*
X005258Y019831D03*
X005258Y017774D03*
D221*
X005257Y017776D03*
X005257Y019829D03*
D222*
X005256Y017778D03*
D223*
X005256Y017780D03*
X005256Y019827D03*
D224*
X005255Y019825D03*
X005255Y017782D03*
D225*
X005254Y017784D03*
X005254Y019823D03*
D226*
X005252Y019819D03*
X005252Y017786D03*
D227*
X005251Y017788D03*
X005251Y019817D03*
D228*
X005250Y017789D03*
D229*
X005249Y017791D03*
X005249Y019815D03*
D230*
X005248Y019813D03*
X005248Y017793D03*
D231*
X005247Y017795D03*
X005247Y019811D03*
D232*
X005246Y019809D03*
X005246Y017797D03*
D233*
X005244Y017799D03*
X005244Y019805D03*
D234*
X005243Y019803D03*
X005243Y017801D03*
D235*
X005242Y017803D03*
X005242Y019801D03*
D236*
X005241Y019799D03*
X005241Y017805D03*
D237*
X005240Y017807D03*
D238*
X005239Y017809D03*
X005239Y019797D03*
D239*
X005238Y019795D03*
X005238Y017811D03*
D240*
X005237Y017813D03*
X005237Y019793D03*
D241*
X005236Y019791D03*
X005236Y017815D03*
D242*
X005234Y017817D03*
X005234Y019788D03*
D243*
X005233Y019786D03*
X005233Y017819D03*
D244*
X005232Y017821D03*
X005232Y019784D03*
D245*
X005231Y019782D03*
X005231Y017823D03*
D246*
X005230Y017825D03*
X005230Y019780D03*
D247*
X005229Y019778D03*
X005229Y017827D03*
D248*
X005228Y017829D03*
X005228Y019776D03*
D249*
X005227Y019774D03*
X005227Y017831D03*
D250*
X005226Y017833D03*
D251*
X005225Y017835D03*
X005225Y019772D03*
D252*
X005224Y019770D03*
X005224Y017837D03*
D253*
X005223Y017839D03*
X005223Y019768D03*
D254*
X005222Y019766D03*
X005222Y017841D03*
D255*
X005221Y017843D03*
X005221Y019764D03*
D256*
X005220Y019762D03*
X005220Y017845D03*
D257*
X005219Y017847D03*
X005219Y019760D03*
D258*
X005218Y019758D03*
X005218Y017849D03*
D259*
X005217Y017850D03*
X005217Y019756D03*
D260*
X005216Y019754D03*
X005216Y017852D03*
D261*
X005215Y017854D03*
X005215Y019752D03*
D262*
X005214Y019750D03*
X005214Y017856D03*
D263*
X005213Y017858D03*
X005213Y019748D03*
D264*
X005212Y019746D03*
X005212Y017860D03*
D265*
X005211Y017862D03*
X005211Y019744D03*
D266*
X005210Y019742D03*
X005210Y017864D03*
D267*
X005209Y017866D03*
X005209Y019740D03*
D268*
X005208Y019738D03*
X005208Y017868D03*
D269*
X005207Y017870D03*
X005207Y019736D03*
D270*
X005206Y019734D03*
X005206Y017872D03*
D271*
X005205Y017874D03*
X005205Y019732D03*
D272*
X005204Y019730D03*
X005204Y017876D03*
D273*
X005203Y017878D03*
X005203Y019728D03*
D274*
X005202Y019726D03*
X005202Y017880D03*
D275*
X005201Y017882D03*
X005201Y019725D03*
D276*
X005200Y019723D03*
X005200Y017884D03*
D277*
X005199Y017886D03*
X005199Y019721D03*
D278*
X005198Y019719D03*
X005198Y019717D03*
X005198Y017888D03*
D279*
X005197Y017890D03*
X005197Y019715D03*
D280*
X005196Y019713D03*
X005196Y017892D03*
D281*
X005195Y017894D03*
X005195Y019711D03*
D282*
X005194Y019709D03*
X005194Y017896D03*
D283*
X005194Y017898D03*
X005194Y019707D03*
D284*
X005193Y019705D03*
X005193Y017900D03*
D285*
X005192Y017902D03*
X005192Y017904D03*
X005192Y019703D03*
D286*
X005191Y019701D03*
X005191Y017906D03*
D287*
X005190Y017908D03*
X005190Y019699D03*
D288*
X005189Y019697D03*
X005189Y017910D03*
D289*
X005188Y017912D03*
X005188Y019695D03*
D290*
X005187Y019693D03*
X005187Y019691D03*
X005187Y017913D03*
D291*
X005186Y017915D03*
X005186Y019689D03*
D292*
X005185Y019687D03*
X005185Y017917D03*
D293*
X005184Y017919D03*
X005184Y019685D03*
D294*
X005183Y019683D03*
X005183Y017921D03*
D295*
X005182Y017923D03*
X005182Y017925D03*
X005182Y019681D03*
D296*
X005181Y019679D03*
X005181Y017927D03*
D297*
X005180Y017929D03*
X005180Y019677D03*
D298*
X005179Y019675D03*
X005179Y019673D03*
X005179Y017931D03*
D299*
X005178Y017933D03*
X005178Y019671D03*
D300*
X005177Y019669D03*
X005177Y017935D03*
D301*
X005176Y017937D03*
X005176Y017939D03*
X005176Y019667D03*
D302*
X005175Y019665D03*
X005175Y017941D03*
D303*
X005174Y017943D03*
X005174Y019663D03*
D304*
X005173Y019662D03*
X005173Y017945D03*
D305*
X005172Y017947D03*
X005172Y019658D03*
X005172Y019660D03*
D306*
X005171Y019656D03*
X005171Y017949D03*
D307*
X005170Y017951D03*
X005170Y017953D03*
X005170Y019654D03*
D308*
X005169Y019652D03*
X005169Y017955D03*
D309*
X005168Y017957D03*
X005168Y019650D03*
D310*
X005167Y019648D03*
X005167Y019646D03*
X005167Y017959D03*
D311*
X005166Y017961D03*
X005166Y019644D03*
D312*
X005165Y019642D03*
X005165Y017965D03*
X005165Y017963D03*
D313*
X005164Y017967D03*
X005164Y019640D03*
D314*
X005163Y019638D03*
X005163Y017969D03*
D315*
X005162Y017971D03*
X005162Y019634D03*
X005162Y019636D03*
D316*
X005161Y019632D03*
X005161Y017973D03*
D317*
X005160Y017975D03*
X005160Y017976D03*
X005160Y019630D03*
D318*
X005159Y019628D03*
X005159Y017978D03*
D319*
X005158Y017980D03*
X005158Y019624D03*
X005158Y019626D03*
D320*
X005157Y019622D03*
X005157Y017982D03*
D321*
X005156Y017984D03*
X005156Y017986D03*
X005156Y019620D03*
D322*
X005155Y019618D03*
X005155Y017988D03*
D323*
X005154Y017990D03*
X005154Y019614D03*
X005154Y019616D03*
D324*
X005153Y019612D03*
X005153Y017992D03*
D325*
X005152Y017994D03*
X005152Y017996D03*
X005152Y019610D03*
D326*
X005151Y019608D03*
X005151Y019606D03*
X005151Y017998D03*
D327*
X005150Y018000D03*
X005150Y019604D03*
D328*
X005149Y019602D03*
X005149Y018004D03*
X005149Y018002D03*
D329*
X005148Y018006D03*
X005148Y019600D03*
D330*
X005147Y019599D03*
X005147Y019597D03*
X005147Y018008D03*
D331*
X005146Y018010D03*
X005146Y018012D03*
X005146Y019595D03*
D332*
X005145Y019593D03*
X005145Y018014D03*
D333*
X005144Y018016D03*
X005144Y019589D03*
X005144Y019591D03*
D334*
X005143Y019587D03*
X005143Y018020D03*
X005143Y018018D03*
D335*
X005142Y018022D03*
X005142Y019585D03*
D336*
X005141Y019583D03*
X005141Y019581D03*
X005141Y018024D03*
D337*
X005140Y018026D03*
X005140Y018028D03*
X005140Y019579D03*
D338*
X005139Y019577D03*
X005139Y018030D03*
D339*
X005138Y018032D03*
X005138Y019573D03*
X005138Y019575D03*
D340*
X005137Y019571D03*
X005137Y018036D03*
X005137Y018034D03*
D341*
X005136Y018038D03*
X005136Y019567D03*
X005136Y019569D03*
D342*
X005135Y019565D03*
X005135Y018039D03*
D343*
X005134Y018041D03*
X005134Y018043D03*
X005134Y019563D03*
D344*
X005133Y019561D03*
X005133Y019559D03*
X005133Y018045D03*
D345*
X005859Y018047D03*
D346*
X004863Y018049D03*
X005402Y020026D03*
D347*
X005878Y018049D03*
D348*
X005889Y018051D03*
D349*
X005906Y018055D03*
D350*
X004823Y018057D03*
D351*
X005914Y018057D03*
D352*
X005920Y018059D03*
D353*
X005926Y018061D03*
D354*
X005932Y018063D03*
D355*
X004797Y018065D03*
X005456Y020079D03*
D356*
X005938Y018065D03*
D357*
X005943Y018067D03*
D358*
X004786Y018069D03*
X004784Y019536D03*
X005465Y020087D03*
D359*
X005951Y018071D03*
D360*
X006681Y018266D03*
X006681Y019333D03*
X005472Y020093D03*
X004775Y018073D03*
D361*
X005955Y018073D03*
D362*
X005960Y018075D03*
D363*
X005964Y018077D03*
D364*
X006671Y018286D03*
X006671Y019315D03*
X005482Y020100D03*
X004761Y018079D03*
D365*
X005968Y018079D03*
D366*
X005972Y018081D03*
D367*
X006664Y018297D03*
X006664Y019303D03*
X005489Y020106D03*
X004753Y018083D03*
D368*
X005976Y018083D03*
D369*
X005979Y018085D03*
D370*
X004745Y018087D03*
X004743Y019518D03*
X006658Y019291D03*
D371*
X006656Y019288D03*
X006656Y018311D03*
X004741Y018089D03*
X005497Y020112D03*
D372*
X005986Y018089D03*
D373*
X006653Y018317D03*
X006653Y019284D03*
X004736Y019514D03*
X004736Y018091D03*
D374*
X005990Y018091D03*
X005990Y019514D03*
D375*
X006650Y019278D03*
X006650Y018323D03*
X004733Y018093D03*
X004731Y019512D03*
D376*
X005993Y019512D03*
X005993Y018093D03*
D377*
X006648Y018327D03*
X006648Y019274D03*
X005505Y020118D03*
X004729Y018095D03*
D378*
X005996Y018095D03*
D379*
X004725Y018097D03*
X006646Y019270D03*
X005506Y020120D03*
D380*
X005573Y020230D03*
X005999Y018097D03*
D381*
X006643Y018335D03*
X004722Y018099D03*
X005509Y020122D03*
D382*
X006002Y018099D03*
D383*
X006005Y018100D03*
D384*
X006639Y018343D03*
X006639Y019258D03*
X004714Y018102D03*
D385*
X006007Y018102D03*
D386*
X006636Y018349D03*
X006636Y019252D03*
X004711Y018104D03*
D387*
X006010Y018104D03*
X006010Y019500D03*
D388*
X006634Y019248D03*
X004707Y018106D03*
D389*
X006013Y018106D03*
X006013Y019498D03*
D390*
X006632Y019244D03*
X006632Y018354D03*
X004705Y018108D03*
X004703Y019496D03*
X005520Y020130D03*
D391*
X006015Y018108D03*
D392*
X006018Y018110D03*
D393*
X006629Y018362D03*
X006629Y019238D03*
X004697Y019492D03*
X004697Y018112D03*
D394*
X006021Y018112D03*
X006021Y019492D03*
D395*
X006627Y019234D03*
X006627Y018366D03*
X004695Y018114D03*
X004694Y019490D03*
X005526Y020134D03*
D396*
X006023Y018114D03*
D397*
X006026Y018116D03*
X006026Y019488D03*
D398*
X006624Y019228D03*
X006624Y018372D03*
X004689Y018118D03*
X004691Y019488D03*
X005529Y020136D03*
D399*
X006028Y018118D03*
D400*
X006621Y018376D03*
X006621Y019223D03*
X005532Y020138D03*
X004684Y019484D03*
X004686Y018120D03*
D401*
X006031Y018120D03*
X006031Y019484D03*
D402*
X006033Y018122D03*
D403*
X006617Y018384D03*
X006617Y019217D03*
X004678Y019480D03*
X004680Y018124D03*
D404*
X006035Y018124D03*
D405*
X006038Y018126D03*
D406*
X006614Y018390D03*
X006614Y019211D03*
X004673Y019476D03*
X004673Y018128D03*
D407*
X006040Y018128D03*
D408*
X006612Y018394D03*
X006612Y019207D03*
X005541Y020144D03*
X004671Y018130D03*
D409*
X006043Y018130D03*
X006043Y019475D03*
D410*
X006611Y019205D03*
X004668Y018132D03*
D411*
X006045Y018132D03*
D412*
X006609Y018398D03*
X006609Y019201D03*
X005544Y020146D03*
X004664Y019471D03*
X004666Y018134D03*
D413*
X006047Y018134D03*
D414*
X006049Y018136D03*
D415*
X006606Y018404D03*
X006606Y019197D03*
X005547Y020148D03*
X004659Y019467D03*
X004659Y018138D03*
D416*
X006052Y018138D03*
X006052Y019467D03*
D417*
X006054Y019465D03*
X006054Y018140D03*
D418*
X006603Y018410D03*
X006603Y019191D03*
X005550Y020150D03*
X004654Y018142D03*
D419*
X006056Y018142D03*
X006056Y019463D03*
D420*
X006601Y019187D03*
X006601Y018413D03*
X004652Y018144D03*
X004650Y019461D03*
D421*
X006058Y018144D03*
D422*
X006060Y018146D03*
X006060Y019459D03*
D423*
X006599Y019183D03*
X005554Y020152D03*
X004648Y019459D03*
X004646Y018148D03*
D424*
X006062Y018148D03*
D425*
X006064Y018150D03*
D426*
X006596Y018421D03*
X006596Y019177D03*
X005557Y020154D03*
X004643Y019455D03*
X004641Y018152D03*
D427*
X006066Y018152D03*
D428*
X006068Y018154D03*
D429*
X006593Y018427D03*
X006593Y019173D03*
X005560Y020156D03*
X004636Y018156D03*
D430*
X004633Y018158D03*
X004635Y019449D03*
X006592Y019171D03*
X006592Y018429D03*
D431*
X006590Y018433D03*
X006590Y019167D03*
X005563Y020158D03*
X004631Y018160D03*
D432*
X004629Y018162D03*
X004631Y019445D03*
X006589Y019165D03*
X006589Y018435D03*
D433*
X006586Y018439D03*
X006586Y019160D03*
X005567Y020160D03*
X004626Y019441D03*
X004624Y019439D03*
X004624Y018165D03*
D434*
X004623Y018167D03*
X004621Y019437D03*
X006585Y019158D03*
X006585Y018441D03*
D435*
X006583Y018445D03*
X005569Y020162D03*
X004619Y019435D03*
X004617Y018171D03*
D436*
X004615Y018173D03*
X006581Y018449D03*
X006581Y019152D03*
D437*
X006579Y019148D03*
X006579Y018453D03*
X004611Y018177D03*
D438*
X004608Y018179D03*
X004610Y019427D03*
X005572Y020163D03*
X006578Y019146D03*
X006578Y018455D03*
D439*
X006576Y018459D03*
X006576Y019142D03*
X004606Y018181D03*
D440*
X004602Y018185D03*
X004600Y019419D03*
X006574Y019138D03*
X006574Y018461D03*
D441*
X006573Y018463D03*
X006573Y019136D03*
X005573Y020165D03*
X004599Y019417D03*
X004599Y018187D03*
D442*
X004596Y018189D03*
X004596Y019415D03*
X006572Y019134D03*
X006572Y018465D03*
D443*
X006571Y018467D03*
X004595Y018191D03*
D444*
X004592Y018193D03*
X004592Y019412D03*
X004594Y019413D03*
X006570Y019132D03*
X006570Y018469D03*
D445*
X006569Y018471D03*
X006569Y019130D03*
X004591Y018195D03*
D446*
X004588Y018197D03*
X004588Y019408D03*
X004590Y019410D03*
X006569Y019128D03*
X006569Y018473D03*
D447*
X006567Y018476D03*
X006567Y019124D03*
X004586Y019406D03*
X004584Y018201D03*
D448*
X004582Y018203D03*
X004580Y018205D03*
X004582Y019402D03*
X006565Y019120D03*
X006565Y018480D03*
D449*
X006563Y018482D03*
X006563Y019116D03*
X004578Y019398D03*
X004576Y018209D03*
X004578Y018207D03*
D450*
X004574Y018211D03*
X004572Y018213D03*
X006561Y018486D03*
X006561Y019112D03*
D451*
X006559Y019110D03*
X006559Y018490D03*
X005574Y020169D03*
X004569Y018217D03*
X004570Y018215D03*
D452*
X004567Y018219D03*
X004565Y018221D03*
X004565Y019384D03*
X006557Y019106D03*
X006557Y018494D03*
D453*
X006556Y018496D03*
X006556Y019104D03*
X004562Y019382D03*
X004564Y018223D03*
D454*
X004561Y018225D03*
X004561Y019380D03*
X006555Y019102D03*
X006555Y018498D03*
D455*
X006553Y018502D03*
X006553Y019099D03*
X004557Y019376D03*
X004555Y019374D03*
X004557Y018228D03*
D456*
X004556Y018230D03*
X004554Y018232D03*
X006552Y019097D03*
D457*
X006550Y019093D03*
X006550Y018506D03*
X004552Y018234D03*
X004550Y018236D03*
X004550Y019368D03*
D458*
X004547Y019366D03*
X004549Y018238D03*
X006549Y018508D03*
X006549Y019091D03*
D459*
X006548Y018510D03*
X004546Y018240D03*
X004544Y019362D03*
X004546Y019364D03*
D460*
X004543Y018244D03*
X004545Y018242D03*
X006547Y018512D03*
X006547Y019089D03*
D461*
X006545Y019085D03*
X006545Y018516D03*
X004541Y018246D03*
X004539Y018248D03*
X004539Y019356D03*
D462*
X004538Y019354D03*
X004536Y018252D03*
X004538Y018250D03*
X006544Y018518D03*
X006544Y019083D03*
X005573Y020173D03*
D463*
X004534Y019350D03*
X004532Y019349D03*
X004532Y018256D03*
X004534Y018254D03*
X006542Y018522D03*
X006542Y019079D03*
D464*
X006687Y019345D03*
X006687Y018256D03*
D465*
X006541Y018524D03*
X006541Y019077D03*
X004531Y019347D03*
X004529Y018260D03*
X004531Y018258D03*
D466*
X006685Y018260D03*
X006685Y019341D03*
D467*
X006540Y019075D03*
X004528Y019345D03*
X004528Y018262D03*
D468*
X004525Y018264D03*
X004525Y019341D03*
X004527Y019343D03*
X006539Y019073D03*
X006539Y018526D03*
D469*
X006683Y018264D03*
X006683Y019337D03*
X005470Y020091D03*
X004779Y019534D03*
D470*
X004521Y018270D03*
X004523Y018268D03*
X006537Y018530D03*
X006537Y019069D03*
D471*
X006680Y019331D03*
X006680Y018268D03*
X004774Y019532D03*
D472*
X004520Y019335D03*
X004518Y019333D03*
X004518Y018274D03*
X004520Y018272D03*
X006536Y018532D03*
X005573Y020175D03*
D473*
X006678Y019329D03*
X006678Y018272D03*
D474*
X006534Y018536D03*
X006534Y019065D03*
X004514Y019327D03*
X004514Y018278D03*
X004516Y018276D03*
D475*
X005477Y020097D03*
X006676Y019325D03*
X006676Y018276D03*
D476*
X006675Y018278D03*
X006675Y019323D03*
D477*
X006533Y019063D03*
X006533Y018538D03*
X004513Y018280D03*
X004511Y018282D03*
X004511Y019323D03*
X004513Y019325D03*
D478*
X004765Y019528D03*
X006673Y019319D03*
X006673Y018282D03*
D479*
X006532Y018539D03*
X006532Y019061D03*
X004510Y018284D03*
X004508Y018286D03*
D480*
X004507Y018288D03*
X004507Y019319D03*
X004509Y019321D03*
X006531Y019059D03*
X006531Y018541D03*
D481*
X006669Y018288D03*
X006669Y019311D03*
X005484Y020102D03*
D482*
X006668Y019309D03*
X006668Y018289D03*
D483*
X006529Y018545D03*
X006529Y019055D03*
X004504Y019313D03*
X004504Y018291D03*
D484*
X004503Y018293D03*
X004501Y018295D03*
X004501Y019309D03*
X004503Y019311D03*
X005573Y020177D03*
X006528Y019053D03*
D485*
X006666Y019307D03*
X006666Y018293D03*
X005487Y020104D03*
D486*
X004500Y019307D03*
X004498Y019305D03*
X004498Y018299D03*
X004500Y018297D03*
X006527Y018547D03*
X006527Y019051D03*
D487*
X006663Y019301D03*
X006663Y018299D03*
X004752Y019522D03*
D488*
X004497Y019303D03*
X004495Y019301D03*
X004497Y018301D03*
X006526Y018549D03*
X006526Y019049D03*
D489*
X006525Y019047D03*
X006525Y018551D03*
X004496Y018303D03*
X004494Y018305D03*
X004494Y019299D03*
D490*
X004748Y019520D03*
X005492Y020108D03*
X006661Y019297D03*
X006661Y018303D03*
D491*
X006524Y018553D03*
X004493Y018307D03*
X004491Y018309D03*
X004491Y019295D03*
X004493Y019297D03*
D492*
X005494Y020110D03*
X006659Y019293D03*
X006659Y018307D03*
D493*
X006523Y018555D03*
X006523Y019045D03*
X004490Y019293D03*
X004488Y019291D03*
X004488Y018313D03*
X004490Y018311D03*
D494*
X004740Y019516D03*
X006655Y018313D03*
D495*
X006521Y018559D03*
X006521Y019041D03*
X004484Y019286D03*
X004484Y018319D03*
X004486Y018317D03*
D496*
X004483Y018321D03*
X004481Y018323D03*
X004481Y019282D03*
X004483Y019284D03*
X005573Y020179D03*
X006520Y019039D03*
X006520Y018561D03*
D497*
X006651Y018321D03*
X006651Y019280D03*
X005502Y020116D03*
D498*
X004480Y019280D03*
X004478Y019278D03*
X004480Y018325D03*
X006519Y018563D03*
X006519Y019038D03*
D499*
X006518Y019036D03*
X006518Y018565D03*
X004479Y018327D03*
X004477Y018329D03*
X004477Y019276D03*
D500*
X004476Y019274D03*
X004474Y019272D03*
X004474Y018333D03*
X004476Y018331D03*
X006517Y018567D03*
X006517Y019034D03*
D501*
X006645Y019268D03*
X006645Y018331D03*
X004724Y019508D03*
D502*
X004473Y019270D03*
X004471Y019268D03*
X004473Y018335D03*
X006516Y019032D03*
D503*
X006515Y019030D03*
X006515Y018569D03*
X004472Y018337D03*
X004470Y018339D03*
X004470Y018341D03*
X004468Y018343D03*
X004470Y019266D03*
D504*
X004721Y019506D03*
X006642Y019264D03*
X006642Y018337D03*
D505*
X006640Y018341D03*
X006640Y019260D03*
X005512Y020124D03*
X004717Y019504D03*
D506*
X004466Y019260D03*
X004466Y019258D03*
X004464Y019256D03*
X004464Y018349D03*
X004466Y018347D03*
X006513Y018573D03*
X006513Y019026D03*
D507*
X006637Y019254D03*
X006637Y018347D03*
X005515Y020126D03*
D508*
X005573Y020181D03*
X004463Y019254D03*
X004461Y019252D03*
X004463Y018350D03*
X006512Y018575D03*
D509*
X006511Y018577D03*
X006511Y019024D03*
X004460Y019250D03*
X004458Y018358D03*
X004460Y018354D03*
X004462Y018352D03*
D510*
X004459Y018356D03*
X004457Y018360D03*
X004457Y019246D03*
X004459Y019248D03*
X006510Y019022D03*
X006510Y018579D03*
D511*
X006631Y018356D03*
D512*
X006630Y018360D03*
X006630Y019240D03*
X005523Y020132D03*
X004700Y019494D03*
D513*
X004456Y019244D03*
X004456Y019242D03*
X004454Y019240D03*
X004454Y018364D03*
X004456Y018362D03*
X006509Y018581D03*
X006509Y019020D03*
D514*
X006508Y019018D03*
X006508Y018583D03*
X004453Y018366D03*
X004451Y018370D03*
X004451Y019236D03*
X004453Y019238D03*
D515*
X004450Y019234D03*
X004448Y019230D03*
X004448Y018374D03*
X004450Y018372D03*
X004452Y018368D03*
X006507Y018585D03*
X006507Y019016D03*
D516*
X006626Y019232D03*
X006626Y018368D03*
D517*
X006506Y018589D03*
X006506Y019012D03*
X004446Y019226D03*
X004444Y019225D03*
X004444Y018382D03*
X004444Y018380D03*
X004446Y018378D03*
D518*
X006620Y018378D03*
X006620Y019221D03*
D519*
X006618Y019219D03*
X006618Y018382D03*
X005535Y020140D03*
D520*
X005573Y020183D03*
X004444Y019223D03*
X004444Y019221D03*
X004442Y019219D03*
X004442Y018386D03*
X004444Y018384D03*
X006505Y019010D03*
D521*
X006504Y019008D03*
X006504Y018591D03*
X004441Y018390D03*
X004441Y018388D03*
X004439Y018392D03*
X004439Y019213D03*
X004441Y019217D03*
D522*
X004676Y019478D03*
X005538Y020142D03*
X006615Y019213D03*
X006615Y018388D03*
D523*
X006503Y018593D03*
X006503Y019006D03*
X004440Y019215D03*
X004438Y019211D03*
X004436Y018398D03*
X004438Y018394D03*
D524*
X004437Y018396D03*
X004435Y018400D03*
X004435Y019205D03*
X004435Y019207D03*
X004437Y019209D03*
X006502Y019004D03*
X006502Y018595D03*
D525*
X006608Y018400D03*
X006608Y019199D03*
D526*
X006501Y018597D03*
X004434Y018402D03*
X004432Y018404D03*
X004432Y018406D03*
X004432Y019201D03*
X004434Y019203D03*
D527*
X006605Y019195D03*
X006605Y018406D03*
D528*
X006500Y018599D03*
X006500Y019002D03*
X004431Y019197D03*
X004431Y019199D03*
X004429Y019195D03*
X004429Y018410D03*
X004431Y018408D03*
D529*
X004428Y018412D03*
X004428Y018413D03*
X004426Y018415D03*
X004426Y019189D03*
X004428Y019193D03*
X006499Y019000D03*
X006499Y018600D03*
D530*
X006602Y018412D03*
X006602Y019189D03*
X004653Y019463D03*
D531*
X004427Y019191D03*
X004425Y019187D03*
X004423Y019183D03*
X004423Y018421D03*
X004425Y018419D03*
X004425Y018417D03*
X006498Y018602D03*
X006498Y018998D03*
D532*
X006598Y019181D03*
X006598Y018417D03*
X004645Y019457D03*
D533*
X004640Y019453D03*
X006595Y018423D03*
D534*
X006496Y018606D03*
X006496Y018994D03*
X004421Y019179D03*
X004419Y019175D03*
X004419Y018431D03*
X004419Y018429D03*
X004421Y018427D03*
X004421Y018425D03*
D535*
X004418Y018433D03*
X004416Y018435D03*
X004416Y018437D03*
X004416Y019169D03*
X004418Y019171D03*
X004418Y019173D03*
X006495Y018992D03*
X006495Y018608D03*
D536*
X006588Y018437D03*
X006588Y019163D03*
X004628Y019443D03*
D537*
X004415Y019167D03*
X004415Y019165D03*
X004413Y019163D03*
X004413Y018443D03*
X004413Y018441D03*
X004415Y018439D03*
X006494Y018610D03*
X006494Y018990D03*
D538*
X006493Y018988D03*
X004412Y019160D03*
X004412Y019162D03*
X004410Y019158D03*
X004410Y019156D03*
X004410Y018449D03*
X004412Y018445D03*
D539*
X004411Y018447D03*
X004409Y018451D03*
X004407Y018455D03*
X004407Y019150D03*
X004409Y019154D03*
X006492Y018986D03*
X006492Y018612D03*
D540*
X006582Y018447D03*
X006582Y019154D03*
X004616Y019433D03*
D541*
X004408Y019152D03*
X004406Y019148D03*
X004404Y019144D03*
X004406Y018459D03*
X004406Y018457D03*
X004408Y018453D03*
X006491Y018614D03*
X006491Y018984D03*
D542*
X006577Y019144D03*
X006577Y018457D03*
X004607Y019425D03*
X004605Y019423D03*
D543*
X004405Y019146D03*
X004403Y019142D03*
X004403Y019140D03*
X004401Y018469D03*
X004403Y018465D03*
X004403Y018463D03*
X004405Y018461D03*
X006490Y018616D03*
X006490Y018982D03*
D544*
X006488Y018980D03*
X006488Y018620D03*
X004399Y018475D03*
X004397Y018476D03*
X004397Y018478D03*
X004399Y018473D03*
X004395Y019122D03*
X004397Y019126D03*
X004397Y019128D03*
X004399Y019130D03*
X004399Y019132D03*
D545*
X004583Y019404D03*
X005573Y020167D03*
X006566Y019122D03*
X006566Y018478D03*
D546*
X006487Y018622D03*
X006487Y018978D03*
X005573Y020187D03*
X004396Y019124D03*
X004394Y019120D03*
X004394Y018486D03*
X004394Y018484D03*
X004396Y018482D03*
X004396Y018480D03*
D547*
X004573Y019394D03*
X004575Y019396D03*
X006562Y019114D03*
X006562Y018484D03*
D548*
X006486Y018624D03*
X006486Y018976D03*
X004393Y019116D03*
X004393Y019118D03*
X004391Y019114D03*
X004391Y019112D03*
X004391Y018492D03*
X004393Y018490D03*
X004393Y018488D03*
D549*
X004566Y019386D03*
X004568Y019388D03*
X006558Y019108D03*
X006558Y018492D03*
D550*
X006485Y018626D03*
X006485Y018975D03*
X004390Y019108D03*
X004388Y019106D03*
X004388Y019104D03*
X004390Y019110D03*
X004388Y018500D03*
X004390Y018496D03*
X004390Y018494D03*
D551*
X004389Y018498D03*
X004387Y018502D03*
X004387Y018504D03*
X004385Y018508D03*
X004385Y019097D03*
X004387Y019100D03*
X004387Y019102D03*
X006484Y018973D03*
X006484Y018628D03*
D552*
X006551Y018504D03*
X006551Y019095D03*
X005574Y020171D03*
X004553Y019372D03*
X004551Y019370D03*
D553*
X004386Y019099D03*
X004384Y019095D03*
X004384Y019093D03*
X004382Y019089D03*
X004382Y018516D03*
X004384Y018512D03*
X004384Y018510D03*
X004386Y018506D03*
X006483Y018630D03*
X006483Y018971D03*
D554*
X006482Y018969D03*
X006482Y018632D03*
X004383Y018514D03*
X004381Y018518D03*
X004381Y018520D03*
X004380Y018524D03*
X004380Y019081D03*
X004381Y019085D03*
X004381Y019087D03*
X004383Y019091D03*
D555*
X004535Y019352D03*
X006543Y019081D03*
X006543Y018520D03*
D556*
X006481Y018967D03*
X004381Y019083D03*
X004379Y019079D03*
X004379Y019077D03*
X004377Y019071D03*
X004377Y018534D03*
X004379Y018530D03*
X004379Y018528D03*
X004379Y018526D03*
X004381Y018522D03*
D557*
X004515Y019329D03*
X004517Y019331D03*
X006535Y019067D03*
X006535Y018534D03*
D558*
X006479Y018636D03*
X006479Y018963D03*
X005573Y020189D03*
X004375Y019065D03*
X004373Y019061D03*
X004373Y019059D03*
X004373Y019057D03*
X004371Y019053D03*
X004371Y018551D03*
X004373Y018547D03*
X004373Y018545D03*
X004373Y018543D03*
X004375Y018541D03*
X004375Y018539D03*
D559*
X004372Y018549D03*
X004370Y018553D03*
X004370Y018555D03*
X004370Y018557D03*
X004368Y019043D03*
X004370Y019049D03*
X004370Y019051D03*
X004372Y019055D03*
X006478Y018961D03*
X006478Y018638D03*
D560*
X006477Y018640D03*
X004369Y018561D03*
X004369Y018559D03*
X004367Y018563D03*
X004367Y018565D03*
X004367Y018567D03*
X004367Y019039D03*
X004367Y019041D03*
X004369Y019045D03*
X004369Y019047D03*
D561*
X004366Y019038D03*
X004366Y019036D03*
X004366Y019034D03*
X004364Y019032D03*
X004364Y019030D03*
X004364Y019028D03*
X004362Y019022D03*
X004362Y018583D03*
X004364Y018577D03*
X004364Y018575D03*
X004364Y018573D03*
X004366Y018571D03*
X004366Y018569D03*
X006476Y018642D03*
X006476Y018959D03*
D562*
X006475Y018957D03*
X006475Y018644D03*
X004363Y018581D03*
X004363Y018579D03*
X004361Y018585D03*
X004361Y018587D03*
X004361Y018589D03*
X004359Y018595D03*
X004361Y019018D03*
X004361Y019020D03*
X004363Y019024D03*
X004363Y019026D03*
D563*
X004360Y019016D03*
X004360Y019014D03*
X004360Y019012D03*
X004358Y019010D03*
X004358Y019008D03*
X004358Y019006D03*
X004358Y018600D03*
X004358Y018599D03*
X004358Y018597D03*
X004360Y018593D03*
X004360Y018591D03*
X006474Y018646D03*
X006474Y018955D03*
D564*
X006473Y018953D03*
X006473Y018648D03*
X004357Y018606D03*
X004357Y018604D03*
X004357Y018602D03*
X004355Y018608D03*
X004355Y018610D03*
X004355Y018612D03*
X004355Y018992D03*
X004355Y018994D03*
X004355Y018996D03*
X004355Y018998D03*
X004357Y019000D03*
X004357Y019002D03*
X004357Y019004D03*
D565*
X004354Y018990D03*
X004354Y018988D03*
X004354Y018986D03*
X004352Y018984D03*
X004352Y018982D03*
X004352Y018980D03*
X004352Y018626D03*
X004352Y018624D03*
X004352Y018622D03*
X004352Y018620D03*
X004354Y018618D03*
X004354Y018616D03*
X004354Y018614D03*
X006472Y018650D03*
X006472Y018951D03*
D566*
X006470Y018947D03*
X006470Y018654D03*
X004348Y018648D03*
X004348Y018646D03*
X004348Y018644D03*
X004348Y018642D03*
X004346Y018650D03*
X004346Y018652D03*
X004346Y018654D03*
X004346Y018656D03*
X004346Y018658D03*
X004346Y018949D03*
X004346Y018951D03*
X004346Y018953D03*
X004346Y018955D03*
X004348Y018957D03*
X004348Y018959D03*
X004348Y018961D03*
X004348Y018963D03*
D567*
X004342Y018927D03*
X004342Y018925D03*
X004342Y018923D03*
X004342Y018921D03*
X004340Y018917D03*
X004340Y018915D03*
X004340Y018913D03*
X004340Y018912D03*
X004340Y018910D03*
X004340Y018908D03*
X004340Y018697D03*
X004340Y018695D03*
X004340Y018693D03*
X004340Y018691D03*
X004340Y018689D03*
X004340Y018687D03*
X004342Y018685D03*
X004342Y018683D03*
X004342Y018681D03*
X004342Y018679D03*
X004342Y018677D03*
X006468Y018656D03*
X006468Y018943D03*
D568*
X006467Y018941D03*
X006467Y018658D03*
X004339Y018699D03*
X004339Y018701D03*
X004339Y018703D03*
X004339Y018705D03*
X004339Y018707D03*
X004339Y018709D03*
X004337Y018711D03*
X004337Y018713D03*
X004337Y018715D03*
X004337Y018717D03*
X004337Y018719D03*
X004337Y018721D03*
X004337Y018723D03*
X004337Y018725D03*
X004337Y018880D03*
X004337Y018882D03*
X004337Y018884D03*
X004337Y018886D03*
X004337Y018888D03*
X004337Y018890D03*
X004337Y018892D03*
X004337Y018894D03*
X004339Y018896D03*
X004339Y018898D03*
X004339Y018900D03*
X004339Y018902D03*
X004339Y018904D03*
X004339Y018906D03*
D569*
X004341Y018919D03*
X004343Y018929D03*
X004343Y018931D03*
X004343Y018933D03*
X004343Y018935D03*
X004343Y018937D03*
X004345Y018939D03*
X004345Y018941D03*
X004345Y018943D03*
X004345Y018945D03*
X004345Y018947D03*
X004343Y018675D03*
X004343Y018673D03*
X004343Y018671D03*
X004343Y018669D03*
X004343Y018667D03*
X004345Y018665D03*
X004345Y018663D03*
X004345Y018662D03*
X004345Y018660D03*
X005573Y020191D03*
X006469Y018945D03*
D570*
X006466Y018939D03*
X006466Y018660D03*
X004336Y018726D03*
X004336Y018728D03*
X004336Y018730D03*
X004336Y018732D03*
X004336Y018734D03*
X004336Y018736D03*
X004336Y018738D03*
X004336Y018740D03*
X004336Y018742D03*
X004334Y018744D03*
X004334Y018746D03*
X004334Y018748D03*
X004334Y018750D03*
X004334Y018752D03*
X004334Y018754D03*
X004334Y018756D03*
X004334Y018758D03*
X004334Y018760D03*
X004334Y018762D03*
X004334Y018764D03*
X004334Y018766D03*
X004334Y018768D03*
X004334Y018770D03*
X004334Y018772D03*
X004334Y018774D03*
X004334Y018833D03*
X004334Y018835D03*
X004334Y018837D03*
X004334Y018839D03*
X004334Y018841D03*
X004334Y018843D03*
X004334Y018845D03*
X004334Y018847D03*
X004334Y018849D03*
X004334Y018850D03*
X004334Y018852D03*
X004334Y018854D03*
X004334Y018856D03*
X004334Y018858D03*
X004334Y018860D03*
X004336Y018862D03*
X004336Y018864D03*
X004336Y018866D03*
X004336Y018868D03*
X004336Y018870D03*
X004336Y018872D03*
X004336Y018874D03*
X004336Y018876D03*
X004336Y018878D03*
D571*
X004333Y018831D03*
X004333Y018829D03*
X004333Y018827D03*
X004333Y018825D03*
X004333Y018823D03*
X004333Y018821D03*
X004333Y018819D03*
X004333Y018817D03*
X004333Y018815D03*
X004333Y018813D03*
X004333Y018811D03*
X004333Y018809D03*
X004333Y018807D03*
X004333Y018805D03*
X004333Y018803D03*
X004333Y018801D03*
X004333Y018799D03*
X004333Y018797D03*
X004333Y018795D03*
X004333Y018793D03*
X004333Y018791D03*
X004333Y018789D03*
X004333Y018788D03*
X004333Y018786D03*
X004333Y018784D03*
X004333Y018782D03*
X004333Y018780D03*
X004333Y018778D03*
X004333Y018776D03*
X006465Y018662D03*
D572*
X006464Y018663D03*
X006464Y018937D03*
D573*
X006462Y018933D03*
X006462Y018667D03*
D574*
X006461Y018669D03*
X006461Y018931D03*
D575*
X006460Y018929D03*
X006460Y018671D03*
D576*
X006459Y018673D03*
X006459Y018927D03*
X005573Y020193D03*
D577*
X006458Y018925D03*
X006458Y018675D03*
D578*
X006456Y018677D03*
X006456Y018921D03*
D579*
X006455Y018919D03*
X006455Y018679D03*
D580*
X006454Y018681D03*
X006454Y018917D03*
D581*
X006452Y018915D03*
X006452Y018685D03*
D582*
X006451Y018687D03*
X006451Y018913D03*
D583*
X006450Y018912D03*
X006450Y018689D03*
D584*
X006449Y018691D03*
X006449Y018910D03*
X005573Y020195D03*
D585*
X006448Y018908D03*
X006448Y018693D03*
D586*
X006447Y018695D03*
X006447Y018906D03*
D587*
X006446Y018904D03*
X006446Y018697D03*
D588*
X006444Y018699D03*
X006444Y018900D03*
D589*
X006444Y018898D03*
X006444Y018701D03*
D590*
X006442Y018705D03*
D591*
X006441Y018707D03*
X006441Y018894D03*
X005574Y020197D03*
D592*
X006440Y018892D03*
X006440Y018709D03*
D593*
X006439Y018711D03*
X006439Y018890D03*
D594*
X006438Y018888D03*
X006438Y018713D03*
D595*
X006437Y018715D03*
X006437Y018886D03*
D596*
X006436Y018884D03*
X006436Y018717D03*
D597*
X006435Y018719D03*
X006435Y018882D03*
D598*
X006433Y018878D03*
X006433Y018721D03*
D599*
X006432Y018723D03*
X006432Y018876D03*
D600*
X006431Y018874D03*
X006431Y018725D03*
D601*
X006430Y018726D03*
X005573Y020199D03*
D602*
X006429Y018872D03*
X006429Y018728D03*
D603*
X006428Y018730D03*
X006428Y018870D03*
D604*
X006427Y018868D03*
X006427Y018732D03*
D605*
X006426Y018734D03*
X006426Y018866D03*
D606*
X006425Y018864D03*
X006425Y018736D03*
D607*
X006424Y018738D03*
X006424Y018862D03*
D608*
X006423Y018860D03*
X006423Y018740D03*
D609*
X006421Y018742D03*
X006421Y018856D03*
D610*
X006420Y018854D03*
X006420Y018744D03*
X005573Y020201D03*
D611*
X006419Y018852D03*
X006419Y018746D03*
D612*
X006418Y018748D03*
D613*
X006417Y018850D03*
D614*
X006445Y018902D03*
D615*
X006457Y018923D03*
D616*
X006564Y019118D03*
X004579Y019400D03*
D617*
X004688Y019486D03*
X006623Y019226D03*
D618*
X006069Y019451D03*
D619*
X006067Y019453D03*
D620*
X006065Y019455D03*
D621*
X006063Y019457D03*
D622*
X006059Y019461D03*
D623*
X006050Y019469D03*
D624*
X006048Y019471D03*
D625*
X006046Y019473D03*
D626*
X006041Y019476D03*
D627*
X006039Y019478D03*
D628*
X006036Y019480D03*
D629*
X006034Y019482D03*
D630*
X006029Y019486D03*
D631*
X006024Y019490D03*
D632*
X006019Y019494D03*
D633*
X006016Y019496D03*
D634*
X006008Y019502D03*
D635*
X006006Y019504D03*
D636*
X006003Y019506D03*
D637*
X006000Y019508D03*
D638*
X005997Y019510D03*
D639*
X005987Y019516D03*
D640*
X005984Y019518D03*
D641*
X005980Y019520D03*
D642*
X005977Y019522D03*
D643*
X005973Y019524D03*
D644*
X005969Y019526D03*
D645*
X005965Y019528D03*
D646*
X005961Y019530D03*
D647*
X005957Y019532D03*
D648*
X005952Y019534D03*
D649*
X005948Y019536D03*
D650*
X004790Y019538D03*
D651*
X005944Y019538D03*
D652*
X004796Y019539D03*
D653*
X005939Y019539D03*
D654*
X005452Y020075D03*
X004801Y019541D03*
D655*
X005934Y019541D03*
D656*
X005447Y020071D03*
X004808Y019543D03*
D657*
X005928Y019543D03*
D658*
X005922Y019545D03*
D659*
X005916Y019547D03*
D660*
X005908Y019549D03*
D661*
X005423Y020047D03*
X004838Y019551D03*
D662*
X005901Y019551D03*
D663*
X005415Y020039D03*
X004848Y019553D03*
D664*
X005891Y019553D03*
D665*
X004859Y019555D03*
D666*
X005881Y019555D03*
D667*
X005865Y019557D03*
D668*
X005235Y019789D03*
D669*
X005245Y019807D03*
D670*
X005253Y019821D03*
D671*
X005259Y019833D03*
D672*
X005265Y019843D03*
D673*
X005271Y019852D03*
D674*
X005276Y019860D03*
D675*
X005281Y019868D03*
D676*
X005285Y019874D03*
D677*
X005290Y019882D03*
D678*
X005294Y019888D03*
D679*
X005298Y019894D03*
D680*
X005302Y019900D03*
D681*
X005306Y019906D03*
D682*
X005309Y019910D03*
D683*
X005312Y019913D03*
D684*
X005316Y019919D03*
D685*
X005319Y019923D03*
D686*
X005322Y019929D03*
D687*
X005325Y019933D03*
D688*
X005328Y019937D03*
D689*
X005331Y019941D03*
D690*
X005334Y019945D03*
D691*
X005337Y019949D03*
D692*
X005340Y019953D03*
D693*
X005342Y019955D03*
D694*
X005345Y019959D03*
D695*
X005348Y019963D03*
D696*
X005351Y019967D03*
D697*
X005353Y019969D03*
D698*
X005356Y019973D03*
D699*
X005359Y019976D03*
D700*
X005361Y019978D03*
D701*
X005364Y019982D03*
D702*
X005366Y019984D03*
D703*
X005369Y019988D03*
D704*
X005371Y019990D03*
D705*
X005376Y019996D03*
D706*
X005381Y020002D03*
D707*
X005382Y020004D03*
D708*
X005387Y020010D03*
D709*
X005389Y020012D03*
D710*
X005391Y020014D03*
D711*
X005398Y020022D03*
D712*
X005400Y020024D03*
D713*
X005417Y020041D03*
D714*
X005419Y020043D03*
D715*
X005421Y020045D03*
D716*
X005425Y020049D03*
D717*
X005427Y020051D03*
D718*
X005429Y020053D03*
D719*
X005431Y020055D03*
D720*
X005433Y020057D03*
D721*
X005435Y020059D03*
D722*
X005442Y020065D03*
D723*
X005444Y020067D03*
D724*
X005445Y020069D03*
D725*
X005454Y020077D03*
D726*
X005463Y020085D03*
D727*
X005574Y020203D03*
D728*
X005574Y020205D03*
D729*
X005573Y020207D03*
D730*
X005573Y020209D03*
D731*
X005573Y020211D03*
D732*
X005573Y020213D03*
D733*
X005574Y020215D03*
D734*
X005573Y020217D03*
D735*
X005573Y020219D03*
D736*
X005573Y020221D03*
D737*
X005574Y020223D03*
D738*
X005572Y020225D03*
D739*
X005573Y020226D03*
D740*
X005574Y020228D03*
M02*
