%
M48
M72
T01C0.0197
T02C0.0320
T03C0.0354
T04C0.1850
%
T01
X4038Y4725
X5975Y4788
X7725Y4725
X8350Y4600
X9975Y4475
X10725Y4600
X8600Y6663
X5663Y10288
X3725Y10975
X3100Y14600
X1475Y14850
X2600Y17725
X5725Y17913
X9475Y16225
X10038Y18038
X13100Y18600
X12538Y21100
X18663Y15350
X20600Y15350
X22225Y15288
X21413Y10038
X19600Y9850
X19600Y6163
X20600Y5600
X22163Y5788
X16100Y14538
X21975Y21038
X1600Y6163
T02
X1725Y7600
X1725Y8600
X1725Y9600
X1725Y10600
X1725Y11600
X1725Y12600
X1725Y13600
X4725Y13600
X4725Y12600
X4725Y11600
X4725Y10600
X4725Y9600
X4725Y8600
X4725Y7600
X3850Y6100
X6600Y7600
X7600Y7600
X8600Y7600
X9600Y7600
X10600Y7600
X11600Y7600
X12600Y7600
X13600Y7600
X14600Y7600
X15600Y7600
X16600Y7600
X17600Y7600
X18600Y7600
X19600Y7600
X20600Y7600
X21600Y7600
X21600Y13600
X20600Y13600
X19600Y13600
X18600Y13600
X17600Y13600
X16600Y13600
X15600Y13600
X14600Y13600
X13600Y13600
X12600Y13600
X11600Y13600
X10600Y13600
X9600Y13600
X8600Y13600
X7600Y13600
X6600Y13600
X7850Y6100
X14600Y16475
X15600Y16475
X16600Y16475
X17600Y16475
X18600Y16475
X19600Y16475
X20600Y16475
X21600Y16475
X21600Y19475
X20600Y19475
X19600Y19475
X18600Y19475
X17600Y19475
X16600Y19475
X15600Y19475
X14600Y19475
T03
X4225Y15600
X2225Y15600
T04
X11596Y17547
M30
