G75*
%MOIN*%
%OFA0B0*%
%FSLAX24Y24*%
%IPPOS*%
%LPD*%
%AMOC8*
5,1,8,0,0,1.08239X$1,22.5*
%
%ADD10C,0.0000*%
%ADD11OC8,0.0560*%
%ADD12C,0.0480*%
%ADD13R,0.0748X0.3150*%
%ADD14C,0.0320*%
%ADD15C,0.0100*%
%ADD16C,0.0317*%
%ADD17C,0.0240*%
%ADD18C,0.0200*%
D10*
X000100Y000100D02*
X000100Y021998D01*
X023100Y021998D01*
X023100Y000100D01*
X000100Y000100D01*
X010671Y017547D02*
X010673Y017607D01*
X010679Y017668D01*
X010689Y017727D01*
X010703Y017786D01*
X010720Y017844D01*
X010741Y017901D01*
X010766Y017956D01*
X010795Y018009D01*
X010827Y018061D01*
X010862Y018110D01*
X010901Y018157D01*
X010942Y018201D01*
X010986Y018242D01*
X011033Y018281D01*
X011082Y018316D01*
X011133Y018348D01*
X011187Y018377D01*
X011242Y018402D01*
X011299Y018423D01*
X011357Y018440D01*
X011416Y018454D01*
X011475Y018464D01*
X011536Y018470D01*
X011596Y018472D01*
X011656Y018470D01*
X011717Y018464D01*
X011776Y018454D01*
X011835Y018440D01*
X011893Y018423D01*
X011950Y018402D01*
X012005Y018377D01*
X012058Y018348D01*
X012110Y018316D01*
X012159Y018281D01*
X012206Y018242D01*
X012250Y018201D01*
X012291Y018157D01*
X012330Y018110D01*
X012365Y018061D01*
X012397Y018010D01*
X012426Y017956D01*
X012451Y017901D01*
X012472Y017844D01*
X012489Y017786D01*
X012503Y017727D01*
X012513Y017668D01*
X012519Y017607D01*
X012521Y017547D01*
X012519Y017487D01*
X012513Y017426D01*
X012503Y017367D01*
X012489Y017308D01*
X012472Y017250D01*
X012451Y017193D01*
X012426Y017138D01*
X012397Y017085D01*
X012365Y017033D01*
X012330Y016984D01*
X012291Y016937D01*
X012250Y016893D01*
X012206Y016852D01*
X012159Y016813D01*
X012110Y016778D01*
X012059Y016746D01*
X012005Y016717D01*
X011950Y016692D01*
X011893Y016671D01*
X011835Y016654D01*
X011776Y016640D01*
X011717Y016630D01*
X011656Y016624D01*
X011596Y016622D01*
X011536Y016624D01*
X011475Y016630D01*
X011416Y016640D01*
X011357Y016654D01*
X011299Y016671D01*
X011242Y016692D01*
X011187Y016717D01*
X011134Y016746D01*
X011082Y016778D01*
X011033Y016813D01*
X010986Y016852D01*
X010942Y016893D01*
X010901Y016937D01*
X010862Y016984D01*
X010827Y017033D01*
X010795Y017084D01*
X010766Y017138D01*
X010741Y017193D01*
X010720Y017250D01*
X010703Y017308D01*
X010689Y017367D01*
X010679Y017426D01*
X010673Y017487D01*
X010671Y017547D01*
D11*
X004225Y015600D03*
X002225Y015600D03*
X003850Y006100D03*
X007850Y006100D03*
D12*
X007600Y007360D02*
X007600Y007840D01*
X006600Y007840D02*
X006600Y007360D01*
X004965Y007600D02*
X004485Y007600D01*
X004485Y008600D02*
X004965Y008600D01*
X004965Y009600D02*
X004485Y009600D01*
X004485Y010600D02*
X004965Y010600D01*
X004965Y011600D02*
X004485Y011600D01*
X004485Y012600D02*
X004965Y012600D01*
X004965Y013600D02*
X004485Y013600D01*
X006600Y013360D02*
X006600Y013840D01*
X007600Y013840D02*
X007600Y013360D01*
X008600Y013360D02*
X008600Y013840D01*
X009600Y013840D02*
X009600Y013360D01*
X010600Y013360D02*
X010600Y013840D01*
X011600Y013840D02*
X011600Y013360D01*
X012600Y013360D02*
X012600Y013840D01*
X013600Y013840D02*
X013600Y013360D01*
X014600Y013360D02*
X014600Y013840D01*
X015600Y013840D02*
X015600Y013360D01*
X016600Y013360D02*
X016600Y013840D01*
X017600Y013840D02*
X017600Y013360D01*
X018600Y013360D02*
X018600Y013840D01*
X019600Y013840D02*
X019600Y013360D01*
X020600Y013360D02*
X020600Y013840D01*
X021600Y013840D02*
X021600Y013360D01*
X021600Y016235D02*
X021600Y016715D01*
X020600Y016715D02*
X020600Y016235D01*
X019600Y016235D02*
X019600Y016715D01*
X018600Y016715D02*
X018600Y016235D01*
X017600Y016235D02*
X017600Y016715D01*
X016600Y016715D02*
X016600Y016235D01*
X015600Y016235D02*
X015600Y016715D01*
X014600Y016715D02*
X014600Y016235D01*
X014600Y019235D02*
X014600Y019715D01*
X015600Y019715D02*
X015600Y019235D01*
X016600Y019235D02*
X016600Y019715D01*
X017600Y019715D02*
X017600Y019235D01*
X018600Y019235D02*
X018600Y019715D01*
X019600Y019715D02*
X019600Y019235D01*
X020600Y019235D02*
X020600Y019715D01*
X021600Y019715D02*
X021600Y019235D01*
X021600Y007840D02*
X021600Y007360D01*
X020600Y007360D02*
X020600Y007840D01*
X019600Y007840D02*
X019600Y007360D01*
X018600Y007360D02*
X018600Y007840D01*
X017600Y007840D02*
X017600Y007360D01*
X016600Y007360D02*
X016600Y007840D01*
X015600Y007840D02*
X015600Y007360D01*
X014600Y007360D02*
X014600Y007840D01*
X013600Y007840D02*
X013600Y007360D01*
X012600Y007360D02*
X012600Y007840D01*
X011600Y007840D02*
X011600Y007360D01*
X010600Y007360D02*
X010600Y007840D01*
X009600Y007840D02*
X009600Y007360D01*
X008600Y007360D02*
X008600Y007840D01*
X001965Y007600D02*
X001485Y007600D01*
X001485Y008600D02*
X001965Y008600D01*
X001965Y009600D02*
X001485Y009600D01*
X001485Y010600D02*
X001965Y010600D01*
X001965Y011600D02*
X001485Y011600D01*
X001485Y012600D02*
X001965Y012600D01*
X001965Y013600D02*
X001485Y013600D01*
D13*
X001100Y001913D03*
X002100Y001913D03*
X003100Y001913D03*
X004100Y001913D03*
X005100Y001913D03*
X006100Y001913D03*
X007100Y001913D03*
X008100Y001913D03*
X009100Y001913D03*
X010100Y001913D03*
X011100Y001913D03*
X012100Y001913D03*
X013100Y001913D03*
X014100Y001913D03*
X015100Y001913D03*
X016100Y001913D03*
X017100Y001913D03*
X018100Y001913D03*
X019100Y001913D03*
X020100Y001913D03*
X021100Y001913D03*
X022100Y001913D03*
D14*
X022100Y003850D01*
X022725Y004475D01*
X022725Y007350D01*
X022475Y007600D01*
X021600Y007600D01*
X022725Y007350D02*
X022725Y016225D01*
X022475Y016475D01*
X021600Y016475D01*
X022725Y016225D02*
X022725Y021350D01*
X022475Y021600D01*
X000725Y021600D01*
X000475Y021350D01*
X000475Y015350D01*
X000725Y015600D01*
X002225Y015600D01*
X000475Y015350D02*
X000475Y007350D01*
X000725Y007600D01*
X001725Y007600D01*
X000475Y007350D02*
X000475Y004475D01*
X001100Y003850D01*
X001100Y001913D01*
X002100Y001913D02*
X002100Y004100D01*
X002350Y004350D01*
X002850Y004350D01*
X003100Y004100D01*
X003100Y005725D01*
X003475Y006100D01*
X003850Y006100D01*
X006350Y006100D01*
X006600Y006350D01*
X006600Y007600D01*
X003100Y004100D02*
X003100Y001913D01*
X007600Y013600D02*
X007600Y014350D01*
X009475Y016225D01*
X013225Y016225D01*
X013725Y016725D01*
X013725Y018600D01*
X014600Y019475D01*
D15*
X014150Y019548D02*
X013411Y018810D01*
X013355Y018674D01*
X013355Y016878D01*
X013072Y016595D01*
X012298Y016595D01*
X012318Y016606D01*
X012536Y016825D01*
X012691Y017093D01*
X012771Y017392D01*
X012771Y017702D01*
X012691Y018000D01*
X012536Y018268D01*
X012318Y018487D01*
X012050Y018642D01*
X011751Y018722D01*
X011441Y018722D01*
X011142Y018642D01*
X010874Y018487D01*
X010656Y018268D01*
X010501Y018000D01*
X010421Y017702D01*
X010421Y017392D01*
X010501Y017093D01*
X010656Y016825D01*
X010874Y016606D01*
X010894Y016595D01*
X009401Y016595D01*
X009265Y016539D01*
X009161Y016435D01*
X007322Y014595D01*
X007130Y014787D01*
X007037Y014880D01*
X006916Y014930D01*
X003266Y014930D01*
X003173Y014968D01*
X003027Y014968D01*
X002891Y014912D01*
X002788Y014809D01*
X002732Y014673D01*
X002732Y014527D01*
X002788Y014391D01*
X002891Y014288D01*
X003027Y014232D01*
X003173Y014232D01*
X003266Y014270D01*
X006462Y014270D01*
X006345Y014221D01*
X006219Y014095D01*
X006150Y013930D01*
X006150Y013270D01*
X006219Y013105D01*
X006345Y012979D01*
X006510Y012910D01*
X006690Y012910D01*
X006784Y012949D01*
X006770Y012916D01*
X006770Y012784D01*
X006820Y012663D01*
X007413Y012070D01*
X007534Y012020D01*
X010666Y012020D01*
X010787Y012070D01*
X010880Y012163D01*
X011380Y012663D01*
X011430Y012784D01*
X011430Y012916D01*
X011416Y012949D01*
X011510Y012910D01*
X011690Y012910D01*
X011784Y012949D01*
X011770Y012916D01*
X011770Y012862D01*
X010838Y011930D01*
X007112Y011930D01*
X005662Y013380D01*
X005541Y013430D01*
X005409Y013430D01*
X005376Y013416D01*
X005415Y013510D01*
X005415Y013690D01*
X005346Y013855D01*
X005220Y013981D01*
X005055Y014050D01*
X004395Y014050D01*
X004230Y013981D01*
X004104Y013855D01*
X004035Y013690D01*
X004035Y013510D01*
X004074Y013416D01*
X004041Y013430D01*
X003862Y013430D01*
X003412Y013880D01*
X003291Y013930D01*
X003159Y013930D01*
X003111Y013910D01*
X002291Y013910D01*
X002220Y013981D01*
X002055Y014050D01*
X001395Y014050D01*
X001230Y013981D01*
X001104Y013855D01*
X001035Y013690D01*
X001035Y013510D01*
X001104Y013345D01*
X001230Y013219D01*
X001395Y013150D01*
X002055Y013150D01*
X002220Y013219D01*
X002291Y013290D01*
X003068Y013290D01*
X003428Y012930D01*
X002271Y012930D01*
X002220Y012981D01*
X002055Y013050D01*
X001395Y013050D01*
X001230Y012981D01*
X001104Y012855D01*
X001035Y012690D01*
X001035Y012510D01*
X001104Y012345D01*
X001230Y012219D01*
X001395Y012150D01*
X002055Y012150D01*
X002220Y012219D01*
X002271Y012270D01*
X003428Y012270D01*
X003088Y011930D01*
X002271Y011930D01*
X002220Y011981D01*
X002055Y012050D01*
X001395Y012050D01*
X001230Y011981D01*
X001104Y011855D01*
X001035Y011690D01*
X001035Y011510D01*
X001104Y011345D01*
X001230Y011219D01*
X001395Y011150D01*
X002055Y011150D01*
X002220Y011219D01*
X002271Y011270D01*
X003291Y011270D01*
X003412Y011320D01*
X003862Y011770D01*
X004041Y011770D01*
X004074Y011784D01*
X004035Y011690D01*
X004035Y011510D01*
X004104Y011345D01*
X004230Y011219D01*
X004395Y011150D01*
X005055Y011150D01*
X005220Y011219D01*
X005271Y011270D01*
X005338Y011270D01*
X006770Y009838D01*
X006770Y008284D01*
X006784Y008251D01*
X006690Y008290D01*
X006510Y008290D01*
X006345Y008221D01*
X006219Y008095D01*
X006150Y007930D01*
X006150Y007270D01*
X006219Y007105D01*
X006230Y007094D01*
X006230Y006503D01*
X006197Y006470D01*
X004173Y006470D01*
X004053Y006590D01*
X003647Y006590D01*
X003527Y006470D01*
X003401Y006470D01*
X003265Y006414D01*
X003161Y006310D01*
X002890Y006039D01*
X002786Y005935D01*
X002730Y005799D01*
X002730Y004720D01*
X002276Y004720D01*
X002140Y004664D01*
X002036Y004560D01*
X001786Y004310D01*
X001730Y004174D01*
X001730Y003725D01*
X000350Y003725D01*
X000350Y021748D01*
X000600Y021748D01*
X000600Y019100D01*
X003538Y019100D01*
X003538Y021475D01*
X000788Y021475D01*
X000788Y021748D01*
X022850Y021748D01*
X022850Y003725D01*
X021430Y003725D01*
X021430Y006916D01*
X021410Y006964D01*
X021410Y007018D01*
X021415Y007014D01*
X021486Y006985D01*
X021562Y006970D01*
X021570Y006970D01*
X021570Y007570D01*
X021630Y007570D01*
X021630Y007630D01*
X021570Y007630D01*
X021570Y008230D01*
X021562Y008230D01*
X021486Y008215D01*
X021415Y008186D01*
X021410Y008182D01*
X021410Y008236D01*
X021430Y008284D01*
X021430Y008791D01*
X021380Y008912D01*
X020912Y009380D01*
X020791Y009430D01*
X018909Y009430D01*
X018888Y009421D01*
X021880Y012413D01*
X021930Y012534D01*
X021930Y013054D01*
X021981Y013105D01*
X022050Y013270D01*
X022050Y013930D01*
X021981Y014095D01*
X021930Y014146D01*
X021930Y014416D01*
X021880Y014537D01*
X021430Y014987D01*
X021430Y015853D01*
X021415Y015890D01*
X021415Y015889D01*
X021486Y015860D01*
X021427Y015860D01*
X021486Y015860D02*
X021562Y015845D01*
X021570Y015845D01*
X021570Y016445D01*
X021630Y016445D01*
X021630Y016505D01*
X021570Y016505D01*
X021570Y017105D01*
X021562Y017105D01*
X021486Y017090D01*
X021415Y017061D01*
X021410Y017057D01*
X021410Y017111D01*
X021430Y017159D01*
X021430Y017291D01*
X021380Y017412D01*
X019930Y018862D01*
X019930Y018929D01*
X019981Y018980D01*
X020050Y019145D01*
X020050Y019805D01*
X019981Y019970D01*
X019855Y020096D01*
X019738Y020145D01*
X020462Y020145D01*
X020345Y020096D01*
X020219Y019970D01*
X020150Y019805D01*
X020150Y019145D01*
X020219Y018980D01*
X020345Y018854D01*
X020510Y018785D01*
X020690Y018785D01*
X020855Y018854D01*
X020981Y018980D01*
X021050Y019145D01*
X021050Y019805D01*
X020981Y019970D01*
X020855Y020096D01*
X020738Y020145D01*
X021213Y020145D01*
X021270Y020088D01*
X021270Y020021D01*
X021219Y019970D01*
X021150Y019805D01*
X021150Y019145D01*
X021219Y018980D01*
X021345Y018854D01*
X021510Y018785D01*
X021690Y018785D01*
X021855Y018854D01*
X021981Y018980D01*
X022050Y019145D01*
X022050Y019805D01*
X021981Y019970D01*
X021930Y020021D01*
X021930Y020291D01*
X021880Y020412D01*
X021787Y020505D01*
X021537Y020755D01*
X021416Y020805D01*
X015284Y020805D01*
X015163Y020755D01*
X015070Y020662D01*
X014820Y020412D01*
X014770Y020291D01*
X014770Y020159D01*
X014784Y020126D01*
X014690Y020165D01*
X014510Y020165D01*
X014345Y020096D01*
X014219Y019970D01*
X014150Y019805D01*
X014150Y019548D01*
X014150Y019603D02*
X003538Y019603D01*
X003538Y019505D02*
X014106Y019505D01*
X014008Y019406D02*
X003538Y019406D01*
X003538Y019308D02*
X013909Y019308D01*
X013811Y019209D02*
X003538Y019209D01*
X003538Y019111D02*
X013712Y019111D01*
X013614Y019012D02*
X000350Y019012D01*
X000350Y018914D02*
X013515Y018914D01*
X013417Y018815D02*
X000350Y018815D01*
X000350Y018717D02*
X011421Y018717D01*
X011771Y018717D02*
X013373Y018717D01*
X013355Y018618D02*
X012091Y018618D01*
X012262Y018520D02*
X013355Y018520D01*
X013355Y018421D02*
X012384Y018421D01*
X012482Y018323D02*
X013355Y018323D01*
X013355Y018224D02*
X012562Y018224D01*
X012619Y018126D02*
X013355Y018126D01*
X013355Y018027D02*
X012676Y018027D01*
X012710Y017929D02*
X013355Y017929D01*
X013355Y017830D02*
X012737Y017830D01*
X012763Y017732D02*
X013355Y017732D01*
X013355Y017633D02*
X012771Y017633D01*
X012771Y017535D02*
X013355Y017535D01*
X013355Y017436D02*
X012771Y017436D01*
X012757Y017338D02*
X013355Y017338D01*
X013355Y017239D02*
X012730Y017239D01*
X012704Y017141D02*
X013355Y017141D01*
X013355Y017042D02*
X012662Y017042D01*
X012605Y016944D02*
X013355Y016944D01*
X013322Y016845D02*
X012548Y016845D01*
X012458Y016747D02*
X013223Y016747D01*
X013125Y016648D02*
X012359Y016648D01*
X010833Y016648D02*
X000350Y016648D01*
X000350Y016550D02*
X009292Y016550D01*
X009178Y016451D02*
X000350Y016451D01*
X000350Y016353D02*
X009079Y016353D01*
X008981Y016254D02*
X000350Y016254D01*
X000350Y016156D02*
X008882Y016156D01*
X008784Y016057D02*
X004461Y016057D01*
X004428Y016090D02*
X004022Y016090D01*
X003735Y015803D01*
X003735Y015397D01*
X004022Y015110D01*
X004428Y015110D01*
X004715Y015397D01*
X004715Y015803D01*
X004428Y016090D01*
X004559Y015959D02*
X008685Y015959D01*
X008587Y015860D02*
X004658Y015860D01*
X004715Y015762D02*
X008488Y015762D01*
X008390Y015663D02*
X004715Y015663D01*
X004715Y015565D02*
X008291Y015565D01*
X008193Y015466D02*
X004715Y015466D01*
X004686Y015368D02*
X008094Y015368D01*
X007996Y015269D02*
X004587Y015269D01*
X004489Y015171D02*
X007897Y015171D01*
X007799Y015072D02*
X000350Y015072D01*
X000350Y014974D02*
X007700Y014974D01*
X007602Y014875D02*
X007042Y014875D01*
X007140Y014777D02*
X007503Y014777D01*
X007405Y014678D02*
X007239Y014678D01*
X006309Y014186D02*
X000350Y014186D01*
X000350Y014284D02*
X002900Y014284D01*
X002796Y014383D02*
X000350Y014383D01*
X000350Y014481D02*
X002750Y014481D01*
X002732Y014580D02*
X000350Y014580D01*
X000350Y014678D02*
X002734Y014678D01*
X002774Y014777D02*
X000350Y014777D01*
X000350Y014875D02*
X002854Y014875D01*
X002502Y015269D02*
X003863Y015269D01*
X003961Y015171D02*
X002404Y015171D01*
X002403Y015170D02*
X002655Y015422D01*
X002655Y015561D01*
X002264Y015561D01*
X002264Y015639D01*
X002655Y015639D01*
X002655Y015778D01*
X002403Y016030D01*
X002264Y016030D01*
X002264Y015639D01*
X002186Y015639D01*
X002186Y016030D01*
X002047Y016030D01*
X001795Y015778D01*
X001795Y015639D01*
X002186Y015639D01*
X002186Y015561D01*
X002264Y015561D01*
X002264Y015170D01*
X002403Y015170D01*
X002264Y015171D02*
X002186Y015171D01*
X002186Y015170D02*
X002186Y015561D01*
X001795Y015561D01*
X001795Y015422D01*
X002047Y015170D01*
X002186Y015170D01*
X002186Y015269D02*
X002264Y015269D01*
X002264Y015368D02*
X002186Y015368D01*
X002186Y015466D02*
X002264Y015466D01*
X002264Y015565D02*
X003735Y015565D01*
X003735Y015663D02*
X002655Y015663D01*
X002655Y015762D02*
X003735Y015762D01*
X003792Y015860D02*
X002573Y015860D01*
X002475Y015959D02*
X003891Y015959D01*
X003989Y016057D02*
X000350Y016057D01*
X000350Y015959D02*
X001975Y015959D01*
X001877Y015860D02*
X000350Y015860D01*
X000350Y015762D02*
X001795Y015762D01*
X001795Y015663D02*
X000350Y015663D01*
X000350Y015565D02*
X002186Y015565D01*
X002186Y015663D02*
X002264Y015663D01*
X002264Y015762D02*
X002186Y015762D01*
X002186Y015860D02*
X002264Y015860D01*
X002264Y015959D02*
X002186Y015959D01*
X001795Y015466D02*
X000350Y015466D01*
X000350Y015368D02*
X001849Y015368D01*
X001948Y015269D02*
X000350Y015269D01*
X000350Y015171D02*
X002046Y015171D01*
X002601Y015368D02*
X003764Y015368D01*
X003735Y015466D02*
X002655Y015466D01*
X002203Y013989D02*
X004247Y013989D01*
X004139Y013890D02*
X003387Y013890D01*
X003500Y013792D02*
X004077Y013792D01*
X004036Y013693D02*
X003599Y013693D01*
X003697Y013595D02*
X004035Y013595D01*
X004041Y013496D02*
X003796Y013496D01*
X003256Y013102D02*
X000350Y013102D01*
X000350Y013004D02*
X001283Y013004D01*
X001154Y012905D02*
X000350Y012905D01*
X000350Y012807D02*
X001083Y012807D01*
X001043Y012708D02*
X000350Y012708D01*
X000350Y012610D02*
X001035Y012610D01*
X001035Y012511D02*
X000350Y012511D01*
X000350Y012413D02*
X001076Y012413D01*
X001135Y012314D02*
X000350Y012314D01*
X000350Y012216D02*
X001237Y012216D01*
X001320Y012019D02*
X000350Y012019D01*
X000350Y012117D02*
X003275Y012117D01*
X003177Y012019D02*
X002130Y012019D01*
X002213Y012216D02*
X003374Y012216D01*
X003815Y011723D02*
X004049Y011723D01*
X004035Y011625D02*
X003716Y011625D01*
X003618Y011526D02*
X004035Y011526D01*
X004069Y011428D02*
X003519Y011428D01*
X003421Y011329D02*
X004120Y011329D01*
X004218Y011231D02*
X002232Y011231D01*
X002094Y011034D02*
X004356Y011034D01*
X004395Y011050D02*
X004230Y010981D01*
X004104Y010855D01*
X004035Y010690D01*
X004035Y010510D01*
X004104Y010345D01*
X004230Y010219D01*
X004395Y010150D01*
X005055Y010150D01*
X005220Y010219D01*
X005346Y010345D01*
X005415Y010510D01*
X005415Y010690D01*
X005346Y010855D01*
X005220Y010981D01*
X005055Y011050D01*
X004395Y011050D01*
X004184Y010935D02*
X002266Y010935D01*
X002220Y010981D02*
X002055Y011050D01*
X001395Y011050D01*
X001230Y010981D01*
X001104Y010855D01*
X001035Y010690D01*
X001035Y010510D01*
X001104Y010345D01*
X001230Y010219D01*
X001395Y010150D01*
X002055Y010150D01*
X002220Y010219D01*
X002346Y010345D01*
X002415Y010510D01*
X002415Y010690D01*
X002346Y010855D01*
X002220Y010981D01*
X002354Y010837D02*
X004096Y010837D01*
X004055Y010738D02*
X002395Y010738D01*
X002415Y010640D02*
X004035Y010640D01*
X004035Y010541D02*
X002415Y010541D01*
X002387Y010443D02*
X004063Y010443D01*
X004105Y010344D02*
X002345Y010344D01*
X002247Y010246D02*
X004203Y010246D01*
X004230Y009981D02*
X004104Y009855D01*
X004035Y009690D01*
X004035Y009510D01*
X004104Y009345D01*
X004230Y009219D01*
X004395Y009150D01*
X005055Y009150D01*
X005220Y009219D01*
X005346Y009345D01*
X005415Y009510D01*
X005415Y009690D01*
X005346Y009855D01*
X005220Y009981D01*
X005055Y010050D01*
X004395Y010050D01*
X004230Y009981D01*
X004199Y009950D02*
X002251Y009950D01*
X002220Y009981D02*
X002055Y010050D01*
X001395Y010050D01*
X001230Y009981D01*
X001104Y009855D01*
X001035Y009690D01*
X001035Y009510D01*
X001104Y009345D01*
X001230Y009219D01*
X001395Y009150D01*
X002055Y009150D01*
X002220Y009219D01*
X002346Y009345D01*
X002415Y009510D01*
X002415Y009690D01*
X002346Y009855D01*
X002220Y009981D01*
X002058Y010049D02*
X004392Y010049D01*
X004102Y009852D02*
X002348Y009852D01*
X002389Y009753D02*
X004061Y009753D01*
X004035Y009655D02*
X002415Y009655D01*
X002415Y009556D02*
X004035Y009556D01*
X004057Y009458D02*
X002393Y009458D01*
X002352Y009359D02*
X004098Y009359D01*
X004188Y009261D02*
X002262Y009261D01*
X002084Y009162D02*
X004366Y009162D01*
X004395Y009050D02*
X004230Y008981D01*
X004104Y008855D01*
X004035Y008690D01*
X004035Y008510D01*
X004104Y008345D01*
X004230Y008219D01*
X004395Y008150D01*
X005055Y008150D01*
X005220Y008219D01*
X005346Y008345D01*
X005415Y008510D01*
X005415Y008690D01*
X005346Y008855D01*
X005220Y008981D01*
X005055Y009050D01*
X004395Y009050D01*
X004214Y008965D02*
X002236Y008965D01*
X002220Y008981D02*
X002055Y009050D01*
X001395Y009050D01*
X001230Y008981D01*
X001104Y008855D01*
X001035Y008690D01*
X001035Y008510D01*
X001104Y008345D01*
X001230Y008219D01*
X001395Y008150D01*
X002055Y008150D01*
X002220Y008219D01*
X002346Y008345D01*
X002415Y008510D01*
X002415Y008690D01*
X002346Y008855D01*
X002220Y008981D01*
X002335Y008867D02*
X004115Y008867D01*
X004068Y008768D02*
X002382Y008768D01*
X002415Y008670D02*
X004035Y008670D01*
X004035Y008571D02*
X002415Y008571D01*
X002399Y008473D02*
X004051Y008473D01*
X004092Y008374D02*
X002358Y008374D01*
X002277Y008276D02*
X004173Y008276D01*
X004330Y008177D02*
X002120Y008177D01*
X002079Y007975D02*
X002003Y007990D01*
X001755Y007990D01*
X001755Y007630D01*
X001695Y007630D01*
X001695Y007990D01*
X001447Y007990D01*
X001371Y007975D01*
X001300Y007946D01*
X001236Y007903D01*
X001182Y007849D01*
X001139Y007785D01*
X001110Y007714D01*
X001095Y007638D01*
X001095Y007630D01*
X001695Y007630D01*
X001695Y007570D01*
X001755Y007570D01*
X001755Y007630D01*
X002355Y007630D01*
X002355Y007638D01*
X002340Y007714D01*
X002311Y007785D01*
X002268Y007849D01*
X002214Y007903D01*
X002150Y007946D01*
X002079Y007975D01*
X002054Y007980D02*
X004229Y007980D01*
X004230Y007981D02*
X004104Y007855D01*
X004035Y007690D01*
X004035Y007510D01*
X004104Y007345D01*
X004230Y007219D01*
X004395Y007150D01*
X005055Y007150D01*
X005220Y007219D01*
X005346Y007345D01*
X005415Y007510D01*
X005415Y007690D01*
X005346Y007855D01*
X005220Y007981D01*
X005055Y008050D01*
X004395Y008050D01*
X004230Y007981D01*
X004130Y007882D02*
X002235Y007882D01*
X002311Y007783D02*
X004074Y007783D01*
X004035Y007685D02*
X002346Y007685D01*
X002355Y007570D02*
X001755Y007570D01*
X001755Y007210D01*
X002003Y007210D01*
X002079Y007225D01*
X002150Y007254D01*
X002214Y007297D01*
X002268Y007351D01*
X002311Y007415D01*
X002340Y007486D01*
X002355Y007562D01*
X002355Y007570D01*
X002340Y007488D02*
X004045Y007488D01*
X004035Y007586D02*
X001755Y007586D01*
X001695Y007586D02*
X000350Y007586D01*
X000350Y007488D02*
X001110Y007488D01*
X001110Y007486D02*
X001139Y007415D01*
X001182Y007351D01*
X001236Y007297D01*
X001300Y007254D01*
X001371Y007225D01*
X001447Y007210D01*
X001695Y007210D01*
X001695Y007570D01*
X001095Y007570D01*
X001095Y007562D01*
X001110Y007486D01*
X001157Y007389D02*
X000350Y007389D01*
X000350Y007291D02*
X001246Y007291D01*
X001104Y007685D02*
X000350Y007685D01*
X000350Y007783D02*
X001139Y007783D01*
X001215Y007882D02*
X000350Y007882D01*
X000350Y007980D02*
X001396Y007980D01*
X001330Y008177D02*
X000350Y008177D01*
X000350Y008079D02*
X006212Y008079D01*
X006171Y007980D02*
X005221Y007980D01*
X005320Y007882D02*
X006150Y007882D01*
X006150Y007783D02*
X005376Y007783D01*
X005415Y007685D02*
X006150Y007685D01*
X006150Y007586D02*
X005415Y007586D01*
X005405Y007488D02*
X006150Y007488D01*
X006150Y007389D02*
X005365Y007389D01*
X005292Y007291D02*
X006150Y007291D01*
X006183Y007192D02*
X005156Y007192D01*
X004294Y007192D02*
X000350Y007192D01*
X000350Y007094D02*
X006230Y007094D01*
X006230Y006995D02*
X000350Y006995D01*
X000350Y006897D02*
X006230Y006897D01*
X006230Y006798D02*
X000350Y006798D01*
X000350Y006700D02*
X006230Y006700D01*
X006230Y006601D02*
X000350Y006601D01*
X000350Y006503D02*
X003560Y006503D01*
X003256Y006404D02*
X000350Y006404D01*
X000350Y006306D02*
X003157Y006306D01*
X003059Y006207D02*
X000350Y006207D01*
X000350Y006109D02*
X002960Y006109D01*
X002862Y006010D02*
X000350Y006010D01*
X000350Y005912D02*
X002777Y005912D01*
X002736Y005813D02*
X000350Y005813D01*
X000350Y005715D02*
X002730Y005715D01*
X002730Y005616D02*
X000350Y005616D01*
X000350Y005518D02*
X002730Y005518D01*
X002730Y005419D02*
X000350Y005419D01*
X000350Y005321D02*
X002730Y005321D01*
X002730Y005222D02*
X000350Y005222D01*
X000350Y005124D02*
X002730Y005124D01*
X002730Y005025D02*
X000350Y005025D01*
X000350Y004927D02*
X002730Y004927D01*
X002730Y004828D02*
X000350Y004828D01*
X000350Y004730D02*
X002730Y004730D01*
X002108Y004631D02*
X000350Y004631D01*
X000350Y004533D02*
X002009Y004533D01*
X001911Y004434D02*
X000350Y004434D01*
X000350Y004336D02*
X001812Y004336D01*
X001756Y004237D02*
X000350Y004237D01*
X000350Y004139D02*
X001730Y004139D01*
X001730Y004040D02*
X000350Y004040D01*
X000350Y003942D02*
X001730Y003942D01*
X001730Y003843D02*
X000350Y003843D01*
X000350Y003745D02*
X001730Y003745D01*
X003470Y003745D02*
X006770Y003745D01*
X006770Y003725D02*
X003470Y003725D01*
X003470Y005572D01*
X003578Y005679D01*
X003647Y005610D01*
X004053Y005610D01*
X004173Y005730D01*
X006424Y005730D01*
X006560Y005786D01*
X006664Y005890D01*
X006770Y005997D01*
X006770Y003725D01*
X006770Y003843D02*
X003470Y003843D01*
X003470Y003942D02*
X006770Y003942D01*
X006770Y004040D02*
X003470Y004040D01*
X003470Y004139D02*
X006770Y004139D01*
X006770Y004237D02*
X003470Y004237D01*
X003470Y004336D02*
X006770Y004336D01*
X006770Y004434D02*
X003470Y004434D01*
X003470Y004533D02*
X006770Y004533D01*
X006770Y004631D02*
X003470Y004631D01*
X003470Y004730D02*
X006770Y004730D01*
X006770Y004828D02*
X003470Y004828D01*
X003470Y004927D02*
X006770Y004927D01*
X006770Y005025D02*
X003470Y005025D01*
X003470Y005124D02*
X006770Y005124D01*
X006770Y005222D02*
X003470Y005222D01*
X003470Y005321D02*
X006770Y005321D01*
X006770Y005419D02*
X003470Y005419D01*
X003470Y005518D02*
X006770Y005518D01*
X006770Y005616D02*
X004059Y005616D01*
X004157Y005715D02*
X006770Y005715D01*
X006770Y005813D02*
X006586Y005813D01*
X006685Y005912D02*
X006770Y005912D01*
X007430Y005827D02*
X007647Y005610D01*
X008053Y005610D01*
X008340Y005897D01*
X008340Y006303D01*
X008053Y006590D01*
X007647Y006590D01*
X007430Y006373D01*
X007430Y006916D01*
X007416Y006949D01*
X007510Y006910D01*
X007690Y006910D01*
X007855Y006979D01*
X007981Y007105D01*
X008050Y007270D01*
X008050Y007930D01*
X007981Y008095D01*
X007855Y008221D01*
X007690Y008290D01*
X007510Y008290D01*
X007416Y008251D01*
X007430Y008284D01*
X007430Y010041D01*
X007380Y010162D01*
X007287Y010255D01*
X007272Y010270D01*
X010916Y010270D01*
X011037Y010320D01*
X013270Y012553D01*
X013270Y012487D01*
X009913Y009130D01*
X009820Y009037D01*
X009770Y008916D01*
X009770Y008284D01*
X009784Y008251D01*
X009690Y008290D01*
X009510Y008290D01*
X009345Y008221D01*
X009219Y008095D01*
X009150Y007930D01*
X009150Y007270D01*
X009219Y007105D01*
X009270Y007054D01*
X009270Y006737D01*
X007609Y005076D01*
X007516Y005037D01*
X007430Y004951D01*
X007430Y005827D01*
X007430Y005813D02*
X007444Y005813D01*
X007430Y005715D02*
X007543Y005715D01*
X007641Y005616D02*
X007430Y005616D01*
X007430Y005518D02*
X008051Y005518D01*
X008059Y005616D02*
X008149Y005616D01*
X008157Y005715D02*
X008248Y005715D01*
X008256Y005813D02*
X008346Y005813D01*
X008340Y005912D02*
X008445Y005912D01*
X008543Y006010D02*
X008340Y006010D01*
X008340Y006109D02*
X008642Y006109D01*
X008740Y006207D02*
X008340Y006207D01*
X008337Y006306D02*
X008839Y006306D01*
X008937Y006404D02*
X008239Y006404D01*
X008140Y006503D02*
X009036Y006503D01*
X009134Y006601D02*
X007430Y006601D01*
X007430Y006503D02*
X007560Y006503D01*
X007461Y006404D02*
X007430Y006404D01*
X007430Y006700D02*
X009233Y006700D01*
X009270Y006798D02*
X007430Y006798D01*
X007430Y006897D02*
X009270Y006897D01*
X009270Y006995D02*
X008871Y006995D01*
X008855Y006979D02*
X008981Y007105D01*
X009050Y007270D01*
X009050Y007930D01*
X008981Y008095D01*
X008855Y008221D01*
X008690Y008290D01*
X008510Y008290D01*
X008345Y008221D01*
X008219Y008095D01*
X008150Y007930D01*
X008150Y007270D01*
X008219Y007105D01*
X008345Y006979D01*
X008510Y006910D01*
X008690Y006910D01*
X008855Y006979D01*
X008970Y007094D02*
X009230Y007094D01*
X009183Y007192D02*
X009017Y007192D01*
X009050Y007291D02*
X009150Y007291D01*
X009150Y007389D02*
X009050Y007389D01*
X009050Y007488D02*
X009150Y007488D01*
X009150Y007586D02*
X009050Y007586D01*
X009050Y007685D02*
X009150Y007685D01*
X009150Y007783D02*
X009050Y007783D01*
X009050Y007882D02*
X009150Y007882D01*
X009171Y007980D02*
X009029Y007980D01*
X008988Y008079D02*
X009212Y008079D01*
X009301Y008177D02*
X008899Y008177D01*
X008724Y008276D02*
X009476Y008276D01*
X009724Y008276D02*
X009774Y008276D01*
X009770Y008374D02*
X007430Y008374D01*
X007430Y008473D02*
X009770Y008473D01*
X009770Y008571D02*
X007430Y008571D01*
X007430Y008670D02*
X009770Y008670D01*
X009770Y008768D02*
X007430Y008768D01*
X007430Y008867D02*
X009770Y008867D01*
X009790Y008965D02*
X007430Y008965D01*
X007430Y009064D02*
X009847Y009064D01*
X009945Y009162D02*
X007430Y009162D01*
X007430Y009261D02*
X010044Y009261D01*
X010142Y009359D02*
X007430Y009359D01*
X007430Y009458D02*
X010241Y009458D01*
X010339Y009556D02*
X007430Y009556D01*
X007430Y009655D02*
X010438Y009655D01*
X010536Y009753D02*
X007430Y009753D01*
X007430Y009852D02*
X010635Y009852D01*
X010733Y009950D02*
X007430Y009950D01*
X007427Y010049D02*
X010832Y010049D01*
X010930Y010147D02*
X007386Y010147D01*
X007296Y010246D02*
X011029Y010246D01*
X011061Y010344D02*
X011127Y010344D01*
X011159Y010443D02*
X011226Y010443D01*
X011258Y010541D02*
X011324Y010541D01*
X011356Y010640D02*
X011423Y010640D01*
X011455Y010738D02*
X011521Y010738D01*
X011553Y010837D02*
X011620Y010837D01*
X011652Y010935D02*
X011718Y010935D01*
X011750Y011034D02*
X011817Y011034D01*
X011849Y011132D02*
X011915Y011132D01*
X011947Y011231D02*
X012014Y011231D01*
X012046Y011329D02*
X012112Y011329D01*
X012144Y011428D02*
X012211Y011428D01*
X012243Y011526D02*
X012309Y011526D01*
X012341Y011625D02*
X012408Y011625D01*
X012440Y011723D02*
X012506Y011723D01*
X012538Y011822D02*
X012605Y011822D01*
X012637Y011920D02*
X012703Y011920D01*
X012735Y012019D02*
X012802Y012019D01*
X012834Y012117D02*
X012900Y012117D01*
X012932Y012216D02*
X012999Y012216D01*
X013031Y012314D02*
X013097Y012314D01*
X013129Y012413D02*
X013196Y012413D01*
X013228Y012511D02*
X013270Y012511D01*
X011770Y012905D02*
X011430Y012905D01*
X011430Y012807D02*
X011715Y012807D01*
X011616Y012708D02*
X011398Y012708D01*
X011326Y012610D02*
X011518Y012610D01*
X011419Y012511D02*
X011228Y012511D01*
X011321Y012413D02*
X011129Y012413D01*
X011222Y012314D02*
X011031Y012314D01*
X011124Y012216D02*
X010932Y012216D01*
X011025Y012117D02*
X010834Y012117D01*
X010927Y012019D02*
X007023Y012019D01*
X006925Y012117D02*
X007366Y012117D01*
X007268Y012216D02*
X006826Y012216D01*
X006728Y012314D02*
X007169Y012314D01*
X007071Y012413D02*
X006629Y012413D01*
X006531Y012511D02*
X006972Y012511D01*
X006874Y012610D02*
X006432Y012610D01*
X006334Y012708D02*
X006802Y012708D01*
X006770Y012807D02*
X006235Y012807D01*
X006137Y012905D02*
X006770Y012905D01*
X006320Y013004D02*
X006038Y013004D01*
X005940Y013102D02*
X006222Y013102D01*
X006179Y013201D02*
X005841Y013201D01*
X005743Y013299D02*
X006150Y013299D01*
X006150Y013398D02*
X005619Y013398D01*
X005409Y013496D02*
X006150Y013496D01*
X006150Y013595D02*
X005415Y013595D01*
X005414Y013693D02*
X006150Y013693D01*
X006150Y013792D02*
X005373Y013792D01*
X005311Y013890D02*
X006150Y013890D01*
X006174Y013989D02*
X005203Y013989D01*
X006215Y014087D02*
X000350Y014087D01*
X000350Y013989D02*
X001247Y013989D01*
X001139Y013890D02*
X000350Y013890D01*
X000350Y013792D02*
X001077Y013792D01*
X001036Y013693D02*
X000350Y013693D01*
X000350Y013595D02*
X001035Y013595D01*
X001041Y013496D02*
X000350Y013496D01*
X000350Y013398D02*
X001082Y013398D01*
X001150Y013299D02*
X000350Y013299D01*
X000350Y013201D02*
X001273Y013201D01*
X002177Y013201D02*
X003158Y013201D01*
X003355Y013004D02*
X002167Y013004D01*
X001169Y011920D02*
X000350Y011920D01*
X000350Y011822D02*
X001090Y011822D01*
X001049Y011723D02*
X000350Y011723D01*
X000350Y011625D02*
X001035Y011625D01*
X001035Y011526D02*
X000350Y011526D01*
X000350Y011428D02*
X001069Y011428D01*
X001120Y011329D02*
X000350Y011329D01*
X000350Y011231D02*
X001218Y011231D01*
X001356Y011034D02*
X000350Y011034D01*
X000350Y011132D02*
X005476Y011132D01*
X005378Y011231D02*
X005232Y011231D01*
X005094Y011034D02*
X005575Y011034D01*
X005673Y010935D02*
X005266Y010935D01*
X005354Y010837D02*
X005772Y010837D01*
X005870Y010738D02*
X005395Y010738D01*
X005415Y010640D02*
X005969Y010640D01*
X006067Y010541D02*
X005415Y010541D01*
X005387Y010443D02*
X006166Y010443D01*
X006264Y010344D02*
X005345Y010344D01*
X005247Y010246D02*
X006363Y010246D01*
X006461Y010147D02*
X000350Y010147D01*
X000350Y010049D02*
X001392Y010049D01*
X001199Y009950D02*
X000350Y009950D01*
X000350Y009852D02*
X001102Y009852D01*
X001061Y009753D02*
X000350Y009753D01*
X000350Y009655D02*
X001035Y009655D01*
X001035Y009556D02*
X000350Y009556D01*
X000350Y009458D02*
X001057Y009458D01*
X001098Y009359D02*
X000350Y009359D01*
X000350Y009261D02*
X001188Y009261D01*
X001366Y009162D02*
X000350Y009162D01*
X000350Y009064D02*
X006770Y009064D01*
X006770Y009162D02*
X005084Y009162D01*
X005262Y009261D02*
X006770Y009261D01*
X006770Y009359D02*
X005352Y009359D01*
X005393Y009458D02*
X006770Y009458D01*
X006770Y009556D02*
X005415Y009556D01*
X005415Y009655D02*
X006770Y009655D01*
X006770Y009753D02*
X005389Y009753D01*
X005348Y009852D02*
X006757Y009852D01*
X006658Y009950D02*
X005251Y009950D01*
X005058Y010049D02*
X006560Y010049D01*
X006770Y008965D02*
X005236Y008965D01*
X005335Y008867D02*
X006770Y008867D01*
X006770Y008768D02*
X005382Y008768D01*
X005415Y008670D02*
X006770Y008670D01*
X006770Y008571D02*
X005415Y008571D01*
X005399Y008473D02*
X006770Y008473D01*
X006770Y008374D02*
X005358Y008374D01*
X005277Y008276D02*
X006476Y008276D01*
X006301Y008177D02*
X005120Y008177D01*
X004085Y007389D02*
X002293Y007389D01*
X002204Y007291D02*
X004158Y007291D01*
X004140Y006503D02*
X006229Y006503D01*
X007430Y005419D02*
X007952Y005419D01*
X007854Y005321D02*
X007430Y005321D01*
X007430Y005222D02*
X007755Y005222D01*
X007657Y005124D02*
X007430Y005124D01*
X007430Y005025D02*
X007504Y005025D01*
X007871Y006995D02*
X008329Y006995D01*
X008230Y007094D02*
X007970Y007094D01*
X008017Y007192D02*
X008183Y007192D01*
X008150Y007291D02*
X008050Y007291D01*
X008050Y007389D02*
X008150Y007389D01*
X008150Y007488D02*
X008050Y007488D01*
X008050Y007586D02*
X008150Y007586D01*
X008150Y007685D02*
X008050Y007685D01*
X008050Y007783D02*
X008150Y007783D01*
X008150Y007882D02*
X008050Y007882D01*
X008029Y007980D02*
X008171Y007980D01*
X008212Y008079D02*
X007988Y008079D01*
X007899Y008177D02*
X008301Y008177D01*
X008476Y008276D02*
X007724Y008276D01*
X007476Y008276D02*
X007426Y008276D01*
X006774Y008276D02*
X006724Y008276D01*
X003641Y005616D02*
X003514Y005616D01*
X001755Y007291D02*
X001695Y007291D01*
X001695Y007389D02*
X001755Y007389D01*
X001755Y007488D02*
X001695Y007488D01*
X001695Y007685D02*
X001755Y007685D01*
X001755Y007783D02*
X001695Y007783D01*
X001695Y007882D02*
X001755Y007882D01*
X001755Y007980D02*
X001695Y007980D01*
X001173Y008276D02*
X000350Y008276D01*
X000350Y008374D02*
X001092Y008374D01*
X001051Y008473D02*
X000350Y008473D01*
X000350Y008571D02*
X001035Y008571D01*
X001035Y008670D02*
X000350Y008670D01*
X000350Y008768D02*
X001068Y008768D01*
X001115Y008867D02*
X000350Y008867D01*
X000350Y008965D02*
X001214Y008965D01*
X001203Y010246D02*
X000350Y010246D01*
X000350Y010344D02*
X001105Y010344D01*
X001063Y010443D02*
X000350Y010443D01*
X000350Y010541D02*
X001035Y010541D01*
X001035Y010640D02*
X000350Y010640D01*
X000350Y010738D02*
X001055Y010738D01*
X001096Y010837D02*
X000350Y010837D01*
X000350Y010935D02*
X001184Y010935D01*
X000350Y016747D02*
X010734Y016747D01*
X010644Y016845D02*
X000350Y016845D01*
X000350Y016944D02*
X010587Y016944D01*
X010531Y017042D02*
X000350Y017042D01*
X000350Y017141D02*
X010488Y017141D01*
X010462Y017239D02*
X000350Y017239D01*
X000350Y017338D02*
X010435Y017338D01*
X010421Y017436D02*
X000350Y017436D01*
X000350Y017535D02*
X010421Y017535D01*
X010421Y017633D02*
X000350Y017633D01*
X000350Y017732D02*
X010429Y017732D01*
X010455Y017830D02*
X000350Y017830D01*
X000350Y017929D02*
X010482Y017929D01*
X010516Y018027D02*
X000350Y018027D01*
X000350Y018126D02*
X010573Y018126D01*
X010630Y018224D02*
X000350Y018224D01*
X000350Y018323D02*
X010710Y018323D01*
X010808Y018421D02*
X000350Y018421D01*
X000350Y018520D02*
X010930Y018520D01*
X011101Y018618D02*
X000350Y018618D01*
X000350Y019111D02*
X000600Y019111D01*
X000600Y019209D02*
X000350Y019209D01*
X000350Y019308D02*
X000600Y019308D01*
X000600Y019406D02*
X000350Y019406D01*
X000350Y019505D02*
X000600Y019505D01*
X000600Y019603D02*
X000350Y019603D01*
X000350Y019702D02*
X000600Y019702D01*
X000600Y019800D02*
X000350Y019800D01*
X000350Y019899D02*
X000600Y019899D01*
X000600Y019997D02*
X000350Y019997D01*
X000350Y020096D02*
X000600Y020096D01*
X000600Y020194D02*
X000350Y020194D01*
X000350Y020293D02*
X000600Y020293D01*
X000600Y020391D02*
X000350Y020391D01*
X000350Y020490D02*
X000600Y020490D01*
X000600Y020588D02*
X000350Y020588D01*
X000350Y020687D02*
X000600Y020687D01*
X000600Y020785D02*
X000350Y020785D01*
X000350Y020884D02*
X000600Y020884D01*
X000600Y020982D02*
X000350Y020982D01*
X000350Y021081D02*
X000600Y021081D01*
X000600Y021179D02*
X000350Y021179D01*
X000350Y021278D02*
X000600Y021278D01*
X000600Y021376D02*
X000350Y021376D01*
X000350Y021475D02*
X000600Y021475D01*
X000600Y021573D02*
X000350Y021573D01*
X000350Y021672D02*
X000600Y021672D01*
X000788Y021672D02*
X022850Y021672D01*
X022850Y021573D02*
X000788Y021573D01*
X000913Y021538D02*
X003163Y021538D01*
X003163Y019475D01*
X000913Y019475D01*
X000913Y021538D01*
X000913Y021475D02*
X003163Y021475D01*
X003163Y021376D02*
X000913Y021376D01*
X000913Y021278D02*
X003163Y021278D01*
X003163Y021179D02*
X000913Y021179D01*
X000913Y021081D02*
X003163Y021081D01*
X003163Y020982D02*
X000913Y020982D01*
X000913Y020884D02*
X003163Y020884D01*
X003163Y020785D02*
X000913Y020785D01*
X000913Y020687D02*
X003163Y020687D01*
X003163Y020588D02*
X000913Y020588D01*
X000913Y020490D02*
X003163Y020490D01*
X003163Y020391D02*
X000913Y020391D01*
X000913Y020293D02*
X003163Y020293D01*
X003163Y020194D02*
X000913Y020194D01*
X000913Y020096D02*
X003163Y020096D01*
X003163Y019997D02*
X000913Y019997D01*
X000913Y019899D02*
X003163Y019899D01*
X003163Y019800D02*
X000913Y019800D01*
X000913Y019702D02*
X003163Y019702D01*
X003163Y019603D02*
X000913Y019603D01*
X000913Y019505D02*
X003163Y019505D01*
X003538Y019702D02*
X014150Y019702D01*
X014150Y019800D02*
X003538Y019800D01*
X003538Y019899D02*
X014189Y019899D01*
X014246Y019997D02*
X003538Y019997D01*
X003538Y020096D02*
X014344Y020096D01*
X014770Y020194D02*
X003538Y020194D01*
X003538Y020293D02*
X014771Y020293D01*
X014812Y020391D02*
X003538Y020391D01*
X003538Y020490D02*
X014898Y020490D01*
X014996Y020588D02*
X003538Y020588D01*
X003538Y020687D02*
X015095Y020687D01*
X015236Y020785D02*
X003538Y020785D01*
X003538Y020884D02*
X022850Y020884D01*
X022850Y020982D02*
X003538Y020982D01*
X003538Y021081D02*
X022850Y021081D01*
X022850Y021179D02*
X003538Y021179D01*
X003538Y021278D02*
X022850Y021278D01*
X022850Y021376D02*
X003538Y021376D01*
X003538Y021475D02*
X022850Y021475D01*
X022850Y020785D02*
X021464Y020785D01*
X021605Y020687D02*
X022850Y020687D01*
X022850Y020588D02*
X021704Y020588D01*
X021802Y020490D02*
X022850Y020490D01*
X022850Y020391D02*
X021888Y020391D01*
X021929Y020293D02*
X022850Y020293D01*
X022850Y020194D02*
X021930Y020194D01*
X021930Y020096D02*
X022850Y020096D01*
X022850Y019997D02*
X021954Y019997D01*
X022011Y019899D02*
X022850Y019899D01*
X022850Y019800D02*
X022050Y019800D01*
X022050Y019702D02*
X022850Y019702D01*
X022850Y019603D02*
X022050Y019603D01*
X022050Y019505D02*
X022850Y019505D01*
X022850Y019406D02*
X022050Y019406D01*
X022050Y019308D02*
X022850Y019308D01*
X022850Y019209D02*
X022050Y019209D01*
X022036Y019111D02*
X022850Y019111D01*
X022850Y019012D02*
X021995Y019012D01*
X021915Y018914D02*
X022850Y018914D01*
X022850Y018815D02*
X021762Y018815D01*
X021438Y018815D02*
X020762Y018815D01*
X020915Y018914D02*
X021285Y018914D01*
X021205Y019012D02*
X020995Y019012D01*
X021036Y019111D02*
X021164Y019111D01*
X021150Y019209D02*
X021050Y019209D01*
X021050Y019308D02*
X021150Y019308D01*
X021150Y019406D02*
X021050Y019406D01*
X021050Y019505D02*
X021150Y019505D01*
X021150Y019603D02*
X021050Y019603D01*
X021050Y019702D02*
X021150Y019702D01*
X021150Y019800D02*
X021050Y019800D01*
X021011Y019899D02*
X021189Y019899D01*
X021246Y019997D02*
X020954Y019997D01*
X020856Y020096D02*
X021263Y020096D01*
X020344Y020096D02*
X019856Y020096D01*
X019954Y019997D02*
X020246Y019997D01*
X020189Y019899D02*
X020011Y019899D01*
X020050Y019800D02*
X020150Y019800D01*
X020150Y019702D02*
X020050Y019702D01*
X020050Y019603D02*
X020150Y019603D01*
X020150Y019505D02*
X020050Y019505D01*
X020050Y019406D02*
X020150Y019406D01*
X020150Y019308D02*
X020050Y019308D01*
X020050Y019209D02*
X020150Y019209D01*
X020164Y019111D02*
X020036Y019111D01*
X019995Y019012D02*
X020205Y019012D01*
X020285Y018914D02*
X019930Y018914D01*
X019977Y018815D02*
X020438Y018815D01*
X020174Y018618D02*
X022850Y018618D01*
X022850Y018520D02*
X020272Y018520D01*
X020371Y018421D02*
X022850Y018421D01*
X022850Y018323D02*
X020469Y018323D01*
X020568Y018224D02*
X022850Y018224D01*
X022850Y018126D02*
X020666Y018126D01*
X020765Y018027D02*
X022850Y018027D01*
X022850Y017929D02*
X020863Y017929D01*
X020962Y017830D02*
X022850Y017830D01*
X022850Y017732D02*
X021060Y017732D01*
X021159Y017633D02*
X022850Y017633D01*
X022850Y017535D02*
X021257Y017535D01*
X021356Y017436D02*
X022850Y017436D01*
X022850Y017338D02*
X021411Y017338D01*
X021430Y017239D02*
X022850Y017239D01*
X022850Y017141D02*
X021422Y017141D01*
X021570Y017042D02*
X021630Y017042D01*
X021630Y017105D02*
X021630Y016505D01*
X021990Y016505D01*
X021990Y016753D01*
X021975Y016829D01*
X021946Y016900D01*
X021903Y016964D01*
X021849Y017018D01*
X021785Y017061D01*
X021714Y017090D01*
X021638Y017105D01*
X021630Y017105D01*
X021630Y016944D02*
X021570Y016944D01*
X021570Y016845D02*
X021630Y016845D01*
X021630Y016747D02*
X021570Y016747D01*
X021570Y016648D02*
X021630Y016648D01*
X021630Y016550D02*
X021570Y016550D01*
X021630Y016451D02*
X022850Y016451D01*
X022850Y016353D02*
X021990Y016353D01*
X021990Y016445D02*
X021630Y016445D01*
X021630Y015845D01*
X021638Y015845D01*
X021714Y015860D01*
X022850Y015860D01*
X022850Y015762D02*
X021430Y015762D01*
X021430Y015663D02*
X022850Y015663D01*
X022850Y015565D02*
X021430Y015565D01*
X021430Y015466D02*
X022850Y015466D01*
X022850Y015368D02*
X021430Y015368D01*
X021430Y015269D02*
X022850Y015269D01*
X022850Y015171D02*
X021430Y015171D01*
X021430Y015072D02*
X022850Y015072D01*
X022850Y014974D02*
X021443Y014974D01*
X021542Y014875D02*
X022850Y014875D01*
X022850Y014777D02*
X021640Y014777D01*
X021739Y014678D02*
X022850Y014678D01*
X022850Y014580D02*
X021837Y014580D01*
X021903Y014481D02*
X022850Y014481D01*
X022850Y014383D02*
X021930Y014383D01*
X021930Y014284D02*
X022850Y014284D01*
X022850Y014186D02*
X021930Y014186D01*
X021985Y014087D02*
X022850Y014087D01*
X022850Y013989D02*
X022026Y013989D01*
X022050Y013890D02*
X022850Y013890D01*
X022850Y013792D02*
X022050Y013792D01*
X022050Y013693D02*
X022850Y013693D01*
X022850Y013595D02*
X022050Y013595D01*
X022050Y013496D02*
X022850Y013496D01*
X022850Y013398D02*
X022050Y013398D01*
X022050Y013299D02*
X022850Y013299D01*
X022850Y013201D02*
X022021Y013201D01*
X021978Y013102D02*
X022850Y013102D01*
X022850Y013004D02*
X021930Y013004D01*
X021930Y012905D02*
X022850Y012905D01*
X022850Y012807D02*
X021930Y012807D01*
X021930Y012708D02*
X022850Y012708D01*
X022850Y012610D02*
X021930Y012610D01*
X021920Y012511D02*
X022850Y012511D01*
X022850Y012413D02*
X021879Y012413D01*
X021781Y012314D02*
X022850Y012314D01*
X022850Y012216D02*
X021682Y012216D01*
X021584Y012117D02*
X022850Y012117D01*
X022850Y012019D02*
X021485Y012019D01*
X021387Y011920D02*
X022850Y011920D01*
X022850Y011822D02*
X021288Y011822D01*
X021190Y011723D02*
X022850Y011723D01*
X022850Y011625D02*
X021091Y011625D01*
X020993Y011526D02*
X022850Y011526D01*
X022850Y011428D02*
X020894Y011428D01*
X020796Y011329D02*
X022850Y011329D01*
X022850Y011231D02*
X020697Y011231D01*
X020599Y011132D02*
X022850Y011132D01*
X022850Y011034D02*
X020500Y011034D01*
X020402Y010935D02*
X022850Y010935D01*
X022850Y010837D02*
X020303Y010837D01*
X020205Y010738D02*
X022850Y010738D01*
X022850Y010640D02*
X020106Y010640D01*
X020008Y010541D02*
X022850Y010541D01*
X022850Y010443D02*
X019909Y010443D01*
X019811Y010344D02*
X022850Y010344D01*
X022850Y010246D02*
X019712Y010246D01*
X019614Y010147D02*
X022850Y010147D01*
X022850Y010049D02*
X019515Y010049D01*
X019417Y009950D02*
X022850Y009950D01*
X022850Y009852D02*
X019318Y009852D01*
X019220Y009753D02*
X022850Y009753D01*
X022850Y009655D02*
X019121Y009655D01*
X019023Y009556D02*
X022850Y009556D01*
X022850Y009458D02*
X018924Y009458D01*
X018385Y009852D02*
X018318Y009852D01*
X018286Y009753D02*
X018220Y009753D01*
X018188Y009655D02*
X018121Y009655D01*
X018089Y009556D02*
X018023Y009556D01*
X017991Y009458D02*
X017924Y009458D01*
X017913Y009380D02*
X017820Y009287D01*
X017770Y009166D01*
X017770Y008284D01*
X017784Y008251D01*
X017690Y008290D01*
X017510Y008290D01*
X017416Y008251D01*
X017430Y008284D01*
X017430Y008963D01*
X020880Y012413D01*
X020930Y012534D01*
X020930Y013054D01*
X020981Y013105D01*
X021050Y013270D01*
X021050Y013930D01*
X020981Y014095D01*
X020930Y014146D01*
X020930Y014416D01*
X020880Y014537D01*
X020430Y014987D01*
X020430Y015818D01*
X020510Y015785D01*
X020690Y015785D01*
X020770Y015818D01*
X020770Y014784D01*
X020820Y014663D01*
X020913Y014570D01*
X021270Y014213D01*
X021270Y014146D01*
X021219Y014095D01*
X021150Y013930D01*
X021150Y013270D01*
X021219Y013105D01*
X021270Y013054D01*
X021270Y012737D01*
X017913Y009380D01*
X017913Y009380D01*
X017892Y009359D02*
X017826Y009359D01*
X017809Y009261D02*
X017727Y009261D01*
X017770Y009162D02*
X017629Y009162D01*
X017530Y009064D02*
X017770Y009064D01*
X017770Y008965D02*
X017432Y008965D01*
X017430Y008867D02*
X017770Y008867D01*
X017770Y008768D02*
X017430Y008768D01*
X017430Y008670D02*
X017770Y008670D01*
X017770Y008571D02*
X017430Y008571D01*
X017430Y008473D02*
X017770Y008473D01*
X017770Y008374D02*
X017430Y008374D01*
X017426Y008276D02*
X017476Y008276D01*
X017724Y008276D02*
X017774Y008276D01*
X016784Y008251D02*
X016690Y008290D01*
X016510Y008290D01*
X016416Y008251D01*
X016430Y008284D01*
X016430Y008963D01*
X019880Y012413D01*
X019930Y012534D01*
X019930Y013054D01*
X019981Y013105D01*
X020050Y013270D01*
X020050Y013930D01*
X019981Y014095D01*
X019855Y014221D01*
X019690Y014290D01*
X019510Y014290D01*
X019345Y014221D01*
X019219Y014095D01*
X019150Y013930D01*
X019150Y013270D01*
X019219Y013105D01*
X019270Y013054D01*
X019270Y012737D01*
X015913Y009380D01*
X015820Y009287D01*
X015770Y009166D01*
X015770Y008284D01*
X015784Y008251D01*
X015690Y008290D01*
X015510Y008290D01*
X015416Y008251D01*
X015430Y008284D01*
X015430Y008963D01*
X018880Y012413D01*
X018930Y012534D01*
X018930Y013054D01*
X018981Y013105D01*
X019050Y013270D01*
X019050Y013930D01*
X018981Y014095D01*
X018855Y014221D01*
X018690Y014290D01*
X018510Y014290D01*
X018345Y014221D01*
X018219Y014095D01*
X018150Y013930D01*
X018150Y013270D01*
X018219Y013105D01*
X018270Y013054D01*
X018270Y012737D01*
X014913Y009380D01*
X014820Y009287D01*
X014770Y009166D01*
X014770Y008284D01*
X014784Y008251D01*
X014690Y008290D01*
X014510Y008290D01*
X014416Y008251D01*
X014430Y008284D01*
X014430Y008963D01*
X017880Y012413D01*
X017930Y012534D01*
X017930Y013054D01*
X017981Y013105D01*
X018050Y013270D01*
X018050Y013930D01*
X017981Y014095D01*
X017930Y014146D01*
X017930Y014416D01*
X017880Y014537D01*
X017430Y014987D01*
X017430Y015818D01*
X017510Y015785D01*
X017690Y015785D01*
X017855Y015854D01*
X017981Y015980D01*
X018050Y016145D01*
X018050Y016805D01*
X017981Y016970D01*
X017855Y017096D01*
X017690Y017165D01*
X017510Y017165D01*
X017416Y017126D01*
X017430Y017159D01*
X017430Y017791D01*
X017380Y017912D01*
X017287Y018005D01*
X016930Y018362D01*
X016930Y018929D01*
X016981Y018980D01*
X017050Y019145D01*
X017050Y019805D01*
X016981Y019970D01*
X016855Y020096D01*
X016738Y020145D01*
X017462Y020145D01*
X017345Y020096D01*
X017219Y019970D01*
X017150Y019805D01*
X017150Y019145D01*
X017219Y018980D01*
X017270Y018929D01*
X017270Y018284D01*
X017320Y018163D01*
X017413Y018070D01*
X017913Y017570D01*
X018034Y017520D01*
X019338Y017520D01*
X019696Y017162D01*
X019690Y017165D01*
X019510Y017165D01*
X019345Y017096D01*
X019219Y016970D01*
X019150Y016805D01*
X019150Y016145D01*
X019219Y015980D01*
X019345Y015854D01*
X019510Y015785D01*
X019690Y015785D01*
X019770Y015818D01*
X019770Y014784D01*
X019820Y014663D01*
X020270Y014213D01*
X020270Y014146D01*
X020219Y014095D01*
X020150Y013930D01*
X020150Y013270D01*
X020219Y013105D01*
X020270Y013054D01*
X020270Y012737D01*
X016820Y009287D01*
X016770Y009166D01*
X016770Y008284D01*
X016784Y008251D01*
X016774Y008276D02*
X016724Y008276D01*
X016770Y008374D02*
X016430Y008374D01*
X016430Y008473D02*
X016770Y008473D01*
X016770Y008571D02*
X016430Y008571D01*
X016430Y008670D02*
X016770Y008670D01*
X016770Y008768D02*
X016430Y008768D01*
X016430Y008867D02*
X016770Y008867D01*
X016770Y008965D02*
X016432Y008965D01*
X016530Y009064D02*
X016770Y009064D01*
X016770Y009162D02*
X016629Y009162D01*
X016727Y009261D02*
X016809Y009261D01*
X016826Y009359D02*
X016892Y009359D01*
X016924Y009458D02*
X016991Y009458D01*
X017023Y009556D02*
X017089Y009556D01*
X017121Y009655D02*
X017188Y009655D01*
X017220Y009753D02*
X017286Y009753D01*
X017318Y009852D02*
X017385Y009852D01*
X017417Y009950D02*
X017483Y009950D01*
X017515Y010049D02*
X017582Y010049D01*
X017614Y010147D02*
X017680Y010147D01*
X017712Y010246D02*
X017779Y010246D01*
X017811Y010344D02*
X017877Y010344D01*
X017909Y010443D02*
X017976Y010443D01*
X018008Y010541D02*
X018074Y010541D01*
X018106Y010640D02*
X018173Y010640D01*
X018205Y010738D02*
X018271Y010738D01*
X018303Y010837D02*
X018370Y010837D01*
X018402Y010935D02*
X018468Y010935D01*
X018500Y011034D02*
X018567Y011034D01*
X018599Y011132D02*
X018665Y011132D01*
X018697Y011231D02*
X018764Y011231D01*
X018796Y011329D02*
X018862Y011329D01*
X018894Y011428D02*
X018961Y011428D01*
X018993Y011526D02*
X019059Y011526D01*
X019091Y011625D02*
X019158Y011625D01*
X019190Y011723D02*
X019256Y011723D01*
X019288Y011822D02*
X019355Y011822D01*
X019387Y011920D02*
X019453Y011920D01*
X019485Y012019D02*
X019552Y012019D01*
X019584Y012117D02*
X019650Y012117D01*
X019682Y012216D02*
X019749Y012216D01*
X019781Y012314D02*
X019847Y012314D01*
X019879Y012413D02*
X019946Y012413D01*
X019920Y012511D02*
X020044Y012511D01*
X020143Y012610D02*
X019930Y012610D01*
X019930Y012708D02*
X020241Y012708D01*
X020270Y012807D02*
X019930Y012807D01*
X019930Y012905D02*
X020270Y012905D01*
X020270Y013004D02*
X019930Y013004D01*
X019978Y013102D02*
X020222Y013102D01*
X020179Y013201D02*
X020021Y013201D01*
X020050Y013299D02*
X020150Y013299D01*
X020150Y013398D02*
X020050Y013398D01*
X020050Y013496D02*
X020150Y013496D01*
X020150Y013595D02*
X020050Y013595D01*
X020050Y013693D02*
X020150Y013693D01*
X020150Y013792D02*
X020050Y013792D01*
X020050Y013890D02*
X020150Y013890D01*
X020174Y013989D02*
X020026Y013989D01*
X019985Y014087D02*
X020215Y014087D01*
X020270Y014186D02*
X019891Y014186D01*
X019704Y014284D02*
X020199Y014284D01*
X020101Y014383D02*
X017930Y014383D01*
X017930Y014284D02*
X018496Y014284D01*
X018704Y014284D02*
X019496Y014284D01*
X019309Y014186D02*
X018891Y014186D01*
X018985Y014087D02*
X019215Y014087D01*
X019174Y013989D02*
X019026Y013989D01*
X019050Y013890D02*
X019150Y013890D01*
X019150Y013792D02*
X019050Y013792D01*
X019050Y013693D02*
X019150Y013693D01*
X019150Y013595D02*
X019050Y013595D01*
X019050Y013496D02*
X019150Y013496D01*
X019150Y013398D02*
X019050Y013398D01*
X019050Y013299D02*
X019150Y013299D01*
X019179Y013201D02*
X019021Y013201D01*
X018978Y013102D02*
X019222Y013102D01*
X019270Y013004D02*
X018930Y013004D01*
X018930Y012905D02*
X019270Y012905D01*
X019270Y012807D02*
X018930Y012807D01*
X018930Y012708D02*
X019241Y012708D01*
X019143Y012610D02*
X018930Y012610D01*
X018920Y012511D02*
X019044Y012511D01*
X018946Y012413D02*
X018879Y012413D01*
X018847Y012314D02*
X018781Y012314D01*
X018749Y012216D02*
X018682Y012216D01*
X018650Y012117D02*
X018584Y012117D01*
X018552Y012019D02*
X018485Y012019D01*
X018453Y011920D02*
X018387Y011920D01*
X018355Y011822D02*
X018288Y011822D01*
X018256Y011723D02*
X018190Y011723D01*
X018158Y011625D02*
X018091Y011625D01*
X018059Y011526D02*
X017993Y011526D01*
X017961Y011428D02*
X017894Y011428D01*
X017862Y011329D02*
X017796Y011329D01*
X017764Y011231D02*
X017697Y011231D01*
X017665Y011132D02*
X017599Y011132D01*
X017567Y011034D02*
X017500Y011034D01*
X017468Y010935D02*
X017402Y010935D01*
X017370Y010837D02*
X017303Y010837D01*
X017271Y010738D02*
X017205Y010738D01*
X017173Y010640D02*
X017106Y010640D01*
X017074Y010541D02*
X017008Y010541D01*
X016976Y010443D02*
X016909Y010443D01*
X016877Y010344D02*
X016811Y010344D01*
X016779Y010246D02*
X016712Y010246D01*
X016680Y010147D02*
X016614Y010147D01*
X016582Y010049D02*
X016515Y010049D01*
X016483Y009950D02*
X016417Y009950D01*
X016385Y009852D02*
X016318Y009852D01*
X016286Y009753D02*
X016220Y009753D01*
X016188Y009655D02*
X016121Y009655D01*
X016089Y009556D02*
X016023Y009556D01*
X015991Y009458D02*
X015924Y009458D01*
X015892Y009359D02*
X015826Y009359D01*
X015809Y009261D02*
X015727Y009261D01*
X015770Y009162D02*
X015629Y009162D01*
X015530Y009064D02*
X015770Y009064D01*
X015770Y008965D02*
X015432Y008965D01*
X015430Y008867D02*
X015770Y008867D01*
X015770Y008768D02*
X015430Y008768D01*
X015430Y008670D02*
X015770Y008670D01*
X015770Y008571D02*
X015430Y008571D01*
X015430Y008473D02*
X015770Y008473D01*
X015770Y008374D02*
X015430Y008374D01*
X015426Y008276D02*
X015476Y008276D01*
X015724Y008276D02*
X015774Y008276D01*
X016426Y008276D02*
X016476Y008276D01*
X015188Y009655D02*
X015121Y009655D01*
X015089Y009556D02*
X015023Y009556D01*
X014991Y009458D02*
X014924Y009458D01*
X014892Y009359D02*
X014826Y009359D01*
X014809Y009261D02*
X014727Y009261D01*
X014770Y009162D02*
X014629Y009162D01*
X014530Y009064D02*
X014770Y009064D01*
X014770Y008965D02*
X014432Y008965D01*
X014430Y008867D02*
X014770Y008867D01*
X014770Y008768D02*
X014430Y008768D01*
X014430Y008670D02*
X014770Y008670D01*
X014770Y008571D02*
X014430Y008571D01*
X014430Y008473D02*
X014770Y008473D01*
X014770Y008374D02*
X014430Y008374D01*
X014426Y008276D02*
X014476Y008276D01*
X014724Y008276D02*
X014774Y008276D01*
X013784Y008251D02*
X013690Y008290D01*
X013510Y008290D01*
X013416Y008251D01*
X013430Y008284D01*
X013430Y008963D01*
X016880Y012413D01*
X016930Y012534D01*
X016930Y013054D01*
X016981Y013105D01*
X017050Y013270D01*
X017050Y013930D01*
X016981Y014095D01*
X016855Y014221D01*
X016690Y014290D01*
X016510Y014290D01*
X016345Y014221D01*
X016219Y014095D01*
X016150Y013930D01*
X016150Y013270D01*
X016219Y013105D01*
X016270Y013054D01*
X016270Y012737D01*
X015921Y012388D01*
X015930Y012409D01*
X015930Y013054D01*
X015981Y013105D01*
X016050Y013270D01*
X016050Y013930D01*
X015981Y014095D01*
X015855Y014221D01*
X015690Y014290D01*
X015510Y014290D01*
X015504Y014287D01*
X016380Y015163D01*
X016430Y015284D01*
X016430Y015818D01*
X016510Y015785D01*
X016690Y015785D01*
X016770Y015818D01*
X016770Y014784D01*
X016820Y014663D01*
X016913Y014570D01*
X017270Y014213D01*
X017270Y014146D01*
X017219Y014095D01*
X017150Y013930D01*
X017150Y013270D01*
X017219Y013105D01*
X017270Y013054D01*
X017270Y012737D01*
X013913Y009380D01*
X013820Y009287D01*
X013770Y009166D01*
X013770Y008284D01*
X013784Y008251D01*
X013774Y008276D02*
X013724Y008276D01*
X013770Y008374D02*
X013430Y008374D01*
X013430Y008473D02*
X013770Y008473D01*
X013770Y008571D02*
X013430Y008571D01*
X013430Y008670D02*
X013770Y008670D01*
X013770Y008768D02*
X013430Y008768D01*
X013430Y008867D02*
X013770Y008867D01*
X013770Y008965D02*
X013432Y008965D01*
X013530Y009064D02*
X013770Y009064D01*
X013770Y009162D02*
X013629Y009162D01*
X013727Y009261D02*
X013809Y009261D01*
X013826Y009359D02*
X013892Y009359D01*
X013913Y009380D02*
X013913Y009380D01*
X013924Y009458D02*
X013991Y009458D01*
X014023Y009556D02*
X014089Y009556D01*
X014121Y009655D02*
X014188Y009655D01*
X014220Y009753D02*
X014286Y009753D01*
X014318Y009852D02*
X014385Y009852D01*
X014417Y009950D02*
X014483Y009950D01*
X014515Y010049D02*
X014582Y010049D01*
X014614Y010147D02*
X014680Y010147D01*
X014712Y010246D02*
X014779Y010246D01*
X014811Y010344D02*
X014877Y010344D01*
X014909Y010443D02*
X014976Y010443D01*
X015008Y010541D02*
X015074Y010541D01*
X015106Y010640D02*
X015173Y010640D01*
X015205Y010738D02*
X015271Y010738D01*
X015303Y010837D02*
X015370Y010837D01*
X015402Y010935D02*
X015468Y010935D01*
X015500Y011034D02*
X015567Y011034D01*
X015599Y011132D02*
X015665Y011132D01*
X015697Y011231D02*
X015764Y011231D01*
X015796Y011329D02*
X015862Y011329D01*
X015894Y011428D02*
X015961Y011428D01*
X015993Y011526D02*
X016059Y011526D01*
X016091Y011625D02*
X016158Y011625D01*
X016190Y011723D02*
X016256Y011723D01*
X016288Y011822D02*
X016355Y011822D01*
X016387Y011920D02*
X016453Y011920D01*
X016485Y012019D02*
X016552Y012019D01*
X016584Y012117D02*
X016650Y012117D01*
X016682Y012216D02*
X016749Y012216D01*
X016781Y012314D02*
X016847Y012314D01*
X016879Y012413D02*
X016946Y012413D01*
X016920Y012511D02*
X017044Y012511D01*
X017143Y012610D02*
X016930Y012610D01*
X016930Y012708D02*
X017241Y012708D01*
X017270Y012807D02*
X016930Y012807D01*
X016930Y012905D02*
X017270Y012905D01*
X017270Y013004D02*
X016930Y013004D01*
X016978Y013102D02*
X017222Y013102D01*
X017179Y013201D02*
X017021Y013201D01*
X017050Y013299D02*
X017150Y013299D01*
X017150Y013398D02*
X017050Y013398D01*
X017050Y013496D02*
X017150Y013496D01*
X017150Y013595D02*
X017050Y013595D01*
X017050Y013693D02*
X017150Y013693D01*
X017150Y013792D02*
X017050Y013792D01*
X017050Y013890D02*
X017150Y013890D01*
X017174Y013989D02*
X017026Y013989D01*
X016985Y014087D02*
X017215Y014087D01*
X017270Y014186D02*
X016891Y014186D01*
X016704Y014284D02*
X017199Y014284D01*
X017101Y014383D02*
X015599Y014383D01*
X015698Y014481D02*
X017002Y014481D01*
X016913Y014570D02*
X016913Y014570D01*
X016904Y014580D02*
X015796Y014580D01*
X015895Y014678D02*
X016814Y014678D01*
X016773Y014777D02*
X015993Y014777D01*
X016092Y014875D02*
X016770Y014875D01*
X016770Y014974D02*
X016190Y014974D01*
X016289Y015072D02*
X016770Y015072D01*
X016770Y015171D02*
X016383Y015171D01*
X016424Y015269D02*
X016770Y015269D01*
X016770Y015368D02*
X016430Y015368D01*
X016430Y015466D02*
X016770Y015466D01*
X016770Y015565D02*
X016430Y015565D01*
X016430Y015663D02*
X016770Y015663D01*
X016770Y015762D02*
X016430Y015762D01*
X017430Y015762D02*
X019770Y015762D01*
X019770Y015663D02*
X017430Y015663D01*
X017430Y015565D02*
X019770Y015565D01*
X019770Y015466D02*
X017430Y015466D01*
X017430Y015368D02*
X019770Y015368D01*
X019770Y015269D02*
X017430Y015269D01*
X017430Y015171D02*
X019770Y015171D01*
X019770Y015072D02*
X017430Y015072D01*
X017443Y014974D02*
X019770Y014974D01*
X019770Y014875D02*
X017542Y014875D01*
X017640Y014777D02*
X019773Y014777D01*
X019814Y014678D02*
X017739Y014678D01*
X017837Y014580D02*
X019904Y014580D01*
X020002Y014481D02*
X017903Y014481D01*
X017930Y014186D02*
X018309Y014186D01*
X018215Y014087D02*
X017985Y014087D01*
X018026Y013989D02*
X018174Y013989D01*
X018150Y013890D02*
X018050Y013890D01*
X018050Y013792D02*
X018150Y013792D01*
X018150Y013693D02*
X018050Y013693D01*
X018050Y013595D02*
X018150Y013595D01*
X018150Y013496D02*
X018050Y013496D01*
X018050Y013398D02*
X018150Y013398D01*
X018150Y013299D02*
X018050Y013299D01*
X018021Y013201D02*
X018179Y013201D01*
X018222Y013102D02*
X017978Y013102D01*
X017930Y013004D02*
X018270Y013004D01*
X018270Y012905D02*
X017930Y012905D01*
X017930Y012807D02*
X018270Y012807D01*
X018241Y012708D02*
X017930Y012708D01*
X017930Y012610D02*
X018143Y012610D01*
X018044Y012511D02*
X017920Y012511D01*
X017946Y012413D02*
X017879Y012413D01*
X017847Y012314D02*
X017781Y012314D01*
X017749Y012216D02*
X017682Y012216D01*
X017650Y012117D02*
X017584Y012117D01*
X017552Y012019D02*
X017485Y012019D01*
X017453Y011920D02*
X017387Y011920D01*
X017355Y011822D02*
X017288Y011822D01*
X017256Y011723D02*
X017190Y011723D01*
X017158Y011625D02*
X017091Y011625D01*
X017059Y011526D02*
X016993Y011526D01*
X016961Y011428D02*
X016894Y011428D01*
X016862Y011329D02*
X016796Y011329D01*
X016764Y011231D02*
X016697Y011231D01*
X016665Y011132D02*
X016599Y011132D01*
X016567Y011034D02*
X016500Y011034D01*
X016468Y010935D02*
X016402Y010935D01*
X016370Y010837D02*
X016303Y010837D01*
X016271Y010738D02*
X016205Y010738D01*
X016173Y010640D02*
X016106Y010640D01*
X016074Y010541D02*
X016008Y010541D01*
X015976Y010443D02*
X015909Y010443D01*
X015877Y010344D02*
X015811Y010344D01*
X015779Y010246D02*
X015712Y010246D01*
X015680Y010147D02*
X015614Y010147D01*
X015582Y010049D02*
X015515Y010049D01*
X015483Y009950D02*
X015417Y009950D01*
X015385Y009852D02*
X015318Y009852D01*
X015286Y009753D02*
X015220Y009753D01*
X013476Y008276D02*
X013426Y008276D01*
X015930Y012413D02*
X015946Y012413D01*
X015930Y012511D02*
X016044Y012511D01*
X016143Y012610D02*
X015930Y012610D01*
X015930Y012708D02*
X016241Y012708D01*
X016270Y012807D02*
X015930Y012807D01*
X015930Y012905D02*
X016270Y012905D01*
X016270Y013004D02*
X015930Y013004D01*
X015978Y013102D02*
X016222Y013102D01*
X016179Y013201D02*
X016021Y013201D01*
X016050Y013299D02*
X016150Y013299D01*
X016150Y013398D02*
X016050Y013398D01*
X016050Y013496D02*
X016150Y013496D01*
X016150Y013595D02*
X016050Y013595D01*
X016050Y013693D02*
X016150Y013693D01*
X016150Y013792D02*
X016050Y013792D01*
X016050Y013890D02*
X016150Y013890D01*
X016174Y013989D02*
X016026Y013989D01*
X015985Y014087D02*
X016215Y014087D01*
X016309Y014186D02*
X015891Y014186D01*
X015704Y014284D02*
X016496Y014284D01*
X017861Y015860D02*
X018339Y015860D01*
X018345Y015854D02*
X018510Y015785D01*
X018690Y015785D01*
X018855Y015854D01*
X018981Y015980D01*
X019050Y016145D01*
X019050Y016805D01*
X018981Y016970D01*
X018855Y017096D01*
X018690Y017165D01*
X018510Y017165D01*
X018345Y017096D01*
X018219Y016970D01*
X018150Y016805D01*
X018150Y016145D01*
X018219Y015980D01*
X018345Y015854D01*
X018240Y015959D02*
X017960Y015959D01*
X018013Y016057D02*
X018187Y016057D01*
X018150Y016156D02*
X018050Y016156D01*
X018050Y016254D02*
X018150Y016254D01*
X018150Y016353D02*
X018050Y016353D01*
X018050Y016451D02*
X018150Y016451D01*
X018150Y016550D02*
X018050Y016550D01*
X018050Y016648D02*
X018150Y016648D01*
X018150Y016747D02*
X018050Y016747D01*
X018033Y016845D02*
X018167Y016845D01*
X018208Y016944D02*
X017992Y016944D01*
X017909Y017042D02*
X018291Y017042D01*
X018451Y017141D02*
X017749Y017141D01*
X017451Y017141D02*
X017422Y017141D01*
X017430Y017239D02*
X019619Y017239D01*
X019521Y017338D02*
X017430Y017338D01*
X017430Y017436D02*
X019422Y017436D01*
X019451Y017141D02*
X018749Y017141D01*
X018909Y017042D02*
X019291Y017042D01*
X019208Y016944D02*
X018992Y016944D01*
X019033Y016845D02*
X019167Y016845D01*
X019150Y016747D02*
X019050Y016747D01*
X019050Y016648D02*
X019150Y016648D01*
X019150Y016550D02*
X019050Y016550D01*
X019050Y016451D02*
X019150Y016451D01*
X019150Y016353D02*
X019050Y016353D01*
X019050Y016254D02*
X019150Y016254D01*
X019150Y016156D02*
X019050Y016156D01*
X019013Y016057D02*
X019187Y016057D01*
X019240Y015959D02*
X018960Y015959D01*
X018861Y015860D02*
X019339Y015860D01*
X020430Y015762D02*
X020770Y015762D01*
X020770Y015663D02*
X020430Y015663D01*
X020430Y015565D02*
X020770Y015565D01*
X020770Y015466D02*
X020430Y015466D01*
X020430Y015368D02*
X020770Y015368D01*
X020770Y015269D02*
X020430Y015269D01*
X020430Y015171D02*
X020770Y015171D01*
X020770Y015072D02*
X020430Y015072D01*
X020443Y014974D02*
X020770Y014974D01*
X020770Y014875D02*
X020542Y014875D01*
X020640Y014777D02*
X020773Y014777D01*
X020739Y014678D02*
X020814Y014678D01*
X020837Y014580D02*
X020904Y014580D01*
X020913Y014570D02*
X020913Y014570D01*
X020903Y014481D02*
X021002Y014481D01*
X020930Y014383D02*
X021101Y014383D01*
X021199Y014284D02*
X020930Y014284D01*
X020930Y014186D02*
X021270Y014186D01*
X021215Y014087D02*
X020985Y014087D01*
X021026Y013989D02*
X021174Y013989D01*
X021150Y013890D02*
X021050Y013890D01*
X021050Y013792D02*
X021150Y013792D01*
X021150Y013693D02*
X021050Y013693D01*
X021050Y013595D02*
X021150Y013595D01*
X021150Y013496D02*
X021050Y013496D01*
X021050Y013398D02*
X021150Y013398D01*
X021150Y013299D02*
X021050Y013299D01*
X021021Y013201D02*
X021179Y013201D01*
X021222Y013102D02*
X020978Y013102D01*
X020930Y013004D02*
X021270Y013004D01*
X021270Y012905D02*
X020930Y012905D01*
X020930Y012807D02*
X021270Y012807D01*
X021241Y012708D02*
X020930Y012708D01*
X020930Y012610D02*
X021143Y012610D01*
X021044Y012511D02*
X020920Y012511D01*
X020946Y012413D02*
X020879Y012413D01*
X020847Y012314D02*
X020781Y012314D01*
X020749Y012216D02*
X020682Y012216D01*
X020650Y012117D02*
X020584Y012117D01*
X020552Y012019D02*
X020485Y012019D01*
X020453Y011920D02*
X020387Y011920D01*
X020355Y011822D02*
X020288Y011822D01*
X020256Y011723D02*
X020190Y011723D01*
X020158Y011625D02*
X020091Y011625D01*
X020059Y011526D02*
X019993Y011526D01*
X019961Y011428D02*
X019894Y011428D01*
X019862Y011329D02*
X019796Y011329D01*
X019764Y011231D02*
X019697Y011231D01*
X019665Y011132D02*
X019599Y011132D01*
X019567Y011034D02*
X019500Y011034D01*
X019468Y010935D02*
X019402Y010935D01*
X019370Y010837D02*
X019303Y010837D01*
X019271Y010738D02*
X019205Y010738D01*
X019173Y010640D02*
X019106Y010640D01*
X019074Y010541D02*
X019008Y010541D01*
X018976Y010443D02*
X018909Y010443D01*
X018877Y010344D02*
X018811Y010344D01*
X018779Y010246D02*
X018712Y010246D01*
X018680Y010147D02*
X018614Y010147D01*
X018582Y010049D02*
X018515Y010049D01*
X018483Y009950D02*
X018417Y009950D01*
X019738Y008270D02*
X020213Y008270D01*
X020270Y008213D01*
X020270Y008146D01*
X020219Y008095D01*
X020150Y007930D01*
X020150Y007270D01*
X020219Y007105D01*
X020345Y006979D01*
X020510Y006910D01*
X020690Y006910D01*
X020784Y006949D01*
X020770Y006916D01*
X020770Y003725D01*
X020430Y003725D01*
X020430Y006416D01*
X020380Y006537D01*
X020287Y006630D01*
X019930Y006987D01*
X019930Y007054D01*
X019981Y007105D01*
X020050Y007270D01*
X020050Y007930D01*
X019981Y008095D01*
X019855Y008221D01*
X019738Y008270D01*
X019899Y008177D02*
X020270Y008177D01*
X020212Y008079D02*
X019988Y008079D01*
X020029Y007980D02*
X020171Y007980D01*
X020150Y007882D02*
X020050Y007882D01*
X020050Y007783D02*
X020150Y007783D01*
X020150Y007685D02*
X020050Y007685D01*
X020050Y007586D02*
X020150Y007586D01*
X020150Y007488D02*
X020050Y007488D01*
X020050Y007389D02*
X020150Y007389D01*
X020150Y007291D02*
X020050Y007291D01*
X020017Y007192D02*
X020183Y007192D01*
X020230Y007094D02*
X019970Y007094D01*
X019930Y006995D02*
X020329Y006995D01*
X020119Y006798D02*
X020770Y006798D01*
X020770Y006700D02*
X020217Y006700D01*
X020316Y006601D02*
X020770Y006601D01*
X020770Y006503D02*
X020394Y006503D01*
X020430Y006404D02*
X020770Y006404D01*
X020770Y006306D02*
X020430Y006306D01*
X020430Y006207D02*
X020770Y006207D01*
X020770Y006109D02*
X020430Y006109D01*
X020430Y006010D02*
X020770Y006010D01*
X020770Y005912D02*
X020430Y005912D01*
X020430Y005813D02*
X020770Y005813D01*
X020770Y005715D02*
X020430Y005715D01*
X020430Y005616D02*
X020770Y005616D01*
X020770Y005518D02*
X020430Y005518D01*
X020430Y005419D02*
X020770Y005419D01*
X020770Y005321D02*
X020430Y005321D01*
X020430Y005222D02*
X020770Y005222D01*
X020770Y005124D02*
X020430Y005124D01*
X020430Y005025D02*
X020770Y005025D01*
X020770Y004927D02*
X020430Y004927D01*
X020430Y004828D02*
X020770Y004828D01*
X020770Y004730D02*
X020430Y004730D01*
X020430Y004631D02*
X020770Y004631D01*
X020770Y004533D02*
X020430Y004533D01*
X020430Y004434D02*
X020770Y004434D01*
X020770Y004336D02*
X020430Y004336D01*
X020430Y004237D02*
X020770Y004237D01*
X020770Y004139D02*
X020430Y004139D01*
X020430Y004040D02*
X020770Y004040D01*
X020770Y003942D02*
X020430Y003942D01*
X020430Y003843D02*
X020770Y003843D01*
X020770Y003745D02*
X020430Y003745D01*
X019770Y003745D02*
X019430Y003745D01*
X019430Y003725D02*
X019770Y003725D01*
X019770Y006213D01*
X019430Y006553D01*
X019430Y003725D01*
X019430Y003843D02*
X019770Y003843D01*
X019770Y003942D02*
X019430Y003942D01*
X019430Y004040D02*
X019770Y004040D01*
X019770Y004139D02*
X019430Y004139D01*
X019430Y004237D02*
X019770Y004237D01*
X019770Y004336D02*
X019430Y004336D01*
X019430Y004434D02*
X019770Y004434D01*
X019770Y004533D02*
X019430Y004533D01*
X019430Y004631D02*
X019770Y004631D01*
X019770Y004730D02*
X019430Y004730D01*
X019430Y004828D02*
X019770Y004828D01*
X019770Y004927D02*
X019430Y004927D01*
X019430Y005025D02*
X019770Y005025D01*
X019770Y005124D02*
X019430Y005124D01*
X019430Y005222D02*
X019770Y005222D01*
X019770Y005321D02*
X019430Y005321D01*
X019430Y005419D02*
X019770Y005419D01*
X019770Y005518D02*
X019430Y005518D01*
X019430Y005616D02*
X019770Y005616D01*
X019770Y005715D02*
X019430Y005715D01*
X019430Y005813D02*
X019770Y005813D01*
X019770Y005912D02*
X019430Y005912D01*
X019430Y006010D02*
X019770Y006010D01*
X019770Y006109D02*
X019430Y006109D01*
X019430Y006207D02*
X019770Y006207D01*
X019678Y006306D02*
X019430Y006306D01*
X019430Y006404D02*
X019579Y006404D01*
X019481Y006503D02*
X019430Y006503D01*
X020020Y006897D02*
X020770Y006897D01*
X021410Y006995D02*
X021462Y006995D01*
X021430Y006897D02*
X022850Y006897D01*
X022850Y006995D02*
X021738Y006995D01*
X021714Y006985D02*
X021785Y007014D01*
X021849Y007057D01*
X021903Y007111D01*
X021946Y007175D01*
X021975Y007246D01*
X021990Y007322D01*
X021990Y007570D01*
X021630Y007570D01*
X021630Y006970D01*
X021638Y006970D01*
X021714Y006985D01*
X021630Y006995D02*
X021570Y006995D01*
X021570Y007094D02*
X021630Y007094D01*
X021630Y007192D02*
X021570Y007192D01*
X021570Y007291D02*
X021630Y007291D01*
X021630Y007389D02*
X021570Y007389D01*
X021570Y007488D02*
X021630Y007488D01*
X021630Y007586D02*
X022850Y007586D01*
X022850Y007488D02*
X021990Y007488D01*
X021990Y007389D02*
X022850Y007389D01*
X022850Y007291D02*
X021984Y007291D01*
X021953Y007192D02*
X022850Y007192D01*
X022850Y007094D02*
X021885Y007094D01*
X021430Y006798D02*
X022850Y006798D01*
X022850Y006700D02*
X021430Y006700D01*
X021430Y006601D02*
X022850Y006601D01*
X022850Y006503D02*
X021430Y006503D01*
X021430Y006404D02*
X022850Y006404D01*
X022850Y006306D02*
X021430Y006306D01*
X021430Y006207D02*
X022850Y006207D01*
X022850Y006109D02*
X021430Y006109D01*
X021430Y006010D02*
X022850Y006010D01*
X022850Y005912D02*
X021430Y005912D01*
X021430Y005813D02*
X022850Y005813D01*
X022850Y005715D02*
X021430Y005715D01*
X021430Y005616D02*
X022850Y005616D01*
X022850Y005518D02*
X021430Y005518D01*
X021430Y005419D02*
X022850Y005419D01*
X022850Y005321D02*
X021430Y005321D01*
X021430Y005222D02*
X022850Y005222D01*
X022850Y005124D02*
X021430Y005124D01*
X021430Y005025D02*
X022850Y005025D01*
X022850Y004927D02*
X021430Y004927D01*
X021430Y004828D02*
X022850Y004828D01*
X022850Y004730D02*
X021430Y004730D01*
X021430Y004631D02*
X022850Y004631D01*
X022850Y004533D02*
X021430Y004533D01*
X021430Y004434D02*
X022850Y004434D01*
X022850Y004336D02*
X021430Y004336D01*
X021430Y004237D02*
X022850Y004237D01*
X022850Y004139D02*
X021430Y004139D01*
X021430Y004040D02*
X022850Y004040D01*
X022850Y003942D02*
X021430Y003942D01*
X021430Y003843D02*
X022850Y003843D01*
X022850Y003745D02*
X021430Y003745D01*
X021630Y007630D02*
X021990Y007630D01*
X021990Y007878D01*
X021975Y007954D01*
X021946Y008025D01*
X021903Y008089D01*
X021849Y008143D01*
X021785Y008186D01*
X021714Y008215D01*
X021638Y008230D01*
X021630Y008230D01*
X021630Y007630D01*
X021630Y007685D02*
X021570Y007685D01*
X021570Y007783D02*
X021630Y007783D01*
X021630Y007882D02*
X021570Y007882D01*
X021570Y007980D02*
X021630Y007980D01*
X021630Y008079D02*
X021570Y008079D01*
X021570Y008177D02*
X021630Y008177D01*
X021798Y008177D02*
X022850Y008177D01*
X022850Y008079D02*
X021910Y008079D01*
X021964Y007980D02*
X022850Y007980D01*
X022850Y007882D02*
X021989Y007882D01*
X021990Y007783D02*
X022850Y007783D01*
X022850Y007685D02*
X021990Y007685D01*
X021426Y008276D02*
X022850Y008276D01*
X022850Y008374D02*
X021430Y008374D01*
X021430Y008473D02*
X022850Y008473D01*
X022850Y008571D02*
X021430Y008571D01*
X021430Y008670D02*
X022850Y008670D01*
X022850Y008768D02*
X021430Y008768D01*
X021399Y008867D02*
X022850Y008867D01*
X022850Y008965D02*
X021327Y008965D01*
X021228Y009064D02*
X022850Y009064D01*
X022850Y009162D02*
X021130Y009162D01*
X021031Y009261D02*
X022850Y009261D01*
X022850Y009359D02*
X020933Y009359D01*
X021570Y015860D02*
X021630Y015860D01*
X021714Y015860D02*
X021785Y015889D01*
X021849Y015932D01*
X021903Y015986D01*
X021946Y016050D01*
X021975Y016121D01*
X021990Y016197D01*
X021990Y016445D01*
X021990Y016550D02*
X022850Y016550D01*
X022850Y016648D02*
X021990Y016648D01*
X021990Y016747D02*
X022850Y016747D01*
X022850Y016845D02*
X021968Y016845D01*
X021916Y016944D02*
X022850Y016944D01*
X022850Y017042D02*
X021813Y017042D01*
X021630Y016353D02*
X021570Y016353D01*
X021570Y016254D02*
X021630Y016254D01*
X021630Y016156D02*
X021570Y016156D01*
X021570Y016057D02*
X021630Y016057D01*
X021630Y015959D02*
X021570Y015959D01*
X021875Y015959D02*
X022850Y015959D01*
X022850Y016057D02*
X021948Y016057D01*
X021982Y016156D02*
X022850Y016156D01*
X022850Y016254D02*
X021990Y016254D01*
X022850Y018717D02*
X020075Y018717D01*
X017999Y017535D02*
X017430Y017535D01*
X017430Y017633D02*
X017850Y017633D01*
X017752Y017732D02*
X017430Y017732D01*
X017414Y017830D02*
X017653Y017830D01*
X017555Y017929D02*
X017363Y017929D01*
X017287Y018005D02*
X017287Y018005D01*
X017265Y018027D02*
X017456Y018027D01*
X017413Y018070D02*
X017413Y018070D01*
X017358Y018126D02*
X017166Y018126D01*
X017068Y018224D02*
X017295Y018224D01*
X017270Y018323D02*
X016969Y018323D01*
X016930Y018421D02*
X017270Y018421D01*
X017270Y018520D02*
X016930Y018520D01*
X016930Y018618D02*
X017270Y018618D01*
X017270Y018717D02*
X016930Y018717D01*
X016930Y018815D02*
X017270Y018815D01*
X017270Y018914D02*
X016930Y018914D01*
X016995Y019012D02*
X017205Y019012D01*
X017164Y019111D02*
X017036Y019111D01*
X017050Y019209D02*
X017150Y019209D01*
X017150Y019308D02*
X017050Y019308D01*
X017050Y019406D02*
X017150Y019406D01*
X017150Y019505D02*
X017050Y019505D01*
X017050Y019603D02*
X017150Y019603D01*
X017150Y019702D02*
X017050Y019702D01*
X017050Y019800D02*
X017150Y019800D01*
X017189Y019899D02*
X017011Y019899D01*
X016954Y019997D02*
X017246Y019997D01*
X017344Y020096D02*
X016856Y020096D01*
D16*
X013100Y018600D03*
X012538Y021100D03*
X010038Y018038D03*
X009475Y016225D03*
X005725Y017913D03*
X002600Y017725D03*
X001475Y014850D03*
X003100Y014600D03*
X003725Y010975D03*
X005663Y010288D03*
X008600Y006663D03*
X007725Y004725D03*
X008350Y004600D03*
X009975Y004475D03*
X010725Y004600D03*
X005975Y004788D03*
X004038Y004725D03*
X001600Y006163D03*
X016100Y014538D03*
X018663Y015350D03*
X020600Y015350D03*
X022225Y015288D03*
X021413Y010038D03*
X019600Y009850D03*
X019600Y006163D03*
X020600Y005600D03*
X022163Y005788D03*
X021975Y021038D03*
D17*
X021350Y020475D02*
X021600Y020225D01*
X021600Y019475D01*
X021350Y020475D02*
X015350Y020475D01*
X015100Y020225D01*
X015600Y019475D02*
X015600Y018225D01*
X016100Y017725D01*
X016100Y017663D02*
X016100Y017225D01*
X017100Y017225D02*
X017100Y017725D01*
X016600Y018225D01*
X016600Y019475D01*
X017600Y019475D02*
X017600Y018350D01*
X018100Y017850D01*
X019475Y017850D01*
X020100Y017225D01*
X021100Y017225D02*
X019600Y018725D01*
X019600Y019475D01*
X020100Y015788D02*
X020100Y014850D01*
X020600Y014350D01*
X020600Y013600D01*
X020600Y012600D01*
X017100Y009100D01*
X017100Y008350D01*
X016100Y008350D02*
X016100Y009100D01*
X019600Y012600D01*
X019600Y013600D01*
X018600Y013600D02*
X018600Y012600D01*
X015100Y009100D01*
X015100Y008350D01*
X014100Y008350D02*
X014100Y009100D01*
X017600Y012600D01*
X017600Y013600D01*
X017600Y014350D01*
X017100Y014850D01*
X017100Y015725D01*
X017100Y015788D01*
X016100Y015788D02*
X016100Y015413D01*
X016100Y015350D02*
X015100Y014350D01*
X014850Y014600D01*
X013350Y014600D01*
X013100Y014350D01*
X013100Y014288D01*
X013600Y013600D02*
X013600Y012350D01*
X010100Y008850D01*
X010100Y008350D01*
X009600Y007600D02*
X009600Y006600D01*
X007725Y004725D01*
X008350Y004600D02*
X010100Y006350D01*
X010100Y006788D01*
X010100Y006850D01*
X011100Y006850D02*
X011100Y006538D01*
X011100Y006475D02*
X009100Y004475D01*
X009100Y001913D01*
X011100Y001913D02*
X011100Y003850D01*
X010975Y003975D01*
X010475Y003975D01*
X009975Y004475D01*
X010725Y004600D02*
X012100Y005975D01*
X012100Y006850D01*
X013100Y006850D02*
X013100Y005850D01*
X011100Y003850D01*
X014100Y002975D02*
X014100Y006850D01*
X015100Y006850D02*
X015100Y003163D01*
X016100Y003163D02*
X016100Y006850D01*
X017100Y006850D02*
X017100Y003100D01*
X018100Y002788D02*
X018100Y006850D01*
X018600Y007600D02*
X018600Y008725D01*
X018975Y009100D01*
X020725Y009100D01*
X021100Y008725D01*
X021100Y008663D02*
X021100Y008350D01*
X020600Y008350D02*
X020350Y008600D01*
X019350Y008600D01*
X019100Y008350D01*
X019600Y007600D02*
X019600Y006850D01*
X020100Y006350D01*
X020100Y001913D01*
X021100Y002725D02*
X021100Y006850D01*
X020600Y007600D02*
X020600Y008350D01*
X019100Y006850D02*
X019100Y002975D01*
X018100Y008350D02*
X018100Y009100D01*
X021600Y012600D01*
X021600Y013600D01*
X021600Y014350D01*
X021100Y014850D01*
X021100Y015788D01*
X016600Y013600D02*
X016600Y012600D01*
X013100Y009100D01*
X013100Y008350D01*
X012100Y008350D02*
X012100Y008975D01*
X015600Y012475D01*
X015600Y013600D01*
X015100Y014225D02*
X015100Y014413D01*
X014600Y015100D02*
X015100Y015600D01*
X015100Y015788D01*
X014600Y015850D02*
X014600Y016475D01*
X014600Y015850D02*
X014350Y015600D01*
X012100Y015600D01*
X011100Y014600D01*
X011100Y014538D01*
X011100Y014288D01*
X011100Y014350D02*
X011100Y014538D01*
X012100Y014350D02*
X012100Y014288D01*
X012100Y014350D02*
X012850Y015100D01*
X014600Y015100D01*
X015100Y017163D02*
X015100Y018725D01*
X015100Y012850D02*
X011100Y008850D01*
X011100Y008350D01*
X010850Y010600D02*
X013100Y012850D01*
X012100Y012850D02*
X012100Y012725D01*
X010975Y011600D01*
X006975Y011600D01*
X005475Y013100D01*
X004725Y012600D02*
X001725Y012600D01*
X001725Y011600D02*
X003225Y011600D01*
X003725Y012100D01*
X003975Y012100D01*
X004725Y011600D02*
X005475Y011600D01*
X007100Y009975D01*
X007100Y008350D01*
X007100Y006850D02*
X007100Y002788D01*
X007225Y010600D02*
X010850Y010600D01*
X010600Y012350D02*
X007600Y012350D01*
X007100Y012850D01*
X007100Y014350D02*
X006850Y014600D01*
X003100Y014600D01*
X003225Y013600D02*
X003725Y013100D01*
X003975Y013100D01*
X005475Y012100D02*
X005725Y012100D01*
X007225Y010600D01*
X010600Y012350D02*
X011100Y012850D01*
D18*
X011100Y014288D01*
X011100Y014350D01*
X012100Y014288D02*
X012100Y012850D01*
X013100Y012850D02*
X013100Y014288D01*
X015100Y014350D02*
X015100Y014225D01*
X015100Y012850D01*
X016100Y015350D02*
X016100Y015413D01*
X016100Y015788D02*
X016100Y017225D01*
X016100Y017663D02*
X016100Y017725D01*
X017100Y017225D02*
X017100Y015788D01*
X015100Y015788D02*
X015100Y017163D01*
X015100Y018725D02*
X015100Y020225D01*
X020100Y017225D02*
X020100Y015788D01*
X021100Y015788D02*
X021100Y017225D01*
X021100Y008725D02*
X021100Y008663D01*
X021100Y008350D02*
X021100Y006850D01*
X019100Y006850D02*
X019100Y008350D01*
X018100Y008350D02*
X018100Y006850D01*
X017100Y006850D02*
X017100Y008350D01*
X016100Y008350D02*
X016100Y006850D01*
X015100Y006850D02*
X015100Y008350D01*
X014100Y008350D02*
X014100Y006850D01*
X013100Y006850D02*
X013100Y008350D01*
X012100Y008350D02*
X012100Y006850D01*
X011100Y006850D02*
X011100Y008350D01*
X010100Y008350D02*
X010100Y006850D01*
X011100Y006538D02*
X011100Y006475D01*
X014100Y002975D02*
X014100Y001913D01*
X015100Y001913D02*
X015100Y003163D01*
X016100Y003163D02*
X016100Y001913D01*
X017100Y001913D02*
X017100Y003100D01*
X018100Y002788D02*
X018100Y001913D01*
X019100Y001913D02*
X019100Y002975D01*
X021100Y002725D02*
X021100Y001913D01*
X007100Y001913D02*
X007100Y002788D01*
X007100Y006850D02*
X007100Y008350D01*
X005475Y012100D02*
X003975Y012100D01*
X003975Y013100D02*
X005475Y013100D01*
X007100Y012850D02*
X007100Y014350D01*
X003225Y013600D02*
X001725Y013600D01*
M02*
