G75*
%MOIN*%
%OFA0B0*%
%FSLAX24Y24*%
%IPPOS*%
%LPD*%
%AMOC8*
5,1,8,0,0,1.08239X$1,22.5*
%
%ADD10C,0.0000*%
%ADD11C,0.0100*%
%ADD12C,0.0080*%
%ADD13C,0.0110*%
%ADD14C,0.0060*%
%ADD15C,0.0040*%
D10*
X000100Y000100D02*
X000100Y021998D01*
X023100Y021998D01*
X023100Y000100D01*
X000100Y000100D01*
X010671Y017547D02*
X010673Y017607D01*
X010679Y017668D01*
X010689Y017727D01*
X010703Y017786D01*
X010720Y017844D01*
X010741Y017901D01*
X010766Y017956D01*
X010795Y018009D01*
X010827Y018061D01*
X010862Y018110D01*
X010901Y018157D01*
X010942Y018201D01*
X010986Y018242D01*
X011033Y018281D01*
X011082Y018316D01*
X011133Y018348D01*
X011187Y018377D01*
X011242Y018402D01*
X011299Y018423D01*
X011357Y018440D01*
X011416Y018454D01*
X011475Y018464D01*
X011536Y018470D01*
X011596Y018472D01*
X011656Y018470D01*
X011717Y018464D01*
X011776Y018454D01*
X011835Y018440D01*
X011893Y018423D01*
X011950Y018402D01*
X012005Y018377D01*
X012058Y018348D01*
X012110Y018316D01*
X012159Y018281D01*
X012206Y018242D01*
X012250Y018201D01*
X012291Y018157D01*
X012330Y018110D01*
X012365Y018061D01*
X012397Y018010D01*
X012426Y017956D01*
X012451Y017901D01*
X012472Y017844D01*
X012489Y017786D01*
X012503Y017727D01*
X012513Y017668D01*
X012519Y017607D01*
X012521Y017547D01*
X012519Y017487D01*
X012513Y017426D01*
X012503Y017367D01*
X012489Y017308D01*
X012472Y017250D01*
X012451Y017193D01*
X012426Y017138D01*
X012397Y017085D01*
X012365Y017033D01*
X012330Y016984D01*
X012291Y016937D01*
X012250Y016893D01*
X012206Y016852D01*
X012159Y016813D01*
X012110Y016778D01*
X012059Y016746D01*
X012005Y016717D01*
X011950Y016692D01*
X011893Y016671D01*
X011835Y016654D01*
X011776Y016640D01*
X011717Y016630D01*
X011656Y016624D01*
X011596Y016622D01*
X011536Y016624D01*
X011475Y016630D01*
X011416Y016640D01*
X011357Y016654D01*
X011299Y016671D01*
X011242Y016692D01*
X011187Y016717D01*
X011134Y016746D01*
X011082Y016778D01*
X011033Y016813D01*
X010986Y016852D01*
X010942Y016893D01*
X010901Y016937D01*
X010862Y016984D01*
X010827Y017033D01*
X010795Y017084D01*
X010766Y017138D01*
X010741Y017193D01*
X010720Y017250D01*
X010703Y017308D01*
X010689Y017367D01*
X010679Y017426D01*
X010673Y017487D01*
X010671Y017547D01*
D11*
X006850Y017163D02*
X001038Y017163D01*
X001038Y018225D02*
X006850Y018225D01*
X003288Y019038D02*
X003288Y016225D01*
X000968Y004523D02*
X000781Y004336D01*
X000781Y003963D01*
X001155Y003963D02*
X001155Y004336D01*
X000968Y004523D01*
X001155Y004243D02*
X000781Y004243D01*
X011112Y004523D02*
X011112Y003963D01*
X011486Y003963D02*
X011486Y004523D01*
X011299Y004336D01*
X011112Y004523D01*
X022051Y004523D02*
X022051Y004430D01*
X022425Y004056D01*
X022425Y003963D01*
X022051Y003963D01*
X022051Y004523D02*
X022425Y004523D01*
D12*
X008781Y016210D02*
X008711Y016140D01*
X008571Y016140D01*
X008501Y016210D01*
X008501Y016280D01*
X008571Y016350D01*
X008711Y016350D01*
X008781Y016420D01*
X008781Y016490D01*
X008711Y016560D01*
X008571Y016560D01*
X008501Y016490D01*
X008320Y016420D02*
X008180Y016560D01*
X008180Y016140D01*
X008320Y016140D02*
X008040Y016140D01*
X006560Y016470D02*
X006480Y016390D01*
X006320Y016390D01*
X006240Y016470D01*
X006240Y016550D01*
X006320Y016630D01*
X006400Y016630D01*
X006320Y016630D02*
X006240Y016710D01*
X006240Y016790D01*
X006320Y016870D01*
X006480Y016870D01*
X006560Y016790D01*
X006044Y016790D02*
X005964Y016870D01*
X005804Y016870D01*
X005724Y016790D01*
X005724Y016710D01*
X006044Y016390D01*
X005724Y016390D01*
X005013Y016390D02*
X004773Y016390D01*
X004693Y016470D01*
X004693Y016630D01*
X004773Y016710D01*
X005013Y016710D01*
X005013Y016230D01*
X004497Y016390D02*
X004337Y016390D01*
X004417Y016390D02*
X004417Y016710D01*
X004497Y016710D01*
X004417Y016870D02*
X004417Y016950D01*
X004154Y016710D02*
X004154Y016390D01*
X004154Y016710D02*
X003913Y016710D01*
X003833Y016630D01*
X003833Y016390D01*
X002810Y016390D02*
X002490Y016710D01*
X002490Y016790D01*
X002570Y016870D01*
X002730Y016870D01*
X002810Y016790D01*
X002810Y016390D02*
X002490Y016390D01*
X002294Y016630D02*
X001974Y016630D01*
X001779Y016470D02*
X001699Y016390D01*
X001539Y016390D01*
X001458Y016470D01*
X001458Y016550D01*
X001539Y016630D01*
X001619Y016630D01*
X001539Y016630D02*
X001458Y016710D01*
X001458Y016790D01*
X001539Y016870D01*
X001699Y016870D01*
X001779Y016790D01*
X001779Y017453D02*
X001458Y017453D01*
X001458Y017773D02*
X001779Y017453D01*
X001974Y017693D02*
X002294Y017693D01*
X002490Y017453D02*
X002810Y017453D01*
X002650Y017453D02*
X002650Y017933D01*
X002810Y017773D01*
X002730Y018453D02*
X002810Y018533D01*
X002730Y018453D02*
X002570Y018453D01*
X002490Y018533D01*
X002490Y018613D01*
X002570Y018693D01*
X002730Y018693D01*
X002810Y018773D01*
X002810Y018853D01*
X002730Y018933D01*
X002570Y018933D01*
X002490Y018853D01*
X002294Y018773D02*
X002134Y018933D01*
X002134Y018453D01*
X002294Y018453D02*
X001974Y018453D01*
X001699Y017933D02*
X001539Y017933D01*
X001458Y017853D01*
X001458Y017773D01*
X001699Y017933D02*
X001779Y017853D01*
X003833Y017693D02*
X003833Y017453D01*
X004154Y017453D02*
X004154Y017773D01*
X003913Y017773D01*
X003833Y017693D01*
X004337Y017453D02*
X004497Y017453D01*
X004417Y017453D02*
X004417Y017773D01*
X004497Y017773D01*
X004417Y017933D02*
X004417Y018013D01*
X004693Y017693D02*
X004693Y017533D01*
X004773Y017453D01*
X005013Y017453D01*
X005013Y017292D02*
X005013Y017773D01*
X004773Y017773D01*
X004693Y017693D01*
X005724Y017773D02*
X005804Y017693D01*
X005964Y017693D01*
X006044Y017773D01*
X006044Y017853D01*
X005964Y017933D01*
X005804Y017933D01*
X005724Y017853D01*
X005724Y017773D01*
X005804Y017693D02*
X005724Y017613D01*
X005724Y017533D01*
X005804Y017453D01*
X005964Y017453D01*
X006044Y017533D01*
X006044Y017613D01*
X005964Y017693D01*
X006240Y017773D02*
X006240Y017853D01*
X006320Y017933D01*
X006480Y017933D01*
X006560Y017853D01*
X006240Y017773D02*
X006560Y017453D01*
X006240Y017453D01*
D13*
X010704Y012358D02*
X010704Y011768D01*
X011097Y011768D02*
X011097Y012358D01*
X010901Y012161D01*
X010704Y012358D01*
X011348Y012260D02*
X011348Y011866D01*
X011447Y011768D01*
X011644Y011768D01*
X011742Y011866D01*
X011742Y012260D01*
X011644Y012358D01*
X011447Y012358D01*
X011348Y012260D01*
X011993Y012260D02*
X011993Y012063D01*
X012091Y011964D01*
X012387Y011964D01*
X012387Y011768D02*
X012387Y012358D01*
X012091Y012358D01*
X011993Y012260D01*
X012190Y011964D02*
X011993Y011768D01*
X011984Y011308D02*
X012181Y011308D01*
X012279Y011210D01*
X011984Y011308D02*
X011885Y011210D01*
X011885Y011111D01*
X012279Y010718D01*
X011885Y010718D01*
X011635Y010816D02*
X011536Y010718D01*
X011339Y010718D01*
X011241Y010816D01*
X011241Y011013D01*
X011339Y011111D01*
X011438Y011111D01*
X011635Y011013D01*
X011635Y011308D01*
X011241Y011308D01*
X010990Y011013D02*
X010695Y011013D01*
X010596Y010914D01*
X010596Y010816D01*
X010695Y010718D01*
X010892Y010718D01*
X010990Y010816D01*
X010990Y011013D01*
X010793Y011210D01*
X010596Y011308D01*
X009701Y011308D02*
X009701Y010718D01*
X009701Y010914D02*
X009406Y011111D01*
X009164Y011013D02*
X008869Y011013D01*
X008770Y010914D01*
X008770Y010816D01*
X008869Y010718D01*
X009164Y010718D01*
X009164Y011308D01*
X008869Y011308D01*
X008770Y011210D01*
X008770Y011111D01*
X008869Y011013D01*
X009406Y010718D02*
X009701Y010914D01*
X007875Y010914D02*
X007579Y010914D01*
X007481Y011013D01*
X007481Y011210D01*
X007579Y011308D01*
X007875Y011308D01*
X007875Y010718D01*
X007678Y010914D02*
X007481Y010718D01*
X007230Y010816D02*
X007132Y010718D01*
X006935Y010718D01*
X006836Y010816D01*
X006836Y011210D01*
X006935Y011308D01*
X007132Y011308D01*
X007230Y011210D01*
X007230Y010816D01*
X006586Y010718D02*
X006586Y011308D01*
X006389Y011111D01*
X006192Y011308D01*
X006192Y010718D01*
X013175Y011013D02*
X013568Y011013D01*
X013676Y011768D02*
X013380Y011768D01*
X013282Y011866D01*
X013282Y011964D01*
X013380Y012063D01*
X013676Y012063D01*
X013918Y012161D02*
X014213Y011964D01*
X013918Y011768D01*
X013676Y011768D02*
X013676Y012358D01*
X013380Y012358D01*
X013282Y012260D01*
X013282Y012161D01*
X013380Y012063D01*
X014213Y011768D02*
X014213Y012358D01*
X015108Y012063D02*
X015502Y012063D01*
X015207Y012358D01*
X015207Y011768D01*
X015207Y011308D02*
X015403Y011308D01*
X015502Y011210D01*
X015207Y011308D02*
X015108Y011210D01*
X015108Y011111D01*
X015502Y010718D01*
X015108Y010718D01*
X014857Y010816D02*
X014857Y010914D01*
X014759Y011013D01*
X014562Y011013D01*
X014464Y010914D01*
X014464Y010816D01*
X014562Y010718D01*
X014759Y010718D01*
X014857Y010816D01*
X014759Y011013D02*
X014857Y011111D01*
X014857Y011210D01*
X014759Y011308D01*
X014562Y011308D01*
X014464Y011210D01*
X014464Y011111D01*
X014562Y011013D01*
X015753Y010718D02*
X016146Y010718D01*
X015950Y010718D02*
X015950Y011308D01*
X016146Y011111D01*
X016048Y011768D02*
X015851Y011768D01*
X015753Y011866D01*
X015753Y011964D01*
X015851Y012063D01*
X016146Y012063D01*
X016146Y011866D01*
X016048Y011768D01*
X016146Y012063D02*
X015950Y012260D01*
X015753Y012358D01*
X017042Y012063D02*
X017436Y012063D01*
X018331Y012063D02*
X018331Y011768D01*
X018331Y012063D02*
X018429Y012161D01*
X018725Y012161D01*
X018725Y011768D01*
X018957Y011768D02*
X019154Y011768D01*
X019056Y011768D02*
X019056Y012161D01*
X019154Y012161D01*
X019056Y012358D02*
X019056Y012456D01*
X019405Y012063D02*
X019405Y011866D01*
X019504Y011768D01*
X019799Y011768D01*
X019799Y011571D02*
X019799Y012161D01*
X019504Y012161D01*
X019405Y012063D01*
X019056Y011406D02*
X019056Y011308D01*
X019056Y011111D02*
X019056Y010718D01*
X019154Y010718D02*
X018957Y010718D01*
X018725Y010718D02*
X018725Y011111D01*
X018429Y011111D01*
X018331Y011013D01*
X018331Y010718D01*
X019056Y011111D02*
X019154Y011111D01*
X019405Y011013D02*
X019405Y010816D01*
X019504Y010718D01*
X019799Y010718D01*
X019799Y010521D02*
X019799Y011111D01*
X019504Y011111D01*
X019405Y011013D01*
X020694Y011111D02*
X020694Y011210D01*
X020793Y011308D01*
X020990Y011308D01*
X021088Y011210D01*
X021339Y011210D02*
X021339Y011111D01*
X021437Y011013D01*
X021339Y010914D01*
X021339Y010816D01*
X021437Y010718D01*
X021634Y010718D01*
X021733Y010816D01*
X021536Y011013D02*
X021437Y011013D01*
X021339Y011210D02*
X021437Y011308D01*
X021634Y011308D01*
X021733Y011210D01*
X021733Y011768D02*
X021339Y011768D01*
X021088Y011866D02*
X021088Y011964D01*
X020990Y012063D01*
X020793Y012063D01*
X020694Y011964D01*
X020694Y011866D01*
X020793Y011768D01*
X020990Y011768D01*
X021088Y011866D01*
X020990Y012063D02*
X021088Y012161D01*
X021088Y012260D01*
X020990Y012358D01*
X020793Y012358D01*
X020694Y012260D01*
X020694Y012161D01*
X020793Y012063D01*
X021339Y012161D02*
X021339Y012260D01*
X021437Y012358D01*
X021634Y012358D01*
X021733Y012260D01*
X021339Y012161D02*
X021733Y011768D01*
X020694Y011111D02*
X021088Y010718D01*
X020694Y010718D01*
X017436Y011013D02*
X017042Y011013D01*
D14*
X009550Y016800D02*
X009550Y017400D01*
X009548Y017417D01*
X009544Y017434D01*
X009537Y017450D01*
X009527Y017464D01*
X009514Y017477D01*
X009500Y017487D01*
X009484Y017494D01*
X009467Y017498D01*
X009450Y017500D01*
X007750Y017500D01*
X007733Y017498D01*
X007716Y017494D01*
X007700Y017487D01*
X007686Y017477D01*
X007673Y017464D01*
X007663Y017450D01*
X007656Y017434D01*
X007652Y017417D01*
X007650Y017400D01*
X007650Y016800D01*
X007652Y016783D01*
X007656Y016766D01*
X007663Y016750D01*
X007673Y016736D01*
X007686Y016723D01*
X007700Y016713D01*
X007716Y016706D01*
X007733Y016702D01*
X007750Y016700D01*
X009450Y016700D01*
X009467Y016702D01*
X009484Y016706D01*
X009500Y016713D01*
X009514Y016723D01*
X009527Y016736D01*
X009537Y016750D01*
X009544Y016766D01*
X009548Y016783D01*
X009550Y016800D01*
D15*
X009366Y017613D02*
X009179Y017613D01*
X009272Y017613D02*
X009272Y017893D01*
X009366Y017799D01*
X008776Y017846D02*
X008730Y017893D01*
X008636Y017893D01*
X008590Y017846D01*
X008590Y017799D01*
X008776Y017613D01*
X008590Y017613D01*
X008187Y017659D02*
X008140Y017613D01*
X008047Y017613D01*
X008000Y017659D01*
X008000Y017706D01*
X008047Y017753D01*
X008094Y017753D01*
X008047Y017753D02*
X008000Y017799D01*
X008000Y017846D01*
X008047Y017893D01*
X008140Y017893D01*
X008187Y017846D01*
M02*
