G75*
%MOIN*%
%OFA0B0*%
%FSLAX24Y24*%
%IPPOS*%
%LPD*%
%AMOC8*
5,1,8,0,0,1.08239X$1,22.5*
%
%ADD10C,0.0000*%
%ADD11C,0.1850*%
%ADD12R,0.2250X0.1688*%
%ADD13C,0.0100*%
%ADD14R,2.3000X0.3500*%
%ADD15OC8,0.0560*%
%ADD16C,0.0480*%
%ADD17R,0.0460X0.0630*%
%ADD18R,0.0748X0.3150*%
D10*
X000100Y000100D02*
X000100Y021998D01*
X023100Y021998D01*
X023100Y000100D01*
X000100Y000100D01*
X010671Y017547D02*
X010673Y017607D01*
X010679Y017668D01*
X010689Y017727D01*
X010703Y017786D01*
X010720Y017844D01*
X010741Y017901D01*
X010766Y017956D01*
X010795Y018009D01*
X010827Y018061D01*
X010862Y018110D01*
X010901Y018157D01*
X010942Y018201D01*
X010986Y018242D01*
X011033Y018281D01*
X011082Y018316D01*
X011133Y018348D01*
X011187Y018377D01*
X011242Y018402D01*
X011299Y018423D01*
X011357Y018440D01*
X011416Y018454D01*
X011475Y018464D01*
X011536Y018470D01*
X011596Y018472D01*
X011656Y018470D01*
X011717Y018464D01*
X011776Y018454D01*
X011835Y018440D01*
X011893Y018423D01*
X011950Y018402D01*
X012005Y018377D01*
X012058Y018348D01*
X012110Y018316D01*
X012159Y018281D01*
X012206Y018242D01*
X012250Y018201D01*
X012291Y018157D01*
X012330Y018110D01*
X012365Y018061D01*
X012397Y018010D01*
X012426Y017956D01*
X012451Y017901D01*
X012472Y017844D01*
X012489Y017786D01*
X012503Y017727D01*
X012513Y017668D01*
X012519Y017607D01*
X012521Y017547D01*
X012519Y017487D01*
X012513Y017426D01*
X012503Y017367D01*
X012489Y017308D01*
X012472Y017250D01*
X012451Y017193D01*
X012426Y017138D01*
X012397Y017085D01*
X012365Y017033D01*
X012330Y016984D01*
X012291Y016937D01*
X012250Y016893D01*
X012206Y016852D01*
X012159Y016813D01*
X012110Y016778D01*
X012059Y016746D01*
X012005Y016717D01*
X011950Y016692D01*
X011893Y016671D01*
X011835Y016654D01*
X011776Y016640D01*
X011717Y016630D01*
X011656Y016624D01*
X011596Y016622D01*
X011536Y016624D01*
X011475Y016630D01*
X011416Y016640D01*
X011357Y016654D01*
X011299Y016671D01*
X011242Y016692D01*
X011187Y016717D01*
X011134Y016746D01*
X011082Y016778D01*
X011033Y016813D01*
X010986Y016852D01*
X010942Y016893D01*
X010901Y016937D01*
X010862Y016984D01*
X010827Y017033D01*
X010795Y017084D01*
X010766Y017138D01*
X010741Y017193D01*
X010720Y017250D01*
X010703Y017308D01*
X010689Y017367D01*
X010679Y017426D01*
X010673Y017487D01*
X010671Y017547D01*
D11*
X011596Y017547D03*
D12*
X002038Y020319D03*
D13*
X004800Y019743D02*
X004800Y019650D01*
X004893Y019650D01*
X004893Y019743D01*
X004800Y019743D01*
X005127Y019743D02*
X005221Y019650D01*
X005407Y019650D01*
X005501Y019743D01*
X005501Y019837D01*
X005407Y019930D01*
X005221Y019930D01*
X005127Y019837D01*
X005127Y019743D01*
X005221Y019930D02*
X005127Y020024D01*
X005127Y020117D01*
X005221Y020210D01*
X005407Y020210D01*
X005501Y020117D01*
X005501Y020024D01*
X005407Y019930D01*
X005735Y019650D02*
X006108Y019650D01*
X005922Y019650D02*
X005922Y020210D01*
X006108Y020024D01*
X006343Y020117D02*
X006343Y019743D01*
X006436Y019650D01*
X006623Y019650D01*
X006716Y019743D01*
X006343Y020117D01*
X006436Y020210D01*
X006623Y020210D01*
X006716Y020117D01*
X006716Y019743D01*
X006950Y019650D02*
X007324Y019650D01*
X006950Y020024D01*
X006950Y020117D01*
X007044Y020210D01*
X007230Y020210D01*
X007324Y020117D01*
X007534Y019743D02*
X007534Y019650D01*
X007628Y019650D01*
X007628Y019743D01*
X007534Y019743D01*
X007862Y019930D02*
X008235Y019930D01*
X007955Y020210D01*
X007955Y019650D01*
X008470Y019743D02*
X008563Y019650D01*
X008750Y019650D01*
X008843Y019743D01*
X008470Y020117D01*
X008470Y019743D01*
X008843Y019743D02*
X008843Y020117D01*
X008750Y020210D01*
X008563Y020210D01*
X008470Y020117D01*
X008462Y020640D02*
X008368Y020733D01*
X008368Y020920D01*
X008462Y021014D01*
X008649Y021014D01*
X008742Y020920D01*
X008742Y020733D01*
X008649Y020640D01*
X008462Y020640D01*
X008134Y020640D02*
X008134Y020733D01*
X007761Y021107D01*
X007761Y021200D01*
X008134Y021200D01*
X007526Y020920D02*
X007526Y020733D01*
X007433Y020640D01*
X007246Y020640D01*
X007153Y020733D01*
X007153Y020827D01*
X007246Y020920D01*
X007526Y020920D01*
X007340Y021107D01*
X007153Y021200D01*
X006919Y021014D02*
X006732Y021200D01*
X006732Y020640D01*
X006919Y020640D02*
X006545Y020640D01*
X008960Y020640D02*
X009147Y020640D01*
X009054Y020640D02*
X009054Y021200D01*
X009147Y021200D01*
X009381Y020920D02*
X009475Y021014D01*
X009661Y021014D01*
X009755Y020920D01*
X009755Y020733D01*
X009661Y020640D01*
X009475Y020640D01*
X009381Y020733D01*
X009381Y020920D01*
X009989Y020827D02*
X009989Y020733D01*
X010082Y020640D01*
X010269Y020640D01*
X010363Y020733D01*
X010269Y020920D02*
X010082Y020920D01*
X009989Y020827D01*
X009989Y021107D02*
X010082Y021200D01*
X010269Y021200D01*
X010363Y021107D01*
X010363Y021014D01*
X010269Y020920D01*
X010176Y020210D02*
X010176Y019650D01*
X010363Y019650D02*
X009989Y019650D01*
X009755Y019743D02*
X009755Y019837D01*
X009661Y019930D01*
X009475Y019930D01*
X009381Y019837D01*
X009381Y019743D01*
X009475Y019650D01*
X009661Y019650D01*
X009755Y019743D01*
X009661Y019930D02*
X009755Y020024D01*
X009755Y020117D01*
X009661Y020210D01*
X009475Y020210D01*
X009381Y020117D01*
X009381Y020024D01*
X009475Y019930D01*
X009147Y019743D02*
X009054Y019743D01*
X009054Y019650D01*
X009147Y019650D01*
X009147Y019743D01*
X010176Y020210D02*
X010363Y020024D01*
D14*
X011600Y001850D03*
D15*
X007850Y006100D03*
X003850Y006100D03*
X004225Y015600D03*
X002225Y015600D03*
D16*
X001965Y013600D02*
X001485Y013600D01*
X001485Y012600D02*
X001965Y012600D01*
X001965Y011600D02*
X001485Y011600D01*
X001485Y010600D02*
X001965Y010600D01*
X001965Y009600D02*
X001485Y009600D01*
X001485Y008600D02*
X001965Y008600D01*
X001965Y007600D02*
X001485Y007600D01*
X004485Y007600D02*
X004965Y007600D01*
X004965Y008600D02*
X004485Y008600D01*
X004485Y009600D02*
X004965Y009600D01*
X004965Y010600D02*
X004485Y010600D01*
X004485Y011600D02*
X004965Y011600D01*
X004965Y012600D02*
X004485Y012600D01*
X004485Y013600D02*
X004965Y013600D01*
X006600Y013360D02*
X006600Y013840D01*
X007600Y013840D02*
X007600Y013360D01*
X008600Y013360D02*
X008600Y013840D01*
X009600Y013840D02*
X009600Y013360D01*
X010600Y013360D02*
X010600Y013840D01*
X011600Y013840D02*
X011600Y013360D01*
X012600Y013360D02*
X012600Y013840D01*
X013600Y013840D02*
X013600Y013360D01*
X014600Y013360D02*
X014600Y013840D01*
X015600Y013840D02*
X015600Y013360D01*
X016600Y013360D02*
X016600Y013840D01*
X017600Y013840D02*
X017600Y013360D01*
X018600Y013360D02*
X018600Y013840D01*
X019600Y013840D02*
X019600Y013360D01*
X020600Y013360D02*
X020600Y013840D01*
X021600Y013840D02*
X021600Y013360D01*
X021600Y016235D02*
X021600Y016715D01*
X020600Y016715D02*
X020600Y016235D01*
X019600Y016235D02*
X019600Y016715D01*
X018600Y016715D02*
X018600Y016235D01*
X017600Y016235D02*
X017600Y016715D01*
X016600Y016715D02*
X016600Y016235D01*
X015600Y016235D02*
X015600Y016715D01*
X014600Y016715D02*
X014600Y016235D01*
X014600Y019235D02*
X014600Y019715D01*
X015600Y019715D02*
X015600Y019235D01*
X016600Y019235D02*
X016600Y019715D01*
X017600Y019715D02*
X017600Y019235D01*
X018600Y019235D02*
X018600Y019715D01*
X019600Y019715D02*
X019600Y019235D01*
X020600Y019235D02*
X020600Y019715D01*
X021600Y019715D02*
X021600Y019235D01*
X021600Y007840D02*
X021600Y007360D01*
X020600Y007360D02*
X020600Y007840D01*
X019600Y007840D02*
X019600Y007360D01*
X018600Y007360D02*
X018600Y007840D01*
X017600Y007840D02*
X017600Y007360D01*
X016600Y007360D02*
X016600Y007840D01*
X015600Y007840D02*
X015600Y007360D01*
X014600Y007360D02*
X014600Y007840D01*
X013600Y007840D02*
X013600Y007360D01*
X012600Y007360D02*
X012600Y007840D01*
X011600Y007840D02*
X011600Y007360D01*
X010600Y007360D02*
X010600Y007840D01*
X009600Y007840D02*
X009600Y007360D01*
X008600Y007360D02*
X008600Y007840D01*
X007600Y007840D02*
X007600Y007360D01*
X006600Y007360D02*
X006600Y007840D01*
D17*
X008000Y017100D03*
X008600Y017100D03*
X009200Y017100D03*
D18*
X009100Y001913D03*
X010100Y001913D03*
X011100Y001913D03*
X012100Y001913D03*
X013100Y001913D03*
X014100Y001913D03*
X015100Y001913D03*
X016100Y001913D03*
X017100Y001913D03*
X018100Y001913D03*
X019100Y001913D03*
X020100Y001913D03*
X021100Y001913D03*
X022100Y001913D03*
X008100Y001913D03*
X007100Y001913D03*
X006100Y001913D03*
X005100Y001913D03*
X004100Y001913D03*
X003100Y001913D03*
X002100Y001913D03*
X001100Y001913D03*
M02*
